G04 #@! TF.GenerationSoftware,KiCad,Pcbnew,(5.1.5)-3*
G04 #@! TF.CreationDate,2023-05-28T15:04:11-04:00*
G04 #@! TF.ProjectId,Controlador-temperatura,436f6e74-726f-46c6-9164-6f722d74656d,rev?*
G04 #@! TF.SameCoordinates,Original*
G04 #@! TF.FileFunction,Legend,Top*
G04 #@! TF.FilePolarity,Positive*
%FSLAX46Y46*%
G04 Gerber Fmt 4.6, Leading zero omitted, Abs format (unit mm)*
G04 Created by KiCad (PCBNEW (5.1.5)-3) date 2023-05-28 15:04:11*
%MOMM*%
%LPD*%
G04 APERTURE LIST*
%ADD10C,0.120000*%
%ADD11C,0.010000*%
%ADD12C,0.150000*%
G04 APERTURE END LIST*
D10*
X48230000Y85040000D02*
X35490000Y85040000D01*
X35490000Y85040000D02*
X35490000Y69800000D01*
X48230000Y69800000D02*
X35490000Y69800000D01*
X48230000Y85040000D02*
X48230000Y69800000D01*
X48230000Y85040000D02*
X35490000Y85040000D01*
X35490000Y85040000D02*
X35490000Y69800000D01*
X48230000Y69800000D02*
X35490000Y69800000D01*
X48230000Y85040000D02*
X48230000Y69800000D01*
X48610000Y85420000D02*
X48610000Y82420000D01*
X45610000Y85420000D02*
X48610000Y85420000D01*
X93821500Y84271300D02*
X93321500Y84271300D01*
X93571500Y84521300D02*
X93571500Y84021300D01*
X90815937Y83781300D02*
X89751500Y82716863D01*
X93207063Y83781300D02*
X94271500Y82716863D01*
X93207063Y83781300D02*
X93071500Y83781300D01*
X90815937Y83781300D02*
X90951500Y83781300D01*
X89751500Y82716863D02*
X89751500Y79261300D01*
X94271500Y82716863D02*
X94271500Y79261300D01*
X94271500Y79261300D02*
X93071500Y79261300D01*
X89751500Y79261300D02*
X90951500Y79261300D01*
D11*
G36*
X123375671Y70267556D02*
G01*
X123480308Y70259990D01*
X123549852Y70242001D01*
X123592141Y70209191D01*
X123615017Y70157157D01*
X123626318Y70081502D01*
X123629335Y70043914D01*
X123640605Y69888100D01*
X123510552Y69888100D01*
X123434227Y69889661D01*
X123395746Y69899401D01*
X123382156Y69924911D01*
X123380500Y69964300D01*
X123380500Y70040500D01*
X123226412Y70040500D01*
X123141592Y70039524D01*
X123096291Y70033005D01*
X123079230Y70015560D01*
X123079130Y69981807D01*
X123080362Y69970800D01*
X123090326Y69935703D01*
X123116760Y69901919D01*
X123167594Y69863010D01*
X123250755Y69812536D01*
X123329309Y69768601D01*
X123431809Y69709827D01*
X123519533Y69655097D01*
X123581463Y69611542D01*
X123604243Y69590651D01*
X123623726Y69538762D01*
X123631453Y69447515D01*
X123629743Y69346090D01*
X123623499Y69243116D01*
X123609882Y69170233D01*
X123581187Y69122244D01*
X123529705Y69093954D01*
X123447729Y69080167D01*
X123327552Y69075685D01*
X123228100Y69075300D01*
X123079431Y69077652D01*
X122975368Y69085116D01*
X122909915Y69098303D01*
X122885104Y69110330D01*
X122855858Y69146012D01*
X122837537Y69208477D01*
X122826753Y69309462D01*
X122826490Y69313530D01*
X122815782Y69481700D01*
X123101100Y69481700D01*
X123101100Y69303900D01*
X123383718Y69303900D01*
X123375759Y69385889D01*
X123368622Y69423795D01*
X123350246Y69456480D01*
X123312713Y69490792D01*
X123248106Y69533584D01*
X123148511Y69591705D01*
X123117833Y69609085D01*
X123014800Y69669984D01*
X122927464Y69726624D01*
X122866070Y69772047D01*
X122842064Y69796400D01*
X122830422Y69844186D01*
X122824776Y69924984D01*
X122826317Y70020473D01*
X122833865Y70115318D01*
X122849221Y70182366D01*
X122880161Y70226428D01*
X122934460Y70252316D01*
X123019895Y70264842D01*
X123144241Y70268816D01*
X123228100Y70269100D01*
X123375671Y70267556D01*
G37*
X123375671Y70267556D02*
X123480308Y70259990D01*
X123549852Y70242001D01*
X123592141Y70209191D01*
X123615017Y70157157D01*
X123626318Y70081502D01*
X123629335Y70043914D01*
X123640605Y69888100D01*
X123510552Y69888100D01*
X123434227Y69889661D01*
X123395746Y69899401D01*
X123382156Y69924911D01*
X123380500Y69964300D01*
X123380500Y70040500D01*
X123226412Y70040500D01*
X123141592Y70039524D01*
X123096291Y70033005D01*
X123079230Y70015560D01*
X123079130Y69981807D01*
X123080362Y69970800D01*
X123090326Y69935703D01*
X123116760Y69901919D01*
X123167594Y69863010D01*
X123250755Y69812536D01*
X123329309Y69768601D01*
X123431809Y69709827D01*
X123519533Y69655097D01*
X123581463Y69611542D01*
X123604243Y69590651D01*
X123623726Y69538762D01*
X123631453Y69447515D01*
X123629743Y69346090D01*
X123623499Y69243116D01*
X123609882Y69170233D01*
X123581187Y69122244D01*
X123529705Y69093954D01*
X123447729Y69080167D01*
X123327552Y69075685D01*
X123228100Y69075300D01*
X123079431Y69077652D01*
X122975368Y69085116D01*
X122909915Y69098303D01*
X122885104Y69110330D01*
X122855858Y69146012D01*
X122837537Y69208477D01*
X122826753Y69309462D01*
X122826490Y69313530D01*
X122815782Y69481700D01*
X123101100Y69481700D01*
X123101100Y69303900D01*
X123383718Y69303900D01*
X123375759Y69385889D01*
X123368622Y69423795D01*
X123350246Y69456480D01*
X123312713Y69490792D01*
X123248106Y69533584D01*
X123148511Y69591705D01*
X123117833Y69609085D01*
X123014800Y69669984D01*
X122927464Y69726624D01*
X122866070Y69772047D01*
X122842064Y69796400D01*
X122830422Y69844186D01*
X122824776Y69924984D01*
X122826317Y70020473D01*
X122833865Y70115318D01*
X122849221Y70182366D01*
X122880161Y70226428D01*
X122934460Y70252316D01*
X123019895Y70264842D01*
X123144241Y70268816D01*
X123228100Y70269100D01*
X123375671Y70267556D01*
G36*
X121780300Y69075300D02*
G01*
X121640600Y69075300D01*
X121553654Y69079414D01*
X121509801Y69092936D01*
X121500900Y69110066D01*
X121493623Y69128010D01*
X121464626Y69131785D01*
X121403159Y69121419D01*
X121354850Y69110463D01*
X121254335Y69088786D01*
X121184743Y69080349D01*
X121128281Y69083980D01*
X121087804Y69092876D01*
X121048033Y69111216D01*
X121017751Y69146786D01*
X120995788Y69205548D01*
X120980973Y69293461D01*
X120972135Y69416487D01*
X120968296Y69572660D01*
X121250702Y69572660D01*
X121251043Y69463445D01*
X121253309Y69382050D01*
X121257338Y69339229D01*
X121258006Y69336994D01*
X121284654Y69309249D01*
X121338491Y69308422D01*
X121420909Y69331785D01*
X121500900Y69359670D01*
X121500900Y70043284D01*
X121259600Y70027800D01*
X121252453Y69698944D01*
X121250702Y69572660D01*
X120968296Y69572660D01*
X120968101Y69580586D01*
X120967500Y69705102D01*
X120967789Y69884062D01*
X120971134Y70018756D01*
X120981253Y70115714D01*
X121001863Y70181467D01*
X121036679Y70222545D01*
X121089420Y70245477D01*
X121163801Y70256794D01*
X121263540Y70263026D01*
X121285723Y70264177D01*
X121500900Y70275471D01*
X121500900Y70929500D01*
X121780300Y70929500D01*
X121780300Y69075300D01*
G37*
X121780300Y69075300D02*
X121640600Y69075300D01*
X121553654Y69079414D01*
X121509801Y69092936D01*
X121500900Y69110066D01*
X121493623Y69128010D01*
X121464626Y69131785D01*
X121403159Y69121419D01*
X121354850Y69110463D01*
X121254335Y69088786D01*
X121184743Y69080349D01*
X121128281Y69083980D01*
X121087804Y69092876D01*
X121048033Y69111216D01*
X121017751Y69146786D01*
X120995788Y69205548D01*
X120980973Y69293461D01*
X120972135Y69416487D01*
X120968296Y69572660D01*
X121250702Y69572660D01*
X121251043Y69463445D01*
X121253309Y69382050D01*
X121257338Y69339229D01*
X121258006Y69336994D01*
X121284654Y69309249D01*
X121338491Y69308422D01*
X121420909Y69331785D01*
X121500900Y69359670D01*
X121500900Y70043284D01*
X121259600Y70027800D01*
X121252453Y69698944D01*
X121250702Y69572660D01*
X120968296Y69572660D01*
X120968101Y69580586D01*
X120967500Y69705102D01*
X120967789Y69884062D01*
X120971134Y70018756D01*
X120981253Y70115714D01*
X121001863Y70181467D01*
X121036679Y70222545D01*
X121089420Y70245477D01*
X121163801Y70256794D01*
X121263540Y70263026D01*
X121285723Y70264177D01*
X121500900Y70275471D01*
X121500900Y70929500D01*
X121780300Y70929500D01*
X121780300Y69075300D01*
G36*
X120353045Y70269100D02*
G01*
X120502611Y70268166D01*
X120609020Y70261397D01*
X120679914Y70242847D01*
X120722936Y70206569D01*
X120745727Y70146618D01*
X120755931Y70057046D01*
X120760455Y69952093D01*
X120763168Y69814431D01*
X120754930Y69719499D01*
X120728710Y69659379D01*
X120677479Y69626155D01*
X120594207Y69611906D01*
X120471863Y69608716D01*
X120455563Y69608700D01*
X120230900Y69608700D01*
X120230900Y69303900D01*
X120510300Y69303900D01*
X120510300Y69481700D01*
X120770217Y69481700D01*
X120759509Y69313530D01*
X120751435Y69222975D01*
X120735448Y69158841D01*
X120703790Y69116583D01*
X120648705Y69091652D01*
X120562435Y69079504D01*
X120437222Y69075590D01*
X120353045Y69075300D01*
X120222447Y69076186D01*
X120132578Y69079814D01*
X120073384Y69087641D01*
X120034812Y69101123D01*
X120006806Y69121715D01*
X120002300Y69126100D01*
X119984751Y69146787D01*
X119971773Y69173625D01*
X119962680Y69213958D01*
X119956790Y69275135D01*
X119953419Y69364502D01*
X119951884Y69489404D01*
X119951501Y69657189D01*
X119951500Y69672200D01*
X119951354Y69861304D01*
X119953618Y70005657D01*
X119956496Y70040500D01*
X120230900Y70040500D01*
X120230900Y69761100D01*
X120484900Y69761100D01*
X120484900Y70040500D01*
X120230900Y70040500D01*
X119956496Y70040500D01*
X119962344Y70111285D01*
X119981584Y70184211D01*
X120015391Y70230458D01*
X120067817Y70256051D01*
X120142915Y70267012D01*
X120244736Y70269367D01*
X120353045Y70269100D01*
G37*
X120353045Y70269100D02*
X120502611Y70268166D01*
X120609020Y70261397D01*
X120679914Y70242847D01*
X120722936Y70206569D01*
X120745727Y70146618D01*
X120755931Y70057046D01*
X120760455Y69952093D01*
X120763168Y69814431D01*
X120754930Y69719499D01*
X120728710Y69659379D01*
X120677479Y69626155D01*
X120594207Y69611906D01*
X120471863Y69608716D01*
X120455563Y69608700D01*
X120230900Y69608700D01*
X120230900Y69303900D01*
X120510300Y69303900D01*
X120510300Y69481700D01*
X120770217Y69481700D01*
X120759509Y69313530D01*
X120751435Y69222975D01*
X120735448Y69158841D01*
X120703790Y69116583D01*
X120648705Y69091652D01*
X120562435Y69079504D01*
X120437222Y69075590D01*
X120353045Y69075300D01*
X120222447Y69076186D01*
X120132578Y69079814D01*
X120073384Y69087641D01*
X120034812Y69101123D01*
X120006806Y69121715D01*
X120002300Y69126100D01*
X119984751Y69146787D01*
X119971773Y69173625D01*
X119962680Y69213958D01*
X119956790Y69275135D01*
X119953419Y69364502D01*
X119951884Y69489404D01*
X119951501Y69657189D01*
X119951500Y69672200D01*
X119951354Y69861304D01*
X119953618Y70005657D01*
X119956496Y70040500D01*
X120230900Y70040500D01*
X120230900Y69761100D01*
X120484900Y69761100D01*
X120484900Y70040500D01*
X120230900Y70040500D01*
X119956496Y70040500D01*
X119962344Y70111285D01*
X119981584Y70184211D01*
X120015391Y70230458D01*
X120067817Y70256051D01*
X120142915Y70267012D01*
X120244736Y70269367D01*
X120353045Y70269100D01*
G36*
X119707565Y70262260D02*
G01*
X119733673Y70241770D01*
X119751109Y70221139D01*
X119777113Y70177204D01*
X119792047Y70116420D01*
X119798383Y70025414D01*
X119799100Y69961487D01*
X119799100Y69761100D01*
X119519700Y69761100D01*
X119519700Y69902512D01*
X119518329Y69982530D01*
X119510912Y70022596D01*
X119492497Y70033545D01*
X119462550Y70027497D01*
X119396261Y70008608D01*
X119360950Y69998673D01*
X119345014Y69990097D01*
X119333386Y69969908D01*
X119325399Y69931097D01*
X119320387Y69866652D01*
X119317684Y69769563D01*
X119316624Y69632822D01*
X119316500Y69530789D01*
X119316500Y69075300D01*
X119037100Y69075300D01*
X119037100Y70269100D01*
X119174683Y70269100D01*
X119252475Y70264646D01*
X119306254Y70253185D01*
X119321051Y70242747D01*
X119349336Y70231149D01*
X119422717Y70234576D01*
X119516477Y70248399D01*
X119612345Y70264020D01*
X119671581Y70269159D01*
X119707565Y70262260D01*
G37*
X119707565Y70262260D02*
X119733673Y70241770D01*
X119751109Y70221139D01*
X119777113Y70177204D01*
X119792047Y70116420D01*
X119798383Y70025414D01*
X119799100Y69961487D01*
X119799100Y69761100D01*
X119519700Y69761100D01*
X119519700Y69902512D01*
X119518329Y69982530D01*
X119510912Y70022596D01*
X119492497Y70033545D01*
X119462550Y70027497D01*
X119396261Y70008608D01*
X119360950Y69998673D01*
X119345014Y69990097D01*
X119333386Y69969908D01*
X119325399Y69931097D01*
X119320387Y69866652D01*
X119317684Y69769563D01*
X119316624Y69632822D01*
X119316500Y69530789D01*
X119316500Y69075300D01*
X119037100Y69075300D01*
X119037100Y70269100D01*
X119174683Y70269100D01*
X119252475Y70264646D01*
X119306254Y70253185D01*
X119321051Y70242747D01*
X119349336Y70231149D01*
X119422717Y70234576D01*
X119516477Y70248399D01*
X119612345Y70264020D01*
X119671581Y70269159D01*
X119707565Y70262260D01*
G36*
X118935500Y70675500D02*
G01*
X118452900Y70675500D01*
X118452900Y70142100D01*
X118859300Y70142100D01*
X118859300Y69888100D01*
X118452900Y69888100D01*
X118452900Y69075300D01*
X118173500Y69075300D01*
X118173500Y70929500D01*
X118935500Y70929500D01*
X118935500Y70675500D01*
G37*
X118935500Y70675500D02*
X118452900Y70675500D01*
X118452900Y70142100D01*
X118859300Y70142100D01*
X118859300Y69888100D01*
X118452900Y69888100D01*
X118452900Y69075300D01*
X118173500Y69075300D01*
X118173500Y70929500D01*
X118935500Y70929500D01*
X118935500Y70675500D01*
G36*
X117970300Y69075300D02*
G01*
X117690900Y69075300D01*
X117690900Y69380100D01*
X117970300Y69380100D01*
X117970300Y69075300D01*
G37*
X117970300Y69075300D02*
X117690900Y69075300D01*
X117690900Y69380100D01*
X117970300Y69380100D01*
X117970300Y69075300D01*
G36*
X116954300Y70212793D02*
G01*
X117011450Y70227010D01*
X117066218Y70236972D01*
X117151745Y70248714D01*
X117236413Y70258299D01*
X117314974Y70265065D01*
X117375175Y70263535D01*
X117419460Y70247993D01*
X117450270Y70212725D01*
X117470051Y70152013D01*
X117481245Y70060143D01*
X117486296Y69931399D01*
X117487648Y69760066D01*
X117487700Y69670486D01*
X117488052Y69484429D01*
X117485892Y69342920D01*
X117476396Y69239758D01*
X117454736Y69168744D01*
X117416089Y69123679D01*
X117355629Y69098362D01*
X117268530Y69086593D01*
X117149967Y69082173D01*
X117027915Y69079731D01*
X116674900Y69071461D01*
X116674900Y69774200D01*
X116954097Y69774200D01*
X116954300Y69643697D01*
X116954300Y69301117D01*
X117074950Y69308859D01*
X117195600Y69316600D01*
X117202660Y69680725D01*
X117209721Y70044849D01*
X117126460Y70028078D01*
X117057956Y70014664D01*
X117010460Y70001072D01*
X116980150Y69978766D01*
X116963201Y69939209D01*
X116955791Y69873866D01*
X116954097Y69774200D01*
X116674900Y69774200D01*
X116674900Y70929500D01*
X116954300Y70929500D01*
X116954300Y70212793D01*
G37*
X116954300Y70212793D02*
X117011450Y70227010D01*
X117066218Y70236972D01*
X117151745Y70248714D01*
X117236413Y70258299D01*
X117314974Y70265065D01*
X117375175Y70263535D01*
X117419460Y70247993D01*
X117450270Y70212725D01*
X117470051Y70152013D01*
X117481245Y70060143D01*
X117486296Y69931399D01*
X117487648Y69760066D01*
X117487700Y69670486D01*
X117488052Y69484429D01*
X117485892Y69342920D01*
X117476396Y69239758D01*
X117454736Y69168744D01*
X117416089Y69123679D01*
X117355629Y69098362D01*
X117268530Y69086593D01*
X117149967Y69082173D01*
X117027915Y69079731D01*
X116674900Y69071461D01*
X116674900Y69774200D01*
X116954097Y69774200D01*
X116954300Y69643697D01*
X116954300Y69301117D01*
X117074950Y69308859D01*
X117195600Y69316600D01*
X117202660Y69680725D01*
X117209721Y70044849D01*
X117126460Y70028078D01*
X117057956Y70014664D01*
X117010460Y70001072D01*
X116980150Y69978766D01*
X116963201Y69939209D01*
X116955791Y69873866D01*
X116954097Y69774200D01*
X116674900Y69774200D01*
X116674900Y70929500D01*
X116954300Y70929500D01*
X116954300Y70212793D01*
G36*
X115461353Y70924478D02*
G01*
X115594007Y70916800D01*
X115691470Y70586600D01*
X115733235Y70445041D01*
X115775211Y70302657D01*
X115812558Y70175877D01*
X115840435Y70081128D01*
X115840773Y70079977D01*
X115872478Y69984138D01*
X115896614Y69938293D01*
X115912341Y69940277D01*
X115925227Y69975275D01*
X115949414Y70050966D01*
X115982407Y70159153D01*
X116021710Y70291638D01*
X116064825Y70440226D01*
X116068534Y70453155D01*
X116205000Y70929310D01*
X116471700Y70929500D01*
X116471700Y69075300D01*
X116193373Y69075300D01*
X116186486Y69576950D01*
X116179600Y70078600D01*
X116076577Y69672200D01*
X116038391Y69522396D01*
X116009658Y69414838D01*
X115987354Y69342527D01*
X115968455Y69298466D01*
X115949934Y69275656D01*
X115928769Y69267100D01*
X115901934Y69265801D01*
X115900921Y69265800D01*
X115873786Y69267006D01*
X115852415Y69275295D01*
X115833751Y69297675D01*
X115814735Y69341157D01*
X115792310Y69412749D01*
X115763418Y69519460D01*
X115725001Y69668298D01*
X115724543Y69670081D01*
X115620800Y70074362D01*
X115607026Y69075300D01*
X115328700Y69075300D01*
X115328700Y70932155D01*
X115461353Y70924478D01*
G37*
X115461353Y70924478D02*
X115594007Y70916800D01*
X115691470Y70586600D01*
X115733235Y70445041D01*
X115775211Y70302657D01*
X115812558Y70175877D01*
X115840435Y70081128D01*
X115840773Y70079977D01*
X115872478Y69984138D01*
X115896614Y69938293D01*
X115912341Y69940277D01*
X115925227Y69975275D01*
X115949414Y70050966D01*
X115982407Y70159153D01*
X116021710Y70291638D01*
X116064825Y70440226D01*
X116068534Y70453155D01*
X116205000Y70929310D01*
X116471700Y70929500D01*
X116471700Y69075300D01*
X116193373Y69075300D01*
X116186486Y69576950D01*
X116179600Y70078600D01*
X116076577Y69672200D01*
X116038391Y69522396D01*
X116009658Y69414838D01*
X115987354Y69342527D01*
X115968455Y69298466D01*
X115949934Y69275656D01*
X115928769Y69267100D01*
X115901934Y69265801D01*
X115900921Y69265800D01*
X115873786Y69267006D01*
X115852415Y69275295D01*
X115833751Y69297675D01*
X115814735Y69341157D01*
X115792310Y69412749D01*
X115763418Y69519460D01*
X115725001Y69668298D01*
X115724543Y69670081D01*
X115620800Y70074362D01*
X115607026Y69075300D01*
X115328700Y69075300D01*
X115328700Y70932155D01*
X115461353Y70924478D01*
G36*
X113245900Y70212793D02*
G01*
X113303050Y70227010D01*
X113357818Y70236972D01*
X113443345Y70248714D01*
X113528013Y70258299D01*
X113606574Y70265065D01*
X113666775Y70263535D01*
X113711060Y70247993D01*
X113741870Y70212725D01*
X113761651Y70152013D01*
X113772845Y70060143D01*
X113777896Y69931399D01*
X113779248Y69760066D01*
X113779300Y69670486D01*
X113779652Y69484429D01*
X113777492Y69342920D01*
X113767996Y69239758D01*
X113746336Y69168744D01*
X113707689Y69123679D01*
X113647229Y69098362D01*
X113560130Y69086593D01*
X113441567Y69082173D01*
X113319515Y69079731D01*
X112966500Y69071461D01*
X112966500Y69774200D01*
X113245697Y69774200D01*
X113245900Y69643697D01*
X113245900Y69301117D01*
X113366550Y69308859D01*
X113487200Y69316600D01*
X113494260Y69680725D01*
X113501321Y70044849D01*
X113418060Y70028078D01*
X113349556Y70014664D01*
X113302060Y70001072D01*
X113271750Y69978766D01*
X113254801Y69939209D01*
X113247391Y69873866D01*
X113245697Y69774200D01*
X112966500Y69774200D01*
X112966500Y70929500D01*
X113245900Y70929500D01*
X113245900Y70212793D01*
G37*
X113245900Y70212793D02*
X113303050Y70227010D01*
X113357818Y70236972D01*
X113443345Y70248714D01*
X113528013Y70258299D01*
X113606574Y70265065D01*
X113666775Y70263535D01*
X113711060Y70247993D01*
X113741870Y70212725D01*
X113761651Y70152013D01*
X113772845Y70060143D01*
X113777896Y69931399D01*
X113779248Y69760066D01*
X113779300Y69670486D01*
X113779652Y69484429D01*
X113777492Y69342920D01*
X113767996Y69239758D01*
X113746336Y69168744D01*
X113707689Y69123679D01*
X113647229Y69098362D01*
X113560130Y69086593D01*
X113441567Y69082173D01*
X113319515Y69079731D01*
X112966500Y69071461D01*
X112966500Y69774200D01*
X113245697Y69774200D01*
X113245900Y69643697D01*
X113245900Y69301117D01*
X113366550Y69308859D01*
X113487200Y69316600D01*
X113494260Y69680725D01*
X113501321Y70044849D01*
X113418060Y70028078D01*
X113349556Y70014664D01*
X113302060Y70001072D01*
X113271750Y69978766D01*
X113254801Y69939209D01*
X113247391Y69873866D01*
X113245697Y69774200D01*
X112966500Y69774200D01*
X112966500Y70929500D01*
X113245900Y70929500D01*
X113245900Y70212793D01*
G36*
X122235050Y69881750D02*
G01*
X122255362Y69747935D01*
X122273489Y69633180D01*
X122287985Y69546272D01*
X122297407Y69496000D01*
X122299907Y69487145D01*
X122306247Y69507561D01*
X122318109Y69568482D01*
X122333914Y69660111D01*
X122352077Y69772653D01*
X122371018Y69896311D01*
X122389155Y70021289D01*
X122404643Y70135750D01*
X122421844Y70269100D01*
X122558272Y70269100D01*
X122633756Y70265897D01*
X122683289Y70257651D01*
X122694673Y70250050D01*
X122689257Y70221480D01*
X122673917Y70149454D01*
X122649997Y70040049D01*
X122618838Y69899346D01*
X122581785Y69733421D01*
X122540179Y69548354D01*
X122516873Y69445170D01*
X122473471Y69253077D01*
X122433902Y69077485D01*
X122399502Y68924362D01*
X122371609Y68799675D01*
X122351557Y68709392D01*
X122340684Y68659480D01*
X122339100Y68651420D01*
X122316095Y68647118D01*
X122256653Y68644241D01*
X122196682Y68643500D01*
X122111567Y68646990D01*
X122070751Y68658445D01*
X122066224Y68675250D01*
X122077499Y68714079D01*
X122096377Y68787722D01*
X122119113Y68881479D01*
X122123115Y68898459D01*
X122168046Y69089918D01*
X122037609Y69660459D01*
X122000420Y69823936D01*
X121967364Y69970781D01*
X121940038Y70093784D01*
X121920036Y70185731D01*
X121908952Y70239408D01*
X121907236Y70250050D01*
X121930205Y70260639D01*
X121989200Y70267556D01*
X122042315Y70269101D01*
X122177331Y70269101D01*
X122235050Y69881750D01*
G37*
X122235050Y69881750D02*
X122255362Y69747935D01*
X122273489Y69633180D01*
X122287985Y69546272D01*
X122297407Y69496000D01*
X122299907Y69487145D01*
X122306247Y69507561D01*
X122318109Y69568482D01*
X122333914Y69660111D01*
X122352077Y69772653D01*
X122371018Y69896311D01*
X122389155Y70021289D01*
X122404643Y70135750D01*
X122421844Y70269100D01*
X122558272Y70269100D01*
X122633756Y70265897D01*
X122683289Y70257651D01*
X122694673Y70250050D01*
X122689257Y70221480D01*
X122673917Y70149454D01*
X122649997Y70040049D01*
X122618838Y69899346D01*
X122581785Y69733421D01*
X122540179Y69548354D01*
X122516873Y69445170D01*
X122473471Y69253077D01*
X122433902Y69077485D01*
X122399502Y68924362D01*
X122371609Y68799675D01*
X122351557Y68709392D01*
X122340684Y68659480D01*
X122339100Y68651420D01*
X122316095Y68647118D01*
X122256653Y68644241D01*
X122196682Y68643500D01*
X122111567Y68646990D01*
X122070751Y68658445D01*
X122066224Y68675250D01*
X122077499Y68714079D01*
X122096377Y68787722D01*
X122119113Y68881479D01*
X122123115Y68898459D01*
X122168046Y69089918D01*
X122037609Y69660459D01*
X122000420Y69823936D01*
X121967364Y69970781D01*
X121940038Y70093784D01*
X121920036Y70185731D01*
X121908952Y70239408D01*
X121907236Y70250050D01*
X121930205Y70260639D01*
X121989200Y70267556D01*
X122042315Y70269101D01*
X122177331Y70269101D01*
X122235050Y69881750D01*
G36*
X114234050Y69881750D02*
G01*
X114254362Y69747935D01*
X114272489Y69633180D01*
X114286985Y69546272D01*
X114296407Y69496000D01*
X114298907Y69487145D01*
X114305247Y69507561D01*
X114317109Y69568482D01*
X114332914Y69660111D01*
X114351077Y69772653D01*
X114370018Y69896311D01*
X114388155Y70021289D01*
X114403643Y70135750D01*
X114420844Y70269100D01*
X114557272Y70269100D01*
X114632756Y70265897D01*
X114682289Y70257651D01*
X114693673Y70250050D01*
X114688257Y70221480D01*
X114672917Y70149454D01*
X114648997Y70040049D01*
X114617838Y69899346D01*
X114580785Y69733421D01*
X114539179Y69548354D01*
X114515873Y69445170D01*
X114472471Y69253077D01*
X114432902Y69077485D01*
X114398502Y68924362D01*
X114370609Y68799675D01*
X114350557Y68709392D01*
X114339684Y68659480D01*
X114338100Y68651420D01*
X114315095Y68647118D01*
X114255653Y68644241D01*
X114195682Y68643500D01*
X114110567Y68646990D01*
X114069751Y68658445D01*
X114065224Y68675250D01*
X114076499Y68714079D01*
X114095377Y68787722D01*
X114118113Y68881479D01*
X114122115Y68898459D01*
X114167046Y69089918D01*
X114036609Y69660459D01*
X113999420Y69823936D01*
X113966364Y69970781D01*
X113939038Y70093784D01*
X113919036Y70185731D01*
X113907952Y70239408D01*
X113906236Y70250050D01*
X113929205Y70260639D01*
X113988200Y70267556D01*
X114041315Y70269101D01*
X114176331Y70269101D01*
X114234050Y69881750D01*
G37*
X114234050Y69881750D02*
X114254362Y69747935D01*
X114272489Y69633180D01*
X114286985Y69546272D01*
X114296407Y69496000D01*
X114298907Y69487145D01*
X114305247Y69507561D01*
X114317109Y69568482D01*
X114332914Y69660111D01*
X114351077Y69772653D01*
X114370018Y69896311D01*
X114388155Y70021289D01*
X114403643Y70135750D01*
X114420844Y70269100D01*
X114557272Y70269100D01*
X114632756Y70265897D01*
X114682289Y70257651D01*
X114693673Y70250050D01*
X114688257Y70221480D01*
X114672917Y70149454D01*
X114648997Y70040049D01*
X114617838Y69899346D01*
X114580785Y69733421D01*
X114539179Y69548354D01*
X114515873Y69445170D01*
X114472471Y69253077D01*
X114432902Y69077485D01*
X114398502Y68924362D01*
X114370609Y68799675D01*
X114350557Y68709392D01*
X114339684Y68659480D01*
X114338100Y68651420D01*
X114315095Y68647118D01*
X114255653Y68644241D01*
X114195682Y68643500D01*
X114110567Y68646990D01*
X114069751Y68658445D01*
X114065224Y68675250D01*
X114076499Y68714079D01*
X114095377Y68787722D01*
X114118113Y68881479D01*
X114122115Y68898459D01*
X114167046Y69089918D01*
X114036609Y69660459D01*
X113999420Y69823936D01*
X113966364Y69970781D01*
X113939038Y70093784D01*
X113919036Y70185731D01*
X113907952Y70239408D01*
X113906236Y70250050D01*
X113929205Y70260639D01*
X113988200Y70267556D01*
X114041315Y70269101D01*
X114176331Y70269101D01*
X114234050Y69881750D01*
G36*
X118261541Y84382455D02*
G01*
X118291350Y84380729D01*
X118314754Y84376579D01*
X118337013Y84369064D01*
X118363388Y84357242D01*
X118364024Y84356940D01*
X118426741Y84318154D01*
X118480419Y84266614D01*
X118521952Y84205426D01*
X118528407Y84192557D01*
X118540075Y84166671D01*
X118547635Y84144819D01*
X118551971Y84121993D01*
X118553962Y84093186D01*
X118554492Y84053390D01*
X118554500Y84044367D01*
X118554162Y84002148D01*
X118552579Y83972043D01*
X118548900Y83949236D01*
X118542274Y83928912D01*
X118531848Y83906255D01*
X118529100Y83900758D01*
X118492894Y83844707D01*
X118444812Y83793515D01*
X118389910Y83752223D01*
X118367688Y83739864D01*
X118340492Y83727404D01*
X118315785Y83719578D01*
X118287658Y83715148D01*
X118250200Y83712872D01*
X118237000Y83712446D01*
X118186735Y83712676D01*
X118145933Y83716249D01*
X118122700Y83721337D01*
X118051402Y83753457D01*
X117990342Y83798907D01*
X117940457Y83856867D01*
X117912580Y83904667D01*
X117900347Y83930833D01*
X117892540Y83952490D01*
X117888211Y83974823D01*
X117886408Y84003018D01*
X117886182Y84042262D01*
X117886220Y84048600D01*
X117887019Y84091232D01*
X117889346Y84122158D01*
X117894089Y84146592D01*
X117902137Y84169749D01*
X117909849Y84187206D01*
X117939033Y84235530D01*
X117979664Y84283101D01*
X118026786Y84324957D01*
X118075445Y84356136D01*
X118081461Y84359069D01*
X118106444Y84369899D01*
X118128984Y84376797D01*
X118154259Y84380645D01*
X118187452Y84382328D01*
X118220067Y84382698D01*
X118261541Y84382455D01*
G37*
X118261541Y84382455D02*
X118291350Y84380729D01*
X118314754Y84376579D01*
X118337013Y84369064D01*
X118363388Y84357242D01*
X118364024Y84356940D01*
X118426741Y84318154D01*
X118480419Y84266614D01*
X118521952Y84205426D01*
X118528407Y84192557D01*
X118540075Y84166671D01*
X118547635Y84144819D01*
X118551971Y84121993D01*
X118553962Y84093186D01*
X118554492Y84053390D01*
X118554500Y84044367D01*
X118554162Y84002148D01*
X118552579Y83972043D01*
X118548900Y83949236D01*
X118542274Y83928912D01*
X118531848Y83906255D01*
X118529100Y83900758D01*
X118492894Y83844707D01*
X118444812Y83793515D01*
X118389910Y83752223D01*
X118367688Y83739864D01*
X118340492Y83727404D01*
X118315785Y83719578D01*
X118287658Y83715148D01*
X118250200Y83712872D01*
X118237000Y83712446D01*
X118186735Y83712676D01*
X118145933Y83716249D01*
X118122700Y83721337D01*
X118051402Y83753457D01*
X117990342Y83798907D01*
X117940457Y83856867D01*
X117912580Y83904667D01*
X117900347Y83930833D01*
X117892540Y83952490D01*
X117888211Y83974823D01*
X117886408Y84003018D01*
X117886182Y84042262D01*
X117886220Y84048600D01*
X117887019Y84091232D01*
X117889346Y84122158D01*
X117894089Y84146592D01*
X117902137Y84169749D01*
X117909849Y84187206D01*
X117939033Y84235530D01*
X117979664Y84283101D01*
X118026786Y84324957D01*
X118075445Y84356136D01*
X118081461Y84359069D01*
X118106444Y84369899D01*
X118128984Y84376797D01*
X118154259Y84380645D01*
X118187452Y84382328D01*
X118220067Y84382698D01*
X118261541Y84382455D01*
G36*
X119948930Y80639054D02*
G01*
X120008618Y80632713D01*
X120059709Y80621145D01*
X120061567Y80620549D01*
X120147888Y80584255D01*
X120224061Y80535556D01*
X120289051Y80475838D01*
X120341821Y80406490D01*
X120381335Y80328898D01*
X120406556Y80244448D01*
X120416449Y80154528D01*
X120416555Y80145466D01*
X120413435Y80073706D01*
X120402766Y80011753D01*
X120383272Y79953689D01*
X120368317Y79921247D01*
X120320895Y79842826D01*
X120262858Y79776682D01*
X120193126Y79721870D01*
X120110617Y79677446D01*
X120071134Y79661373D01*
X120038822Y79652934D01*
X119995118Y79646364D01*
X119945497Y79642003D01*
X119895429Y79640192D01*
X119850390Y79641269D01*
X119816034Y79645535D01*
X119728012Y79672990D01*
X119647510Y79714613D01*
X119576104Y79768965D01*
X119515374Y79834606D01*
X119466896Y79910099D01*
X119432250Y79994003D01*
X119431611Y79996075D01*
X119420132Y80049737D01*
X119414399Y80112533D01*
X119414533Y80177625D01*
X119420656Y80238176D01*
X119426807Y80267790D01*
X119456928Y80350651D01*
X119501555Y80426635D01*
X119559104Y80494133D01*
X119627988Y80551538D01*
X119706621Y80597242D01*
X119779670Y80625605D01*
X119828318Y80635610D01*
X119886784Y80640056D01*
X119948930Y80639054D01*
G37*
X119948930Y80639054D02*
X120008618Y80632713D01*
X120059709Y80621145D01*
X120061567Y80620549D01*
X120147888Y80584255D01*
X120224061Y80535556D01*
X120289051Y80475838D01*
X120341821Y80406490D01*
X120381335Y80328898D01*
X120406556Y80244448D01*
X120416449Y80154528D01*
X120416555Y80145466D01*
X120413435Y80073706D01*
X120402766Y80011753D01*
X120383272Y79953689D01*
X120368317Y79921247D01*
X120320895Y79842826D01*
X120262858Y79776682D01*
X120193126Y79721870D01*
X120110617Y79677446D01*
X120071134Y79661373D01*
X120038822Y79652934D01*
X119995118Y79646364D01*
X119945497Y79642003D01*
X119895429Y79640192D01*
X119850390Y79641269D01*
X119816034Y79645535D01*
X119728012Y79672990D01*
X119647510Y79714613D01*
X119576104Y79768965D01*
X119515374Y79834606D01*
X119466896Y79910099D01*
X119432250Y79994003D01*
X119431611Y79996075D01*
X119420132Y80049737D01*
X119414399Y80112533D01*
X119414533Y80177625D01*
X119420656Y80238176D01*
X119426807Y80267790D01*
X119456928Y80350651D01*
X119501555Y80426635D01*
X119559104Y80494133D01*
X119627988Y80551538D01*
X119706621Y80597242D01*
X119779670Y80625605D01*
X119828318Y80635610D01*
X119886784Y80640056D01*
X119948930Y80639054D01*
G36*
X116651594Y80612963D02*
G01*
X116734893Y80592656D01*
X116810978Y80557833D01*
X116881637Y80507765D01*
X116920433Y80471858D01*
X116977243Y80406626D01*
X117018739Y80339603D01*
X117046148Y80267778D01*
X117060701Y80188136D01*
X117063919Y80120066D01*
X117062868Y80066429D01*
X117059397Y80025216D01*
X117053027Y79992032D01*
X117048292Y79976133D01*
X117010756Y79889679D01*
X116959904Y79812399D01*
X116897177Y79745695D01*
X116824017Y79690970D01*
X116741864Y79649625D01*
X116696647Y79634049D01*
X116643274Y79623666D01*
X116580637Y79619812D01*
X116515017Y79622301D01*
X116452694Y79630948D01*
X116408200Y79642590D01*
X116331285Y79674757D01*
X116265039Y79716296D01*
X116204311Y79770546D01*
X116194213Y79781220D01*
X116137236Y79853787D01*
X116096320Y79931407D01*
X116071109Y80014988D01*
X116061245Y80105438D01*
X116061067Y80120067D01*
X116068816Y80212377D01*
X116092102Y80297974D01*
X116130984Y80377009D01*
X116185521Y80449637D01*
X116189265Y80453764D01*
X116253056Y80513966D01*
X116322253Y80560045D01*
X116401031Y80594766D01*
X116403489Y80595627D01*
X116440083Y80607341D01*
X116472074Y80614530D01*
X116506183Y80618223D01*
X116549127Y80619447D01*
X116559297Y80619487D01*
X116651594Y80612963D01*
G37*
X116651594Y80612963D02*
X116734893Y80592656D01*
X116810978Y80557833D01*
X116881637Y80507765D01*
X116920433Y80471858D01*
X116977243Y80406626D01*
X117018739Y80339603D01*
X117046148Y80267778D01*
X117060701Y80188136D01*
X117063919Y80120066D01*
X117062868Y80066429D01*
X117059397Y80025216D01*
X117053027Y79992032D01*
X117048292Y79976133D01*
X117010756Y79889679D01*
X116959904Y79812399D01*
X116897177Y79745695D01*
X116824017Y79690970D01*
X116741864Y79649625D01*
X116696647Y79634049D01*
X116643274Y79623666D01*
X116580637Y79619812D01*
X116515017Y79622301D01*
X116452694Y79630948D01*
X116408200Y79642590D01*
X116331285Y79674757D01*
X116265039Y79716296D01*
X116204311Y79770546D01*
X116194213Y79781220D01*
X116137236Y79853787D01*
X116096320Y79931407D01*
X116071109Y80014988D01*
X116061245Y80105438D01*
X116061067Y80120067D01*
X116068816Y80212377D01*
X116092102Y80297974D01*
X116130984Y80377009D01*
X116185521Y80449637D01*
X116189265Y80453764D01*
X116253056Y80513966D01*
X116322253Y80560045D01*
X116401031Y80594766D01*
X116403489Y80595627D01*
X116440083Y80607341D01*
X116472074Y80614530D01*
X116506183Y80618223D01*
X116549127Y80619447D01*
X116559297Y80619487D01*
X116651594Y80612963D01*
G36*
X118409601Y78875262D02*
G01*
X118511533Y78875105D01*
X118609881Y78874864D01*
X118703281Y78874538D01*
X118790368Y78874129D01*
X118869779Y78873636D01*
X118940149Y78873058D01*
X119000113Y78872396D01*
X119048307Y78871648D01*
X119083368Y78870815D01*
X119103930Y78869897D01*
X119109025Y78869117D01*
X119105385Y78859022D01*
X119095795Y78838116D01*
X119082188Y78810576D01*
X119079495Y78805304D01*
X119016869Y78701008D01*
X118942311Y78608618D01*
X118856230Y78528441D01*
X118759032Y78460786D01*
X118651126Y78405961D01*
X118532920Y78364274D01*
X118477722Y78350168D01*
X118440891Y78343797D01*
X118391729Y78338144D01*
X118334624Y78333434D01*
X118273967Y78329893D01*
X118214148Y78327746D01*
X118159557Y78327218D01*
X118114584Y78328535D01*
X118093067Y78330426D01*
X117962151Y78354531D01*
X117840652Y78392407D01*
X117728892Y78443937D01*
X117664812Y78482574D01*
X117622619Y78514509D01*
X117576165Y78556092D01*
X117530152Y78602606D01*
X117489281Y78649332D01*
X117461386Y78686752D01*
X117442021Y78717662D01*
X117422092Y78752517D01*
X117403268Y78787978D01*
X117387220Y78820706D01*
X117375618Y78847364D01*
X117370133Y78864612D01*
X117370293Y78868822D01*
X117379142Y78869810D01*
X117403507Y78870718D01*
X117442026Y78871545D01*
X117493333Y78872292D01*
X117556063Y78872958D01*
X117628854Y78873542D01*
X117710339Y78874045D01*
X117799156Y78874466D01*
X117893939Y78874805D01*
X117993324Y78875062D01*
X118095947Y78875236D01*
X118200444Y78875328D01*
X118305450Y78875337D01*
X118409601Y78875262D01*
G37*
X118409601Y78875262D02*
X118511533Y78875105D01*
X118609881Y78874864D01*
X118703281Y78874538D01*
X118790368Y78874129D01*
X118869779Y78873636D01*
X118940149Y78873058D01*
X119000113Y78872396D01*
X119048307Y78871648D01*
X119083368Y78870815D01*
X119103930Y78869897D01*
X119109025Y78869117D01*
X119105385Y78859022D01*
X119095795Y78838116D01*
X119082188Y78810576D01*
X119079495Y78805304D01*
X119016869Y78701008D01*
X118942311Y78608618D01*
X118856230Y78528441D01*
X118759032Y78460786D01*
X118651126Y78405961D01*
X118532920Y78364274D01*
X118477722Y78350168D01*
X118440891Y78343797D01*
X118391729Y78338144D01*
X118334624Y78333434D01*
X118273967Y78329893D01*
X118214148Y78327746D01*
X118159557Y78327218D01*
X118114584Y78328535D01*
X118093067Y78330426D01*
X117962151Y78354531D01*
X117840652Y78392407D01*
X117728892Y78443937D01*
X117664812Y78482574D01*
X117622619Y78514509D01*
X117576165Y78556092D01*
X117530152Y78602606D01*
X117489281Y78649332D01*
X117461386Y78686752D01*
X117442021Y78717662D01*
X117422092Y78752517D01*
X117403268Y78787978D01*
X117387220Y78820706D01*
X117375618Y78847364D01*
X117370133Y78864612D01*
X117370293Y78868822D01*
X117379142Y78869810D01*
X117403507Y78870718D01*
X117442026Y78871545D01*
X117493333Y78872292D01*
X117556063Y78872958D01*
X117628854Y78873542D01*
X117710339Y78874045D01*
X117799156Y78874466D01*
X117893939Y78874805D01*
X117993324Y78875062D01*
X118095947Y78875236D01*
X118200444Y78875328D01*
X118305450Y78875337D01*
X118409601Y78875262D01*
G36*
X118271160Y83314906D02*
G01*
X118299318Y83311008D01*
X118323867Y83302867D01*
X118343371Y83293444D01*
X118388735Y83262630D01*
X118430030Y83221806D01*
X118461080Y83177131D01*
X118462245Y83174922D01*
X118468793Y83157269D01*
X118474092Y83130799D01*
X118478460Y83093138D01*
X118482216Y83041917D01*
X118483695Y83015666D01*
X118489179Y82927859D01*
X118495987Y82853741D01*
X118504782Y82790083D01*
X118516228Y82733654D01*
X118530991Y82681225D01*
X118549734Y82629565D01*
X118573121Y82575443D01*
X118575094Y82571167D01*
X118631970Y82467519D01*
X118701428Y82375097D01*
X118783510Y82293871D01*
X118878256Y82223811D01*
X118985709Y82164887D01*
X119105910Y82117069D01*
X119238901Y82080327D01*
X119265700Y82074579D01*
X119287589Y82070305D01*
X119309908Y82066509D01*
X119333807Y82063154D01*
X119360435Y82060201D01*
X119390941Y82057611D01*
X119426474Y82055346D01*
X119468183Y82053367D01*
X119517218Y82051636D01*
X119574727Y82050115D01*
X119641859Y82048764D01*
X119719764Y82047546D01*
X119809590Y82046422D01*
X119912487Y82045354D01*
X120029603Y82044303D01*
X120162089Y82043230D01*
X120213967Y82042829D01*
X120372749Y82041518D01*
X120514659Y82040138D01*
X120639758Y82038689D01*
X120748106Y82037169D01*
X120839766Y82035578D01*
X120914798Y82033915D01*
X120973263Y82032178D01*
X121015222Y82030366D01*
X121040736Y82028478D01*
X121047934Y82027370D01*
X121078494Y82020240D01*
X121115323Y82012178D01*
X121136834Y82007701D01*
X121172129Y81999828D01*
X121212659Y81989672D01*
X121254259Y81978409D01*
X121292767Y81967216D01*
X121324022Y81957268D01*
X121343861Y81949741D01*
X121346269Y81948533D01*
X121362541Y81941675D01*
X121369321Y81940400D01*
X121382998Y81936630D01*
X121408574Y81926271D01*
X121443030Y81910745D01*
X121483350Y81891477D01*
X121526515Y81869890D01*
X121569507Y81847408D01*
X121589800Y81836384D01*
X121703173Y81765272D01*
X121813051Y81679575D01*
X121917302Y81581587D01*
X122013792Y81473603D01*
X122100389Y81357917D01*
X122174960Y81236822D01*
X122209504Y81169933D01*
X122240391Y81103656D01*
X122264618Y81045873D01*
X122284277Y80990583D01*
X122301463Y80931787D01*
X122318269Y80863484D01*
X122321758Y80848200D01*
X122331384Y80805661D01*
X122340491Y80765469D01*
X122347941Y80732646D01*
X122352020Y80714728D01*
X122355401Y80692261D01*
X122357882Y80660832D01*
X122359446Y80624165D01*
X122360074Y80585984D01*
X122359749Y80550016D01*
X122358453Y80519984D01*
X122356168Y80499612D01*
X122353086Y80492600D01*
X122345616Y80485583D01*
X122335058Y80467855D01*
X122330174Y80457715D01*
X122304737Y80416569D01*
X122267592Y80376130D01*
X122223479Y80341128D01*
X122198179Y80326020D01*
X122174488Y80314527D01*
X122153189Y80307433D01*
X122128842Y80303708D01*
X122096007Y80302321D01*
X122072400Y80302181D01*
X122032463Y80302738D01*
X122004044Y80305078D01*
X121981746Y80310207D01*
X121960171Y80319134D01*
X121947829Y80325408D01*
X121887735Y80363982D01*
X121842268Y80409134D01*
X121820877Y80440844D01*
X121806024Y80465756D01*
X121792867Y80485943D01*
X121787738Y80492821D01*
X121782037Y80506562D01*
X121775777Y80532679D01*
X121769938Y80566683D01*
X121767397Y80585954D01*
X121746367Y80711112D01*
X121713682Y80825158D01*
X121668380Y80930108D01*
X121609500Y81027979D01*
X121536081Y81120788D01*
X121488429Y81171131D01*
X121433266Y81223183D01*
X121379551Y81266920D01*
X121323023Y81305161D01*
X121259424Y81340726D01*
X121184492Y81376434D01*
X121165703Y81384746D01*
X121117540Y81402117D01*
X121055769Y81418453D01*
X120983715Y81432913D01*
X120959034Y81437006D01*
X120942670Y81438245D01*
X120910189Y81439424D01*
X120862382Y81440543D01*
X120800044Y81441603D01*
X120723968Y81442602D01*
X120634947Y81443543D01*
X120533774Y81444423D01*
X120421244Y81445244D01*
X120298150Y81446005D01*
X120165284Y81446707D01*
X120023441Y81447349D01*
X119873414Y81447931D01*
X119715996Y81448454D01*
X119551981Y81448918D01*
X119382162Y81449321D01*
X119207333Y81449665D01*
X119028287Y81449950D01*
X118845817Y81450175D01*
X118660717Y81450341D01*
X118473780Y81450447D01*
X118285800Y81450493D01*
X118097570Y81450480D01*
X117909884Y81450408D01*
X117723535Y81450276D01*
X117539316Y81450085D01*
X117358022Y81449834D01*
X117180444Y81449524D01*
X117007378Y81449154D01*
X116839615Y81448725D01*
X116677950Y81448237D01*
X116523176Y81447689D01*
X116376087Y81447082D01*
X116237475Y81446415D01*
X116108135Y81445690D01*
X115988860Y81444904D01*
X115880443Y81444060D01*
X115783677Y81443156D01*
X115699357Y81442193D01*
X115628275Y81441170D01*
X115571225Y81440089D01*
X115529000Y81438948D01*
X115502394Y81437748D01*
X115493800Y81436927D01*
X115440861Y81427694D01*
X115399806Y81419424D01*
X115365728Y81410887D01*
X115333722Y81400851D01*
X115298881Y81388086D01*
X115298500Y81387940D01*
X115187899Y81336986D01*
X115084842Y81272609D01*
X114990734Y81196335D01*
X114906983Y81109688D01*
X114834995Y81014196D01*
X114776176Y80911383D01*
X114731933Y80802775D01*
X114718966Y80759300D01*
X114713287Y80737820D01*
X114708209Y80717404D01*
X114703699Y80697028D01*
X114699724Y80675666D01*
X114696250Y80652293D01*
X114693243Y80625885D01*
X114690670Y80595417D01*
X114688498Y80559863D01*
X114686692Y80518200D01*
X114685220Y80469401D01*
X114684047Y80412443D01*
X114683140Y80346300D01*
X114682466Y80269948D01*
X114681991Y80182361D01*
X114681682Y80082514D01*
X114681505Y79969384D01*
X114681426Y79841944D01*
X114681412Y79699170D01*
X114681421Y79612066D01*
X114681443Y79455922D01*
X114681506Y79315700D01*
X114681665Y79190391D01*
X114681973Y79078985D01*
X114682486Y78980471D01*
X114683258Y78893839D01*
X114684344Y78818079D01*
X114685799Y78752181D01*
X114687676Y78695135D01*
X114690031Y78645929D01*
X114692919Y78603555D01*
X114696393Y78567002D01*
X114700510Y78535259D01*
X114705322Y78507316D01*
X114710885Y78482164D01*
X114717254Y78458791D01*
X114724483Y78436188D01*
X114732626Y78413344D01*
X114741739Y78389250D01*
X114748493Y78371700D01*
X114799558Y78262509D01*
X114865882Y78160546D01*
X114947349Y78065941D01*
X115043846Y77978821D01*
X115155257Y77899317D01*
X115184767Y77881043D01*
X115228870Y77858698D01*
X115285511Y77836370D01*
X115350344Y77815372D01*
X115419023Y77797016D01*
X115487202Y77782613D01*
X115535363Y77775198D01*
X115551111Y77774223D01*
X115582271Y77773306D01*
X115628933Y77772448D01*
X115691188Y77771648D01*
X115769125Y77770906D01*
X115862834Y77770222D01*
X115972405Y77769596D01*
X116097927Y77769026D01*
X116239491Y77768513D01*
X116397187Y77768057D01*
X116571103Y77767656D01*
X116761331Y77767312D01*
X116967960Y77767023D01*
X117191079Y77766790D01*
X117430779Y77766612D01*
X117687149Y77766488D01*
X117960280Y77766419D01*
X118227763Y77766403D01*
X118481788Y77766410D01*
X118719450Y77766421D01*
X118941319Y77766444D01*
X119147966Y77766484D01*
X119339960Y77766548D01*
X119517872Y77766645D01*
X119682271Y77766779D01*
X119833729Y77766959D01*
X119972816Y77767191D01*
X120100101Y77767482D01*
X120216155Y77767839D01*
X120321548Y77768269D01*
X120416850Y77768777D01*
X120502631Y77769373D01*
X120579463Y77770061D01*
X120647914Y77770849D01*
X120708556Y77771744D01*
X120761958Y77772753D01*
X120808690Y77773882D01*
X120849324Y77775139D01*
X120884428Y77776530D01*
X120914574Y77778062D01*
X120940331Y77779741D01*
X120962270Y77781576D01*
X120980960Y77783572D01*
X120996973Y77785736D01*
X121010878Y77788076D01*
X121023246Y77790598D01*
X121034646Y77793308D01*
X121045650Y77796215D01*
X121056827Y77799324D01*
X121060634Y77800391D01*
X121184639Y77843370D01*
X121298975Y77900015D01*
X121403090Y77969883D01*
X121496431Y78052535D01*
X121578446Y78147527D01*
X121648582Y78254418D01*
X121664195Y78282948D01*
X121693364Y78343367D01*
X121718344Y78407079D01*
X121741404Y78480054D01*
X121747818Y78502933D01*
X121753285Y78526164D01*
X121757311Y78552174D01*
X121760086Y78583880D01*
X121761803Y78624195D01*
X121762653Y78676035D01*
X121762837Y78731533D01*
X121762741Y78790218D01*
X121762300Y78834950D01*
X121761210Y78868710D01*
X121759167Y78894476D01*
X121755866Y78915230D01*
X121751005Y78933952D01*
X121744278Y78953622D01*
X121738658Y78968600D01*
X121699186Y79052389D01*
X121649467Y79123222D01*
X121589865Y79180659D01*
X121529541Y79219771D01*
X121483967Y79243767D01*
X121221500Y79248210D01*
X121138520Y79249792D01*
X121070443Y79251744D01*
X121015240Y79254504D01*
X120970879Y79258509D01*
X120935332Y79264197D01*
X120906567Y79272006D01*
X120882556Y79282372D01*
X120861268Y79295735D01*
X120840672Y79312531D01*
X120818740Y79333197D01*
X120816347Y79335540D01*
X120769106Y79392232D01*
X120738113Y79453527D01*
X120723449Y79519162D01*
X120725195Y79588872D01*
X120730189Y79616424D01*
X120753429Y79683902D01*
X120790366Y79742342D01*
X120839551Y79790276D01*
X120899534Y79826241D01*
X120957284Y79846147D01*
X120988867Y79853024D01*
X121015126Y79855880D01*
X121042988Y79854871D01*
X121079382Y79850155D01*
X121086421Y79849073D01*
X121106955Y79846488D01*
X121132843Y79844425D01*
X121165497Y79842869D01*
X121206329Y79841806D01*
X121256752Y79841221D01*
X121318179Y79841098D01*
X121392020Y79841424D01*
X121479689Y79842183D01*
X121582598Y79843360D01*
X121604638Y79843639D01*
X121712201Y79844935D01*
X121804320Y79845807D01*
X121882481Y79846161D01*
X121948169Y79845908D01*
X122002872Y79844957D01*
X122048073Y79843217D01*
X122085260Y79840597D01*
X122115918Y79837007D01*
X122141533Y79832354D01*
X122163590Y79826550D01*
X122183577Y79819502D01*
X122202979Y79811120D01*
X122212786Y79806468D01*
X122265270Y79772228D01*
X122309890Y79725532D01*
X122339061Y79678254D01*
X122360267Y79634297D01*
X122360267Y79085670D01*
X122360138Y78977698D01*
X122359763Y78877763D01*
X122359158Y78787013D01*
X122358340Y78706595D01*
X122357323Y78637657D01*
X122356125Y78581345D01*
X122354761Y78538807D01*
X122353248Y78511191D01*
X122352020Y78500938D01*
X122346804Y78477919D01*
X122339031Y78443399D01*
X122329833Y78402405D01*
X122322015Y78367467D01*
X122284024Y78232021D01*
X122231248Y78096630D01*
X122165465Y77964875D01*
X122088452Y77840338D01*
X122006946Y77732503D01*
X121905034Y77622625D01*
X121791712Y77522464D01*
X121669012Y77433233D01*
X121538967Y77356145D01*
X121403609Y77292411D01*
X121264971Y77243245D01*
X121133456Y77211391D01*
X121096818Y77203970D01*
X121063648Y77196229D01*
X121039707Y77189542D01*
X121035234Y77187966D01*
X121028425Y77186983D01*
X121012968Y77186058D01*
X120988467Y77185191D01*
X120954523Y77184379D01*
X120910740Y77183622D01*
X120856723Y77182917D01*
X120792073Y77182263D01*
X120716395Y77181658D01*
X120629292Y77181102D01*
X120530366Y77180592D01*
X120419222Y77180127D01*
X120295462Y77179705D01*
X120158690Y77179325D01*
X120008509Y77178986D01*
X119844523Y77178686D01*
X119666335Y77178423D01*
X119473547Y77178197D01*
X119265764Y77178004D01*
X119042589Y77177844D01*
X118803625Y77177716D01*
X118548475Y77177618D01*
X118308967Y77177554D01*
X118095158Y77177518D01*
X117885241Y77177500D01*
X117679880Y77177499D01*
X117479737Y77177517D01*
X117285474Y77177551D01*
X117097756Y77177602D01*
X116917244Y77177668D01*
X116744601Y77177750D01*
X116580490Y77177846D01*
X116425574Y77177957D01*
X116280515Y77178081D01*
X116145977Y77178218D01*
X116022622Y77178367D01*
X115911112Y77178529D01*
X115812112Y77178702D01*
X115726282Y77178886D01*
X115654287Y77179080D01*
X115596788Y77179284D01*
X115554450Y77179497D01*
X115527933Y77179719D01*
X115519305Y77179873D01*
X115481750Y77181812D01*
X115450391Y77184763D01*
X115429169Y77188276D01*
X115422362Y77190918D01*
X115408533Y77196873D01*
X115389542Y77199066D01*
X115364962Y77201565D01*
X115328256Y77208386D01*
X115283368Y77218516D01*
X115234242Y77230945D01*
X115184823Y77244659D01*
X115139056Y77258645D01*
X115100884Y77271893D01*
X115091634Y77275519D01*
X115067911Y77284975D01*
X115049300Y77292131D01*
X115015398Y77306465D01*
X114971668Y77327484D01*
X114922610Y77352844D01*
X114872722Y77380204D01*
X114826503Y77407221D01*
X114816467Y77413387D01*
X114684098Y77505449D01*
X114563294Y77609779D01*
X114454544Y77725834D01*
X114358338Y77853073D01*
X114275164Y77990955D01*
X114249527Y78041007D01*
X114221420Y78102963D01*
X114193501Y78172767D01*
X114167529Y78245362D01*
X114145263Y78315692D01*
X114128461Y78378700D01*
X114122719Y78405567D01*
X114115835Y78440560D01*
X114108673Y78475223D01*
X114104922Y78492471D01*
X114103758Y78506103D01*
X114102682Y78535422D01*
X114101696Y78579182D01*
X114100799Y78636136D01*
X114099990Y78705040D01*
X114099271Y78784647D01*
X114098640Y78873710D01*
X114098099Y78970984D01*
X114097646Y79075222D01*
X114097283Y79185179D01*
X114097008Y79299609D01*
X114096822Y79417265D01*
X114096725Y79536902D01*
X114096717Y79657272D01*
X114096798Y79777132D01*
X114096968Y79895233D01*
X114097227Y80010331D01*
X114097575Y80121179D01*
X114098012Y80226531D01*
X114098537Y80325140D01*
X114099152Y80415762D01*
X114099855Y80497150D01*
X114100648Y80568058D01*
X114101529Y80627239D01*
X114102500Y80673448D01*
X114103559Y80705439D01*
X114104707Y80721966D01*
X114104922Y80723195D01*
X114111217Y80752471D01*
X114118558Y80788407D01*
X114122819Y80810100D01*
X114131086Y80848968D01*
X114141330Y80891113D01*
X114152498Y80932830D01*
X114163536Y80970418D01*
X114173389Y81000171D01*
X114181004Y81018386D01*
X114182939Y81021343D01*
X114189670Y81036936D01*
X114189934Y81040162D01*
X114193252Y81053117D01*
X114201888Y81076033D01*
X114212149Y81099852D01*
X114286826Y81248055D01*
X114370123Y81382227D01*
X114462880Y81503378D01*
X114565935Y81612517D01*
X114680127Y81710652D01*
X114778367Y81780799D01*
X114835226Y81817359D01*
X114885978Y81847682D01*
X114935201Y81874101D01*
X114987472Y81898948D01*
X115047370Y81924556D01*
X115108567Y81949001D01*
X115170638Y81970466D01*
X115242258Y81990587D01*
X115316053Y82007305D01*
X115320234Y82008124D01*
X115355772Y82015380D01*
X115391475Y82023217D01*
X115409134Y82027379D01*
X115425161Y82029296D01*
X115457409Y82031137D01*
X115505961Y82032901D01*
X115570898Y82034591D01*
X115652302Y82036209D01*
X115750257Y82037755D01*
X115864843Y82039231D01*
X115996144Y82040639D01*
X116144241Y82041980D01*
X116251567Y82042832D01*
X116376292Y82043859D01*
X116495039Y82045004D01*
X116606699Y82046249D01*
X116710164Y82047575D01*
X116804326Y82048964D01*
X116888076Y82050396D01*
X116960305Y82051853D01*
X117019904Y82053316D01*
X117065766Y82054767D01*
X117096781Y82056186D01*
X117110933Y82057396D01*
X117210933Y82075051D01*
X117298776Y82095707D01*
X117379162Y82120755D01*
X117456789Y82151584D01*
X117504732Y82173790D01*
X117610330Y82234007D01*
X117704111Y82306161D01*
X117785664Y82389844D01*
X117854582Y82484650D01*
X117899723Y82566933D01*
X117935442Y82655294D01*
X117960911Y82750926D01*
X117976563Y82856070D01*
X117982834Y82972966D01*
X117983000Y82997134D01*
X117984005Y83058883D01*
X117987608Y83107169D01*
X117994687Y83145373D01*
X118006124Y83176879D01*
X118022798Y83205068D01*
X118043975Y83231498D01*
X118071508Y83257952D01*
X118104044Y83282592D01*
X118121656Y83293187D01*
X118147931Y83305403D01*
X118172749Y83312346D01*
X118202769Y83315379D01*
X118232767Y83315906D01*
X118271160Y83314906D01*
G37*
X118271160Y83314906D02*
X118299318Y83311008D01*
X118323867Y83302867D01*
X118343371Y83293444D01*
X118388735Y83262630D01*
X118430030Y83221806D01*
X118461080Y83177131D01*
X118462245Y83174922D01*
X118468793Y83157269D01*
X118474092Y83130799D01*
X118478460Y83093138D01*
X118482216Y83041917D01*
X118483695Y83015666D01*
X118489179Y82927859D01*
X118495987Y82853741D01*
X118504782Y82790083D01*
X118516228Y82733654D01*
X118530991Y82681225D01*
X118549734Y82629565D01*
X118573121Y82575443D01*
X118575094Y82571167D01*
X118631970Y82467519D01*
X118701428Y82375097D01*
X118783510Y82293871D01*
X118878256Y82223811D01*
X118985709Y82164887D01*
X119105910Y82117069D01*
X119238901Y82080327D01*
X119265700Y82074579D01*
X119287589Y82070305D01*
X119309908Y82066509D01*
X119333807Y82063154D01*
X119360435Y82060201D01*
X119390941Y82057611D01*
X119426474Y82055346D01*
X119468183Y82053367D01*
X119517218Y82051636D01*
X119574727Y82050115D01*
X119641859Y82048764D01*
X119719764Y82047546D01*
X119809590Y82046422D01*
X119912487Y82045354D01*
X120029603Y82044303D01*
X120162089Y82043230D01*
X120213967Y82042829D01*
X120372749Y82041518D01*
X120514659Y82040138D01*
X120639758Y82038689D01*
X120748106Y82037169D01*
X120839766Y82035578D01*
X120914798Y82033915D01*
X120973263Y82032178D01*
X121015222Y82030366D01*
X121040736Y82028478D01*
X121047934Y82027370D01*
X121078494Y82020240D01*
X121115323Y82012178D01*
X121136834Y82007701D01*
X121172129Y81999828D01*
X121212659Y81989672D01*
X121254259Y81978409D01*
X121292767Y81967216D01*
X121324022Y81957268D01*
X121343861Y81949741D01*
X121346269Y81948533D01*
X121362541Y81941675D01*
X121369321Y81940400D01*
X121382998Y81936630D01*
X121408574Y81926271D01*
X121443030Y81910745D01*
X121483350Y81891477D01*
X121526515Y81869890D01*
X121569507Y81847408D01*
X121589800Y81836384D01*
X121703173Y81765272D01*
X121813051Y81679575D01*
X121917302Y81581587D01*
X122013792Y81473603D01*
X122100389Y81357917D01*
X122174960Y81236822D01*
X122209504Y81169933D01*
X122240391Y81103656D01*
X122264618Y81045873D01*
X122284277Y80990583D01*
X122301463Y80931787D01*
X122318269Y80863484D01*
X122321758Y80848200D01*
X122331384Y80805661D01*
X122340491Y80765469D01*
X122347941Y80732646D01*
X122352020Y80714728D01*
X122355401Y80692261D01*
X122357882Y80660832D01*
X122359446Y80624165D01*
X122360074Y80585984D01*
X122359749Y80550016D01*
X122358453Y80519984D01*
X122356168Y80499612D01*
X122353086Y80492600D01*
X122345616Y80485583D01*
X122335058Y80467855D01*
X122330174Y80457715D01*
X122304737Y80416569D01*
X122267592Y80376130D01*
X122223479Y80341128D01*
X122198179Y80326020D01*
X122174488Y80314527D01*
X122153189Y80307433D01*
X122128842Y80303708D01*
X122096007Y80302321D01*
X122072400Y80302181D01*
X122032463Y80302738D01*
X122004044Y80305078D01*
X121981746Y80310207D01*
X121960171Y80319134D01*
X121947829Y80325408D01*
X121887735Y80363982D01*
X121842268Y80409134D01*
X121820877Y80440844D01*
X121806024Y80465756D01*
X121792867Y80485943D01*
X121787738Y80492821D01*
X121782037Y80506562D01*
X121775777Y80532679D01*
X121769938Y80566683D01*
X121767397Y80585954D01*
X121746367Y80711112D01*
X121713682Y80825158D01*
X121668380Y80930108D01*
X121609500Y81027979D01*
X121536081Y81120788D01*
X121488429Y81171131D01*
X121433266Y81223183D01*
X121379551Y81266920D01*
X121323023Y81305161D01*
X121259424Y81340726D01*
X121184492Y81376434D01*
X121165703Y81384746D01*
X121117540Y81402117D01*
X121055769Y81418453D01*
X120983715Y81432913D01*
X120959034Y81437006D01*
X120942670Y81438245D01*
X120910189Y81439424D01*
X120862382Y81440543D01*
X120800044Y81441603D01*
X120723968Y81442602D01*
X120634947Y81443543D01*
X120533774Y81444423D01*
X120421244Y81445244D01*
X120298150Y81446005D01*
X120165284Y81446707D01*
X120023441Y81447349D01*
X119873414Y81447931D01*
X119715996Y81448454D01*
X119551981Y81448918D01*
X119382162Y81449321D01*
X119207333Y81449665D01*
X119028287Y81449950D01*
X118845817Y81450175D01*
X118660717Y81450341D01*
X118473780Y81450447D01*
X118285800Y81450493D01*
X118097570Y81450480D01*
X117909884Y81450408D01*
X117723535Y81450276D01*
X117539316Y81450085D01*
X117358022Y81449834D01*
X117180444Y81449524D01*
X117007378Y81449154D01*
X116839615Y81448725D01*
X116677950Y81448237D01*
X116523176Y81447689D01*
X116376087Y81447082D01*
X116237475Y81446415D01*
X116108135Y81445690D01*
X115988860Y81444904D01*
X115880443Y81444060D01*
X115783677Y81443156D01*
X115699357Y81442193D01*
X115628275Y81441170D01*
X115571225Y81440089D01*
X115529000Y81438948D01*
X115502394Y81437748D01*
X115493800Y81436927D01*
X115440861Y81427694D01*
X115399806Y81419424D01*
X115365728Y81410887D01*
X115333722Y81400851D01*
X115298881Y81388086D01*
X115298500Y81387940D01*
X115187899Y81336986D01*
X115084842Y81272609D01*
X114990734Y81196335D01*
X114906983Y81109688D01*
X114834995Y81014196D01*
X114776176Y80911383D01*
X114731933Y80802775D01*
X114718966Y80759300D01*
X114713287Y80737820D01*
X114708209Y80717404D01*
X114703699Y80697028D01*
X114699724Y80675666D01*
X114696250Y80652293D01*
X114693243Y80625885D01*
X114690670Y80595417D01*
X114688498Y80559863D01*
X114686692Y80518200D01*
X114685220Y80469401D01*
X114684047Y80412443D01*
X114683140Y80346300D01*
X114682466Y80269948D01*
X114681991Y80182361D01*
X114681682Y80082514D01*
X114681505Y79969384D01*
X114681426Y79841944D01*
X114681412Y79699170D01*
X114681421Y79612066D01*
X114681443Y79455922D01*
X114681506Y79315700D01*
X114681665Y79190391D01*
X114681973Y79078985D01*
X114682486Y78980471D01*
X114683258Y78893839D01*
X114684344Y78818079D01*
X114685799Y78752181D01*
X114687676Y78695135D01*
X114690031Y78645929D01*
X114692919Y78603555D01*
X114696393Y78567002D01*
X114700510Y78535259D01*
X114705322Y78507316D01*
X114710885Y78482164D01*
X114717254Y78458791D01*
X114724483Y78436188D01*
X114732626Y78413344D01*
X114741739Y78389250D01*
X114748493Y78371700D01*
X114799558Y78262509D01*
X114865882Y78160546D01*
X114947349Y78065941D01*
X115043846Y77978821D01*
X115155257Y77899317D01*
X115184767Y77881043D01*
X115228870Y77858698D01*
X115285511Y77836370D01*
X115350344Y77815372D01*
X115419023Y77797016D01*
X115487202Y77782613D01*
X115535363Y77775198D01*
X115551111Y77774223D01*
X115582271Y77773306D01*
X115628933Y77772448D01*
X115691188Y77771648D01*
X115769125Y77770906D01*
X115862834Y77770222D01*
X115972405Y77769596D01*
X116097927Y77769026D01*
X116239491Y77768513D01*
X116397187Y77768057D01*
X116571103Y77767656D01*
X116761331Y77767312D01*
X116967960Y77767023D01*
X117191079Y77766790D01*
X117430779Y77766612D01*
X117687149Y77766488D01*
X117960280Y77766419D01*
X118227763Y77766403D01*
X118481788Y77766410D01*
X118719450Y77766421D01*
X118941319Y77766444D01*
X119147966Y77766484D01*
X119339960Y77766548D01*
X119517872Y77766645D01*
X119682271Y77766779D01*
X119833729Y77766959D01*
X119972816Y77767191D01*
X120100101Y77767482D01*
X120216155Y77767839D01*
X120321548Y77768269D01*
X120416850Y77768777D01*
X120502631Y77769373D01*
X120579463Y77770061D01*
X120647914Y77770849D01*
X120708556Y77771744D01*
X120761958Y77772753D01*
X120808690Y77773882D01*
X120849324Y77775139D01*
X120884428Y77776530D01*
X120914574Y77778062D01*
X120940331Y77779741D01*
X120962270Y77781576D01*
X120980960Y77783572D01*
X120996973Y77785736D01*
X121010878Y77788076D01*
X121023246Y77790598D01*
X121034646Y77793308D01*
X121045650Y77796215D01*
X121056827Y77799324D01*
X121060634Y77800391D01*
X121184639Y77843370D01*
X121298975Y77900015D01*
X121403090Y77969883D01*
X121496431Y78052535D01*
X121578446Y78147527D01*
X121648582Y78254418D01*
X121664195Y78282948D01*
X121693364Y78343367D01*
X121718344Y78407079D01*
X121741404Y78480054D01*
X121747818Y78502933D01*
X121753285Y78526164D01*
X121757311Y78552174D01*
X121760086Y78583880D01*
X121761803Y78624195D01*
X121762653Y78676035D01*
X121762837Y78731533D01*
X121762741Y78790218D01*
X121762300Y78834950D01*
X121761210Y78868710D01*
X121759167Y78894476D01*
X121755866Y78915230D01*
X121751005Y78933952D01*
X121744278Y78953622D01*
X121738658Y78968600D01*
X121699186Y79052389D01*
X121649467Y79123222D01*
X121589865Y79180659D01*
X121529541Y79219771D01*
X121483967Y79243767D01*
X121221500Y79248210D01*
X121138520Y79249792D01*
X121070443Y79251744D01*
X121015240Y79254504D01*
X120970879Y79258509D01*
X120935332Y79264197D01*
X120906567Y79272006D01*
X120882556Y79282372D01*
X120861268Y79295735D01*
X120840672Y79312531D01*
X120818740Y79333197D01*
X120816347Y79335540D01*
X120769106Y79392232D01*
X120738113Y79453527D01*
X120723449Y79519162D01*
X120725195Y79588872D01*
X120730189Y79616424D01*
X120753429Y79683902D01*
X120790366Y79742342D01*
X120839551Y79790276D01*
X120899534Y79826241D01*
X120957284Y79846147D01*
X120988867Y79853024D01*
X121015126Y79855880D01*
X121042988Y79854871D01*
X121079382Y79850155D01*
X121086421Y79849073D01*
X121106955Y79846488D01*
X121132843Y79844425D01*
X121165497Y79842869D01*
X121206329Y79841806D01*
X121256752Y79841221D01*
X121318179Y79841098D01*
X121392020Y79841424D01*
X121479689Y79842183D01*
X121582598Y79843360D01*
X121604638Y79843639D01*
X121712201Y79844935D01*
X121804320Y79845807D01*
X121882481Y79846161D01*
X121948169Y79845908D01*
X122002872Y79844957D01*
X122048073Y79843217D01*
X122085260Y79840597D01*
X122115918Y79837007D01*
X122141533Y79832354D01*
X122163590Y79826550D01*
X122183577Y79819502D01*
X122202979Y79811120D01*
X122212786Y79806468D01*
X122265270Y79772228D01*
X122309890Y79725532D01*
X122339061Y79678254D01*
X122360267Y79634297D01*
X122360267Y79085670D01*
X122360138Y78977698D01*
X122359763Y78877763D01*
X122359158Y78787013D01*
X122358340Y78706595D01*
X122357323Y78637657D01*
X122356125Y78581345D01*
X122354761Y78538807D01*
X122353248Y78511191D01*
X122352020Y78500938D01*
X122346804Y78477919D01*
X122339031Y78443399D01*
X122329833Y78402405D01*
X122322015Y78367467D01*
X122284024Y78232021D01*
X122231248Y78096630D01*
X122165465Y77964875D01*
X122088452Y77840338D01*
X122006946Y77732503D01*
X121905034Y77622625D01*
X121791712Y77522464D01*
X121669012Y77433233D01*
X121538967Y77356145D01*
X121403609Y77292411D01*
X121264971Y77243245D01*
X121133456Y77211391D01*
X121096818Y77203970D01*
X121063648Y77196229D01*
X121039707Y77189542D01*
X121035234Y77187966D01*
X121028425Y77186983D01*
X121012968Y77186058D01*
X120988467Y77185191D01*
X120954523Y77184379D01*
X120910740Y77183622D01*
X120856723Y77182917D01*
X120792073Y77182263D01*
X120716395Y77181658D01*
X120629292Y77181102D01*
X120530366Y77180592D01*
X120419222Y77180127D01*
X120295462Y77179705D01*
X120158690Y77179325D01*
X120008509Y77178986D01*
X119844523Y77178686D01*
X119666335Y77178423D01*
X119473547Y77178197D01*
X119265764Y77178004D01*
X119042589Y77177844D01*
X118803625Y77177716D01*
X118548475Y77177618D01*
X118308967Y77177554D01*
X118095158Y77177518D01*
X117885241Y77177500D01*
X117679880Y77177499D01*
X117479737Y77177517D01*
X117285474Y77177551D01*
X117097756Y77177602D01*
X116917244Y77177668D01*
X116744601Y77177750D01*
X116580490Y77177846D01*
X116425574Y77177957D01*
X116280515Y77178081D01*
X116145977Y77178218D01*
X116022622Y77178367D01*
X115911112Y77178529D01*
X115812112Y77178702D01*
X115726282Y77178886D01*
X115654287Y77179080D01*
X115596788Y77179284D01*
X115554450Y77179497D01*
X115527933Y77179719D01*
X115519305Y77179873D01*
X115481750Y77181812D01*
X115450391Y77184763D01*
X115429169Y77188276D01*
X115422362Y77190918D01*
X115408533Y77196873D01*
X115389542Y77199066D01*
X115364962Y77201565D01*
X115328256Y77208386D01*
X115283368Y77218516D01*
X115234242Y77230945D01*
X115184823Y77244659D01*
X115139056Y77258645D01*
X115100884Y77271893D01*
X115091634Y77275519D01*
X115067911Y77284975D01*
X115049300Y77292131D01*
X115015398Y77306465D01*
X114971668Y77327484D01*
X114922610Y77352844D01*
X114872722Y77380204D01*
X114826503Y77407221D01*
X114816467Y77413387D01*
X114684098Y77505449D01*
X114563294Y77609779D01*
X114454544Y77725834D01*
X114358338Y77853073D01*
X114275164Y77990955D01*
X114249527Y78041007D01*
X114221420Y78102963D01*
X114193501Y78172767D01*
X114167529Y78245362D01*
X114145263Y78315692D01*
X114128461Y78378700D01*
X114122719Y78405567D01*
X114115835Y78440560D01*
X114108673Y78475223D01*
X114104922Y78492471D01*
X114103758Y78506103D01*
X114102682Y78535422D01*
X114101696Y78579182D01*
X114100799Y78636136D01*
X114099990Y78705040D01*
X114099271Y78784647D01*
X114098640Y78873710D01*
X114098099Y78970984D01*
X114097646Y79075222D01*
X114097283Y79185179D01*
X114097008Y79299609D01*
X114096822Y79417265D01*
X114096725Y79536902D01*
X114096717Y79657272D01*
X114096798Y79777132D01*
X114096968Y79895233D01*
X114097227Y80010331D01*
X114097575Y80121179D01*
X114098012Y80226531D01*
X114098537Y80325140D01*
X114099152Y80415762D01*
X114099855Y80497150D01*
X114100648Y80568058D01*
X114101529Y80627239D01*
X114102500Y80673448D01*
X114103559Y80705439D01*
X114104707Y80721966D01*
X114104922Y80723195D01*
X114111217Y80752471D01*
X114118558Y80788407D01*
X114122819Y80810100D01*
X114131086Y80848968D01*
X114141330Y80891113D01*
X114152498Y80932830D01*
X114163536Y80970418D01*
X114173389Y81000171D01*
X114181004Y81018386D01*
X114182939Y81021343D01*
X114189670Y81036936D01*
X114189934Y81040162D01*
X114193252Y81053117D01*
X114201888Y81076033D01*
X114212149Y81099852D01*
X114286826Y81248055D01*
X114370123Y81382227D01*
X114462880Y81503378D01*
X114565935Y81612517D01*
X114680127Y81710652D01*
X114778367Y81780799D01*
X114835226Y81817359D01*
X114885978Y81847682D01*
X114935201Y81874101D01*
X114987472Y81898948D01*
X115047370Y81924556D01*
X115108567Y81949001D01*
X115170638Y81970466D01*
X115242258Y81990587D01*
X115316053Y82007305D01*
X115320234Y82008124D01*
X115355772Y82015380D01*
X115391475Y82023217D01*
X115409134Y82027379D01*
X115425161Y82029296D01*
X115457409Y82031137D01*
X115505961Y82032901D01*
X115570898Y82034591D01*
X115652302Y82036209D01*
X115750257Y82037755D01*
X115864843Y82039231D01*
X115996144Y82040639D01*
X116144241Y82041980D01*
X116251567Y82042832D01*
X116376292Y82043859D01*
X116495039Y82045004D01*
X116606699Y82046249D01*
X116710164Y82047575D01*
X116804326Y82048964D01*
X116888076Y82050396D01*
X116960305Y82051853D01*
X117019904Y82053316D01*
X117065766Y82054767D01*
X117096781Y82056186D01*
X117110933Y82057396D01*
X117210933Y82075051D01*
X117298776Y82095707D01*
X117379162Y82120755D01*
X117456789Y82151584D01*
X117504732Y82173790D01*
X117610330Y82234007D01*
X117704111Y82306161D01*
X117785664Y82389844D01*
X117854582Y82484650D01*
X117899723Y82566933D01*
X117935442Y82655294D01*
X117960911Y82750926D01*
X117976563Y82856070D01*
X117982834Y82972966D01*
X117983000Y82997134D01*
X117984005Y83058883D01*
X117987608Y83107169D01*
X117994687Y83145373D01*
X118006124Y83176879D01*
X118022798Y83205068D01*
X118043975Y83231498D01*
X118071508Y83257952D01*
X118104044Y83282592D01*
X118121656Y83293187D01*
X118147931Y83305403D01*
X118172749Y83312346D01*
X118202769Y83315379D01*
X118232767Y83315906D01*
X118271160Y83314906D01*
G36*
X118624460Y76269850D02*
G01*
X118622234Y75975633D01*
X118549866Y75973212D01*
X118516337Y75972765D01*
X118489524Y75973669D01*
X118473732Y75975729D01*
X118471549Y75976740D01*
X118470149Y75986320D01*
X118468867Y76010846D01*
X118467741Y76048330D01*
X118466813Y76096784D01*
X118466121Y76154221D01*
X118465706Y76218653D01*
X118465600Y76273378D01*
X118465600Y76564066D01*
X118626686Y76564066D01*
X118624460Y76269850D01*
G37*
X118624460Y76269850D02*
X118622234Y75975633D01*
X118549866Y75973212D01*
X118516337Y75972765D01*
X118489524Y75973669D01*
X118473732Y75975729D01*
X118471549Y75976740D01*
X118470149Y75986320D01*
X118468867Y76010846D01*
X118467741Y76048330D01*
X118466813Y76096784D01*
X118466121Y76154221D01*
X118465706Y76218653D01*
X118465600Y76273378D01*
X118465600Y76564066D01*
X118626686Y76564066D01*
X118624460Y76269850D01*
G36*
X118253934Y75971400D02*
G01*
X118187611Y75971400D01*
X118155577Y75972075D01*
X118130430Y75973864D01*
X118116691Y75976413D01*
X118115645Y75977044D01*
X118114317Y75986551D01*
X118113100Y76011006D01*
X118112032Y76048424D01*
X118111151Y76096821D01*
X118110495Y76154212D01*
X118110101Y76218611D01*
X118110000Y76273378D01*
X118110000Y76564066D01*
X118253934Y76564066D01*
X118253934Y75971400D01*
G37*
X118253934Y75971400D02*
X118187611Y75971400D01*
X118155577Y75972075D01*
X118130430Y75973864D01*
X118116691Y75976413D01*
X118115645Y75977044D01*
X118114317Y75986551D01*
X118113100Y76011006D01*
X118112032Y76048424D01*
X118111151Y76096821D01*
X118110495Y76154212D01*
X118110101Y76218611D01*
X118110000Y76273378D01*
X118110000Y76564066D01*
X118253934Y76564066D01*
X118253934Y75971400D01*
G36*
X119501302Y76742843D02*
G01*
X119507110Y76741267D01*
X119587420Y76712700D01*
X119657187Y76673570D01*
X119720758Y76621375D01*
X119728050Y76614242D01*
X119780229Y76552363D01*
X119821264Y76482919D01*
X119848844Y76410147D01*
X119855770Y76380094D01*
X119865523Y76327355D01*
X120027045Y76325061D01*
X120188567Y76322766D01*
X120188567Y76221166D01*
X120026385Y76218870D01*
X119864203Y76216573D01*
X119853656Y76172303D01*
X119825734Y76090490D01*
X119783522Y76015656D01*
X119728823Y75949620D01*
X119663440Y75894203D01*
X119589174Y75851224D01*
X119507829Y75822503D01*
X119507000Y75822298D01*
X119467710Y75815792D01*
X119419115Y75812377D01*
X119367300Y75812043D01*
X119318348Y75814780D01*
X119278341Y75820581D01*
X119269934Y75822651D01*
X119191464Y75852851D01*
X119115031Y75898835D01*
X119082117Y75924165D01*
X119025537Y75970835D01*
X118929719Y75973234D01*
X118833900Y75975633D01*
X118831674Y76269850D01*
X118829447Y76564066D01*
X119001174Y76564066D01*
X119057616Y76617311D01*
X119119409Y76669069D01*
X119181806Y76707143D01*
X119249579Y76734262D01*
X119275137Y76741586D01*
X119352835Y76755974D01*
X119426405Y76756395D01*
X119501302Y76742843D01*
G37*
X119501302Y76742843D02*
X119507110Y76741267D01*
X119587420Y76712700D01*
X119657187Y76673570D01*
X119720758Y76621375D01*
X119728050Y76614242D01*
X119780229Y76552363D01*
X119821264Y76482919D01*
X119848844Y76410147D01*
X119855770Y76380094D01*
X119865523Y76327355D01*
X120027045Y76325061D01*
X120188567Y76322766D01*
X120188567Y76221166D01*
X120026385Y76218870D01*
X119864203Y76216573D01*
X119853656Y76172303D01*
X119825734Y76090490D01*
X119783522Y76015656D01*
X119728823Y75949620D01*
X119663440Y75894203D01*
X119589174Y75851224D01*
X119507829Y75822503D01*
X119507000Y75822298D01*
X119467710Y75815792D01*
X119419115Y75812377D01*
X119367300Y75812043D01*
X119318348Y75814780D01*
X119278341Y75820581D01*
X119269934Y75822651D01*
X119191464Y75852851D01*
X119115031Y75898835D01*
X119082117Y75924165D01*
X119025537Y75970835D01*
X118929719Y75973234D01*
X118833900Y75975633D01*
X118831674Y76269850D01*
X118829447Y76564066D01*
X119001174Y76564066D01*
X119057616Y76617311D01*
X119119409Y76669069D01*
X119181806Y76707143D01*
X119249579Y76734262D01*
X119275137Y76741586D01*
X119352835Y76755974D01*
X119426405Y76756395D01*
X119501302Y76742843D01*
G36*
X117103162Y76755879D02*
G01*
X117178777Y76741267D01*
X117260454Y76712073D01*
X117331165Y76672109D01*
X117394433Y76619368D01*
X117396839Y76616983D01*
X117449914Y76564066D01*
X117991686Y76564066D01*
X117989460Y76269850D01*
X117987233Y75975633D01*
X117705289Y75973402D01*
X117423345Y75971170D01*
X117385071Y75934495D01*
X117348501Y75904957D01*
X117302160Y75875427D01*
X117251888Y75849046D01*
X117203527Y75828955D01*
X117171900Y75819877D01*
X117131577Y75814319D01*
X117082744Y75811778D01*
X117031461Y75812177D01*
X116983789Y75815443D01*
X116945789Y75821499D01*
X116940945Y75822740D01*
X116862268Y75852621D01*
X116789840Y75896100D01*
X116725716Y75951068D01*
X116671949Y76015418D01*
X116630595Y76087045D01*
X116603708Y76163840D01*
X116602264Y76170050D01*
X116591852Y76216577D01*
X116430176Y76218872D01*
X116268500Y76221166D01*
X116268500Y76322766D01*
X116429262Y76327000D01*
X116485189Y76328562D01*
X116526456Y76330072D01*
X116555333Y76331825D01*
X116574091Y76334115D01*
X116585001Y76337237D01*
X116590331Y76341485D01*
X116592353Y76347153D01*
X116592514Y76348166D01*
X116613457Y76433257D01*
X116650132Y76512842D01*
X116701864Y76585604D01*
X116729387Y76615283D01*
X116793013Y76670327D01*
X116859904Y76710691D01*
X116933916Y76738617D01*
X116948076Y76742440D01*
X117027449Y76756407D01*
X117103162Y76755879D01*
G37*
X117103162Y76755879D02*
X117178777Y76741267D01*
X117260454Y76712073D01*
X117331165Y76672109D01*
X117394433Y76619368D01*
X117396839Y76616983D01*
X117449914Y76564066D01*
X117991686Y76564066D01*
X117989460Y76269850D01*
X117987233Y75975633D01*
X117705289Y75973402D01*
X117423345Y75971170D01*
X117385071Y75934495D01*
X117348501Y75904957D01*
X117302160Y75875427D01*
X117251888Y75849046D01*
X117203527Y75828955D01*
X117171900Y75819877D01*
X117131577Y75814319D01*
X117082744Y75811778D01*
X117031461Y75812177D01*
X116983789Y75815443D01*
X116945789Y75821499D01*
X116940945Y75822740D01*
X116862268Y75852621D01*
X116789840Y75896100D01*
X116725716Y75951068D01*
X116671949Y76015418D01*
X116630595Y76087045D01*
X116603708Y76163840D01*
X116602264Y76170050D01*
X116591852Y76216577D01*
X116430176Y76218872D01*
X116268500Y76221166D01*
X116268500Y76322766D01*
X116429262Y76327000D01*
X116485189Y76328562D01*
X116526456Y76330072D01*
X116555333Y76331825D01*
X116574091Y76334115D01*
X116585001Y76337237D01*
X116590331Y76341485D01*
X116592353Y76347153D01*
X116592514Y76348166D01*
X116613457Y76433257D01*
X116650132Y76512842D01*
X116701864Y76585604D01*
X116729387Y76615283D01*
X116793013Y76670327D01*
X116859904Y76710691D01*
X116933916Y76738617D01*
X116948076Y76742440D01*
X117027449Y76756407D01*
X117103162Y76755879D01*
G36*
X120493863Y75344206D02*
G01*
X120538172Y75329450D01*
X120574695Y75303057D01*
X120598511Y75275406D01*
X120629635Y75219512D01*
X120646031Y75158602D01*
X120647693Y75095844D01*
X120634614Y75034403D01*
X120606787Y74977447D01*
X120599206Y74966538D01*
X120563616Y74931654D01*
X120517576Y74906739D01*
X120465200Y74893121D01*
X120410601Y74892129D01*
X120383408Y74896866D01*
X120334669Y74917239D01*
X120292541Y74951419D01*
X120259804Y74996720D01*
X120244914Y75030747D01*
X120239047Y75059284D01*
X120235940Y75098000D01*
X120235648Y75140354D01*
X120238227Y75179810D01*
X120243405Y75208719D01*
X120264207Y75254406D01*
X120297254Y75295912D01*
X120336139Y75326352D01*
X120360082Y75338773D01*
X120383031Y75345680D01*
X120411608Y75348534D01*
X120438334Y75348904D01*
X120493863Y75344206D01*
G37*
X120493863Y75344206D02*
X120538172Y75329450D01*
X120574695Y75303057D01*
X120598511Y75275406D01*
X120629635Y75219512D01*
X120646031Y75158602D01*
X120647693Y75095844D01*
X120634614Y75034403D01*
X120606787Y74977447D01*
X120599206Y74966538D01*
X120563616Y74931654D01*
X120517576Y74906739D01*
X120465200Y74893121D01*
X120410601Y74892129D01*
X120383408Y74896866D01*
X120334669Y74917239D01*
X120292541Y74951419D01*
X120259804Y74996720D01*
X120244914Y75030747D01*
X120239047Y75059284D01*
X120235940Y75098000D01*
X120235648Y75140354D01*
X120238227Y75179810D01*
X120243405Y75208719D01*
X120264207Y75254406D01*
X120297254Y75295912D01*
X120336139Y75326352D01*
X120360082Y75338773D01*
X120383031Y75345680D01*
X120411608Y75348534D01*
X120438334Y75348904D01*
X120493863Y75344206D01*
G36*
X114339261Y75381479D02*
G01*
X114354229Y75377926D01*
X114384628Y75363343D01*
X114417583Y75337984D01*
X114448540Y75306441D01*
X114472948Y75273306D01*
X114485710Y75245336D01*
X114487179Y75233401D01*
X114488483Y75208885D01*
X114489622Y75171408D01*
X114490600Y75120592D01*
X114491418Y75056059D01*
X114492079Y74977429D01*
X114492585Y74884324D01*
X114492939Y74776366D01*
X114493143Y74653175D01*
X114493199Y74514374D01*
X114493109Y74359582D01*
X114492876Y74188422D01*
X114492710Y74098351D01*
X114490500Y72985568D01*
X114465100Y72944968D01*
X114442850Y72915736D01*
X114415487Y72888050D01*
X114402891Y72877900D01*
X114382350Y72864352D01*
X114363478Y72856150D01*
X114340574Y72851750D01*
X114307935Y72849607D01*
X114297058Y72849226D01*
X114249235Y72849751D01*
X114214389Y72854598D01*
X114202634Y72858537D01*
X114155717Y72888595D01*
X114117451Y72930743D01*
X114099906Y72961154D01*
X114080032Y73003833D01*
X114080135Y74117200D01*
X114080159Y74277407D01*
X114080205Y74421557D01*
X114080286Y74550528D01*
X114080414Y74665196D01*
X114080601Y74766438D01*
X114080858Y74855132D01*
X114081197Y74932153D01*
X114081631Y74998380D01*
X114082171Y75054689D01*
X114082828Y75101956D01*
X114083616Y75141060D01*
X114084546Y75172875D01*
X114085629Y75198281D01*
X114086877Y75218153D01*
X114088303Y75233368D01*
X114089918Y75244803D01*
X114091734Y75253336D01*
X114093763Y75259843D01*
X114095663Y75264433D01*
X114116434Y75297002D01*
X114147239Y75330267D01*
X114182346Y75358755D01*
X114211763Y75375323D01*
X114248583Y75384496D01*
X114293523Y75386593D01*
X114339261Y75381479D01*
G37*
X114339261Y75381479D02*
X114354229Y75377926D01*
X114384628Y75363343D01*
X114417583Y75337984D01*
X114448540Y75306441D01*
X114472948Y75273306D01*
X114485710Y75245336D01*
X114487179Y75233401D01*
X114488483Y75208885D01*
X114489622Y75171408D01*
X114490600Y75120592D01*
X114491418Y75056059D01*
X114492079Y74977429D01*
X114492585Y74884324D01*
X114492939Y74776366D01*
X114493143Y74653175D01*
X114493199Y74514374D01*
X114493109Y74359582D01*
X114492876Y74188422D01*
X114492710Y74098351D01*
X114490500Y72985568D01*
X114465100Y72944968D01*
X114442850Y72915736D01*
X114415487Y72888050D01*
X114402891Y72877900D01*
X114382350Y72864352D01*
X114363478Y72856150D01*
X114340574Y72851750D01*
X114307935Y72849607D01*
X114297058Y72849226D01*
X114249235Y72849751D01*
X114214389Y72854598D01*
X114202634Y72858537D01*
X114155717Y72888595D01*
X114117451Y72930743D01*
X114099906Y72961154D01*
X114080032Y73003833D01*
X114080135Y74117200D01*
X114080159Y74277407D01*
X114080205Y74421557D01*
X114080286Y74550528D01*
X114080414Y74665196D01*
X114080601Y74766438D01*
X114080858Y74855132D01*
X114081197Y74932153D01*
X114081631Y74998380D01*
X114082171Y75054689D01*
X114082828Y75101956D01*
X114083616Y75141060D01*
X114084546Y75172875D01*
X114085629Y75198281D01*
X114086877Y75218153D01*
X114088303Y75233368D01*
X114089918Y75244803D01*
X114091734Y75253336D01*
X114093763Y75259843D01*
X114095663Y75264433D01*
X114116434Y75297002D01*
X114147239Y75330267D01*
X114182346Y75358755D01*
X114211763Y75375323D01*
X114248583Y75384496D01*
X114293523Y75386593D01*
X114339261Y75381479D01*
G36*
X120492438Y74783461D02*
G01*
X120538268Y74765492D01*
X120579922Y74733075D01*
X120592950Y74719451D01*
X120602241Y74709290D01*
X120610466Y74699910D01*
X120617689Y74690269D01*
X120623975Y74679326D01*
X120629389Y74666040D01*
X120633997Y74649370D01*
X120637862Y74628274D01*
X120641050Y74601712D01*
X120643626Y74568641D01*
X120645654Y74528021D01*
X120647199Y74478811D01*
X120648327Y74419969D01*
X120649102Y74350455D01*
X120649589Y74269226D01*
X120649852Y74175241D01*
X120649958Y74067460D01*
X120649970Y73944841D01*
X120649953Y73806344D01*
X120649953Y73804513D01*
X120649854Y73649214D01*
X120649574Y73510631D01*
X120649112Y73388546D01*
X120648465Y73282743D01*
X120647630Y73193006D01*
X120646606Y73119116D01*
X120645389Y73060859D01*
X120643977Y73018016D01*
X120642368Y72990371D01*
X120640785Y72978433D01*
X120618391Y72925977D01*
X120583219Y72882305D01*
X120537960Y72849664D01*
X120485304Y72830300D01*
X120458785Y72826427D01*
X120425016Y72825796D01*
X120392717Y72828374D01*
X120377274Y72831408D01*
X120345405Y72846312D01*
X120311069Y72871630D01*
X120279492Y72902689D01*
X120255900Y72934819D01*
X120251038Y72944239D01*
X120248466Y72950560D01*
X120246193Y72958196D01*
X120244201Y72968176D01*
X120242472Y72981528D01*
X120240985Y72999281D01*
X120239723Y73022461D01*
X120238667Y73052098D01*
X120237797Y73089220D01*
X120237096Y73134854D01*
X120236545Y73190030D01*
X120236124Y73255774D01*
X120235815Y73333116D01*
X120235600Y73423083D01*
X120235459Y73526704D01*
X120235374Y73645007D01*
X120235326Y73779019D01*
X120235319Y73806322D01*
X120235271Y73946092D01*
X120235231Y74069951D01*
X120235259Y74178918D01*
X120235414Y74274015D01*
X120235755Y74356264D01*
X120236341Y74426684D01*
X120237231Y74486298D01*
X120238484Y74536125D01*
X120240159Y74577189D01*
X120242316Y74610508D01*
X120245013Y74637105D01*
X120248309Y74658000D01*
X120252263Y74674215D01*
X120256935Y74686771D01*
X120262384Y74696689D01*
X120268668Y74704989D01*
X120275847Y74712693D01*
X120283979Y74720822D01*
X120288479Y74725425D01*
X120331139Y74760903D01*
X120378324Y74781488D01*
X120433810Y74788777D01*
X120438309Y74788832D01*
X120492438Y74783461D01*
G37*
X120492438Y74783461D02*
X120538268Y74765492D01*
X120579922Y74733075D01*
X120592950Y74719451D01*
X120602241Y74709290D01*
X120610466Y74699910D01*
X120617689Y74690269D01*
X120623975Y74679326D01*
X120629389Y74666040D01*
X120633997Y74649370D01*
X120637862Y74628274D01*
X120641050Y74601712D01*
X120643626Y74568641D01*
X120645654Y74528021D01*
X120647199Y74478811D01*
X120648327Y74419969D01*
X120649102Y74350455D01*
X120649589Y74269226D01*
X120649852Y74175241D01*
X120649958Y74067460D01*
X120649970Y73944841D01*
X120649953Y73806344D01*
X120649953Y73804513D01*
X120649854Y73649214D01*
X120649574Y73510631D01*
X120649112Y73388546D01*
X120648465Y73282743D01*
X120647630Y73193006D01*
X120646606Y73119116D01*
X120645389Y73060859D01*
X120643977Y73018016D01*
X120642368Y72990371D01*
X120640785Y72978433D01*
X120618391Y72925977D01*
X120583219Y72882305D01*
X120537960Y72849664D01*
X120485304Y72830300D01*
X120458785Y72826427D01*
X120425016Y72825796D01*
X120392717Y72828374D01*
X120377274Y72831408D01*
X120345405Y72846312D01*
X120311069Y72871630D01*
X120279492Y72902689D01*
X120255900Y72934819D01*
X120251038Y72944239D01*
X120248466Y72950560D01*
X120246193Y72958196D01*
X120244201Y72968176D01*
X120242472Y72981528D01*
X120240985Y72999281D01*
X120239723Y73022461D01*
X120238667Y73052098D01*
X120237797Y73089220D01*
X120237096Y73134854D01*
X120236545Y73190030D01*
X120236124Y73255774D01*
X120235815Y73333116D01*
X120235600Y73423083D01*
X120235459Y73526704D01*
X120235374Y73645007D01*
X120235326Y73779019D01*
X120235319Y73806322D01*
X120235271Y73946092D01*
X120235231Y74069951D01*
X120235259Y74178918D01*
X120235414Y74274015D01*
X120235755Y74356264D01*
X120236341Y74426684D01*
X120237231Y74486298D01*
X120238484Y74536125D01*
X120240159Y74577189D01*
X120242316Y74610508D01*
X120245013Y74637105D01*
X120248309Y74658000D01*
X120252263Y74674215D01*
X120256935Y74686771D01*
X120262384Y74696689D01*
X120268668Y74704989D01*
X120275847Y74712693D01*
X120283979Y74720822D01*
X120288479Y74725425D01*
X120331139Y74760903D01*
X120378324Y74781488D01*
X120433810Y74788777D01*
X120438309Y74788832D01*
X120492438Y74783461D01*
G36*
X121367899Y74784668D02*
G01*
X121475500Y74783967D01*
X121575260Y74783101D01*
X121659879Y74782119D01*
X121731151Y74780787D01*
X121790869Y74778873D01*
X121840825Y74776143D01*
X121882812Y74772366D01*
X121918624Y74767308D01*
X121950053Y74760736D01*
X121978892Y74752417D01*
X122006934Y74742119D01*
X122035971Y74729609D01*
X122067797Y74714653D01*
X122089334Y74704235D01*
X122133864Y74681076D01*
X122169473Y74658114D01*
X122202930Y74630497D01*
X122233733Y74600747D01*
X122278716Y74550971D01*
X122311536Y74504940D01*
X122322112Y74485500D01*
X122346526Y74434700D01*
X122353627Y74112966D01*
X122355323Y74022646D01*
X122356705Y73921880D01*
X122357737Y73815771D01*
X122358382Y73709419D01*
X122358602Y73607925D01*
X122358362Y73516392D01*
X122358151Y73486433D01*
X122357406Y73405579D01*
X122356607Y73339805D01*
X122355652Y73287258D01*
X122354440Y73246085D01*
X122352868Y73214432D01*
X122350835Y73190446D01*
X122348240Y73172275D01*
X122344980Y73158064D01*
X122340954Y73145962D01*
X122339215Y73141561D01*
X122317673Y73099424D01*
X122287384Y73053899D01*
X122252578Y73010511D01*
X122217483Y72974783D01*
X122201739Y72961950D01*
X122122081Y72912217D01*
X122031518Y72870837D01*
X121934787Y72839682D01*
X121848034Y72822169D01*
X121821164Y72819701D01*
X121780545Y72817732D01*
X121729352Y72816264D01*
X121670763Y72815300D01*
X121607952Y72814843D01*
X121544096Y72814895D01*
X121482372Y72815459D01*
X121425956Y72816538D01*
X121378024Y72818135D01*
X121341752Y72820252D01*
X121327334Y72821716D01*
X121233401Y72840363D01*
X121144945Y72870044D01*
X121063668Y72909527D01*
X120991277Y72957579D01*
X120929476Y73012968D01*
X120879970Y73074462D01*
X120844464Y73140829D01*
X120831144Y73180365D01*
X120827088Y73204967D01*
X120823812Y73243511D01*
X120821308Y73293222D01*
X120819568Y73351326D01*
X120818586Y73415050D01*
X120818353Y73481621D01*
X120818750Y73533799D01*
X121235729Y73533799D01*
X121236158Y73473522D01*
X121238434Y73276461D01*
X121272300Y73264285D01*
X121308900Y73252546D01*
X121346856Y73243654D01*
X121388985Y73237336D01*
X121438104Y73233319D01*
X121497028Y73231333D01*
X121568575Y73231105D01*
X121610967Y73231580D01*
X121675221Y73232728D01*
X121725546Y73234209D01*
X121764948Y73236277D01*
X121796431Y73239186D01*
X121823000Y73243190D01*
X121847660Y73248542D01*
X121864581Y73253001D01*
X121896534Y73262122D01*
X121922105Y73269910D01*
X121936956Y73275027D01*
X121938664Y73275836D01*
X121940572Y73285127D01*
X121942270Y73308938D01*
X121943678Y73344852D01*
X121944715Y73390456D01*
X121945300Y73443335D01*
X121945400Y73477333D01*
X121945400Y73674666D01*
X121822634Y73731644D01*
X121615200Y73731805D01*
X121548957Y73731741D01*
X121496810Y73731303D01*
X121455924Y73730292D01*
X121423463Y73728514D01*
X121396591Y73725770D01*
X121372473Y73721864D01*
X121348272Y73716599D01*
X121329716Y73711988D01*
X121294827Y73702210D01*
X121265928Y73692538D01*
X121247173Y73684440D01*
X121242774Y73681296D01*
X121239615Y73668568D01*
X121237378Y73639417D01*
X121236077Y73594332D01*
X121235729Y73533799D01*
X120818750Y73533799D01*
X120818861Y73548264D01*
X120820104Y73612207D01*
X120822072Y73670675D01*
X120824759Y73720894D01*
X120828157Y73760092D01*
X120832258Y73785494D01*
X120832825Y73787580D01*
X120863127Y73861194D01*
X120908550Y73928251D01*
X120968375Y73988184D01*
X121041886Y74040428D01*
X121128366Y74084417D01*
X121227096Y74119588D01*
X121268067Y74130619D01*
X121305241Y74137204D01*
X121355873Y74142419D01*
X121416933Y74146272D01*
X121485394Y74148770D01*
X121558225Y74149922D01*
X121632399Y74149736D01*
X121704887Y74148219D01*
X121772659Y74145381D01*
X121832688Y74141229D01*
X121881943Y74135771D01*
X121917397Y74129015D01*
X121917884Y74128883D01*
X121926054Y74127181D01*
X121931473Y74129202D01*
X121934706Y74137673D01*
X121936317Y74155325D01*
X121936871Y74184887D01*
X121936934Y74220939D01*
X121936934Y74318186D01*
X121884017Y74342546D01*
X121831100Y74366905D01*
X121441634Y74371169D01*
X121350333Y74372184D01*
X121274387Y74373109D01*
X121212218Y74374032D01*
X121162247Y74375040D01*
X121122898Y74376221D01*
X121092591Y74377664D01*
X121069748Y74379456D01*
X121052793Y74381685D01*
X121040147Y74384438D01*
X121030232Y74387805D01*
X121021471Y74391871D01*
X121015747Y74394878D01*
X120981727Y74420958D01*
X120951210Y74458943D01*
X120927825Y74503804D01*
X120919818Y74527703D01*
X120913541Y74579185D01*
X120920546Y74631296D01*
X120939122Y74680647D01*
X120967555Y74723848D01*
X121004135Y74757506D01*
X121046198Y74777956D01*
X121062471Y74780412D01*
X121093112Y74782325D01*
X121138548Y74783701D01*
X121199206Y74784546D01*
X121275514Y74784866D01*
X121367899Y74784668D01*
G37*
X121367899Y74784668D02*
X121475500Y74783967D01*
X121575260Y74783101D01*
X121659879Y74782119D01*
X121731151Y74780787D01*
X121790869Y74778873D01*
X121840825Y74776143D01*
X121882812Y74772366D01*
X121918624Y74767308D01*
X121950053Y74760736D01*
X121978892Y74752417D01*
X122006934Y74742119D01*
X122035971Y74729609D01*
X122067797Y74714653D01*
X122089334Y74704235D01*
X122133864Y74681076D01*
X122169473Y74658114D01*
X122202930Y74630497D01*
X122233733Y74600747D01*
X122278716Y74550971D01*
X122311536Y74504940D01*
X122322112Y74485500D01*
X122346526Y74434700D01*
X122353627Y74112966D01*
X122355323Y74022646D01*
X122356705Y73921880D01*
X122357737Y73815771D01*
X122358382Y73709419D01*
X122358602Y73607925D01*
X122358362Y73516392D01*
X122358151Y73486433D01*
X122357406Y73405579D01*
X122356607Y73339805D01*
X122355652Y73287258D01*
X122354440Y73246085D01*
X122352868Y73214432D01*
X122350835Y73190446D01*
X122348240Y73172275D01*
X122344980Y73158064D01*
X122340954Y73145962D01*
X122339215Y73141561D01*
X122317673Y73099424D01*
X122287384Y73053899D01*
X122252578Y73010511D01*
X122217483Y72974783D01*
X122201739Y72961950D01*
X122122081Y72912217D01*
X122031518Y72870837D01*
X121934787Y72839682D01*
X121848034Y72822169D01*
X121821164Y72819701D01*
X121780545Y72817732D01*
X121729352Y72816264D01*
X121670763Y72815300D01*
X121607952Y72814843D01*
X121544096Y72814895D01*
X121482372Y72815459D01*
X121425956Y72816538D01*
X121378024Y72818135D01*
X121341752Y72820252D01*
X121327334Y72821716D01*
X121233401Y72840363D01*
X121144945Y72870044D01*
X121063668Y72909527D01*
X120991277Y72957579D01*
X120929476Y73012968D01*
X120879970Y73074462D01*
X120844464Y73140829D01*
X120831144Y73180365D01*
X120827088Y73204967D01*
X120823812Y73243511D01*
X120821308Y73293222D01*
X120819568Y73351326D01*
X120818586Y73415050D01*
X120818353Y73481621D01*
X120818750Y73533799D01*
X121235729Y73533799D01*
X121236158Y73473522D01*
X121238434Y73276461D01*
X121272300Y73264285D01*
X121308900Y73252546D01*
X121346856Y73243654D01*
X121388985Y73237336D01*
X121438104Y73233319D01*
X121497028Y73231333D01*
X121568575Y73231105D01*
X121610967Y73231580D01*
X121675221Y73232728D01*
X121725546Y73234209D01*
X121764948Y73236277D01*
X121796431Y73239186D01*
X121823000Y73243190D01*
X121847660Y73248542D01*
X121864581Y73253001D01*
X121896534Y73262122D01*
X121922105Y73269910D01*
X121936956Y73275027D01*
X121938664Y73275836D01*
X121940572Y73285127D01*
X121942270Y73308938D01*
X121943678Y73344852D01*
X121944715Y73390456D01*
X121945300Y73443335D01*
X121945400Y73477333D01*
X121945400Y73674666D01*
X121822634Y73731644D01*
X121615200Y73731805D01*
X121548957Y73731741D01*
X121496810Y73731303D01*
X121455924Y73730292D01*
X121423463Y73728514D01*
X121396591Y73725770D01*
X121372473Y73721864D01*
X121348272Y73716599D01*
X121329716Y73711988D01*
X121294827Y73702210D01*
X121265928Y73692538D01*
X121247173Y73684440D01*
X121242774Y73681296D01*
X121239615Y73668568D01*
X121237378Y73639417D01*
X121236077Y73594332D01*
X121235729Y73533799D01*
X120818750Y73533799D01*
X120818861Y73548264D01*
X120820104Y73612207D01*
X120822072Y73670675D01*
X120824759Y73720894D01*
X120828157Y73760092D01*
X120832258Y73785494D01*
X120832825Y73787580D01*
X120863127Y73861194D01*
X120908550Y73928251D01*
X120968375Y73988184D01*
X121041886Y74040428D01*
X121128366Y74084417D01*
X121227096Y74119588D01*
X121268067Y74130619D01*
X121305241Y74137204D01*
X121355873Y74142419D01*
X121416933Y74146272D01*
X121485394Y74148770D01*
X121558225Y74149922D01*
X121632399Y74149736D01*
X121704887Y74148219D01*
X121772659Y74145381D01*
X121832688Y74141229D01*
X121881943Y74135771D01*
X121917397Y74129015D01*
X121917884Y74128883D01*
X121926054Y74127181D01*
X121931473Y74129202D01*
X121934706Y74137673D01*
X121936317Y74155325D01*
X121936871Y74184887D01*
X121936934Y74220939D01*
X121936934Y74318186D01*
X121884017Y74342546D01*
X121831100Y74366905D01*
X121441634Y74371169D01*
X121350333Y74372184D01*
X121274387Y74373109D01*
X121212218Y74374032D01*
X121162247Y74375040D01*
X121122898Y74376221D01*
X121092591Y74377664D01*
X121069748Y74379456D01*
X121052793Y74381685D01*
X121040147Y74384438D01*
X121030232Y74387805D01*
X121021471Y74391871D01*
X121015747Y74394878D01*
X120981727Y74420958D01*
X120951210Y74458943D01*
X120927825Y74503804D01*
X120919818Y74527703D01*
X120913541Y74579185D01*
X120920546Y74631296D01*
X120939122Y74680647D01*
X120967555Y74723848D01*
X121004135Y74757506D01*
X121046198Y74777956D01*
X121062471Y74780412D01*
X121093112Y74782325D01*
X121138548Y74783701D01*
X121199206Y74784546D01*
X121275514Y74784866D01*
X121367899Y74784668D01*
G36*
X119331080Y74777360D02*
G01*
X119409605Y74776473D01*
X119475373Y74774685D01*
X119530469Y74771744D01*
X119576981Y74767398D01*
X119616994Y74761394D01*
X119652593Y74753480D01*
X119685864Y74743402D01*
X119718894Y74730909D01*
X119753769Y74715747D01*
X119755664Y74714884D01*
X119843386Y74667611D01*
X119917869Y74612123D01*
X119978459Y74549183D01*
X120024500Y74479549D01*
X120055338Y74403982D01*
X120066677Y74353604D01*
X120068388Y74333977D01*
X120069816Y74299604D01*
X120070969Y74252058D01*
X120071860Y74192911D01*
X120072500Y74123735D01*
X120072898Y74046103D01*
X120073065Y73961586D01*
X120073013Y73871757D01*
X120072752Y73778188D01*
X120072293Y73682451D01*
X120071647Y73586119D01*
X120070824Y73490763D01*
X120069836Y73397957D01*
X120068692Y73309271D01*
X120067405Y73226279D01*
X120065983Y73150553D01*
X120064440Y73083664D01*
X120062784Y73027186D01*
X120061027Y72982689D01*
X120059180Y72951747D01*
X120057253Y72935932D01*
X120056959Y72934967D01*
X120035796Y72899559D01*
X120000508Y72865044D01*
X119964200Y72840094D01*
X119940524Y72827782D01*
X119917632Y72820934D01*
X119888951Y72818103D01*
X119862600Y72817735D01*
X119816880Y72820237D01*
X119780904Y72829145D01*
X119748015Y72846983D01*
X119714148Y72873986D01*
X119704071Y72882627D01*
X119695269Y72890448D01*
X119687658Y72898591D01*
X119681154Y72908198D01*
X119675673Y72920409D01*
X119671131Y72936368D01*
X119667445Y72957215D01*
X119664531Y72984093D01*
X119662305Y73018143D01*
X119660683Y73060508D01*
X119659581Y73112328D01*
X119658916Y73174746D01*
X119658603Y73248903D01*
X119658560Y73335941D01*
X119658701Y73437002D01*
X119658943Y73553227D01*
X119659089Y73623907D01*
X119660389Y74286314D01*
X119640525Y74306178D01*
X119619758Y74319940D01*
X119586139Y74334034D01*
X119552671Y74344387D01*
X119531452Y74349793D01*
X119510955Y74354025D01*
X119488779Y74357227D01*
X119462521Y74359539D01*
X119429782Y74361103D01*
X119388161Y74362061D01*
X119335255Y74362554D01*
X119268664Y74362724D01*
X119241464Y74362733D01*
X119158601Y74362440D01*
X119090528Y74361392D01*
X119035111Y74359335D01*
X118990213Y74356017D01*
X118953699Y74351185D01*
X118923434Y74344585D01*
X118897282Y74335964D01*
X118873107Y74325071D01*
X118858734Y74317377D01*
X118825434Y74298701D01*
X118821200Y73630100D01*
X118816967Y72961500D01*
X118797619Y72922228D01*
X118768179Y72880643D01*
X118727199Y72848039D01*
X118678244Y72825745D01*
X118624879Y72815089D01*
X118570670Y72817398D01*
X118538646Y72825764D01*
X118498887Y72845915D01*
X118459422Y72875967D01*
X118428048Y72909696D01*
X118424959Y72914079D01*
X118422258Y72919144D01*
X118419917Y72925988D01*
X118417912Y72935708D01*
X118416216Y72949402D01*
X118414803Y72968167D01*
X118413649Y72993101D01*
X118412725Y73025301D01*
X118412008Y73065865D01*
X118411470Y73115890D01*
X118411086Y73176473D01*
X118410830Y73248713D01*
X118410676Y73333706D01*
X118410598Y73432551D01*
X118410570Y73546343D01*
X118410567Y73650040D01*
X118410567Y74366966D01*
X118431734Y74424413D01*
X118469216Y74501879D01*
X118521575Y74571491D01*
X118588545Y74632981D01*
X118669861Y74686077D01*
X118706900Y74705172D01*
X118744703Y74722768D01*
X118779587Y74737285D01*
X118813691Y74749013D01*
X118849154Y74758247D01*
X118888116Y74765276D01*
X118932715Y74770394D01*
X118985092Y74773892D01*
X119047386Y74776062D01*
X119121735Y74777195D01*
X119210279Y74777584D01*
X119237712Y74777600D01*
X119331080Y74777360D01*
G37*
X119331080Y74777360D02*
X119409605Y74776473D01*
X119475373Y74774685D01*
X119530469Y74771744D01*
X119576981Y74767398D01*
X119616994Y74761394D01*
X119652593Y74753480D01*
X119685864Y74743402D01*
X119718894Y74730909D01*
X119753769Y74715747D01*
X119755664Y74714884D01*
X119843386Y74667611D01*
X119917869Y74612123D01*
X119978459Y74549183D01*
X120024500Y74479549D01*
X120055338Y74403982D01*
X120066677Y74353604D01*
X120068388Y74333977D01*
X120069816Y74299604D01*
X120070969Y74252058D01*
X120071860Y74192911D01*
X120072500Y74123735D01*
X120072898Y74046103D01*
X120073065Y73961586D01*
X120073013Y73871757D01*
X120072752Y73778188D01*
X120072293Y73682451D01*
X120071647Y73586119D01*
X120070824Y73490763D01*
X120069836Y73397957D01*
X120068692Y73309271D01*
X120067405Y73226279D01*
X120065983Y73150553D01*
X120064440Y73083664D01*
X120062784Y73027186D01*
X120061027Y72982689D01*
X120059180Y72951747D01*
X120057253Y72935932D01*
X120056959Y72934967D01*
X120035796Y72899559D01*
X120000508Y72865044D01*
X119964200Y72840094D01*
X119940524Y72827782D01*
X119917632Y72820934D01*
X119888951Y72818103D01*
X119862600Y72817735D01*
X119816880Y72820237D01*
X119780904Y72829145D01*
X119748015Y72846983D01*
X119714148Y72873986D01*
X119704071Y72882627D01*
X119695269Y72890448D01*
X119687658Y72898591D01*
X119681154Y72908198D01*
X119675673Y72920409D01*
X119671131Y72936368D01*
X119667445Y72957215D01*
X119664531Y72984093D01*
X119662305Y73018143D01*
X119660683Y73060508D01*
X119659581Y73112328D01*
X119658916Y73174746D01*
X119658603Y73248903D01*
X119658560Y73335941D01*
X119658701Y73437002D01*
X119658943Y73553227D01*
X119659089Y73623907D01*
X119660389Y74286314D01*
X119640525Y74306178D01*
X119619758Y74319940D01*
X119586139Y74334034D01*
X119552671Y74344387D01*
X119531452Y74349793D01*
X119510955Y74354025D01*
X119488779Y74357227D01*
X119462521Y74359539D01*
X119429782Y74361103D01*
X119388161Y74362061D01*
X119335255Y74362554D01*
X119268664Y74362724D01*
X119241464Y74362733D01*
X119158601Y74362440D01*
X119090528Y74361392D01*
X119035111Y74359335D01*
X118990213Y74356017D01*
X118953699Y74351185D01*
X118923434Y74344585D01*
X118897282Y74335964D01*
X118873107Y74325071D01*
X118858734Y74317377D01*
X118825434Y74298701D01*
X118821200Y73630100D01*
X118816967Y72961500D01*
X118797619Y72922228D01*
X118768179Y72880643D01*
X118727199Y72848039D01*
X118678244Y72825745D01*
X118624879Y72815089D01*
X118570670Y72817398D01*
X118538646Y72825764D01*
X118498887Y72845915D01*
X118459422Y72875967D01*
X118428048Y72909696D01*
X118424959Y72914079D01*
X118422258Y72919144D01*
X118419917Y72925988D01*
X118417912Y72935708D01*
X118416216Y72949402D01*
X118414803Y72968167D01*
X118413649Y72993101D01*
X118412725Y73025301D01*
X118412008Y73065865D01*
X118411470Y73115890D01*
X118411086Y73176473D01*
X118410830Y73248713D01*
X118410676Y73333706D01*
X118410598Y73432551D01*
X118410570Y73546343D01*
X118410567Y73650040D01*
X118410567Y74366966D01*
X118431734Y74424413D01*
X118469216Y74501879D01*
X118521575Y74571491D01*
X118588545Y74632981D01*
X118669861Y74686077D01*
X118706900Y74705172D01*
X118744703Y74722768D01*
X118779587Y74737285D01*
X118813691Y74749013D01*
X118849154Y74758247D01*
X118888116Y74765276D01*
X118932715Y74770394D01*
X118985092Y74773892D01*
X119047386Y74776062D01*
X119121735Y74777195D01*
X119210279Y74777584D01*
X119237712Y74777600D01*
X119331080Y74777360D01*
G36*
X117806016Y75368646D02*
G01*
X117897119Y75327943D01*
X117981012Y75273747D01*
X118055795Y75207943D01*
X118119568Y75132414D01*
X118170434Y75049041D01*
X118200771Y74977332D01*
X118211275Y74944659D01*
X118218133Y74916256D01*
X118222092Y74886719D01*
X118223898Y74850644D01*
X118224300Y74806983D01*
X118224300Y74705134D01*
X118194250Y74663275D01*
X118155129Y74621743D01*
X118108205Y74592748D01*
X118056522Y74576762D01*
X118003124Y74574255D01*
X117951057Y74585699D01*
X117903364Y74611563D01*
X117896208Y74617182D01*
X117858266Y74656421D01*
X117832582Y74702696D01*
X117817586Y74759203D01*
X117814387Y74783785D01*
X117803873Y74841577D01*
X117784286Y74887480D01*
X117753947Y74924840D01*
X117735916Y74940080D01*
X117721210Y74950680D01*
X117706407Y74959318D01*
X117689692Y74966174D01*
X117669246Y74971428D01*
X117643252Y74975262D01*
X117609895Y74977856D01*
X117567355Y74979391D01*
X117513817Y74980047D01*
X117447464Y74980007D01*
X117366477Y74979450D01*
X117342363Y74979239D01*
X117044626Y74976566D01*
X117008166Y74950930D01*
X116980280Y74927394D01*
X116953727Y74898862D01*
X116946070Y74888821D01*
X116920433Y74852347D01*
X116918179Y74115198D01*
X116917791Y73986637D01*
X116917477Y73873909D01*
X116917262Y73775912D01*
X116917166Y73691548D01*
X116917211Y73619715D01*
X116917421Y73559314D01*
X116917817Y73509243D01*
X116918421Y73468402D01*
X116919256Y73435690D01*
X116920344Y73410008D01*
X116921706Y73390255D01*
X116923366Y73375330D01*
X116925345Y73364133D01*
X116927666Y73355564D01*
X116930351Y73348522D01*
X116933421Y73341906D01*
X116933793Y73341138D01*
X116960860Y73301392D01*
X116998686Y73267122D01*
X117041675Y73242941D01*
X117060415Y73236778D01*
X117081443Y73233746D01*
X117117582Y73231492D01*
X117169215Y73230008D01*
X117236725Y73229286D01*
X117320496Y73229319D01*
X117390509Y73229800D01*
X117468641Y73230539D01*
X117531680Y73231280D01*
X117581467Y73232145D01*
X117619845Y73233254D01*
X117648653Y73234728D01*
X117669732Y73236688D01*
X117684923Y73239255D01*
X117696068Y73242550D01*
X117705006Y73246694D01*
X117712192Y73250943D01*
X117750865Y73284677D01*
X117782353Y73332720D01*
X117805846Y73393689D01*
X117813159Y73422933D01*
X117815657Y73443406D01*
X117817661Y73477390D01*
X117819065Y73521468D01*
X117819757Y73572222D01*
X117819631Y73626133D01*
X117817900Y73791233D01*
X117644333Y73795805D01*
X117579154Y73797861D01*
X117528820Y73800290D01*
X117491245Y73803275D01*
X117464343Y73806998D01*
X117446027Y73811640D01*
X117441133Y73813572D01*
X117390823Y73844536D01*
X117353090Y73886332D01*
X117328845Y73937520D01*
X117318996Y73996662D01*
X117318818Y74007133D01*
X117325018Y74062470D01*
X117344414Y74109603D01*
X117378779Y74152657D01*
X117383273Y74157056D01*
X117398348Y74170779D01*
X117413368Y74181924D01*
X117430216Y74190759D01*
X117450776Y74197551D01*
X117476932Y74202566D01*
X117510566Y74206071D01*
X117553563Y74208334D01*
X117607807Y74209620D01*
X117675180Y74210198D01*
X117757566Y74210333D01*
X117759281Y74210333D01*
X117836964Y74210039D01*
X117907086Y74209194D01*
X117967789Y74207850D01*
X118017212Y74206061D01*
X118053496Y74203881D01*
X118074782Y74201362D01*
X118075288Y74201257D01*
X118128185Y74181702D01*
X118172328Y74147698D01*
X118207367Y74099614D01*
X118232767Y74053700D01*
X118232767Y72961500D01*
X118209492Y72921906D01*
X118172971Y72874612D01*
X118128038Y72840181D01*
X118077297Y72819308D01*
X118023350Y72812687D01*
X117968803Y72821012D01*
X117917614Y72844126D01*
X117877054Y72869339D01*
X117826310Y72849664D01*
X117788676Y72837087D01*
X117747340Y72826223D01*
X117724767Y72821725D01*
X117699909Y72819200D01*
X117661052Y72817166D01*
X117610600Y72815610D01*
X117550958Y72814519D01*
X117484530Y72813878D01*
X117413720Y72813676D01*
X117340933Y72813898D01*
X117268573Y72814532D01*
X117199045Y72815564D01*
X117134752Y72816981D01*
X117078101Y72818770D01*
X117031494Y72820917D01*
X116997336Y72823410D01*
X116979700Y72825830D01*
X116888445Y72854327D01*
X116802312Y72897823D01*
X116723095Y72954715D01*
X116652586Y73023401D01*
X116592579Y73102276D01*
X116544867Y73189738D01*
X116528795Y73229000D01*
X116505567Y73291700D01*
X116505567Y74908833D01*
X116525634Y74968100D01*
X116565349Y75059643D01*
X116619308Y75144202D01*
X116685632Y75219899D01*
X116762443Y75284856D01*
X116847863Y75337194D01*
X116928900Y75371401D01*
X116943315Y75376168D01*
X116956895Y75380111D01*
X116971339Y75383310D01*
X116988348Y75385841D01*
X117009618Y75387782D01*
X117036851Y75389213D01*
X117071744Y75390211D01*
X117115997Y75390853D01*
X117171310Y75391219D01*
X117239380Y75391385D01*
X117321907Y75391431D01*
X117364933Y75391433D01*
X117741700Y75391433D01*
X117806016Y75368646D01*
G37*
X117806016Y75368646D02*
X117897119Y75327943D01*
X117981012Y75273747D01*
X118055795Y75207943D01*
X118119568Y75132414D01*
X118170434Y75049041D01*
X118200771Y74977332D01*
X118211275Y74944659D01*
X118218133Y74916256D01*
X118222092Y74886719D01*
X118223898Y74850644D01*
X118224300Y74806983D01*
X118224300Y74705134D01*
X118194250Y74663275D01*
X118155129Y74621743D01*
X118108205Y74592748D01*
X118056522Y74576762D01*
X118003124Y74574255D01*
X117951057Y74585699D01*
X117903364Y74611563D01*
X117896208Y74617182D01*
X117858266Y74656421D01*
X117832582Y74702696D01*
X117817586Y74759203D01*
X117814387Y74783785D01*
X117803873Y74841577D01*
X117784286Y74887480D01*
X117753947Y74924840D01*
X117735916Y74940080D01*
X117721210Y74950680D01*
X117706407Y74959318D01*
X117689692Y74966174D01*
X117669246Y74971428D01*
X117643252Y74975262D01*
X117609895Y74977856D01*
X117567355Y74979391D01*
X117513817Y74980047D01*
X117447464Y74980007D01*
X117366477Y74979450D01*
X117342363Y74979239D01*
X117044626Y74976566D01*
X117008166Y74950930D01*
X116980280Y74927394D01*
X116953727Y74898862D01*
X116946070Y74888821D01*
X116920433Y74852347D01*
X116918179Y74115198D01*
X116917791Y73986637D01*
X116917477Y73873909D01*
X116917262Y73775912D01*
X116917166Y73691548D01*
X116917211Y73619715D01*
X116917421Y73559314D01*
X116917817Y73509243D01*
X116918421Y73468402D01*
X116919256Y73435690D01*
X116920344Y73410008D01*
X116921706Y73390255D01*
X116923366Y73375330D01*
X116925345Y73364133D01*
X116927666Y73355564D01*
X116930351Y73348522D01*
X116933421Y73341906D01*
X116933793Y73341138D01*
X116960860Y73301392D01*
X116998686Y73267122D01*
X117041675Y73242941D01*
X117060415Y73236778D01*
X117081443Y73233746D01*
X117117582Y73231492D01*
X117169215Y73230008D01*
X117236725Y73229286D01*
X117320496Y73229319D01*
X117390509Y73229800D01*
X117468641Y73230539D01*
X117531680Y73231280D01*
X117581467Y73232145D01*
X117619845Y73233254D01*
X117648653Y73234728D01*
X117669732Y73236688D01*
X117684923Y73239255D01*
X117696068Y73242550D01*
X117705006Y73246694D01*
X117712192Y73250943D01*
X117750865Y73284677D01*
X117782353Y73332720D01*
X117805846Y73393689D01*
X117813159Y73422933D01*
X117815657Y73443406D01*
X117817661Y73477390D01*
X117819065Y73521468D01*
X117819757Y73572222D01*
X117819631Y73626133D01*
X117817900Y73791233D01*
X117644333Y73795805D01*
X117579154Y73797861D01*
X117528820Y73800290D01*
X117491245Y73803275D01*
X117464343Y73806998D01*
X117446027Y73811640D01*
X117441133Y73813572D01*
X117390823Y73844536D01*
X117353090Y73886332D01*
X117328845Y73937520D01*
X117318996Y73996662D01*
X117318818Y74007133D01*
X117325018Y74062470D01*
X117344414Y74109603D01*
X117378779Y74152657D01*
X117383273Y74157056D01*
X117398348Y74170779D01*
X117413368Y74181924D01*
X117430216Y74190759D01*
X117450776Y74197551D01*
X117476932Y74202566D01*
X117510566Y74206071D01*
X117553563Y74208334D01*
X117607807Y74209620D01*
X117675180Y74210198D01*
X117757566Y74210333D01*
X117759281Y74210333D01*
X117836964Y74210039D01*
X117907086Y74209194D01*
X117967789Y74207850D01*
X118017212Y74206061D01*
X118053496Y74203881D01*
X118074782Y74201362D01*
X118075288Y74201257D01*
X118128185Y74181702D01*
X118172328Y74147698D01*
X118207367Y74099614D01*
X118232767Y74053700D01*
X118232767Y72961500D01*
X118209492Y72921906D01*
X118172971Y72874612D01*
X118128038Y72840181D01*
X118077297Y72819308D01*
X118023350Y72812687D01*
X117968803Y72821012D01*
X117917614Y72844126D01*
X117877054Y72869339D01*
X117826310Y72849664D01*
X117788676Y72837087D01*
X117747340Y72826223D01*
X117724767Y72821725D01*
X117699909Y72819200D01*
X117661052Y72817166D01*
X117610600Y72815610D01*
X117550958Y72814519D01*
X117484530Y72813878D01*
X117413720Y72813676D01*
X117340933Y72813898D01*
X117268573Y72814532D01*
X117199045Y72815564D01*
X117134752Y72816981D01*
X117078101Y72818770D01*
X117031494Y72820917D01*
X116997336Y72823410D01*
X116979700Y72825830D01*
X116888445Y72854327D01*
X116802312Y72897823D01*
X116723095Y72954715D01*
X116652586Y73023401D01*
X116592579Y73102276D01*
X116544867Y73189738D01*
X116528795Y73229000D01*
X116505567Y73291700D01*
X116505567Y74908833D01*
X116525634Y74968100D01*
X116565349Y75059643D01*
X116619308Y75144202D01*
X116685632Y75219899D01*
X116762443Y75284856D01*
X116847863Y75337194D01*
X116928900Y75371401D01*
X116943315Y75376168D01*
X116956895Y75380111D01*
X116971339Y75383310D01*
X116988348Y75385841D01*
X117009618Y75387782D01*
X117036851Y75389213D01*
X117071744Y75390211D01*
X117115997Y75390853D01*
X117171310Y75391219D01*
X117239380Y75391385D01*
X117321907Y75391431D01*
X117364933Y75391433D01*
X117741700Y75391433D01*
X117806016Y75368646D01*
G36*
X115572577Y74777393D02*
G01*
X115638549Y74777145D01*
X115691905Y74776574D01*
X115734804Y74775581D01*
X115769405Y74774065D01*
X115797867Y74771927D01*
X115822349Y74769068D01*
X115845008Y74765387D01*
X115868005Y74760785D01*
X115872305Y74759861D01*
X115968761Y74732203D01*
X116056435Y74693486D01*
X116134114Y74644814D01*
X116200585Y74587287D01*
X116254633Y74522009D01*
X116295044Y74450081D01*
X116320605Y74372606D01*
X116325160Y74348676D01*
X116327055Y74329217D01*
X116328588Y74296650D01*
X116329762Y74250512D01*
X116330580Y74190338D01*
X116331044Y74115666D01*
X116331156Y74026031D01*
X116330920Y73920970D01*
X116330337Y73800019D01*
X116329411Y73662715D01*
X116329134Y73626766D01*
X116323899Y72962765D01*
X116304666Y72924095D01*
X116277105Y72884875D01*
X116238290Y72850874D01*
X116193889Y72826669D01*
X116177127Y72821098D01*
X116122499Y72814326D01*
X116067218Y72821680D01*
X116015195Y72841688D01*
X115970339Y72872880D01*
X115938300Y72910929D01*
X115912900Y72951694D01*
X115910697Y73625464D01*
X115908495Y74299233D01*
X115889531Y74313642D01*
X115872246Y74322818D01*
X115844158Y74333715D01*
X115810946Y74344164D01*
X115806490Y74345392D01*
X115786346Y74350469D01*
X115766226Y74354456D01*
X115743799Y74357483D01*
X115716736Y74359678D01*
X115682706Y74361171D01*
X115639380Y74362091D01*
X115584426Y74362566D01*
X115515515Y74362727D01*
X115493661Y74362733D01*
X115421818Y74362682D01*
X115364577Y74362427D01*
X115319604Y74361813D01*
X115284568Y74360686D01*
X115257137Y74358891D01*
X115234977Y74356276D01*
X115215758Y74352686D01*
X115197146Y74347966D01*
X115176810Y74341962D01*
X115176093Y74341743D01*
X115142707Y74330309D01*
X115114628Y74318417D01*
X115096665Y74308175D01*
X115093985Y74305760D01*
X115091511Y74301496D01*
X115089322Y74293898D01*
X115087386Y74281868D01*
X115085673Y74264310D01*
X115084150Y74240125D01*
X115082788Y74208217D01*
X115081554Y74167489D01*
X115080417Y74116842D01*
X115079347Y74055180D01*
X115078311Y73981405D01*
X115077279Y73894421D01*
X115076220Y73793129D01*
X115075101Y73676432D01*
X115074639Y73626133D01*
X115073501Y73501323D01*
X115072460Y73392301D01*
X115071441Y73297922D01*
X115070368Y73217042D01*
X115069166Y73148516D01*
X115067760Y73091200D01*
X115066073Y73043948D01*
X115064031Y73005616D01*
X115061559Y72975060D01*
X115058580Y72951136D01*
X115055019Y72932697D01*
X115050800Y72918601D01*
X115045849Y72907702D01*
X115040090Y72898855D01*
X115033447Y72890916D01*
X115025845Y72882741D01*
X115025613Y72882493D01*
X114985045Y72849996D01*
X114935714Y72827390D01*
X114882435Y72815888D01*
X114830023Y72816703D01*
X114797142Y72824982D01*
X114744066Y72851902D01*
X114701990Y72888106D01*
X114688703Y72905079D01*
X114668300Y72934852D01*
X114665772Y73625509D01*
X114665347Y73767030D01*
X114665170Y73892163D01*
X114665247Y74001451D01*
X114665583Y74095438D01*
X114666184Y74174666D01*
X114667054Y74239679D01*
X114668199Y74291021D01*
X114669623Y74329235D01*
X114671332Y74354864D01*
X114672773Y74365993D01*
X114696153Y74443824D01*
X114735103Y74516271D01*
X114788877Y74582463D01*
X114856724Y74641530D01*
X114937897Y74692602D01*
X114966085Y74706884D01*
X115002853Y74723964D01*
X115036835Y74738056D01*
X115070152Y74749444D01*
X115104927Y74758414D01*
X115143279Y74765250D01*
X115187332Y74770237D01*
X115239205Y74773659D01*
X115301022Y74775801D01*
X115374902Y74776947D01*
X115462968Y74777382D01*
X115491831Y74777417D01*
X115572577Y74777393D01*
G37*
X115572577Y74777393D02*
X115638549Y74777145D01*
X115691905Y74776574D01*
X115734804Y74775581D01*
X115769405Y74774065D01*
X115797867Y74771927D01*
X115822349Y74769068D01*
X115845008Y74765387D01*
X115868005Y74760785D01*
X115872305Y74759861D01*
X115968761Y74732203D01*
X116056435Y74693486D01*
X116134114Y74644814D01*
X116200585Y74587287D01*
X116254633Y74522009D01*
X116295044Y74450081D01*
X116320605Y74372606D01*
X116325160Y74348676D01*
X116327055Y74329217D01*
X116328588Y74296650D01*
X116329762Y74250512D01*
X116330580Y74190338D01*
X116331044Y74115666D01*
X116331156Y74026031D01*
X116330920Y73920970D01*
X116330337Y73800019D01*
X116329411Y73662715D01*
X116329134Y73626766D01*
X116323899Y72962765D01*
X116304666Y72924095D01*
X116277105Y72884875D01*
X116238290Y72850874D01*
X116193889Y72826669D01*
X116177127Y72821098D01*
X116122499Y72814326D01*
X116067218Y72821680D01*
X116015195Y72841688D01*
X115970339Y72872880D01*
X115938300Y72910929D01*
X115912900Y72951694D01*
X115910697Y73625464D01*
X115908495Y74299233D01*
X115889531Y74313642D01*
X115872246Y74322818D01*
X115844158Y74333715D01*
X115810946Y74344164D01*
X115806490Y74345392D01*
X115786346Y74350469D01*
X115766226Y74354456D01*
X115743799Y74357483D01*
X115716736Y74359678D01*
X115682706Y74361171D01*
X115639380Y74362091D01*
X115584426Y74362566D01*
X115515515Y74362727D01*
X115493661Y74362733D01*
X115421818Y74362682D01*
X115364577Y74362427D01*
X115319604Y74361813D01*
X115284568Y74360686D01*
X115257137Y74358891D01*
X115234977Y74356276D01*
X115215758Y74352686D01*
X115197146Y74347966D01*
X115176810Y74341962D01*
X115176093Y74341743D01*
X115142707Y74330309D01*
X115114628Y74318417D01*
X115096665Y74308175D01*
X115093985Y74305760D01*
X115091511Y74301496D01*
X115089322Y74293898D01*
X115087386Y74281868D01*
X115085673Y74264310D01*
X115084150Y74240125D01*
X115082788Y74208217D01*
X115081554Y74167489D01*
X115080417Y74116842D01*
X115079347Y74055180D01*
X115078311Y73981405D01*
X115077279Y73894421D01*
X115076220Y73793129D01*
X115075101Y73676432D01*
X115074639Y73626133D01*
X115073501Y73501323D01*
X115072460Y73392301D01*
X115071441Y73297922D01*
X115070368Y73217042D01*
X115069166Y73148516D01*
X115067760Y73091200D01*
X115066073Y73043948D01*
X115064031Y73005616D01*
X115061559Y72975060D01*
X115058580Y72951136D01*
X115055019Y72932697D01*
X115050800Y72918601D01*
X115045849Y72907702D01*
X115040090Y72898855D01*
X115033447Y72890916D01*
X115025845Y72882741D01*
X115025613Y72882493D01*
X114985045Y72849996D01*
X114935714Y72827390D01*
X114882435Y72815888D01*
X114830023Y72816703D01*
X114797142Y72824982D01*
X114744066Y72851902D01*
X114701990Y72888106D01*
X114688703Y72905079D01*
X114668300Y72934852D01*
X114665772Y73625509D01*
X114665347Y73767030D01*
X114665170Y73892163D01*
X114665247Y74001451D01*
X114665583Y74095438D01*
X114666184Y74174666D01*
X114667054Y74239679D01*
X114668199Y74291021D01*
X114669623Y74329235D01*
X114671332Y74354864D01*
X114672773Y74365993D01*
X114696153Y74443824D01*
X114735103Y74516271D01*
X114788877Y74582463D01*
X114856724Y74641530D01*
X114937897Y74692602D01*
X114966085Y74706884D01*
X115002853Y74723964D01*
X115036835Y74738056D01*
X115070152Y74749444D01*
X115104927Y74758414D01*
X115143279Y74765250D01*
X115187332Y74770237D01*
X115239205Y74773659D01*
X115301022Y74775801D01*
X115374902Y74776947D01*
X115462968Y74777382D01*
X115491831Y74777417D01*
X115572577Y74777393D01*
G36*
X116052600Y76225400D02*
G01*
X114978078Y76225400D01*
X114816421Y76225402D01*
X114670772Y76225385D01*
X114540205Y76225314D01*
X114423797Y76225156D01*
X114320620Y76224875D01*
X114229751Y76224437D01*
X114150263Y76223809D01*
X114081232Y76222954D01*
X114021732Y76221840D01*
X113970839Y76220431D01*
X113927626Y76218694D01*
X113891168Y76216593D01*
X113860541Y76214094D01*
X113834819Y76211163D01*
X113813077Y76207765D01*
X113794389Y76203867D01*
X113777830Y76199433D01*
X113762476Y76194429D01*
X113747400Y76188821D01*
X113731678Y76182574D01*
X113721939Y76178661D01*
X113635336Y76135712D01*
X113555195Y76078423D01*
X113499900Y76027040D01*
X113434163Y75948317D01*
X113383499Y75862124D01*
X113347661Y75767943D01*
X113326402Y75665260D01*
X113326358Y75664928D01*
X113325043Y75647852D01*
X113323863Y75617587D01*
X113322817Y75573843D01*
X113321903Y75516327D01*
X113321121Y75444750D01*
X113320468Y75358818D01*
X113319945Y75258243D01*
X113319548Y75142731D01*
X113319278Y75011992D01*
X113319133Y74865734D01*
X113319112Y74703666D01*
X113319212Y74525498D01*
X113319434Y74330937D01*
X113319720Y74151066D01*
X113320024Y73965142D01*
X113320272Y73795362D01*
X113320499Y73640936D01*
X113320737Y73501077D01*
X113321022Y73374994D01*
X113321386Y73261900D01*
X113321864Y73161004D01*
X113322490Y73071518D01*
X113323298Y72992652D01*
X113324321Y72923619D01*
X113325594Y72863628D01*
X113327150Y72811891D01*
X113329024Y72767618D01*
X113331249Y72730021D01*
X113333860Y72698310D01*
X113336890Y72671697D01*
X113340373Y72649393D01*
X113344343Y72630607D01*
X113348834Y72614552D01*
X113353880Y72600438D01*
X113359515Y72587477D01*
X113365773Y72574878D01*
X113372688Y72561854D01*
X113380293Y72547615D01*
X113388623Y72531372D01*
X113389452Y72529700D01*
X113440432Y72441882D01*
X113500653Y72367471D01*
X113571891Y72304713D01*
X113655923Y72251853D01*
X113686167Y72236568D01*
X113725556Y72219094D01*
X113767586Y72202673D01*
X113804101Y72190460D01*
X113808933Y72189095D01*
X113813564Y72187978D01*
X113819339Y72186919D01*
X113826692Y72185914D01*
X113836058Y72184963D01*
X113847871Y72184065D01*
X113862565Y72183217D01*
X113880576Y72182419D01*
X113902337Y72181668D01*
X113928282Y72180964D01*
X113958847Y72180305D01*
X113994465Y72179689D01*
X114035572Y72179115D01*
X114082600Y72178582D01*
X114135985Y72178087D01*
X114196161Y72177630D01*
X114263562Y72177210D01*
X114338623Y72176824D01*
X114421778Y72176471D01*
X114513462Y72176149D01*
X114614109Y72175858D01*
X114724153Y72175596D01*
X114844028Y72175360D01*
X114974170Y72175151D01*
X115115012Y72174966D01*
X115266989Y72174804D01*
X115430535Y72174663D01*
X115606084Y72174541D01*
X115794072Y72174439D01*
X115994931Y72174353D01*
X116209098Y72174283D01*
X116437005Y72174226D01*
X116679088Y72174183D01*
X116935781Y72174150D01*
X117207518Y72174127D01*
X117494734Y72174112D01*
X117797862Y72174103D01*
X118117338Y72174100D01*
X118232767Y72174100D01*
X118558050Y72174102D01*
X118866835Y72174108D01*
X119159555Y72174121D01*
X119436645Y72174141D01*
X119698539Y72174170D01*
X119945672Y72174210D01*
X120178477Y72174262D01*
X120397390Y72174327D01*
X120602845Y72174407D01*
X120795275Y72174504D01*
X120975116Y72174618D01*
X121142802Y72174752D01*
X121298768Y72174907D01*
X121443446Y72175084D01*
X121577273Y72175284D01*
X121700682Y72175511D01*
X121814108Y72175763D01*
X121917985Y72176044D01*
X122012748Y72176355D01*
X122098830Y72176697D01*
X122176667Y72177071D01*
X122246692Y72177480D01*
X122309341Y72177924D01*
X122365046Y72178405D01*
X122414244Y72178924D01*
X122457367Y72179484D01*
X122494852Y72180085D01*
X122527131Y72180729D01*
X122554639Y72181417D01*
X122577811Y72182151D01*
X122597081Y72182933D01*
X122612884Y72183763D01*
X122625653Y72184644D01*
X122635824Y72185576D01*
X122643830Y72186562D01*
X122650106Y72187602D01*
X122655087Y72188699D01*
X122656600Y72189095D01*
X122691457Y72200331D01*
X122733149Y72216285D01*
X122773517Y72233803D01*
X122779367Y72236568D01*
X122867921Y72286599D01*
X122943107Y72345960D01*
X123006701Y72416406D01*
X123060479Y72499691D01*
X123076082Y72529700D01*
X123084483Y72546174D01*
X123092155Y72560569D01*
X123099134Y72573674D01*
X123105452Y72586279D01*
X123111145Y72599173D01*
X123116246Y72613144D01*
X123120788Y72628981D01*
X123124806Y72647474D01*
X123128334Y72669412D01*
X123131405Y72695583D01*
X123134054Y72726777D01*
X123136315Y72763783D01*
X123138221Y72807390D01*
X123139806Y72858386D01*
X123141105Y72917562D01*
X123142152Y72985705D01*
X123142979Y73063606D01*
X123143622Y73152052D01*
X123144114Y73251834D01*
X123144489Y73363739D01*
X123144780Y73488558D01*
X123145023Y73627079D01*
X123145251Y73780091D01*
X123145498Y73948383D01*
X123145797Y74132745D01*
X123145830Y74151066D01*
X123146161Y74366070D01*
X123146358Y74564241D01*
X123146422Y74745677D01*
X123146352Y74910478D01*
X123146147Y75058743D01*
X123145808Y75190572D01*
X123145332Y75306064D01*
X123144721Y75405317D01*
X123143974Y75488433D01*
X123143090Y75555509D01*
X123142070Y75606644D01*
X123140911Y75641939D01*
X123139615Y75661493D01*
X123139507Y75662366D01*
X123117944Y75765479D01*
X123081740Y75861309D01*
X123031741Y75948666D01*
X122968791Y76026359D01*
X122893737Y76093196D01*
X122807424Y76147986D01*
X122787833Y76157905D01*
X122769991Y76166781D01*
X122754297Y76174784D01*
X122739837Y76181961D01*
X122725696Y76188361D01*
X122710961Y76194031D01*
X122694718Y76199021D01*
X122676053Y76203377D01*
X122654051Y76207147D01*
X122627798Y76210381D01*
X122596381Y76213125D01*
X122558885Y76215428D01*
X122514396Y76217339D01*
X122462001Y76218904D01*
X122400785Y76220172D01*
X122329834Y76221191D01*
X122248234Y76222009D01*
X122155071Y76222675D01*
X122049431Y76223235D01*
X121930399Y76223739D01*
X121797063Y76224234D01*
X121648507Y76224768D01*
X121505374Y76225305D01*
X120392247Y76229633D01*
X120392007Y76271966D01*
X120391767Y76314300D01*
X122652367Y76314300D01*
X122732800Y76287009D01*
X122837047Y76243011D01*
X122931705Y76185492D01*
X123015797Y76115504D01*
X123088346Y76034103D01*
X123148374Y75942341D01*
X123194905Y75841271D01*
X123219851Y75761971D01*
X123241123Y75679300D01*
X123238845Y74176466D01*
X123236567Y72673633D01*
X123212537Y72601667D01*
X123167825Y72492408D01*
X123110562Y72394479D01*
X123041024Y72308156D01*
X122959489Y72233717D01*
X122866234Y72171441D01*
X122761538Y72121604D01*
X122715867Y72104997D01*
X122643900Y72080967D01*
X118253934Y72079498D01*
X117920998Y72079393D01*
X117604595Y72079305D01*
X117304325Y72079235D01*
X117019786Y72079185D01*
X116750579Y72079156D01*
X116496302Y72079147D01*
X116256556Y72079161D01*
X116030940Y72079198D01*
X115819053Y72079259D01*
X115620494Y72079344D01*
X115434864Y72079455D01*
X115261762Y72079593D01*
X115100787Y72079759D01*
X114951538Y72079953D01*
X114813616Y72080176D01*
X114686620Y72080429D01*
X114570149Y72080714D01*
X114463803Y72081030D01*
X114367180Y72081380D01*
X114279882Y72081763D01*
X114201507Y72082181D01*
X114131654Y72082635D01*
X114069924Y72083125D01*
X114015915Y72083652D01*
X113969228Y72084218D01*
X113929461Y72084823D01*
X113896214Y72085468D01*
X113869087Y72086154D01*
X113847680Y72086882D01*
X113831590Y72087653D01*
X113820419Y72088467D01*
X113813766Y72089326D01*
X113813167Y72089452D01*
X113702687Y72122496D01*
X113601354Y72169585D01*
X113509845Y72230098D01*
X113428837Y72303417D01*
X113359007Y72388922D01*
X113301032Y72485995D01*
X113255590Y72594015D01*
X113252997Y72601667D01*
X113228967Y72673633D01*
X113226689Y74176466D01*
X113224411Y75679300D01*
X113245683Y75761971D01*
X113281710Y75869188D01*
X113331951Y75967869D01*
X113395428Y76056960D01*
X113471163Y76135408D01*
X113558180Y76202160D01*
X113655502Y76256162D01*
X113732733Y76287009D01*
X113813167Y76314300D01*
X114932884Y76316597D01*
X116052600Y76318895D01*
X116052600Y76225400D01*
G37*
X116052600Y76225400D02*
X114978078Y76225400D01*
X114816421Y76225402D01*
X114670772Y76225385D01*
X114540205Y76225314D01*
X114423797Y76225156D01*
X114320620Y76224875D01*
X114229751Y76224437D01*
X114150263Y76223809D01*
X114081232Y76222954D01*
X114021732Y76221840D01*
X113970839Y76220431D01*
X113927626Y76218694D01*
X113891168Y76216593D01*
X113860541Y76214094D01*
X113834819Y76211163D01*
X113813077Y76207765D01*
X113794389Y76203867D01*
X113777830Y76199433D01*
X113762476Y76194429D01*
X113747400Y76188821D01*
X113731678Y76182574D01*
X113721939Y76178661D01*
X113635336Y76135712D01*
X113555195Y76078423D01*
X113499900Y76027040D01*
X113434163Y75948317D01*
X113383499Y75862124D01*
X113347661Y75767943D01*
X113326402Y75665260D01*
X113326358Y75664928D01*
X113325043Y75647852D01*
X113323863Y75617587D01*
X113322817Y75573843D01*
X113321903Y75516327D01*
X113321121Y75444750D01*
X113320468Y75358818D01*
X113319945Y75258243D01*
X113319548Y75142731D01*
X113319278Y75011992D01*
X113319133Y74865734D01*
X113319112Y74703666D01*
X113319212Y74525498D01*
X113319434Y74330937D01*
X113319720Y74151066D01*
X113320024Y73965142D01*
X113320272Y73795362D01*
X113320499Y73640936D01*
X113320737Y73501077D01*
X113321022Y73374994D01*
X113321386Y73261900D01*
X113321864Y73161004D01*
X113322490Y73071518D01*
X113323298Y72992652D01*
X113324321Y72923619D01*
X113325594Y72863628D01*
X113327150Y72811891D01*
X113329024Y72767618D01*
X113331249Y72730021D01*
X113333860Y72698310D01*
X113336890Y72671697D01*
X113340373Y72649393D01*
X113344343Y72630607D01*
X113348834Y72614552D01*
X113353880Y72600438D01*
X113359515Y72587477D01*
X113365773Y72574878D01*
X113372688Y72561854D01*
X113380293Y72547615D01*
X113388623Y72531372D01*
X113389452Y72529700D01*
X113440432Y72441882D01*
X113500653Y72367471D01*
X113571891Y72304713D01*
X113655923Y72251853D01*
X113686167Y72236568D01*
X113725556Y72219094D01*
X113767586Y72202673D01*
X113804101Y72190460D01*
X113808933Y72189095D01*
X113813564Y72187978D01*
X113819339Y72186919D01*
X113826692Y72185914D01*
X113836058Y72184963D01*
X113847871Y72184065D01*
X113862565Y72183217D01*
X113880576Y72182419D01*
X113902337Y72181668D01*
X113928282Y72180964D01*
X113958847Y72180305D01*
X113994465Y72179689D01*
X114035572Y72179115D01*
X114082600Y72178582D01*
X114135985Y72178087D01*
X114196161Y72177630D01*
X114263562Y72177210D01*
X114338623Y72176824D01*
X114421778Y72176471D01*
X114513462Y72176149D01*
X114614109Y72175858D01*
X114724153Y72175596D01*
X114844028Y72175360D01*
X114974170Y72175151D01*
X115115012Y72174966D01*
X115266989Y72174804D01*
X115430535Y72174663D01*
X115606084Y72174541D01*
X115794072Y72174439D01*
X115994931Y72174353D01*
X116209098Y72174283D01*
X116437005Y72174226D01*
X116679088Y72174183D01*
X116935781Y72174150D01*
X117207518Y72174127D01*
X117494734Y72174112D01*
X117797862Y72174103D01*
X118117338Y72174100D01*
X118232767Y72174100D01*
X118558050Y72174102D01*
X118866835Y72174108D01*
X119159555Y72174121D01*
X119436645Y72174141D01*
X119698539Y72174170D01*
X119945672Y72174210D01*
X120178477Y72174262D01*
X120397390Y72174327D01*
X120602845Y72174407D01*
X120795275Y72174504D01*
X120975116Y72174618D01*
X121142802Y72174752D01*
X121298768Y72174907D01*
X121443446Y72175084D01*
X121577273Y72175284D01*
X121700682Y72175511D01*
X121814108Y72175763D01*
X121917985Y72176044D01*
X122012748Y72176355D01*
X122098830Y72176697D01*
X122176667Y72177071D01*
X122246692Y72177480D01*
X122309341Y72177924D01*
X122365046Y72178405D01*
X122414244Y72178924D01*
X122457367Y72179484D01*
X122494852Y72180085D01*
X122527131Y72180729D01*
X122554639Y72181417D01*
X122577811Y72182151D01*
X122597081Y72182933D01*
X122612884Y72183763D01*
X122625653Y72184644D01*
X122635824Y72185576D01*
X122643830Y72186562D01*
X122650106Y72187602D01*
X122655087Y72188699D01*
X122656600Y72189095D01*
X122691457Y72200331D01*
X122733149Y72216285D01*
X122773517Y72233803D01*
X122779367Y72236568D01*
X122867921Y72286599D01*
X122943107Y72345960D01*
X123006701Y72416406D01*
X123060479Y72499691D01*
X123076082Y72529700D01*
X123084483Y72546174D01*
X123092155Y72560569D01*
X123099134Y72573674D01*
X123105452Y72586279D01*
X123111145Y72599173D01*
X123116246Y72613144D01*
X123120788Y72628981D01*
X123124806Y72647474D01*
X123128334Y72669412D01*
X123131405Y72695583D01*
X123134054Y72726777D01*
X123136315Y72763783D01*
X123138221Y72807390D01*
X123139806Y72858386D01*
X123141105Y72917562D01*
X123142152Y72985705D01*
X123142979Y73063606D01*
X123143622Y73152052D01*
X123144114Y73251834D01*
X123144489Y73363739D01*
X123144780Y73488558D01*
X123145023Y73627079D01*
X123145251Y73780091D01*
X123145498Y73948383D01*
X123145797Y74132745D01*
X123145830Y74151066D01*
X123146161Y74366070D01*
X123146358Y74564241D01*
X123146422Y74745677D01*
X123146352Y74910478D01*
X123146147Y75058743D01*
X123145808Y75190572D01*
X123145332Y75306064D01*
X123144721Y75405317D01*
X123143974Y75488433D01*
X123143090Y75555509D01*
X123142070Y75606644D01*
X123140911Y75641939D01*
X123139615Y75661493D01*
X123139507Y75662366D01*
X123117944Y75765479D01*
X123081740Y75861309D01*
X123031741Y75948666D01*
X122968791Y76026359D01*
X122893737Y76093196D01*
X122807424Y76147986D01*
X122787833Y76157905D01*
X122769991Y76166781D01*
X122754297Y76174784D01*
X122739837Y76181961D01*
X122725696Y76188361D01*
X122710961Y76194031D01*
X122694718Y76199021D01*
X122676053Y76203377D01*
X122654051Y76207147D01*
X122627798Y76210381D01*
X122596381Y76213125D01*
X122558885Y76215428D01*
X122514396Y76217339D01*
X122462001Y76218904D01*
X122400785Y76220172D01*
X122329834Y76221191D01*
X122248234Y76222009D01*
X122155071Y76222675D01*
X122049431Y76223235D01*
X121930399Y76223739D01*
X121797063Y76224234D01*
X121648507Y76224768D01*
X121505374Y76225305D01*
X120392247Y76229633D01*
X120392007Y76271966D01*
X120391767Y76314300D01*
X122652367Y76314300D01*
X122732800Y76287009D01*
X122837047Y76243011D01*
X122931705Y76185492D01*
X123015797Y76115504D01*
X123088346Y76034103D01*
X123148374Y75942341D01*
X123194905Y75841271D01*
X123219851Y75761971D01*
X123241123Y75679300D01*
X123238845Y74176466D01*
X123236567Y72673633D01*
X123212537Y72601667D01*
X123167825Y72492408D01*
X123110562Y72394479D01*
X123041024Y72308156D01*
X122959489Y72233717D01*
X122866234Y72171441D01*
X122761538Y72121604D01*
X122715867Y72104997D01*
X122643900Y72080967D01*
X118253934Y72079498D01*
X117920998Y72079393D01*
X117604595Y72079305D01*
X117304325Y72079235D01*
X117019786Y72079185D01*
X116750579Y72079156D01*
X116496302Y72079147D01*
X116256556Y72079161D01*
X116030940Y72079198D01*
X115819053Y72079259D01*
X115620494Y72079344D01*
X115434864Y72079455D01*
X115261762Y72079593D01*
X115100787Y72079759D01*
X114951538Y72079953D01*
X114813616Y72080176D01*
X114686620Y72080429D01*
X114570149Y72080714D01*
X114463803Y72081030D01*
X114367180Y72081380D01*
X114279882Y72081763D01*
X114201507Y72082181D01*
X114131654Y72082635D01*
X114069924Y72083125D01*
X114015915Y72083652D01*
X113969228Y72084218D01*
X113929461Y72084823D01*
X113896214Y72085468D01*
X113869087Y72086154D01*
X113847680Y72086882D01*
X113831590Y72087653D01*
X113820419Y72088467D01*
X113813766Y72089326D01*
X113813167Y72089452D01*
X113702687Y72122496D01*
X113601354Y72169585D01*
X113509845Y72230098D01*
X113428837Y72303417D01*
X113359007Y72388922D01*
X113301032Y72485995D01*
X113255590Y72594015D01*
X113252997Y72601667D01*
X113228967Y72673633D01*
X113226689Y74176466D01*
X113224411Y75679300D01*
X113245683Y75761971D01*
X113281710Y75869188D01*
X113331951Y75967869D01*
X113395428Y76056960D01*
X113471163Y76135408D01*
X113558180Y76202160D01*
X113655502Y76256162D01*
X113732733Y76287009D01*
X113813167Y76314300D01*
X114932884Y76316597D01*
X116052600Y76318895D01*
X116052600Y76225400D01*
D10*
X85240448Y33879100D02*
X88012952Y33879100D01*
X85240448Y30459100D02*
X88012952Y30459100D01*
X96050700Y79197800D02*
X97250700Y79197800D01*
X100570700Y79197800D02*
X99370700Y79197800D01*
X100570700Y82653363D02*
X100570700Y79197800D01*
X96050700Y82653363D02*
X96050700Y79197800D01*
X97115137Y83717800D02*
X97250700Y83717800D01*
X99506263Y83717800D02*
X99370700Y83717800D01*
X99506263Y83717800D02*
X100570700Y82653363D01*
X97115137Y83717800D02*
X96050700Y82653363D01*
X99870700Y84457800D02*
X99870700Y83957800D01*
X100120700Y84207800D02*
X99620700Y84207800D01*
X84573800Y83535264D02*
X84573800Y79431136D01*
X87993800Y83535264D02*
X87993800Y79431136D01*
X67584900Y48038764D02*
X67584900Y43934636D01*
X64164900Y48038764D02*
X64164900Y43934636D01*
X67982500Y55841300D02*
X66782500Y55841300D01*
X63462500Y55841300D02*
X64662500Y55841300D01*
X63462500Y52385737D02*
X63462500Y55841300D01*
X67982500Y52385737D02*
X67982500Y55841300D01*
X66918063Y51321300D02*
X66782500Y51321300D01*
X64526937Y51321300D02*
X64662500Y51321300D01*
X64526937Y51321300D02*
X63462500Y52385737D01*
X66918063Y51321300D02*
X67982500Y52385737D01*
X64162500Y50581300D02*
X64162500Y51081300D01*
X63912500Y50831300D02*
X64412500Y50831300D01*
X85621448Y70429700D02*
X88393952Y70429700D01*
X85621448Y67009700D02*
X88393952Y67009700D01*
X63100200Y40684900D02*
X62600200Y40684900D01*
X62850200Y40934900D02*
X62850200Y40434900D01*
X60094637Y40194900D02*
X59030200Y39130463D01*
X62485763Y40194900D02*
X63550200Y39130463D01*
X62485763Y40194900D02*
X62350200Y40194900D01*
X60094637Y40194900D02*
X60230200Y40194900D01*
X59030200Y39130463D02*
X59030200Y35674900D01*
X63550200Y39130463D02*
X63550200Y35674900D01*
X63550200Y35674900D02*
X62350200Y35674900D01*
X59030200Y35674900D02*
X60230200Y35674900D01*
X74157252Y56240100D02*
X71384748Y56240100D01*
X74157252Y59660100D02*
X71384748Y59660100D01*
X74119152Y50804500D02*
X71346648Y50804500D01*
X74119152Y54224500D02*
X71346648Y54224500D01*
X80926352Y49906500D02*
X78153848Y49906500D01*
X80926352Y46486500D02*
X78153848Y46486500D01*
X58964700Y53809000D02*
X58964700Y52109000D01*
X58964700Y52109000D02*
X61514700Y52109000D01*
X58964700Y53809000D02*
X61514700Y53809000D01*
X112915900Y52573300D02*
X116800900Y52573300D01*
X116800900Y52573300D02*
X116800900Y54843300D01*
X116800900Y54843300D02*
X112915900Y54843300D01*
X48868200Y51121300D02*
X36128200Y51121300D01*
X36128200Y51121300D02*
X36128200Y40881300D01*
X48868200Y40881300D02*
X36128200Y40881300D01*
X48868200Y51121300D02*
X48868200Y40881300D01*
X48868200Y51121300D02*
X36128200Y51121300D01*
X36128200Y51121300D02*
X36128200Y40881300D01*
X48868200Y40881300D02*
X36128200Y40881300D01*
X48868200Y51121300D02*
X48868200Y40881300D01*
X49248200Y51501300D02*
X49248200Y48501300D01*
X46248200Y51501300D02*
X49248200Y51501300D01*
X46286300Y40477700D02*
X49286300Y40477700D01*
X49286300Y40477700D02*
X49286300Y37477700D01*
X48906300Y40097700D02*
X48906300Y29857700D01*
X48906300Y29857700D02*
X36166300Y29857700D01*
X36166300Y40097700D02*
X36166300Y29857700D01*
X48906300Y40097700D02*
X36166300Y40097700D01*
X48906300Y40097700D02*
X48906300Y29857700D01*
X48906300Y29857700D02*
X36166300Y29857700D01*
X36166300Y40097700D02*
X36166300Y29857700D01*
X48906300Y40097700D02*
X36166300Y40097700D01*
X68135200Y40649200D02*
X67312730Y40649200D01*
X65427670Y40649200D02*
X64605200Y40649200D01*
X66697670Y40649200D02*
X66042730Y40649200D01*
X68135200Y38174200D02*
X68135200Y40649200D01*
X64605200Y36719200D02*
X64605200Y40649200D01*
X68135200Y38174200D02*
X67568671Y38174200D01*
X66441729Y38174200D02*
X66298671Y38174200D01*
X66245200Y38120729D02*
X66245200Y37977671D01*
X66245200Y36850729D02*
X66245200Y36719200D01*
X66245200Y36719200D02*
X66042730Y36719200D01*
X65427670Y36719200D02*
X64605200Y36719200D01*
X68135200Y37414200D02*
X68135200Y36654200D01*
X68135200Y36654200D02*
X67005200Y36654200D01*
X37041986Y51964444D02*
X36541986Y52464444D01*
X36541986Y52364444D02*
X36941986Y51964444D01*
X36841986Y51964444D02*
X36541986Y52264444D01*
X36541986Y52164444D02*
X36741986Y51964444D01*
X36641986Y51964444D02*
X36541986Y52064444D01*
X55321200Y62460000D02*
X57021200Y62460000D01*
X57021200Y62460000D02*
X57021200Y60960000D01*
X36521200Y61760000D02*
X36521200Y62360000D01*
X36521200Y62360000D02*
X56921200Y62360000D01*
X56921200Y62360000D02*
X56921200Y51960000D01*
X56921200Y51960000D02*
X36521200Y51960000D01*
X36521200Y51960000D02*
X36521200Y60164444D01*
X55321200Y57560000D02*
X55321200Y58660000D01*
X55321200Y56860000D02*
X55321200Y55760000D01*
X55121200Y57560000D02*
X55521200Y56860000D01*
X55921200Y57560000D02*
X54721200Y57560000D01*
X54721200Y57560000D02*
X54721200Y56860000D01*
X54721200Y56860000D02*
X55921200Y56860000D01*
X55921200Y56860000D02*
X55921200Y57560000D01*
X82693600Y66010700D02*
X82693600Y85390700D01*
X79613600Y62930700D02*
X82693600Y66010700D01*
X48733600Y85390700D02*
X82693600Y85390700D01*
X48733600Y62930700D02*
X48733600Y85390700D01*
X79613600Y62930700D02*
X48733600Y62930700D01*
X48488600Y67830700D02*
X48488600Y65290700D01*
X64045100Y61152700D02*
X64045100Y58752700D01*
X64045100Y58752700D02*
X62995100Y58752700D01*
X60745100Y60552700D02*
X60745100Y58752700D01*
X60745100Y58752700D02*
X61795100Y58752700D01*
X107034600Y39570700D02*
X105984600Y39570700D01*
X107034600Y37770700D02*
X107034600Y39570700D01*
X103734600Y39570700D02*
X104784600Y39570700D01*
X103734600Y37170700D02*
X103734600Y39570700D01*
X103110300Y40058000D02*
X103110300Y37658000D01*
X103110300Y37658000D02*
X102060300Y37658000D01*
X99810300Y39458000D02*
X99810300Y37658000D01*
X99810300Y37658000D02*
X100860300Y37658000D01*
X95733600Y37645300D02*
X96783600Y37645300D01*
X95733600Y39445300D02*
X95733600Y37645300D01*
X99033600Y37645300D02*
X97983600Y37645300D01*
X99033600Y40045300D02*
X99033600Y37645300D01*
X94995000Y40032600D02*
X94995000Y37632600D01*
X94995000Y37632600D02*
X93945000Y37632600D01*
X91695000Y39432600D02*
X91695000Y37632600D01*
X91695000Y37632600D02*
X92745000Y37632600D01*
X103125000Y60284700D02*
X103125000Y62684700D01*
X103125000Y62684700D02*
X104175000Y62684700D01*
X106425000Y60884700D02*
X106425000Y62684700D01*
X106425000Y62684700D02*
X105375000Y62684700D01*
X99365800Y60759300D02*
X100415800Y60759300D01*
X99365800Y62559300D02*
X99365800Y60759300D01*
X102665800Y60759300D02*
X101615800Y60759300D01*
X102665800Y63159300D02*
X102665800Y60759300D01*
X98766900Y63159300D02*
X98766900Y60759300D01*
X98766900Y60759300D02*
X97716900Y60759300D01*
X95466900Y62559300D02*
X95466900Y60759300D01*
X95466900Y60759300D02*
X96516900Y60759300D01*
X91630000Y60730000D02*
X92680000Y60730000D01*
X91630000Y62530000D02*
X91630000Y60730000D01*
X94930000Y60730000D02*
X93880000Y60730000D01*
X94930000Y63130000D02*
X94930000Y60730000D01*
X77636100Y52448000D02*
X77636100Y52748000D01*
X80936100Y52448000D02*
X77636100Y52448000D01*
X80936100Y52748000D02*
X80936100Y52448000D01*
X77636100Y55248000D02*
X77636100Y54948000D01*
X80936100Y55248000D02*
X77636100Y55248000D01*
X80936100Y54948000D02*
X80936100Y55248000D01*
X120687100Y58885000D02*
X120687100Y59185000D01*
X120687100Y59185000D02*
X117387100Y59185000D01*
X117387100Y59185000D02*
X117387100Y58885000D01*
X120687100Y56685000D02*
X120687100Y56385000D01*
X120687100Y56385000D02*
X117387100Y56385000D01*
X117387100Y56385000D02*
X117387100Y56685000D01*
X86982300Y45511400D02*
X88932300Y45511400D01*
X86982300Y45511400D02*
X85032300Y45511400D01*
X86982300Y55631400D02*
X88932300Y55631400D01*
X86982300Y55631400D02*
X83532300Y55631400D01*
X108564600Y78378000D02*
X108564600Y79638000D01*
X108564600Y85198000D02*
X108564600Y83938000D01*
X104804600Y78378000D02*
X108564600Y78378000D01*
X102554600Y85198000D02*
X108564600Y85198000D01*
X87109300Y34462400D02*
X90559300Y34462400D01*
X87109300Y34462400D02*
X85159300Y34462400D01*
X87109300Y44582400D02*
X89059300Y44582400D01*
X87109300Y44582400D02*
X85159300Y44582400D01*
D12*
X57132400Y47190100D02*
X57132400Y47140100D01*
X61282400Y47190100D02*
X61282400Y47045100D01*
X61282400Y42040100D02*
X61282400Y42185100D01*
X57132400Y42040100D02*
X57132400Y42185100D01*
X57132400Y47190100D02*
X61282400Y47190100D01*
X57132400Y42040100D02*
X61282400Y42040100D01*
X57132400Y47140100D02*
X55732400Y47140100D01*
D10*
X86944200Y66312100D02*
X84994200Y66312100D01*
X86944200Y66312100D02*
X88894200Y66312100D01*
X86944200Y56192100D02*
X84994200Y56192100D01*
X86944200Y56192100D02*
X90394200Y56192100D01*
X54889400Y34816100D02*
X56839400Y34816100D01*
X54889400Y34816100D02*
X52939400Y34816100D01*
X54889400Y39936100D02*
X56839400Y39936100D01*
X54889400Y39936100D02*
X51439400Y39936100D01*
D12*
X77996200Y43464900D02*
X77771200Y43464900D01*
X77996200Y36214900D02*
X77671200Y36214900D01*
X70746200Y36214900D02*
X71071200Y36214900D01*
X70746200Y43464900D02*
X71071200Y43464900D01*
X77996200Y43464900D02*
X77996200Y43139900D01*
X70746200Y43464900D02*
X70746200Y43139900D01*
X70746200Y36214900D02*
X70746200Y36539900D01*
X77996200Y36214900D02*
X77996200Y36539900D01*
X77771200Y43464900D02*
X77771200Y44889900D01*
D10*
X64923600Y60065552D02*
X64923600Y59543048D01*
X66343600Y60065552D02*
X66343600Y59543048D01*
X98900679Y33970800D02*
X98575121Y33970800D01*
X98900679Y34990800D02*
X98575121Y34990800D01*
X105009379Y35041600D02*
X104683821Y35041600D01*
X105009379Y34021600D02*
X104683821Y34021600D01*
X101940579Y44981400D02*
X101615021Y44981400D01*
X101940579Y46001400D02*
X101615021Y46001400D01*
X95844579Y45988700D02*
X95519021Y45988700D01*
X95844579Y44968700D02*
X95519021Y44968700D01*
X92796579Y44968700D02*
X92471021Y44968700D01*
X92796579Y45988700D02*
X92471021Y45988700D01*
X101948679Y35028900D02*
X101623121Y35028900D01*
X101948679Y34008900D02*
X101623121Y34008900D01*
X105001279Y44994100D02*
X104675721Y44994100D01*
X105001279Y46014100D02*
X104675721Y46014100D01*
X98892579Y46001400D02*
X98567021Y46001400D01*
X98892579Y44981400D02*
X98567021Y44981400D01*
X53554700Y46628952D02*
X53554700Y46106448D01*
X52134700Y46628952D02*
X52134700Y46106448D01*
X97930379Y56822400D02*
X97604821Y56822400D01*
X97930379Y55802400D02*
X97604821Y55802400D01*
X52134700Y42780852D02*
X52134700Y42258348D01*
X53554700Y42780852D02*
X53554700Y42258348D01*
X56186800Y49811721D02*
X56186800Y50137279D01*
X55166800Y49811721D02*
X55166800Y50137279D01*
X104254979Y56847800D02*
X103929421Y56847800D01*
X104254979Y55827800D02*
X103929421Y55827800D01*
X101606579Y66348200D02*
X101281021Y66348200D01*
X101606579Y67368200D02*
X101281021Y67368200D01*
X95535979Y66386300D02*
X95210421Y66386300D01*
X95535979Y67406300D02*
X95210421Y67406300D01*
X92453679Y66393600D02*
X92128121Y66393600D01*
X92453679Y67413600D02*
X92128121Y67413600D01*
X101130779Y55827800D02*
X100805221Y55827800D01*
X101130779Y56847800D02*
X100805221Y56847800D01*
X52334700Y49799021D02*
X52334700Y50124579D01*
X53354700Y49799021D02*
X53354700Y50124579D01*
X104667279Y67380900D02*
X104341721Y67380900D01*
X104667279Y66360900D02*
X104341721Y66360900D01*
X98558579Y67368200D02*
X98233021Y67368200D01*
X98558579Y66348200D02*
X98233021Y66348200D01*
X110040052Y54418300D02*
X109517548Y54418300D01*
X110040052Y52998300D02*
X109517548Y52998300D01*
X79253448Y57987000D02*
X79775952Y57987000D01*
X79253448Y56567000D02*
X79775952Y56567000D01*
X118991748Y54443700D02*
X119514252Y54443700D01*
X118991748Y53023700D02*
X119514252Y53023700D01*
D12*
X36722066Y86828419D02*
X36722066Y86114133D01*
X36674447Y85971276D01*
X36579209Y85876038D01*
X36436352Y85828419D01*
X36341114Y85828419D01*
X37722066Y85828419D02*
X37150638Y85828419D01*
X37436352Y85828419D02*
X37436352Y86828419D01*
X37341114Y86685561D01*
X37245876Y86590323D01*
X37150638Y86542704D01*
X35042380Y73531428D02*
X34566190Y73198095D01*
X35042380Y72960000D02*
X34042380Y72960000D01*
X34042380Y73340952D01*
X34090000Y73436190D01*
X34137619Y73483809D01*
X34232857Y73531428D01*
X34375714Y73531428D01*
X34470952Y73483809D01*
X34518571Y73436190D01*
X34566190Y73340952D01*
X34566190Y72960000D01*
X35042380Y77769523D02*
X34042380Y77769523D01*
X35042380Y78340952D01*
X34042380Y78340952D01*
X35042380Y83102857D02*
X35042380Y82626666D01*
X34042380Y82626666D01*
X95568642Y81354633D02*
X95616261Y81307014D01*
X95663880Y81164157D01*
X95663880Y81068919D01*
X95616261Y80926061D01*
X95521023Y80830823D01*
X95425785Y80783204D01*
X95235309Y80735585D01*
X95092452Y80735585D01*
X94901976Y80783204D01*
X94806738Y80830823D01*
X94711500Y80926061D01*
X94663880Y81068919D01*
X94663880Y81164157D01*
X94711500Y81307014D01*
X94759119Y81354633D01*
X94997214Y82211776D02*
X95663880Y82211776D01*
X94616261Y81973680D02*
X95330547Y81735585D01*
X95330547Y82354633D01*
X82383333Y31761157D02*
X82335714Y31713538D01*
X82192857Y31665919D01*
X82097619Y31665919D01*
X81954761Y31713538D01*
X81859523Y31808776D01*
X81811904Y31904014D01*
X81764285Y32094490D01*
X81764285Y32237347D01*
X81811904Y32427823D01*
X81859523Y32523061D01*
X81954761Y32618300D01*
X82097619Y32665919D01*
X82192857Y32665919D01*
X82335714Y32618300D01*
X82383333Y32570680D01*
X83335714Y31665919D02*
X82764285Y31665919D01*
X83050000Y31665919D02*
X83050000Y32665919D01*
X82954761Y32523061D01*
X82859523Y32427823D01*
X82764285Y32380204D01*
X101867842Y81291133D02*
X101915461Y81243514D01*
X101963080Y81100657D01*
X101963080Y81005419D01*
X101915461Y80862561D01*
X101820223Y80767323D01*
X101724985Y80719704D01*
X101534509Y80672085D01*
X101391652Y80672085D01*
X101201176Y80719704D01*
X101105938Y80767323D01*
X101010700Y80862561D01*
X100963080Y81005419D01*
X100963080Y81100657D01*
X101010700Y81243514D01*
X101058319Y81291133D01*
X101058319Y81672085D02*
X101010700Y81719704D01*
X100963080Y81814942D01*
X100963080Y82053038D01*
X101010700Y82148276D01*
X101058319Y82195895D01*
X101153557Y82243514D01*
X101248795Y82243514D01*
X101391652Y82195895D01*
X101963080Y81624466D01*
X101963080Y82243514D01*
X89260942Y81316533D02*
X89308561Y81268914D01*
X89356180Y81126057D01*
X89356180Y81030819D01*
X89308561Y80887961D01*
X89213323Y80792723D01*
X89118085Y80745104D01*
X88927609Y80697485D01*
X88784752Y80697485D01*
X88594276Y80745104D01*
X88499038Y80792723D01*
X88403800Y80887961D01*
X88356180Y81030819D01*
X88356180Y81126057D01*
X88403800Y81268914D01*
X88451419Y81316533D01*
X88356180Y81649866D02*
X88356180Y82268914D01*
X88737133Y81935580D01*
X88737133Y82078438D01*
X88784752Y82173676D01*
X88832371Y82221295D01*
X88927609Y82268914D01*
X89165704Y82268914D01*
X89260942Y82221295D01*
X89308561Y82173676D01*
X89356180Y82078438D01*
X89356180Y81792723D01*
X89308561Y81697485D01*
X89260942Y81649866D01*
X69124533Y45578757D02*
X69076914Y45531138D01*
X68934057Y45483519D01*
X68838819Y45483519D01*
X68695961Y45531138D01*
X68600723Y45626376D01*
X68553104Y45721614D01*
X68505485Y45912090D01*
X68505485Y46054947D01*
X68553104Y46245423D01*
X68600723Y46340661D01*
X68695961Y46435900D01*
X68838819Y46483519D01*
X68934057Y46483519D01*
X69076914Y46435900D01*
X69124533Y46388280D01*
X70029295Y46483519D02*
X69553104Y46483519D01*
X69505485Y46007328D01*
X69553104Y46054947D01*
X69648342Y46102566D01*
X69886438Y46102566D01*
X69981676Y46054947D01*
X70029295Y46007328D01*
X70076914Y45912090D01*
X70076914Y45673995D01*
X70029295Y45578757D01*
X69981676Y45531138D01*
X69886438Y45483519D01*
X69648342Y45483519D01*
X69553104Y45531138D01*
X69505485Y45578757D01*
X67994233Y50519057D02*
X67946614Y50471438D01*
X67803757Y50423819D01*
X67708519Y50423819D01*
X67565661Y50471438D01*
X67470423Y50566676D01*
X67422804Y50661914D01*
X67375185Y50852390D01*
X67375185Y50995247D01*
X67422804Y51185723D01*
X67470423Y51280961D01*
X67565661Y51376200D01*
X67708519Y51423819D01*
X67803757Y51423819D01*
X67946614Y51376200D01*
X67994233Y51328580D01*
X68851376Y51423819D02*
X68660900Y51423819D01*
X68565661Y51376200D01*
X68518042Y51328580D01*
X68422804Y51185723D01*
X68375185Y50995247D01*
X68375185Y50614295D01*
X68422804Y50519057D01*
X68470423Y50471438D01*
X68565661Y50423819D01*
X68756138Y50423819D01*
X68851376Y50471438D01*
X68898995Y50519057D01*
X68946614Y50614295D01*
X68946614Y50852390D01*
X68898995Y50947628D01*
X68851376Y50995247D01*
X68756138Y51042866D01*
X68565661Y51042866D01*
X68470423Y50995247D01*
X68422804Y50947628D01*
X68375185Y50852390D01*
X86841033Y71012557D02*
X86793414Y70964938D01*
X86650557Y70917319D01*
X86555319Y70917319D01*
X86412461Y70964938D01*
X86317223Y71060176D01*
X86269604Y71155414D01*
X86221985Y71345890D01*
X86221985Y71488747D01*
X86269604Y71679223D01*
X86317223Y71774461D01*
X86412461Y71869700D01*
X86555319Y71917319D01*
X86650557Y71917319D01*
X86793414Y71869700D01*
X86841033Y71822080D01*
X87174366Y71917319D02*
X87841033Y71917319D01*
X87412461Y70917319D01*
X60374233Y33348657D02*
X60326614Y33301038D01*
X60183757Y33253419D01*
X60088519Y33253419D01*
X59945661Y33301038D01*
X59850423Y33396276D01*
X59802804Y33491514D01*
X59755185Y33681990D01*
X59755185Y33824847D01*
X59802804Y34015323D01*
X59850423Y34110561D01*
X59945661Y34205800D01*
X60088519Y34253419D01*
X60183757Y34253419D01*
X60326614Y34205800D01*
X60374233Y34158180D01*
X60945661Y33824847D02*
X60850423Y33872466D01*
X60802804Y33920085D01*
X60755185Y34015323D01*
X60755185Y34062942D01*
X60802804Y34158180D01*
X60850423Y34205800D01*
X60945661Y34253419D01*
X61136138Y34253419D01*
X61231376Y34205800D01*
X61278995Y34158180D01*
X61326614Y34062942D01*
X61326614Y34015323D01*
X61278995Y33920085D01*
X61231376Y33872466D01*
X61136138Y33824847D01*
X60945661Y33824847D01*
X60850423Y33777228D01*
X60802804Y33729609D01*
X60755185Y33634371D01*
X60755185Y33443895D01*
X60802804Y33348657D01*
X60850423Y33301038D01*
X60945661Y33253419D01*
X61136138Y33253419D01*
X61231376Y33301038D01*
X61278995Y33348657D01*
X61326614Y33443895D01*
X61326614Y33634371D01*
X61278995Y33729609D01*
X61231376Y33777228D01*
X61136138Y33824847D01*
X72629733Y60221857D02*
X72582114Y60174238D01*
X72439257Y60126619D01*
X72344019Y60126619D01*
X72201161Y60174238D01*
X72105923Y60269476D01*
X72058304Y60364714D01*
X72010685Y60555190D01*
X72010685Y60698047D01*
X72058304Y60888523D01*
X72105923Y60983761D01*
X72201161Y61079000D01*
X72344019Y61126619D01*
X72439257Y61126619D01*
X72582114Y61079000D01*
X72629733Y61031380D01*
X73105923Y60126619D02*
X73296400Y60126619D01*
X73391638Y60174238D01*
X73439257Y60221857D01*
X73534495Y60364714D01*
X73582114Y60555190D01*
X73582114Y60936142D01*
X73534495Y61031380D01*
X73486876Y61079000D01*
X73391638Y61126619D01*
X73201161Y61126619D01*
X73105923Y61079000D01*
X73058304Y61031380D01*
X73010685Y60936142D01*
X73010685Y60698047D01*
X73058304Y60602809D01*
X73105923Y60555190D01*
X73201161Y60507571D01*
X73391638Y60507571D01*
X73486876Y60555190D01*
X73534495Y60602809D01*
X73582114Y60698047D01*
X71950342Y54710057D02*
X71902723Y54662438D01*
X71759866Y54614819D01*
X71664628Y54614819D01*
X71521771Y54662438D01*
X71426533Y54757676D01*
X71378914Y54852914D01*
X71331295Y55043390D01*
X71331295Y55186247D01*
X71378914Y55376723D01*
X71426533Y55471961D01*
X71521771Y55567200D01*
X71664628Y55614819D01*
X71759866Y55614819D01*
X71902723Y55567200D01*
X71950342Y55519580D01*
X72902723Y54614819D02*
X72331295Y54614819D01*
X72617009Y54614819D02*
X72617009Y55614819D01*
X72521771Y55471961D01*
X72426533Y55376723D01*
X72331295Y55329104D01*
X73521771Y55614819D02*
X73617009Y55614819D01*
X73712247Y55567200D01*
X73759866Y55519580D01*
X73807485Y55424342D01*
X73855104Y55233866D01*
X73855104Y54995771D01*
X73807485Y54805295D01*
X73759866Y54710057D01*
X73712247Y54662438D01*
X73617009Y54614819D01*
X73521771Y54614819D01*
X73426533Y54662438D01*
X73378914Y54710057D01*
X73331295Y54805295D01*
X73283676Y54995771D01*
X73283676Y55233866D01*
X73331295Y55424342D01*
X73378914Y55519580D01*
X73426533Y55567200D01*
X73521771Y55614819D01*
X80738742Y45210457D02*
X80691123Y45162838D01*
X80548266Y45115219D01*
X80453028Y45115219D01*
X80310171Y45162838D01*
X80214933Y45258076D01*
X80167314Y45353314D01*
X80119695Y45543790D01*
X80119695Y45686647D01*
X80167314Y45877123D01*
X80214933Y45972361D01*
X80310171Y46067600D01*
X80453028Y46115219D01*
X80548266Y46115219D01*
X80691123Y46067600D01*
X80738742Y46019980D01*
X81691123Y45115219D02*
X81119695Y45115219D01*
X81405409Y45115219D02*
X81405409Y46115219D01*
X81310171Y45972361D01*
X81214933Y45877123D01*
X81119695Y45829504D01*
X82643504Y45115219D02*
X82072076Y45115219D01*
X82357790Y45115219D02*
X82357790Y46115219D01*
X82262552Y45972361D01*
X82167314Y45877123D01*
X82072076Y45829504D01*
X59726604Y54356619D02*
X59726604Y55356619D01*
X59964700Y55356619D01*
X60107557Y55309000D01*
X60202795Y55213761D01*
X60250414Y55118523D01*
X60298033Y54928047D01*
X60298033Y54785190D01*
X60250414Y54594714D01*
X60202795Y54499476D01*
X60107557Y54404238D01*
X59964700Y54356619D01*
X59726604Y54356619D01*
X61250414Y54356619D02*
X60678985Y54356619D01*
X60964700Y54356619D02*
X60964700Y55356619D01*
X60869461Y55213761D01*
X60774223Y55118523D01*
X60678985Y55070904D01*
X113777804Y55046619D02*
X113777804Y56046619D01*
X114015900Y56046619D01*
X114158757Y55999000D01*
X114253995Y55903761D01*
X114301614Y55808523D01*
X114349233Y55618047D01*
X114349233Y55475190D01*
X114301614Y55284714D01*
X114253995Y55189476D01*
X114158757Y55094238D01*
X114015900Y55046619D01*
X113777804Y55046619D01*
X115206376Y55713285D02*
X115206376Y55046619D01*
X114968280Y56094238D02*
X114730185Y55379952D01*
X115349233Y55379952D01*
X49755466Y51309519D02*
X49755466Y50595233D01*
X49707847Y50452376D01*
X49612609Y50357138D01*
X49469752Y50309519D01*
X49374514Y50309519D01*
X50184038Y51214280D02*
X50231657Y51261900D01*
X50326895Y51309519D01*
X50564990Y51309519D01*
X50660228Y51261900D01*
X50707847Y51214280D01*
X50755466Y51119042D01*
X50755466Y51023804D01*
X50707847Y50880947D01*
X50136419Y50309519D01*
X50755466Y50309519D01*
X35669480Y43839071D02*
X34669480Y43839071D01*
X34669480Y44220023D01*
X34717100Y44315261D01*
X34764719Y44362880D01*
X34859957Y44410500D01*
X35002814Y44410500D01*
X35098052Y44362880D01*
X35145671Y44315261D01*
X35193290Y44220023D01*
X35193290Y43839071D01*
X34669480Y44696214D02*
X34669480Y45267642D01*
X35669480Y44981928D02*
X34669480Y44981928D01*
X35669480Y46124785D02*
X35669480Y45553357D01*
X35669480Y45839071D02*
X34669480Y45839071D01*
X34812338Y45743833D01*
X34907576Y45648595D01*
X34955195Y45553357D01*
X34669480Y46743833D02*
X34669480Y46839071D01*
X34717100Y46934309D01*
X34764719Y46981928D01*
X34859957Y47029547D01*
X35050433Y47077166D01*
X35288528Y47077166D01*
X35479004Y47029547D01*
X35574242Y46981928D01*
X35621861Y46934309D01*
X35669480Y46839071D01*
X35669480Y46743833D01*
X35621861Y46648595D01*
X35574242Y46600976D01*
X35479004Y46553357D01*
X35288528Y46505738D01*
X35050433Y46505738D01*
X34859957Y46553357D01*
X34764719Y46600976D01*
X34717100Y46648595D01*
X34669480Y46743833D01*
X34669480Y47696214D02*
X34669480Y47791452D01*
X34717100Y47886690D01*
X34764719Y47934309D01*
X34859957Y47981928D01*
X35050433Y48029547D01*
X35288528Y48029547D01*
X35479004Y47981928D01*
X35574242Y47934309D01*
X35621861Y47886690D01*
X35669480Y47791452D01*
X35669480Y47696214D01*
X35621861Y47600976D01*
X35574242Y47553357D01*
X35479004Y47505738D01*
X35288528Y47458119D01*
X35050433Y47458119D01*
X34859957Y47505738D01*
X34764719Y47553357D01*
X34717100Y47600976D01*
X34669480Y47696214D01*
X49666566Y31091119D02*
X49666566Y30376833D01*
X49618947Y30233976D01*
X49523709Y30138738D01*
X49380852Y30091119D01*
X49285614Y30091119D01*
X50047519Y31091119D02*
X50666566Y31091119D01*
X50333233Y30710166D01*
X50476090Y30710166D01*
X50571328Y30662547D01*
X50618947Y30614928D01*
X50666566Y30519690D01*
X50666566Y30281595D01*
X50618947Y30186357D01*
X50571328Y30138738D01*
X50476090Y30091119D01*
X50190376Y30091119D01*
X50095138Y30138738D01*
X50047519Y30186357D01*
X34555180Y31898057D02*
X34555180Y32469485D01*
X35555180Y32183771D02*
X34555180Y32183771D01*
X35507561Y33183771D02*
X35555180Y33088533D01*
X35555180Y32898057D01*
X35507561Y32802819D01*
X35412323Y32755200D01*
X35031371Y32755200D01*
X34936133Y32802819D01*
X34888514Y32898057D01*
X34888514Y33088533D01*
X34936133Y33183771D01*
X35031371Y33231390D01*
X35126609Y33231390D01*
X35221847Y32755200D01*
X35555180Y33659961D02*
X34888514Y33659961D01*
X35078990Y33659961D02*
X34983752Y33707580D01*
X34936133Y33755200D01*
X34888514Y33850438D01*
X34888514Y33945676D01*
X35555180Y34279009D02*
X34888514Y34279009D01*
X34983752Y34279009D02*
X34936133Y34326628D01*
X34888514Y34421866D01*
X34888514Y34564723D01*
X34936133Y34659961D01*
X35031371Y34707580D01*
X35555180Y34707580D01*
X35031371Y34707580D02*
X34936133Y34755200D01*
X34888514Y34850438D01*
X34888514Y34993295D01*
X34936133Y35088533D01*
X35031371Y35136152D01*
X35555180Y35136152D01*
X35555180Y35755200D02*
X35507561Y35659961D01*
X35459942Y35612342D01*
X35364704Y35564723D01*
X35078990Y35564723D01*
X34983752Y35612342D01*
X34936133Y35659961D01*
X34888514Y35755200D01*
X34888514Y35898057D01*
X34936133Y35993295D01*
X34983752Y36040914D01*
X35078990Y36088533D01*
X35364704Y36088533D01*
X35459942Y36040914D01*
X35507561Y35993295D01*
X35555180Y35898057D01*
X35555180Y35755200D01*
X34888514Y36517104D02*
X35888514Y36517104D01*
X34936133Y36517104D02*
X34888514Y36612342D01*
X34888514Y36802819D01*
X34936133Y36898057D01*
X34983752Y36945676D01*
X35078990Y36993295D01*
X35364704Y36993295D01*
X35459942Y36945676D01*
X35507561Y36898057D01*
X35555180Y36802819D01*
X35555180Y36612342D01*
X35507561Y36517104D01*
X35555180Y37850438D02*
X35031371Y37850438D01*
X34936133Y37802819D01*
X34888514Y37707580D01*
X34888514Y37517104D01*
X34936133Y37421866D01*
X35507561Y37850438D02*
X35555180Y37755200D01*
X35555180Y37517104D01*
X35507561Y37421866D01*
X35412323Y37374247D01*
X35317085Y37374247D01*
X35221847Y37421866D01*
X35174228Y37517104D01*
X35174228Y37755200D01*
X35126609Y37850438D01*
X35555180Y38326628D02*
X34888514Y38326628D01*
X35078990Y38326628D02*
X34983752Y38374247D01*
X34936133Y38421866D01*
X34888514Y38517104D01*
X34888514Y38612342D01*
X64081066Y36044119D02*
X64081066Y35329833D01*
X64033447Y35186976D01*
X63938209Y35091738D01*
X63795352Y35044119D01*
X63700114Y35044119D01*
X64985828Y35710785D02*
X64985828Y35044119D01*
X64747733Y36091738D02*
X64509638Y35377452D01*
X65128685Y35377452D01*
X57237404Y61752219D02*
X57237404Y62752219D01*
X57808833Y61752219D02*
X57380261Y62323647D01*
X57808833Y62752219D02*
X57237404Y62180790D01*
X58761214Y61752219D02*
X58189785Y61752219D01*
X58475500Y61752219D02*
X58475500Y62752219D01*
X58380261Y62609361D01*
X58285023Y62514123D01*
X58189785Y62466504D01*
X76192214Y61523619D02*
X76192214Y62523619D01*
X76573166Y62523619D01*
X76668404Y62476000D01*
X76716023Y62428380D01*
X76763642Y62333142D01*
X76763642Y62190285D01*
X76716023Y62095047D01*
X76668404Y62047428D01*
X76573166Y61999809D01*
X76192214Y61999809D01*
X77144595Y61571238D02*
X77287452Y61523619D01*
X77525547Y61523619D01*
X77620785Y61571238D01*
X77668404Y61618857D01*
X77716023Y61714095D01*
X77716023Y61809333D01*
X77668404Y61904571D01*
X77620785Y61952190D01*
X77525547Y61999809D01*
X77335071Y62047428D01*
X77239833Y62095047D01*
X77192214Y62142666D01*
X77144595Y62237904D01*
X77144595Y62333142D01*
X77192214Y62428380D01*
X77239833Y62476000D01*
X77335071Y62523619D01*
X77573166Y62523619D01*
X77716023Y62476000D01*
X78668404Y61523619D02*
X78096976Y61523619D01*
X78382690Y61523619D02*
X78382690Y62523619D01*
X78287452Y62380761D01*
X78192214Y62285523D01*
X78096976Y62237904D01*
X62223661Y61656980D02*
X62128423Y61704600D01*
X62033185Y61799838D01*
X61890328Y61942695D01*
X61795090Y61990314D01*
X61699852Y61990314D01*
X61747471Y61752219D02*
X61652233Y61799838D01*
X61556995Y61895076D01*
X61509376Y62085552D01*
X61509376Y62418885D01*
X61556995Y62609361D01*
X61652233Y62704600D01*
X61747471Y62752219D01*
X61937947Y62752219D01*
X62033185Y62704600D01*
X62128423Y62609361D01*
X62176042Y62418885D01*
X62176042Y62085552D01*
X62128423Y61895076D01*
X62033185Y61799838D01*
X61937947Y61752219D01*
X61747471Y61752219D01*
X63128423Y61752219D02*
X62556995Y61752219D01*
X62842709Y61752219D02*
X62842709Y62752219D01*
X62747471Y62609361D01*
X62652233Y62514123D01*
X62556995Y62466504D01*
X105276661Y40613080D02*
X105181423Y40660700D01*
X105086185Y40755938D01*
X104943328Y40898795D01*
X104848090Y40946414D01*
X104752852Y40946414D01*
X104800471Y40708319D02*
X104705233Y40755938D01*
X104609995Y40851176D01*
X104562376Y41041652D01*
X104562376Y41374985D01*
X104609995Y41565461D01*
X104705233Y41660700D01*
X104800471Y41708319D01*
X104990947Y41708319D01*
X105086185Y41660700D01*
X105181423Y41565461D01*
X105229042Y41374985D01*
X105229042Y41041652D01*
X105181423Y40851176D01*
X105086185Y40755938D01*
X104990947Y40708319D01*
X104800471Y40708319D01*
X105609995Y41613080D02*
X105657614Y41660700D01*
X105752852Y41708319D01*
X105990947Y41708319D01*
X106086185Y41660700D01*
X106133804Y41613080D01*
X106181423Y41517842D01*
X106181423Y41422604D01*
X106133804Y41279747D01*
X105562376Y40708319D01*
X106181423Y40708319D01*
X101199961Y40663880D02*
X101104723Y40711500D01*
X101009485Y40806738D01*
X100866628Y40949595D01*
X100771390Y40997214D01*
X100676152Y40997214D01*
X100723771Y40759119D02*
X100628533Y40806738D01*
X100533295Y40901976D01*
X100485676Y41092452D01*
X100485676Y41425785D01*
X100533295Y41616261D01*
X100628533Y41711500D01*
X100723771Y41759119D01*
X100914247Y41759119D01*
X101009485Y41711500D01*
X101104723Y41616261D01*
X101152342Y41425785D01*
X101152342Y41092452D01*
X101104723Y40901976D01*
X101009485Y40806738D01*
X100914247Y40759119D01*
X100723771Y40759119D01*
X101485676Y41759119D02*
X102104723Y41759119D01*
X101771390Y41378166D01*
X101914247Y41378166D01*
X102009485Y41330547D01*
X102057104Y41282928D01*
X102104723Y41187690D01*
X102104723Y40949595D01*
X102057104Y40854357D01*
X102009485Y40806738D01*
X101914247Y40759119D01*
X101628533Y40759119D01*
X101533295Y40806738D01*
X101485676Y40854357D01*
X97351861Y40663880D02*
X97256623Y40711500D01*
X97161385Y40806738D01*
X97018528Y40949595D01*
X96923290Y40997214D01*
X96828052Y40997214D01*
X96875671Y40759119D02*
X96780433Y40806738D01*
X96685195Y40901976D01*
X96637576Y41092452D01*
X96637576Y41425785D01*
X96685195Y41616261D01*
X96780433Y41711500D01*
X96875671Y41759119D01*
X97066147Y41759119D01*
X97161385Y41711500D01*
X97256623Y41616261D01*
X97304242Y41425785D01*
X97304242Y41092452D01*
X97256623Y40901976D01*
X97161385Y40806738D01*
X97066147Y40759119D01*
X96875671Y40759119D01*
X98161385Y41425785D02*
X98161385Y40759119D01*
X97923290Y41806738D02*
X97685195Y41092452D01*
X98304242Y41092452D01*
X93097361Y40701980D02*
X93002123Y40749600D01*
X92906885Y40844838D01*
X92764028Y40987695D01*
X92668790Y41035314D01*
X92573552Y41035314D01*
X92621171Y40797219D02*
X92525933Y40844838D01*
X92430695Y40940076D01*
X92383076Y41130552D01*
X92383076Y41463885D01*
X92430695Y41654361D01*
X92525933Y41749600D01*
X92621171Y41797219D01*
X92811647Y41797219D01*
X92906885Y41749600D01*
X93002123Y41654361D01*
X93049742Y41463885D01*
X93049742Y41130552D01*
X93002123Y40940076D01*
X92906885Y40844838D01*
X92811647Y40797219D01*
X92621171Y40797219D01*
X93954504Y41797219D02*
X93478314Y41797219D01*
X93430695Y41321028D01*
X93478314Y41368647D01*
X93573552Y41416266D01*
X93811647Y41416266D01*
X93906885Y41368647D01*
X93954504Y41321028D01*
X94002123Y41225790D01*
X94002123Y40987695D01*
X93954504Y40892457D01*
X93906885Y40844838D01*
X93811647Y40797219D01*
X93573552Y40797219D01*
X93478314Y40844838D01*
X93430695Y40892457D01*
X104641661Y58481980D02*
X104546423Y58529600D01*
X104451185Y58624838D01*
X104308328Y58767695D01*
X104213090Y58815314D01*
X104117852Y58815314D01*
X104165471Y58577219D02*
X104070233Y58624838D01*
X103974995Y58720076D01*
X103927376Y58910552D01*
X103927376Y59243885D01*
X103974995Y59434361D01*
X104070233Y59529600D01*
X104165471Y59577219D01*
X104355947Y59577219D01*
X104451185Y59529600D01*
X104546423Y59434361D01*
X104594042Y59243885D01*
X104594042Y58910552D01*
X104546423Y58720076D01*
X104451185Y58624838D01*
X104355947Y58577219D01*
X104165471Y58577219D01*
X105451185Y59577219D02*
X105260709Y59577219D01*
X105165471Y59529600D01*
X105117852Y59481980D01*
X105022614Y59339123D01*
X104974995Y59148647D01*
X104974995Y58767695D01*
X105022614Y58672457D01*
X105070233Y58624838D01*
X105165471Y58577219D01*
X105355947Y58577219D01*
X105451185Y58624838D01*
X105498804Y58672457D01*
X105546423Y58767695D01*
X105546423Y59005790D01*
X105498804Y59101028D01*
X105451185Y59148647D01*
X105355947Y59196266D01*
X105165471Y59196266D01*
X105070233Y59148647D01*
X105022614Y59101028D01*
X104974995Y59005790D01*
X100907861Y58570880D02*
X100812623Y58618500D01*
X100717385Y58713738D01*
X100574528Y58856595D01*
X100479290Y58904214D01*
X100384052Y58904214D01*
X100431671Y58666119D02*
X100336433Y58713738D01*
X100241195Y58808976D01*
X100193576Y58999452D01*
X100193576Y59332785D01*
X100241195Y59523261D01*
X100336433Y59618500D01*
X100431671Y59666119D01*
X100622147Y59666119D01*
X100717385Y59618500D01*
X100812623Y59523261D01*
X100860242Y59332785D01*
X100860242Y58999452D01*
X100812623Y58808976D01*
X100717385Y58713738D01*
X100622147Y58666119D01*
X100431671Y58666119D01*
X101193576Y59666119D02*
X101860242Y59666119D01*
X101431671Y58666119D01*
X97212161Y58583580D02*
X97116923Y58631200D01*
X97021685Y58726438D01*
X96878828Y58869295D01*
X96783590Y58916914D01*
X96688352Y58916914D01*
X96735971Y58678819D02*
X96640733Y58726438D01*
X96545495Y58821676D01*
X96497876Y59012152D01*
X96497876Y59345485D01*
X96545495Y59535961D01*
X96640733Y59631200D01*
X96735971Y59678819D01*
X96926447Y59678819D01*
X97021685Y59631200D01*
X97116923Y59535961D01*
X97164542Y59345485D01*
X97164542Y59012152D01*
X97116923Y58821676D01*
X97021685Y58726438D01*
X96926447Y58678819D01*
X96735971Y58678819D01*
X97735971Y59250247D02*
X97640733Y59297866D01*
X97593114Y59345485D01*
X97545495Y59440723D01*
X97545495Y59488342D01*
X97593114Y59583580D01*
X97640733Y59631200D01*
X97735971Y59678819D01*
X97926447Y59678819D01*
X98021685Y59631200D01*
X98069304Y59583580D01*
X98116923Y59488342D01*
X98116923Y59440723D01*
X98069304Y59345485D01*
X98021685Y59297866D01*
X97926447Y59250247D01*
X97735971Y59250247D01*
X97640733Y59202628D01*
X97593114Y59155009D01*
X97545495Y59059771D01*
X97545495Y58869295D01*
X97593114Y58774057D01*
X97640733Y58726438D01*
X97735971Y58678819D01*
X97926447Y58678819D01*
X98021685Y58726438D01*
X98069304Y58774057D01*
X98116923Y58869295D01*
X98116923Y59059771D01*
X98069304Y59155009D01*
X98021685Y59202628D01*
X97926447Y59250247D01*
X93375261Y58554280D02*
X93280023Y58601900D01*
X93184785Y58697138D01*
X93041928Y58839995D01*
X92946690Y58887614D01*
X92851452Y58887614D01*
X92899071Y58649519D02*
X92803833Y58697138D01*
X92708595Y58792376D01*
X92660976Y58982852D01*
X92660976Y59316185D01*
X92708595Y59506661D01*
X92803833Y59601900D01*
X92899071Y59649519D01*
X93089547Y59649519D01*
X93184785Y59601900D01*
X93280023Y59506661D01*
X93327642Y59316185D01*
X93327642Y58982852D01*
X93280023Y58792376D01*
X93184785Y58697138D01*
X93089547Y58649519D01*
X92899071Y58649519D01*
X93803833Y58649519D02*
X93994309Y58649519D01*
X94089547Y58697138D01*
X94137166Y58744757D01*
X94232404Y58887614D01*
X94280023Y59078090D01*
X94280023Y59459042D01*
X94232404Y59554280D01*
X94184785Y59601900D01*
X94089547Y59649519D01*
X93899071Y59649519D01*
X93803833Y59601900D01*
X93756214Y59554280D01*
X93708595Y59459042D01*
X93708595Y59220947D01*
X93756214Y59125709D01*
X93803833Y59078090D01*
X93899071Y59030471D01*
X94089547Y59030471D01*
X94184785Y59078090D01*
X94232404Y59125709D01*
X94280023Y59220947D01*
X77952766Y50943238D02*
X78095623Y50895619D01*
X78333719Y50895619D01*
X78428957Y50943238D01*
X78476576Y50990857D01*
X78524195Y51086095D01*
X78524195Y51181333D01*
X78476576Y51276571D01*
X78428957Y51324190D01*
X78333719Y51371809D01*
X78143242Y51419428D01*
X78048004Y51467047D01*
X78000385Y51514666D01*
X77952766Y51609904D01*
X77952766Y51705142D01*
X78000385Y51800380D01*
X78048004Y51848000D01*
X78143242Y51895619D01*
X78381338Y51895619D01*
X78524195Y51848000D01*
X78857528Y51895619D02*
X79095623Y50895619D01*
X79286100Y51609904D01*
X79476576Y50895619D01*
X79714671Y51895619D01*
X80619433Y50895619D02*
X80048004Y50895619D01*
X80333719Y50895619D02*
X80333719Y51895619D01*
X80238480Y51752761D01*
X80143242Y51657523D01*
X80048004Y51609904D01*
X117462466Y59755138D02*
X117605323Y59707519D01*
X117843419Y59707519D01*
X117938657Y59755138D01*
X117986276Y59802757D01*
X118033895Y59897995D01*
X118033895Y59993233D01*
X117986276Y60088471D01*
X117938657Y60136090D01*
X117843419Y60183709D01*
X117652942Y60231328D01*
X117557704Y60278947D01*
X117510085Y60326566D01*
X117462466Y60421804D01*
X117462466Y60517042D01*
X117510085Y60612280D01*
X117557704Y60659900D01*
X117652942Y60707519D01*
X117891038Y60707519D01*
X118033895Y60659900D01*
X118367228Y60707519D02*
X118605323Y59707519D01*
X118795800Y60421804D01*
X118986276Y59707519D01*
X119224371Y60707519D01*
X119557704Y60612280D02*
X119605323Y60659900D01*
X119700561Y60707519D01*
X119938657Y60707519D01*
X120033895Y60659900D01*
X120081514Y60612280D01*
X120129133Y60517042D01*
X120129133Y60421804D01*
X120081514Y60278947D01*
X119510085Y59707519D01*
X120129133Y59707519D01*
X91274995Y51182519D02*
X91274995Y50372995D01*
X91322614Y50277757D01*
X91370233Y50230138D01*
X91465471Y50182519D01*
X91655947Y50182519D01*
X91751185Y50230138D01*
X91798804Y50277757D01*
X91846423Y50372995D01*
X91846423Y51182519D01*
X92846423Y50182519D02*
X92274995Y50182519D01*
X92560709Y50182519D02*
X92560709Y51182519D01*
X92465471Y51039661D01*
X92370233Y50944423D01*
X92274995Y50896804D01*
X105321195Y77776319D02*
X105321195Y76966795D01*
X105368814Y76871557D01*
X105416433Y76823938D01*
X105511671Y76776319D01*
X105702147Y76776319D01*
X105797385Y76823938D01*
X105845004Y76871557D01*
X105892623Y76966795D01*
X105892623Y77776319D01*
X106321195Y77681080D02*
X106368814Y77728700D01*
X106464052Y77776319D01*
X106702147Y77776319D01*
X106797385Y77728700D01*
X106845004Y77681080D01*
X106892623Y77585842D01*
X106892623Y77490604D01*
X106845004Y77347747D01*
X106273576Y76776319D01*
X106892623Y76776319D01*
X81661095Y35853619D02*
X81661095Y35044095D01*
X81708714Y34948857D01*
X81756333Y34901238D01*
X81851571Y34853619D01*
X82042047Y34853619D01*
X82137285Y34901238D01*
X82184904Y34948857D01*
X82232523Y35044095D01*
X82232523Y35853619D01*
X83137285Y35520285D02*
X83137285Y34853619D01*
X82899190Y35901238D02*
X82661095Y35186952D01*
X83280142Y35186952D01*
X58445495Y48662719D02*
X58445495Y47853195D01*
X58493114Y47757957D01*
X58540733Y47710338D01*
X58635971Y47662719D01*
X58826447Y47662719D01*
X58921685Y47710338D01*
X58969304Y47757957D01*
X59016923Y47853195D01*
X59016923Y48662719D01*
X59969304Y48662719D02*
X59493114Y48662719D01*
X59445495Y48186528D01*
X59493114Y48234147D01*
X59588352Y48281766D01*
X59826447Y48281766D01*
X59921685Y48234147D01*
X59969304Y48186528D01*
X60016923Y48091290D01*
X60016923Y47853195D01*
X59969304Y47757957D01*
X59921685Y47710338D01*
X59826447Y47662719D01*
X59588352Y47662719D01*
X59493114Y47710338D01*
X59445495Y47757957D01*
X81419795Y66257419D02*
X81419795Y65447895D01*
X81467414Y65352657D01*
X81515033Y65305038D01*
X81610271Y65257419D01*
X81800747Y65257419D01*
X81895985Y65305038D01*
X81943604Y65352657D01*
X81991223Y65447895D01*
X81991223Y66257419D01*
X82372176Y66257419D02*
X83038842Y66257419D01*
X82610271Y65257419D01*
X53898895Y34189919D02*
X53898895Y33380395D01*
X53946514Y33285157D01*
X53994133Y33237538D01*
X54089371Y33189919D01*
X54279847Y33189919D01*
X54375085Y33237538D01*
X54422704Y33285157D01*
X54470323Y33380395D01*
X54470323Y34189919D01*
X55089371Y33761347D02*
X54994133Y33808966D01*
X54946514Y33856585D01*
X54898895Y33951823D01*
X54898895Y33999442D01*
X54946514Y34094680D01*
X54994133Y34142300D01*
X55089371Y34189919D01*
X55279847Y34189919D01*
X55375085Y34142300D01*
X55422704Y34094680D01*
X55470323Y33999442D01*
X55470323Y33951823D01*
X55422704Y33856585D01*
X55375085Y33808966D01*
X55279847Y33761347D01*
X55089371Y33761347D01*
X54994133Y33713728D01*
X54946514Y33666109D01*
X54898895Y33570871D01*
X54898895Y33380395D01*
X54946514Y33285157D01*
X54994133Y33237538D01*
X55089371Y33189919D01*
X55279847Y33189919D01*
X55375085Y33237538D01*
X55422704Y33285157D01*
X55470323Y33380395D01*
X55470323Y33570871D01*
X55422704Y33666109D01*
X55375085Y33713728D01*
X55279847Y33761347D01*
X79873580Y38601804D02*
X80683104Y38601804D01*
X80778342Y38649423D01*
X80825961Y38697042D01*
X80873580Y38792280D01*
X80873580Y38982757D01*
X80825961Y39077995D01*
X80778342Y39125614D01*
X80683104Y39173233D01*
X79873580Y39173233D01*
X80873580Y40173233D02*
X80873580Y39601804D01*
X80873580Y39887519D02*
X79873580Y39887519D01*
X80016438Y39792280D01*
X80111676Y39697042D01*
X80159295Y39601804D01*
X79873580Y40792280D02*
X79873580Y40887519D01*
X79921200Y40982757D01*
X79968819Y41030376D01*
X80064057Y41077995D01*
X80254533Y41125614D01*
X80492628Y41125614D01*
X80683104Y41077995D01*
X80778342Y41030376D01*
X80825961Y40982757D01*
X80873580Y40887519D01*
X80873580Y40792280D01*
X80825961Y40697042D01*
X80778342Y40649423D01*
X80683104Y40601804D01*
X80492628Y40554185D01*
X80254533Y40554185D01*
X80064057Y40601804D01*
X79968819Y40649423D01*
X79921200Y40697042D01*
X79873580Y40792280D01*
X65505033Y61815719D02*
X65171700Y62291909D01*
X64933604Y61815719D02*
X64933604Y62815719D01*
X65314557Y62815719D01*
X65409795Y62768100D01*
X65457414Y62720480D01*
X65505033Y62625242D01*
X65505033Y62482385D01*
X65457414Y62387147D01*
X65409795Y62339528D01*
X65314557Y62291909D01*
X64933604Y62291909D01*
X66457414Y61815719D02*
X65885985Y61815719D01*
X66171700Y61815719D02*
X66171700Y62815719D01*
X66076461Y62672861D01*
X65981223Y62577623D01*
X65885985Y62530004D01*
X98660133Y35400019D02*
X98326800Y35876209D01*
X98088704Y35400019D02*
X98088704Y36400019D01*
X98469657Y36400019D01*
X98564895Y36352400D01*
X98612514Y36304780D01*
X98660133Y36209542D01*
X98660133Y36066685D01*
X98612514Y35971447D01*
X98564895Y35923828D01*
X98469657Y35876209D01*
X98088704Y35876209D01*
X99041085Y36304780D02*
X99088704Y36352400D01*
X99183942Y36400019D01*
X99422038Y36400019D01*
X99517276Y36352400D01*
X99564895Y36304780D01*
X99612514Y36209542D01*
X99612514Y36114304D01*
X99564895Y35971447D01*
X98993466Y35400019D01*
X99612514Y35400019D01*
X104578333Y35438119D02*
X104245000Y35914309D01*
X104006904Y35438119D02*
X104006904Y36438119D01*
X104387857Y36438119D01*
X104483095Y36390500D01*
X104530714Y36342880D01*
X104578333Y36247642D01*
X104578333Y36104785D01*
X104530714Y36009547D01*
X104483095Y35961928D01*
X104387857Y35914309D01*
X104006904Y35914309D01*
X104911666Y36438119D02*
X105530714Y36438119D01*
X105197380Y36057166D01*
X105340238Y36057166D01*
X105435476Y36009547D01*
X105483095Y35961928D01*
X105530714Y35866690D01*
X105530714Y35628595D01*
X105483095Y35533357D01*
X105435476Y35485738D01*
X105340238Y35438119D01*
X105054523Y35438119D01*
X104959285Y35485738D01*
X104911666Y35533357D01*
X101611133Y43609019D02*
X101277800Y44085209D01*
X101039704Y43609019D02*
X101039704Y44609019D01*
X101420657Y44609019D01*
X101515895Y44561400D01*
X101563514Y44513780D01*
X101611133Y44418542D01*
X101611133Y44275685D01*
X101563514Y44180447D01*
X101515895Y44132828D01*
X101420657Y44085209D01*
X101039704Y44085209D01*
X102468276Y44275685D02*
X102468276Y43609019D01*
X102230180Y44656638D02*
X101992085Y43942352D01*
X102611133Y43942352D01*
X95515133Y43596319D02*
X95181800Y44072509D01*
X94943704Y43596319D02*
X94943704Y44596319D01*
X95324657Y44596319D01*
X95419895Y44548700D01*
X95467514Y44501080D01*
X95515133Y44405842D01*
X95515133Y44262985D01*
X95467514Y44167747D01*
X95419895Y44120128D01*
X95324657Y44072509D01*
X94943704Y44072509D01*
X96419895Y44596319D02*
X95943704Y44596319D01*
X95896085Y44120128D01*
X95943704Y44167747D01*
X96038942Y44215366D01*
X96277038Y44215366D01*
X96372276Y44167747D01*
X96419895Y44120128D01*
X96467514Y44024890D01*
X96467514Y43786795D01*
X96419895Y43691557D01*
X96372276Y43643938D01*
X96277038Y43596319D01*
X96038942Y43596319D01*
X95943704Y43643938D01*
X95896085Y43691557D01*
X92467133Y43596319D02*
X92133800Y44072509D01*
X91895704Y43596319D02*
X91895704Y44596319D01*
X92276657Y44596319D01*
X92371895Y44548700D01*
X92419514Y44501080D01*
X92467133Y44405842D01*
X92467133Y44262985D01*
X92419514Y44167747D01*
X92371895Y44120128D01*
X92276657Y44072509D01*
X91895704Y44072509D01*
X93324276Y44596319D02*
X93133800Y44596319D01*
X93038561Y44548700D01*
X92990942Y44501080D01*
X92895704Y44358223D01*
X92848085Y44167747D01*
X92848085Y43786795D01*
X92895704Y43691557D01*
X92943323Y43643938D01*
X93038561Y43596319D01*
X93229038Y43596319D01*
X93324276Y43643938D01*
X93371895Y43691557D01*
X93419514Y43786795D01*
X93419514Y44024890D01*
X93371895Y44120128D01*
X93324276Y44167747D01*
X93229038Y44215366D01*
X93038561Y44215366D01*
X92943323Y44167747D01*
X92895704Y44120128D01*
X92848085Y44024890D01*
X101657333Y35425419D02*
X101324000Y35901609D01*
X101085904Y35425419D02*
X101085904Y36425419D01*
X101466857Y36425419D01*
X101562095Y36377800D01*
X101609714Y36330180D01*
X101657333Y36234942D01*
X101657333Y36092085D01*
X101609714Y35996847D01*
X101562095Y35949228D01*
X101466857Y35901609D01*
X101085904Y35901609D01*
X101990666Y36425419D02*
X102657333Y36425419D01*
X102228761Y35425419D01*
X104671833Y43621719D02*
X104338500Y44097909D01*
X104100404Y43621719D02*
X104100404Y44621719D01*
X104481357Y44621719D01*
X104576595Y44574100D01*
X104624214Y44526480D01*
X104671833Y44431242D01*
X104671833Y44288385D01*
X104624214Y44193147D01*
X104576595Y44145528D01*
X104481357Y44097909D01*
X104100404Y44097909D01*
X105243261Y44193147D02*
X105148023Y44240766D01*
X105100404Y44288385D01*
X105052785Y44383623D01*
X105052785Y44431242D01*
X105100404Y44526480D01*
X105148023Y44574100D01*
X105243261Y44621719D01*
X105433738Y44621719D01*
X105528976Y44574100D01*
X105576595Y44526480D01*
X105624214Y44431242D01*
X105624214Y44383623D01*
X105576595Y44288385D01*
X105528976Y44240766D01*
X105433738Y44193147D01*
X105243261Y44193147D01*
X105148023Y44145528D01*
X105100404Y44097909D01*
X105052785Y44002671D01*
X105052785Y43812195D01*
X105100404Y43716957D01*
X105148023Y43669338D01*
X105243261Y43621719D01*
X105433738Y43621719D01*
X105528976Y43669338D01*
X105576595Y43716957D01*
X105624214Y43812195D01*
X105624214Y44002671D01*
X105576595Y44097909D01*
X105528976Y44145528D01*
X105433738Y44193147D01*
X98563133Y43609019D02*
X98229800Y44085209D01*
X97991704Y43609019D02*
X97991704Y44609019D01*
X98372657Y44609019D01*
X98467895Y44561400D01*
X98515514Y44513780D01*
X98563133Y44418542D01*
X98563133Y44275685D01*
X98515514Y44180447D01*
X98467895Y44132828D01*
X98372657Y44085209D01*
X97991704Y44085209D01*
X99039323Y43609019D02*
X99229800Y43609019D01*
X99325038Y43656638D01*
X99372657Y43704257D01*
X99467895Y43847114D01*
X99515514Y44037590D01*
X99515514Y44418542D01*
X99467895Y44513780D01*
X99420276Y44561400D01*
X99325038Y44609019D01*
X99134561Y44609019D01*
X99039323Y44561400D01*
X98991704Y44513780D01*
X98944085Y44418542D01*
X98944085Y44180447D01*
X98991704Y44085209D01*
X99039323Y44037590D01*
X99134561Y43989971D01*
X99325038Y43989971D01*
X99420276Y44037590D01*
X99467895Y44085209D01*
X99515514Y44180447D01*
X54947080Y45724842D02*
X54470890Y45391509D01*
X54947080Y45153414D02*
X53947080Y45153414D01*
X53947080Y45534366D01*
X53994700Y45629604D01*
X54042319Y45677223D01*
X54137557Y45724842D01*
X54280414Y45724842D01*
X54375652Y45677223D01*
X54423271Y45629604D01*
X54470890Y45534366D01*
X54470890Y45153414D01*
X54947080Y46677223D02*
X54947080Y46105795D01*
X54947080Y46391509D02*
X53947080Y46391509D01*
X54089938Y46296271D01*
X54185176Y46201033D01*
X54232795Y46105795D01*
X53947080Y47296271D02*
X53947080Y47391509D01*
X53994700Y47486747D01*
X54042319Y47534366D01*
X54137557Y47581985D01*
X54328033Y47629604D01*
X54566128Y47629604D01*
X54756604Y47581985D01*
X54851842Y47534366D01*
X54899461Y47486747D01*
X54947080Y47391509D01*
X54947080Y47296271D01*
X54899461Y47201033D01*
X54851842Y47153414D01*
X54756604Y47105795D01*
X54566128Y47058176D01*
X54328033Y47058176D01*
X54137557Y47105795D01*
X54042319Y47153414D01*
X53994700Y47201033D01*
X53947080Y47296271D01*
X97226342Y57231619D02*
X96893009Y57707809D01*
X96654914Y57231619D02*
X96654914Y58231619D01*
X97035866Y58231619D01*
X97131104Y58184000D01*
X97178723Y58136380D01*
X97226342Y58041142D01*
X97226342Y57898285D01*
X97178723Y57803047D01*
X97131104Y57755428D01*
X97035866Y57707809D01*
X96654914Y57707809D01*
X98178723Y57231619D02*
X97607295Y57231619D01*
X97893009Y57231619D02*
X97893009Y58231619D01*
X97797771Y58088761D01*
X97702533Y57993523D01*
X97607295Y57945904D01*
X99131104Y57231619D02*
X98559676Y57231619D01*
X98845390Y57231619D02*
X98845390Y58231619D01*
X98750152Y58088761D01*
X98654914Y57993523D01*
X98559676Y57945904D01*
X54947080Y41876742D02*
X54470890Y41543409D01*
X54947080Y41305314D02*
X53947080Y41305314D01*
X53947080Y41686266D01*
X53994700Y41781504D01*
X54042319Y41829123D01*
X54137557Y41876742D01*
X54280414Y41876742D01*
X54375652Y41829123D01*
X54423271Y41781504D01*
X54470890Y41686266D01*
X54470890Y41305314D01*
X54947080Y42829123D02*
X54947080Y42257695D01*
X54947080Y42543409D02*
X53947080Y42543409D01*
X54089938Y42448171D01*
X54185176Y42352933D01*
X54232795Y42257695D01*
X54042319Y43210076D02*
X53994700Y43257695D01*
X53947080Y43352933D01*
X53947080Y43591028D01*
X53994700Y43686266D01*
X54042319Y43733885D01*
X54137557Y43781504D01*
X54232795Y43781504D01*
X54375652Y43733885D01*
X54947080Y43162457D01*
X54947080Y43781504D01*
X57703980Y49318942D02*
X57227790Y48985609D01*
X57703980Y48747514D02*
X56703980Y48747514D01*
X56703980Y49128466D01*
X56751600Y49223704D01*
X56799219Y49271323D01*
X56894457Y49318942D01*
X57037314Y49318942D01*
X57132552Y49271323D01*
X57180171Y49223704D01*
X57227790Y49128466D01*
X57227790Y48747514D01*
X57703980Y50271323D02*
X57703980Y49699895D01*
X57703980Y49985609D02*
X56703980Y49985609D01*
X56846838Y49890371D01*
X56942076Y49795133D01*
X56989695Y49699895D01*
X56703980Y50604657D02*
X56703980Y51223704D01*
X57084933Y50890371D01*
X57084933Y51033228D01*
X57132552Y51128466D01*
X57180171Y51176085D01*
X57275409Y51223704D01*
X57513504Y51223704D01*
X57608742Y51176085D01*
X57656361Y51128466D01*
X57703980Y51033228D01*
X57703980Y50747514D01*
X57656361Y50652276D01*
X57608742Y50604657D01*
X103373142Y57231619D02*
X103039809Y57707809D01*
X102801714Y57231619D02*
X102801714Y58231619D01*
X103182666Y58231619D01*
X103277904Y58184000D01*
X103325523Y58136380D01*
X103373142Y58041142D01*
X103373142Y57898285D01*
X103325523Y57803047D01*
X103277904Y57755428D01*
X103182666Y57707809D01*
X102801714Y57707809D01*
X104325523Y57231619D02*
X103754095Y57231619D01*
X104039809Y57231619D02*
X104039809Y58231619D01*
X103944571Y58088761D01*
X103849333Y57993523D01*
X103754095Y57945904D01*
X105182666Y57898285D02*
X105182666Y57231619D01*
X104944571Y58279238D02*
X104706476Y57564952D01*
X105325523Y57564952D01*
X100800942Y64975819D02*
X100467609Y65452009D01*
X100229514Y64975819D02*
X100229514Y65975819D01*
X100610466Y65975819D01*
X100705704Y65928200D01*
X100753323Y65880580D01*
X100800942Y65785342D01*
X100800942Y65642485D01*
X100753323Y65547247D01*
X100705704Y65499628D01*
X100610466Y65452009D01*
X100229514Y65452009D01*
X101753323Y64975819D02*
X101181895Y64975819D01*
X101467609Y64975819D02*
X101467609Y65975819D01*
X101372371Y65832961D01*
X101277133Y65737723D01*
X101181895Y65690104D01*
X102658085Y65975819D02*
X102181895Y65975819D01*
X102134276Y65499628D01*
X102181895Y65547247D01*
X102277133Y65594866D01*
X102515228Y65594866D01*
X102610466Y65547247D01*
X102658085Y65499628D01*
X102705704Y65404390D01*
X102705704Y65166295D01*
X102658085Y65071057D01*
X102610466Y65023438D01*
X102515228Y64975819D01*
X102277133Y64975819D01*
X102181895Y65023438D01*
X102134276Y65071057D01*
X94730342Y65013919D02*
X94397009Y65490109D01*
X94158914Y65013919D02*
X94158914Y66013919D01*
X94539866Y66013919D01*
X94635104Y65966300D01*
X94682723Y65918680D01*
X94730342Y65823442D01*
X94730342Y65680585D01*
X94682723Y65585347D01*
X94635104Y65537728D01*
X94539866Y65490109D01*
X94158914Y65490109D01*
X95682723Y65013919D02*
X95111295Y65013919D01*
X95397009Y65013919D02*
X95397009Y66013919D01*
X95301771Y65871061D01*
X95206533Y65775823D01*
X95111295Y65728204D01*
X96539866Y66013919D02*
X96349390Y66013919D01*
X96254152Y65966300D01*
X96206533Y65918680D01*
X96111295Y65775823D01*
X96063676Y65585347D01*
X96063676Y65204395D01*
X96111295Y65109157D01*
X96158914Y65061538D01*
X96254152Y65013919D01*
X96444628Y65013919D01*
X96539866Y65061538D01*
X96587485Y65109157D01*
X96635104Y65204395D01*
X96635104Y65442490D01*
X96587485Y65537728D01*
X96539866Y65585347D01*
X96444628Y65632966D01*
X96254152Y65632966D01*
X96158914Y65585347D01*
X96111295Y65537728D01*
X96063676Y65442490D01*
X91648042Y65021219D02*
X91314709Y65497409D01*
X91076614Y65021219D02*
X91076614Y66021219D01*
X91457566Y66021219D01*
X91552804Y65973600D01*
X91600423Y65925980D01*
X91648042Y65830742D01*
X91648042Y65687885D01*
X91600423Y65592647D01*
X91552804Y65545028D01*
X91457566Y65497409D01*
X91076614Y65497409D01*
X92600423Y65021219D02*
X92028995Y65021219D01*
X92314709Y65021219D02*
X92314709Y66021219D01*
X92219471Y65878361D01*
X92124233Y65783123D01*
X92028995Y65735504D01*
X92933757Y66021219D02*
X93600423Y66021219D01*
X93171852Y65021219D01*
X100375942Y57231619D02*
X100042609Y57707809D01*
X99804514Y57231619D02*
X99804514Y58231619D01*
X100185466Y58231619D01*
X100280704Y58184000D01*
X100328323Y58136380D01*
X100375942Y58041142D01*
X100375942Y57898285D01*
X100328323Y57803047D01*
X100280704Y57755428D01*
X100185466Y57707809D01*
X99804514Y57707809D01*
X101328323Y57231619D02*
X100756895Y57231619D01*
X101042609Y57231619D02*
X101042609Y58231619D01*
X100947371Y58088761D01*
X100852133Y57993523D01*
X100756895Y57945904D01*
X101899752Y57803047D02*
X101804514Y57850666D01*
X101756895Y57898285D01*
X101709276Y57993523D01*
X101709276Y58041142D01*
X101756895Y58136380D01*
X101804514Y58184000D01*
X101899752Y58231619D01*
X102090228Y58231619D01*
X102185466Y58184000D01*
X102233085Y58136380D01*
X102280704Y58041142D01*
X102280704Y57993523D01*
X102233085Y57898285D01*
X102185466Y57850666D01*
X102090228Y57803047D01*
X101899752Y57803047D01*
X101804514Y57755428D01*
X101756895Y57707809D01*
X101709276Y57612571D01*
X101709276Y57422095D01*
X101756895Y57326857D01*
X101804514Y57279238D01*
X101899752Y57231619D01*
X102090228Y57231619D01*
X102185466Y57279238D01*
X102233085Y57326857D01*
X102280704Y57422095D01*
X102280704Y57612571D01*
X102233085Y57707809D01*
X102185466Y57755428D01*
X102090228Y57803047D01*
X54706780Y49395142D02*
X54230590Y49061809D01*
X54706780Y48823714D02*
X53706780Y48823714D01*
X53706780Y49204666D01*
X53754400Y49299904D01*
X53802019Y49347523D01*
X53897257Y49395142D01*
X54040114Y49395142D01*
X54135352Y49347523D01*
X54182971Y49299904D01*
X54230590Y49204666D01*
X54230590Y48823714D01*
X54706780Y50347523D02*
X54706780Y49776095D01*
X54706780Y50061809D02*
X53706780Y50061809D01*
X53849638Y49966571D01*
X53944876Y49871333D01*
X53992495Y49776095D01*
X54706780Y50823714D02*
X54706780Y51014190D01*
X54659161Y51109428D01*
X54611542Y51157047D01*
X54468685Y51252285D01*
X54278209Y51299904D01*
X53897257Y51299904D01*
X53802019Y51252285D01*
X53754400Y51204666D01*
X53706780Y51109428D01*
X53706780Y50918952D01*
X53754400Y50823714D01*
X53802019Y50776095D01*
X53897257Y50728476D01*
X54135352Y50728476D01*
X54230590Y50776095D01*
X54278209Y50823714D01*
X54325828Y50918952D01*
X54325828Y51109428D01*
X54278209Y51204666D01*
X54230590Y51252285D01*
X54135352Y51299904D01*
X103861642Y64988519D02*
X103528309Y65464709D01*
X103290214Y64988519D02*
X103290214Y65988519D01*
X103671166Y65988519D01*
X103766404Y65940900D01*
X103814023Y65893280D01*
X103861642Y65798042D01*
X103861642Y65655185D01*
X103814023Y65559947D01*
X103766404Y65512328D01*
X103671166Y65464709D01*
X103290214Y65464709D01*
X104242595Y65893280D02*
X104290214Y65940900D01*
X104385452Y65988519D01*
X104623547Y65988519D01*
X104718785Y65940900D01*
X104766404Y65893280D01*
X104814023Y65798042D01*
X104814023Y65702804D01*
X104766404Y65559947D01*
X104194976Y64988519D01*
X104814023Y64988519D01*
X105433071Y65988519D02*
X105528309Y65988519D01*
X105623547Y65940900D01*
X105671166Y65893280D01*
X105718785Y65798042D01*
X105766404Y65607566D01*
X105766404Y65369471D01*
X105718785Y65178995D01*
X105671166Y65083757D01*
X105623547Y65036138D01*
X105528309Y64988519D01*
X105433071Y64988519D01*
X105337833Y65036138D01*
X105290214Y65083757D01*
X105242595Y65178995D01*
X105194976Y65369471D01*
X105194976Y65607566D01*
X105242595Y65798042D01*
X105290214Y65893280D01*
X105337833Y65940900D01*
X105433071Y65988519D01*
X97752942Y64975819D02*
X97419609Y65452009D01*
X97181514Y64975819D02*
X97181514Y65975819D01*
X97562466Y65975819D01*
X97657704Y65928200D01*
X97705323Y65880580D01*
X97752942Y65785342D01*
X97752942Y65642485D01*
X97705323Y65547247D01*
X97657704Y65499628D01*
X97562466Y65452009D01*
X97181514Y65452009D01*
X98133895Y65880580D02*
X98181514Y65928200D01*
X98276752Y65975819D01*
X98514847Y65975819D01*
X98610085Y65928200D01*
X98657704Y65880580D01*
X98705323Y65785342D01*
X98705323Y65690104D01*
X98657704Y65547247D01*
X98086276Y64975819D01*
X98705323Y64975819D01*
X99657704Y64975819D02*
X99086276Y64975819D01*
X99371990Y64975819D02*
X99371990Y65975819D01*
X99276752Y65832961D01*
X99181514Y65737723D01*
X99086276Y65690104D01*
X109301042Y54945019D02*
X108967709Y55421209D01*
X108729614Y54945019D02*
X108729614Y55945019D01*
X109110566Y55945019D01*
X109205804Y55897400D01*
X109253423Y55849780D01*
X109301042Y55754542D01*
X109301042Y55611685D01*
X109253423Y55516447D01*
X109205804Y55468828D01*
X109110566Y55421209D01*
X108729614Y55421209D01*
X109681995Y55849780D02*
X109729614Y55897400D01*
X109824852Y55945019D01*
X110062947Y55945019D01*
X110158185Y55897400D01*
X110205804Y55849780D01*
X110253423Y55754542D01*
X110253423Y55659304D01*
X110205804Y55516447D01*
X109634376Y54945019D01*
X110253423Y54945019D01*
X110634376Y55849780D02*
X110681995Y55897400D01*
X110777233Y55945019D01*
X111015328Y55945019D01*
X111110566Y55897400D01*
X111158185Y55849780D01*
X111205804Y55754542D01*
X111205804Y55659304D01*
X111158185Y55516447D01*
X110586757Y54945019D01*
X111205804Y54945019D01*
X78871842Y58474619D02*
X78538509Y58950809D01*
X78300414Y58474619D02*
X78300414Y59474619D01*
X78681366Y59474619D01*
X78776604Y59427000D01*
X78824223Y59379380D01*
X78871842Y59284142D01*
X78871842Y59141285D01*
X78824223Y59046047D01*
X78776604Y58998428D01*
X78681366Y58950809D01*
X78300414Y58950809D01*
X79252795Y59379380D02*
X79300414Y59427000D01*
X79395652Y59474619D01*
X79633747Y59474619D01*
X79728985Y59427000D01*
X79776604Y59379380D01*
X79824223Y59284142D01*
X79824223Y59188904D01*
X79776604Y59046047D01*
X79205176Y58474619D01*
X79824223Y58474619D01*
X80157557Y59474619D02*
X80776604Y59474619D01*
X80443271Y59093666D01*
X80586128Y59093666D01*
X80681366Y59046047D01*
X80728985Y58998428D01*
X80776604Y58903190D01*
X80776604Y58665095D01*
X80728985Y58569857D01*
X80681366Y58522238D01*
X80586128Y58474619D01*
X80300414Y58474619D01*
X80205176Y58522238D01*
X80157557Y58569857D01*
X118610142Y54931319D02*
X118276809Y55407509D01*
X118038714Y54931319D02*
X118038714Y55931319D01*
X118419666Y55931319D01*
X118514904Y55883700D01*
X118562523Y55836080D01*
X118610142Y55740842D01*
X118610142Y55597985D01*
X118562523Y55502747D01*
X118514904Y55455128D01*
X118419666Y55407509D01*
X118038714Y55407509D01*
X118991095Y55836080D02*
X119038714Y55883700D01*
X119133952Y55931319D01*
X119372047Y55931319D01*
X119467285Y55883700D01*
X119514904Y55836080D01*
X119562523Y55740842D01*
X119562523Y55645604D01*
X119514904Y55502747D01*
X118943476Y54931319D01*
X119562523Y54931319D01*
X120419666Y55597985D02*
X120419666Y54931319D01*
X120181571Y55978938D02*
X119943476Y55264652D01*
X120562523Y55264652D01*
X114922395Y53938419D02*
X114922395Y53128895D01*
X114970014Y53033657D01*
X115017633Y52986038D01*
X115112871Y52938419D01*
X115303347Y52938419D01*
X115398585Y52986038D01*
X115446204Y53033657D01*
X115493823Y53128895D01*
X115493823Y53938419D01*
X116017633Y52938419D02*
X116208109Y52938419D01*
X116303347Y52986038D01*
X116350966Y53033657D01*
X116446204Y53176514D01*
X116493823Y53366990D01*
X116493823Y53747942D01*
X116446204Y53843180D01*
X116398585Y53890800D01*
X116303347Y53938419D01*
X116112871Y53938419D01*
X116017633Y53890800D01*
X115970014Y53843180D01*
X115922395Y53747942D01*
X115922395Y53509847D01*
X115970014Y53414609D01*
X116017633Y53366990D01*
X116112871Y53319371D01*
X116303347Y53319371D01*
X116398585Y53366990D01*
X116446204Y53414609D01*
X116493823Y53509847D01*
M02*
