G04 #@! TF.GenerationSoftware,KiCad,Pcbnew,(5.1.5)-3*
G04 #@! TF.CreationDate,2023-05-28T15:04:11-04:00*
G04 #@! TF.ProjectId,Controlador-temperatura,436f6e74-726f-46c6-9164-6f722d74656d,rev?*
G04 #@! TF.SameCoordinates,Original*
G04 #@! TF.FileFunction,Soldermask,Bot*
G04 #@! TF.FilePolarity,Negative*
%FSLAX46Y46*%
G04 Gerber Fmt 4.6, Leading zero omitted, Abs format (unit mm)*
G04 Created by KiCad (PCBNEW (5.1.5)-3) date 2023-05-28 15:04:11*
%MOMM*%
%LPD*%
G04 APERTURE LIST*
%ADD10C,0.100000*%
G04 APERTURE END LIST*
D10*
G36*
X43088885Y33998898D02*
G01*
X43238710Y33969096D01*
X43520974Y33852179D01*
X43775005Y33682441D01*
X43991041Y33466405D01*
X44160779Y33212374D01*
X44264874Y32961065D01*
X44277696Y32930109D01*
X44337125Y32631343D01*
X44337300Y32630460D01*
X44337300Y32324940D01*
X44277696Y32025290D01*
X44160779Y31743026D01*
X43991041Y31488995D01*
X43775005Y31272959D01*
X43520974Y31103221D01*
X43238710Y30986304D01*
X43088885Y30956502D01*
X42939061Y30926700D01*
X42633539Y30926700D01*
X42483715Y30956502D01*
X42333890Y30986304D01*
X42051626Y31103221D01*
X41797595Y31272959D01*
X41581559Y31488995D01*
X41411821Y31743026D01*
X41294904Y32025290D01*
X41235300Y32324940D01*
X41235300Y32630460D01*
X41235476Y32631343D01*
X41294904Y32930109D01*
X41307726Y32961065D01*
X41411821Y33212374D01*
X41581559Y33466405D01*
X41797595Y33682441D01*
X42051626Y33852179D01*
X42333890Y33969096D01*
X42483715Y33998898D01*
X42633539Y34028700D01*
X42939061Y34028700D01*
X43088885Y33998898D01*
G37*
G36*
X72578495Y33032754D02*
G01*
X72751566Y32961066D01*
X72751567Y32961065D01*
X72907327Y32856990D01*
X73039790Y32724527D01*
X73039791Y32724525D01*
X73143866Y32568766D01*
X73215554Y32395695D01*
X73252100Y32211967D01*
X73252100Y32024633D01*
X73215554Y31840905D01*
X73143866Y31667834D01*
X73116903Y31627481D01*
X73039790Y31512073D01*
X72907327Y31379610D01*
X72828918Y31327219D01*
X72751566Y31275534D01*
X72578495Y31203846D01*
X72394767Y31167300D01*
X72207433Y31167300D01*
X72023705Y31203846D01*
X71850634Y31275534D01*
X71773282Y31327219D01*
X71694873Y31379610D01*
X71562410Y31512073D01*
X71485297Y31627481D01*
X71458334Y31667834D01*
X71386646Y31840905D01*
X71350100Y32024633D01*
X71350100Y32211967D01*
X71386646Y32395695D01*
X71458334Y32568766D01*
X71562409Y32724525D01*
X71562410Y32724527D01*
X71694873Y32856990D01*
X71850633Y32961065D01*
X71850634Y32961066D01*
X72023705Y33032754D01*
X72207433Y33069300D01*
X72394767Y33069300D01*
X72578495Y33032754D01*
G37*
G36*
X70712100Y31167300D02*
G01*
X68810100Y31167300D01*
X68810100Y33069300D01*
X70712100Y33069300D01*
X70712100Y31167300D01*
G37*
G36*
X92943642Y33167919D02*
G01*
X93089414Y33107538D01*
X93089416Y33107537D01*
X93220608Y33019878D01*
X93332178Y32908308D01*
X93366467Y32856990D01*
X93419838Y32777114D01*
X93480219Y32631342D01*
X93511000Y32476593D01*
X93511000Y32318807D01*
X93480219Y32164058D01*
X93422739Y32025290D01*
X93419837Y32018284D01*
X93332178Y31887092D01*
X93220608Y31775522D01*
X93089416Y31687863D01*
X93089415Y31687862D01*
X93089414Y31687862D01*
X92943642Y31627481D01*
X92788893Y31596700D01*
X92631107Y31596700D01*
X92476358Y31627481D01*
X92330586Y31687862D01*
X92330585Y31687862D01*
X92330584Y31687863D01*
X92199392Y31775522D01*
X92087822Y31887092D01*
X92000163Y32018284D01*
X91997261Y32025290D01*
X91939781Y32164058D01*
X91909000Y32318807D01*
X91909000Y32476593D01*
X91939781Y32631342D01*
X92000162Y32777114D01*
X92053533Y32856990D01*
X92087822Y32908308D01*
X92199392Y33019878D01*
X92330584Y33107537D01*
X92330586Y33107538D01*
X92476358Y33167919D01*
X92631107Y33198700D01*
X92788893Y33198700D01*
X92943642Y33167919D01*
G37*
G36*
X95483642Y33167919D02*
G01*
X95629414Y33107538D01*
X95629416Y33107537D01*
X95760608Y33019878D01*
X95872178Y32908308D01*
X95906467Y32856990D01*
X95959838Y32777114D01*
X96020219Y32631342D01*
X96051000Y32476593D01*
X96051000Y32318807D01*
X96020219Y32164058D01*
X95962739Y32025290D01*
X95959837Y32018284D01*
X95872178Y31887092D01*
X95760608Y31775522D01*
X95629416Y31687863D01*
X95629415Y31687862D01*
X95629414Y31687862D01*
X95483642Y31627481D01*
X95328893Y31596700D01*
X95171107Y31596700D01*
X95016358Y31627481D01*
X94870586Y31687862D01*
X94870585Y31687862D01*
X94870584Y31687863D01*
X94739392Y31775522D01*
X94627822Y31887092D01*
X94540163Y32018284D01*
X94537261Y32025290D01*
X94479781Y32164058D01*
X94449000Y32318807D01*
X94449000Y32476593D01*
X94479781Y32631342D01*
X94540162Y32777114D01*
X94593533Y32856990D01*
X94627822Y32908308D01*
X94739392Y33019878D01*
X94870584Y33107537D01*
X94870586Y33107538D01*
X95016358Y33167919D01*
X95171107Y33198700D01*
X95328893Y33198700D01*
X95483642Y33167919D01*
G37*
G36*
X98023642Y33167919D02*
G01*
X98169414Y33107538D01*
X98169416Y33107537D01*
X98300608Y33019878D01*
X98412178Y32908308D01*
X98446467Y32856990D01*
X98499838Y32777114D01*
X98560219Y32631342D01*
X98591000Y32476593D01*
X98591000Y32318807D01*
X98560219Y32164058D01*
X98502739Y32025290D01*
X98499837Y32018284D01*
X98412178Y31887092D01*
X98300608Y31775522D01*
X98169416Y31687863D01*
X98169415Y31687862D01*
X98169414Y31687862D01*
X98023642Y31627481D01*
X97868893Y31596700D01*
X97711107Y31596700D01*
X97556358Y31627481D01*
X97410586Y31687862D01*
X97410585Y31687862D01*
X97410584Y31687863D01*
X97279392Y31775522D01*
X97167822Y31887092D01*
X97080163Y32018284D01*
X97077261Y32025290D01*
X97019781Y32164058D01*
X96989000Y32318807D01*
X96989000Y32476593D01*
X97019781Y32631342D01*
X97080162Y32777114D01*
X97133533Y32856990D01*
X97167822Y32908308D01*
X97279392Y33019878D01*
X97410584Y33107537D01*
X97410586Y33107538D01*
X97556358Y33167919D01*
X97711107Y33198700D01*
X97868893Y33198700D01*
X98023642Y33167919D01*
G37*
G36*
X100563642Y33167919D02*
G01*
X100709414Y33107538D01*
X100709416Y33107537D01*
X100840608Y33019878D01*
X100952178Y32908308D01*
X100986467Y32856990D01*
X101039838Y32777114D01*
X101100219Y32631342D01*
X101131000Y32476593D01*
X101131000Y32318807D01*
X101100219Y32164058D01*
X101042739Y32025290D01*
X101039837Y32018284D01*
X100952178Y31887092D01*
X100840608Y31775522D01*
X100709416Y31687863D01*
X100709415Y31687862D01*
X100709414Y31687862D01*
X100563642Y31627481D01*
X100408893Y31596700D01*
X100251107Y31596700D01*
X100096358Y31627481D01*
X99950586Y31687862D01*
X99950585Y31687862D01*
X99950584Y31687863D01*
X99819392Y31775522D01*
X99707822Y31887092D01*
X99620163Y32018284D01*
X99617261Y32025290D01*
X99559781Y32164058D01*
X99529000Y32318807D01*
X99529000Y32476593D01*
X99559781Y32631342D01*
X99620162Y32777114D01*
X99673533Y32856990D01*
X99707822Y32908308D01*
X99819392Y33019878D01*
X99950584Y33107537D01*
X99950586Y33107538D01*
X100096358Y33167919D01*
X100251107Y33198700D01*
X100408893Y33198700D01*
X100563642Y33167919D01*
G37*
G36*
X103103642Y33167919D02*
G01*
X103249414Y33107538D01*
X103249416Y33107537D01*
X103380608Y33019878D01*
X103492178Y32908308D01*
X103526467Y32856990D01*
X103579838Y32777114D01*
X103640219Y32631342D01*
X103671000Y32476593D01*
X103671000Y32318807D01*
X103640219Y32164058D01*
X103582739Y32025290D01*
X103579837Y32018284D01*
X103492178Y31887092D01*
X103380608Y31775522D01*
X103249416Y31687863D01*
X103249415Y31687862D01*
X103249414Y31687862D01*
X103103642Y31627481D01*
X102948893Y31596700D01*
X102791107Y31596700D01*
X102636358Y31627481D01*
X102490586Y31687862D01*
X102490585Y31687862D01*
X102490584Y31687863D01*
X102359392Y31775522D01*
X102247822Y31887092D01*
X102160163Y32018284D01*
X102157261Y32025290D01*
X102099781Y32164058D01*
X102069000Y32318807D01*
X102069000Y32476593D01*
X102099781Y32631342D01*
X102160162Y32777114D01*
X102213533Y32856990D01*
X102247822Y32908308D01*
X102359392Y33019878D01*
X102490584Y33107537D01*
X102490586Y33107538D01*
X102636358Y33167919D01*
X102791107Y33198700D01*
X102948893Y33198700D01*
X103103642Y33167919D01*
G37*
G36*
X105643642Y33167919D02*
G01*
X105789414Y33107538D01*
X105789416Y33107537D01*
X105920608Y33019878D01*
X106032178Y32908308D01*
X106066467Y32856990D01*
X106119838Y32777114D01*
X106180219Y32631342D01*
X106211000Y32476593D01*
X106211000Y32318807D01*
X106180219Y32164058D01*
X106122739Y32025290D01*
X106119837Y32018284D01*
X106032178Y31887092D01*
X105920608Y31775522D01*
X105789416Y31687863D01*
X105789415Y31687862D01*
X105789414Y31687862D01*
X105643642Y31627481D01*
X105488893Y31596700D01*
X105331107Y31596700D01*
X105176358Y31627481D01*
X105030586Y31687862D01*
X105030585Y31687862D01*
X105030584Y31687863D01*
X104899392Y31775522D01*
X104787822Y31887092D01*
X104700163Y32018284D01*
X104697261Y32025290D01*
X104639781Y32164058D01*
X104609000Y32318807D01*
X104609000Y32476593D01*
X104639781Y32631342D01*
X104700162Y32777114D01*
X104753533Y32856990D01*
X104787822Y32908308D01*
X104899392Y33019878D01*
X105030584Y33107537D01*
X105030586Y33107538D01*
X105176358Y33167919D01*
X105331107Y33198700D01*
X105488893Y33198700D01*
X105643642Y33167919D01*
G37*
G36*
X63202700Y32411100D02*
G01*
X62200700Y32411100D01*
X62200700Y34213100D01*
X63202700Y34213100D01*
X63202700Y32411100D01*
G37*
G36*
X66602700Y32411100D02*
G01*
X65600700Y32411100D01*
X65600700Y34213100D01*
X66602700Y34213100D01*
X66602700Y32411100D01*
G37*
G36*
X44337300Y35926700D02*
G01*
X41235300Y35926700D01*
X41235300Y39028700D01*
X44337300Y39028700D01*
X44337300Y35926700D01*
G37*
G36*
X65895921Y40484026D02*
G01*
X65996195Y40442491D01*
X65996196Y40442490D01*
X66086442Y40382190D01*
X66163190Y40305442D01*
X66163191Y40305440D01*
X66223491Y40215195D01*
X66254716Y40139811D01*
X66266267Y40118200D01*
X66281812Y40099259D01*
X66300754Y40083713D01*
X66322365Y40072162D01*
X66345814Y40065049D01*
X66370200Y40062647D01*
X66394586Y40065049D01*
X66418035Y40072162D01*
X66439646Y40083713D01*
X66458587Y40099258D01*
X66474133Y40118200D01*
X66485684Y40139811D01*
X66516909Y40215195D01*
X66577209Y40305440D01*
X66577210Y40305442D01*
X66653958Y40382190D01*
X66744204Y40442490D01*
X66744205Y40442491D01*
X66844479Y40484026D01*
X66950930Y40505200D01*
X67059470Y40505200D01*
X67165921Y40484026D01*
X67266195Y40442491D01*
X67266196Y40442490D01*
X67356442Y40382190D01*
X67433190Y40305442D01*
X67433191Y40305440D01*
X67493491Y40215195D01*
X67535026Y40114921D01*
X67556200Y40008470D01*
X67556200Y39899930D01*
X67535026Y39793479D01*
X67493491Y39693205D01*
X67493490Y39693204D01*
X67433190Y39602958D01*
X67356442Y39526210D01*
X67311012Y39495855D01*
X67266195Y39465909D01*
X67190811Y39434684D01*
X67169200Y39423133D01*
X67150259Y39407588D01*
X67134713Y39388646D01*
X67123162Y39367035D01*
X67116049Y39343586D01*
X67113647Y39319200D01*
X67116049Y39294814D01*
X67123162Y39271365D01*
X67134713Y39249754D01*
X67150258Y39230813D01*
X67169200Y39215267D01*
X67190811Y39203716D01*
X67266195Y39172491D01*
X67266196Y39172490D01*
X67356442Y39112190D01*
X67433190Y39035442D01*
X67433191Y39035440D01*
X67493491Y38945195D01*
X67535026Y38844921D01*
X67556200Y38738470D01*
X67556200Y38629930D01*
X67535026Y38523479D01*
X67493491Y38423205D01*
X67493490Y38423204D01*
X67433190Y38332958D01*
X67356442Y38256210D01*
X67325016Y38235212D01*
X67263536Y38194132D01*
X67244594Y38178586D01*
X67229049Y38159644D01*
X67217498Y38138033D01*
X67210385Y38114585D01*
X67207983Y38090198D01*
X67210385Y38065812D01*
X67217498Y38042363D01*
X67229049Y38020753D01*
X67244595Y38001811D01*
X67263537Y37986266D01*
X67285148Y37974715D01*
X67308596Y37967602D01*
X67332982Y37965200D01*
X67556200Y37965200D01*
X67556200Y36863200D01*
X66454200Y36863200D01*
X66454200Y37086418D01*
X66451798Y37110804D01*
X66444685Y37134253D01*
X66433134Y37155864D01*
X66417589Y37174806D01*
X66398647Y37190351D01*
X66377036Y37201902D01*
X66353587Y37209015D01*
X66329201Y37211417D01*
X66304815Y37209015D01*
X66281366Y37201902D01*
X66259755Y37190351D01*
X66240813Y37174806D01*
X66225268Y37155864D01*
X66184188Y37094384D01*
X66163190Y37062958D01*
X66086442Y36986210D01*
X66041012Y36955855D01*
X65996195Y36925909D01*
X65895921Y36884374D01*
X65789470Y36863200D01*
X65680930Y36863200D01*
X65574479Y36884374D01*
X65474205Y36925909D01*
X65429388Y36955855D01*
X65383958Y36986210D01*
X65307210Y37062958D01*
X65275241Y37110804D01*
X65246909Y37153205D01*
X65205374Y37253479D01*
X65184200Y37359930D01*
X65184200Y37468470D01*
X65205374Y37574921D01*
X65246909Y37675195D01*
X65307209Y37765440D01*
X65307210Y37765442D01*
X65383958Y37842190D01*
X65474204Y37902490D01*
X65474205Y37902491D01*
X65549589Y37933716D01*
X65571200Y37945267D01*
X65590141Y37960812D01*
X65605687Y37979754D01*
X65617238Y38001365D01*
X65624351Y38024814D01*
X65626753Y38049200D01*
X65843647Y38049200D01*
X65846049Y38024814D01*
X65853162Y38001365D01*
X65864713Y37979754D01*
X65880258Y37960813D01*
X65899200Y37945267D01*
X65920811Y37933716D01*
X65996195Y37902491D01*
X65996196Y37902490D01*
X66086442Y37842190D01*
X66163190Y37765442D01*
X66163191Y37765440D01*
X66225268Y37672536D01*
X66240814Y37653594D01*
X66259756Y37638049D01*
X66281367Y37626498D01*
X66304815Y37619385D01*
X66329202Y37616983D01*
X66353588Y37619385D01*
X66377037Y37626498D01*
X66398647Y37638049D01*
X66417589Y37653595D01*
X66433134Y37672537D01*
X66444685Y37694148D01*
X66451798Y37717596D01*
X66454200Y37741982D01*
X66454200Y37965200D01*
X66677418Y37965200D01*
X66701804Y37967602D01*
X66725253Y37974715D01*
X66746864Y37986266D01*
X66765806Y38001811D01*
X66781351Y38020753D01*
X66792902Y38042364D01*
X66800015Y38065813D01*
X66802417Y38090199D01*
X66800015Y38114585D01*
X66792902Y38138034D01*
X66781351Y38159645D01*
X66765806Y38178587D01*
X66746864Y38194132D01*
X66685384Y38235212D01*
X66653958Y38256210D01*
X66577210Y38332958D01*
X66516910Y38423204D01*
X66516909Y38423205D01*
X66485684Y38498589D01*
X66474133Y38520200D01*
X66458588Y38539141D01*
X66439646Y38554687D01*
X66418035Y38566238D01*
X66394586Y38573351D01*
X66370200Y38575753D01*
X66345814Y38573351D01*
X66322365Y38566238D01*
X66300754Y38554687D01*
X66281813Y38539142D01*
X66266267Y38520200D01*
X66254716Y38498589D01*
X66223491Y38423205D01*
X66223490Y38423204D01*
X66163190Y38332958D01*
X66086442Y38256210D01*
X66041012Y38225855D01*
X65996195Y38195909D01*
X65920811Y38164684D01*
X65899200Y38153133D01*
X65880259Y38137588D01*
X65864713Y38118646D01*
X65853162Y38097035D01*
X65846049Y38073586D01*
X65843647Y38049200D01*
X65626753Y38049200D01*
X65624351Y38073586D01*
X65617238Y38097035D01*
X65605687Y38118646D01*
X65590142Y38137587D01*
X65571200Y38153133D01*
X65549589Y38164684D01*
X65474205Y38195909D01*
X65429388Y38225855D01*
X65383958Y38256210D01*
X65307210Y38332958D01*
X65246910Y38423204D01*
X65246909Y38423205D01*
X65205374Y38523479D01*
X65184200Y38629930D01*
X65184200Y38738470D01*
X65205374Y38844921D01*
X65246909Y38945195D01*
X65307209Y39035440D01*
X65307210Y39035442D01*
X65383958Y39112190D01*
X65474204Y39172490D01*
X65474205Y39172491D01*
X65549589Y39203716D01*
X65571200Y39215267D01*
X65590141Y39230812D01*
X65605687Y39249754D01*
X65617238Y39271365D01*
X65624351Y39294814D01*
X65626753Y39319200D01*
X65843647Y39319200D01*
X65846049Y39294814D01*
X65853162Y39271365D01*
X65864713Y39249754D01*
X65880258Y39230813D01*
X65899200Y39215267D01*
X65920811Y39203716D01*
X65996195Y39172491D01*
X65996196Y39172490D01*
X66086442Y39112190D01*
X66163190Y39035442D01*
X66163191Y39035440D01*
X66223491Y38945195D01*
X66254716Y38869811D01*
X66266267Y38848200D01*
X66281812Y38829259D01*
X66300754Y38813713D01*
X66322365Y38802162D01*
X66345814Y38795049D01*
X66370200Y38792647D01*
X66394586Y38795049D01*
X66418035Y38802162D01*
X66439646Y38813713D01*
X66458587Y38829258D01*
X66474133Y38848200D01*
X66485684Y38869811D01*
X66516909Y38945195D01*
X66577209Y39035440D01*
X66577210Y39035442D01*
X66653958Y39112190D01*
X66744204Y39172490D01*
X66744205Y39172491D01*
X66819589Y39203716D01*
X66841200Y39215267D01*
X66860141Y39230812D01*
X66875687Y39249754D01*
X66887238Y39271365D01*
X66894351Y39294814D01*
X66896753Y39319200D01*
X66894351Y39343586D01*
X66887238Y39367035D01*
X66875687Y39388646D01*
X66860142Y39407587D01*
X66841200Y39423133D01*
X66819589Y39434684D01*
X66744205Y39465909D01*
X66699388Y39495855D01*
X66653958Y39526210D01*
X66577210Y39602958D01*
X66516910Y39693204D01*
X66516909Y39693205D01*
X66485684Y39768589D01*
X66474133Y39790200D01*
X66458588Y39809141D01*
X66439646Y39824687D01*
X66418035Y39836238D01*
X66394586Y39843351D01*
X66370200Y39845753D01*
X66345814Y39843351D01*
X66322365Y39836238D01*
X66300754Y39824687D01*
X66281813Y39809142D01*
X66266267Y39790200D01*
X66254716Y39768589D01*
X66223491Y39693205D01*
X66223490Y39693204D01*
X66163190Y39602958D01*
X66086442Y39526210D01*
X66041012Y39495855D01*
X65996195Y39465909D01*
X65920811Y39434684D01*
X65899200Y39423133D01*
X65880259Y39407588D01*
X65864713Y39388646D01*
X65853162Y39367035D01*
X65846049Y39343586D01*
X65843647Y39319200D01*
X65626753Y39319200D01*
X65624351Y39343586D01*
X65617238Y39367035D01*
X65605687Y39388646D01*
X65590142Y39407587D01*
X65571200Y39423133D01*
X65549589Y39434684D01*
X65474205Y39465909D01*
X65429388Y39495855D01*
X65383958Y39526210D01*
X65307210Y39602958D01*
X65246910Y39693204D01*
X65246909Y39693205D01*
X65205374Y39793479D01*
X65184200Y39899930D01*
X65184200Y40008470D01*
X65205374Y40114921D01*
X65246909Y40215195D01*
X65307209Y40305440D01*
X65307210Y40305442D01*
X65383958Y40382190D01*
X65474204Y40442490D01*
X65474205Y40442491D01*
X65574479Y40484026D01*
X65680930Y40505200D01*
X65789470Y40505200D01*
X65895921Y40484026D01*
G37*
G36*
X43050785Y45022498D02*
G01*
X43200610Y44992696D01*
X43482874Y44875779D01*
X43736905Y44706041D01*
X43952941Y44490005D01*
X44122679Y44235974D01*
X44239596Y43953710D01*
X44299200Y43654060D01*
X44299200Y43348540D01*
X44239596Y43048890D01*
X44122679Y42766626D01*
X43952941Y42512595D01*
X43736905Y42296559D01*
X43482874Y42126821D01*
X43200610Y42009904D01*
X43050785Y41980102D01*
X42900961Y41950300D01*
X42595439Y41950300D01*
X42445615Y41980102D01*
X42295790Y42009904D01*
X42013526Y42126821D01*
X41759495Y42296559D01*
X41543459Y42512595D01*
X41373721Y42766626D01*
X41256804Y43048890D01*
X41197200Y43348540D01*
X41197200Y43654060D01*
X41256804Y43953710D01*
X41373721Y44235974D01*
X41543459Y44490005D01*
X41759495Y44706041D01*
X42013526Y44875779D01*
X42295790Y44992696D01*
X42445615Y45022498D01*
X42595439Y45052300D01*
X42900961Y45052300D01*
X43050785Y45022498D01*
G37*
G36*
X67034500Y46571600D02*
G01*
X66032500Y46571600D01*
X66032500Y48373600D01*
X67034500Y48373600D01*
X67034500Y46571600D01*
G37*
G36*
X63634500Y46571600D02*
G01*
X62632500Y46571600D01*
X62632500Y48373600D01*
X63634500Y48373600D01*
X63634500Y46571600D01*
G37*
G36*
X70623200Y46674000D02*
G01*
X68721200Y46674000D01*
X68721200Y48576000D01*
X70623200Y48576000D01*
X70623200Y46674000D01*
G37*
G36*
X72489595Y48539454D02*
G01*
X72662666Y48467766D01*
X72662667Y48467765D01*
X72818427Y48363690D01*
X72950890Y48231227D01*
X72950891Y48231225D01*
X73054966Y48075466D01*
X73126654Y47902395D01*
X73163200Y47718667D01*
X73163200Y47531333D01*
X73126654Y47347605D01*
X73054966Y47174534D01*
X73054965Y47174533D01*
X72950890Y47018773D01*
X72818427Y46886310D01*
X72790247Y46867481D01*
X72662666Y46782234D01*
X72489595Y46710546D01*
X72305867Y46674000D01*
X72118533Y46674000D01*
X71934805Y46710546D01*
X71761734Y46782234D01*
X71634153Y46867481D01*
X71605973Y46886310D01*
X71473510Y47018773D01*
X71369435Y47174533D01*
X71369434Y47174534D01*
X71297746Y47347605D01*
X71261200Y47531333D01*
X71261200Y47718667D01*
X71297746Y47902395D01*
X71369434Y48075466D01*
X71473509Y48231225D01*
X71473510Y48231227D01*
X71605973Y48363690D01*
X71761733Y48467765D01*
X71761734Y48467766D01*
X71934805Y48539454D01*
X72118533Y48576000D01*
X72305867Y48576000D01*
X72489595Y48539454D01*
G37*
G36*
X93511000Y46836700D02*
G01*
X91909000Y46836700D01*
X91909000Y48438700D01*
X93511000Y48438700D01*
X93511000Y46836700D01*
G37*
G36*
X95483642Y48407919D02*
G01*
X95629414Y48347538D01*
X95629416Y48347537D01*
X95760608Y48259878D01*
X95872178Y48148308D01*
X95920848Y48075467D01*
X95959838Y48017114D01*
X96020219Y47871342D01*
X96051000Y47716593D01*
X96051000Y47558807D01*
X96020219Y47404058D01*
X95959838Y47258286D01*
X95959837Y47258284D01*
X95872178Y47127092D01*
X95760608Y47015522D01*
X95629416Y46927863D01*
X95629415Y46927862D01*
X95629414Y46927862D01*
X95483642Y46867481D01*
X95328893Y46836700D01*
X95171107Y46836700D01*
X95016358Y46867481D01*
X94870586Y46927862D01*
X94870585Y46927862D01*
X94870584Y46927863D01*
X94739392Y47015522D01*
X94627822Y47127092D01*
X94540163Y47258284D01*
X94540162Y47258286D01*
X94479781Y47404058D01*
X94449000Y47558807D01*
X94449000Y47716593D01*
X94479781Y47871342D01*
X94540162Y48017114D01*
X94579152Y48075467D01*
X94627822Y48148308D01*
X94739392Y48259878D01*
X94870584Y48347537D01*
X94870586Y48347538D01*
X95016358Y48407919D01*
X95171107Y48438700D01*
X95328893Y48438700D01*
X95483642Y48407919D01*
G37*
G36*
X98023642Y48407919D02*
G01*
X98169414Y48347538D01*
X98169416Y48347537D01*
X98300608Y48259878D01*
X98412178Y48148308D01*
X98460848Y48075467D01*
X98499838Y48017114D01*
X98560219Y47871342D01*
X98591000Y47716593D01*
X98591000Y47558807D01*
X98560219Y47404058D01*
X98499838Y47258286D01*
X98499837Y47258284D01*
X98412178Y47127092D01*
X98300608Y47015522D01*
X98169416Y46927863D01*
X98169415Y46927862D01*
X98169414Y46927862D01*
X98023642Y46867481D01*
X97868893Y46836700D01*
X97711107Y46836700D01*
X97556358Y46867481D01*
X97410586Y46927862D01*
X97410585Y46927862D01*
X97410584Y46927863D01*
X97279392Y47015522D01*
X97167822Y47127092D01*
X97080163Y47258284D01*
X97080162Y47258286D01*
X97019781Y47404058D01*
X96989000Y47558807D01*
X96989000Y47716593D01*
X97019781Y47871342D01*
X97080162Y48017114D01*
X97119152Y48075467D01*
X97167822Y48148308D01*
X97279392Y48259878D01*
X97410584Y48347537D01*
X97410586Y48347538D01*
X97556358Y48407919D01*
X97711107Y48438700D01*
X97868893Y48438700D01*
X98023642Y48407919D01*
G37*
G36*
X105643642Y48407919D02*
G01*
X105789414Y48347538D01*
X105789416Y48347537D01*
X105920608Y48259878D01*
X106032178Y48148308D01*
X106080848Y48075467D01*
X106119838Y48017114D01*
X106180219Y47871342D01*
X106211000Y47716593D01*
X106211000Y47558807D01*
X106180219Y47404058D01*
X106119838Y47258286D01*
X106119837Y47258284D01*
X106032178Y47127092D01*
X105920608Y47015522D01*
X105789416Y46927863D01*
X105789415Y46927862D01*
X105789414Y46927862D01*
X105643642Y46867481D01*
X105488893Y46836700D01*
X105331107Y46836700D01*
X105176358Y46867481D01*
X105030586Y46927862D01*
X105030585Y46927862D01*
X105030584Y46927863D01*
X104899392Y47015522D01*
X104787822Y47127092D01*
X104700163Y47258284D01*
X104700162Y47258286D01*
X104639781Y47404058D01*
X104609000Y47558807D01*
X104609000Y47716593D01*
X104639781Y47871342D01*
X104700162Y48017114D01*
X104739152Y48075467D01*
X104787822Y48148308D01*
X104899392Y48259878D01*
X105030584Y48347537D01*
X105030586Y48347538D01*
X105176358Y48407919D01*
X105331107Y48438700D01*
X105488893Y48438700D01*
X105643642Y48407919D01*
G37*
G36*
X100563642Y48407919D02*
G01*
X100709414Y48347538D01*
X100709416Y48347537D01*
X100840608Y48259878D01*
X100952178Y48148308D01*
X101000848Y48075467D01*
X101039838Y48017114D01*
X101100219Y47871342D01*
X101131000Y47716593D01*
X101131000Y47558807D01*
X101100219Y47404058D01*
X101039838Y47258286D01*
X101039837Y47258284D01*
X100952178Y47127092D01*
X100840608Y47015522D01*
X100709416Y46927863D01*
X100709415Y46927862D01*
X100709414Y46927862D01*
X100563642Y46867481D01*
X100408893Y46836700D01*
X100251107Y46836700D01*
X100096358Y46867481D01*
X99950586Y46927862D01*
X99950585Y46927862D01*
X99950584Y46927863D01*
X99819392Y47015522D01*
X99707822Y47127092D01*
X99620163Y47258284D01*
X99620162Y47258286D01*
X99559781Y47404058D01*
X99529000Y47558807D01*
X99529000Y47716593D01*
X99559781Y47871342D01*
X99620162Y48017114D01*
X99659152Y48075467D01*
X99707822Y48148308D01*
X99819392Y48259878D01*
X99950584Y48347537D01*
X99950586Y48347538D01*
X100096358Y48407919D01*
X100251107Y48438700D01*
X100408893Y48438700D01*
X100563642Y48407919D01*
G37*
G36*
X103103642Y48407919D02*
G01*
X103249414Y48347538D01*
X103249416Y48347537D01*
X103380608Y48259878D01*
X103492178Y48148308D01*
X103540848Y48075467D01*
X103579838Y48017114D01*
X103640219Y47871342D01*
X103671000Y47716593D01*
X103671000Y47558807D01*
X103640219Y47404058D01*
X103579838Y47258286D01*
X103579837Y47258284D01*
X103492178Y47127092D01*
X103380608Y47015522D01*
X103249416Y46927863D01*
X103249415Y46927862D01*
X103249414Y46927862D01*
X103103642Y46867481D01*
X102948893Y46836700D01*
X102791107Y46836700D01*
X102636358Y46867481D01*
X102490586Y46927862D01*
X102490585Y46927862D01*
X102490584Y46927863D01*
X102359392Y47015522D01*
X102247822Y47127092D01*
X102160163Y47258284D01*
X102160162Y47258286D01*
X102099781Y47404058D01*
X102069000Y47558807D01*
X102069000Y47716593D01*
X102099781Y47871342D01*
X102160162Y48017114D01*
X102199152Y48075467D01*
X102247822Y48148308D01*
X102359392Y48259878D01*
X102490584Y48347537D01*
X102490586Y48347538D01*
X102636358Y48407919D01*
X102791107Y48438700D01*
X102948893Y48438700D01*
X103103642Y48407919D01*
G37*
G36*
X44299200Y46950300D02*
G01*
X41197200Y46950300D01*
X41197200Y50052300D01*
X44299200Y50052300D01*
X44299200Y46950300D01*
G37*
G36*
X55598595Y54254454D02*
G01*
X55771666Y54182766D01*
X55771667Y54182765D01*
X55927427Y54078690D01*
X56059890Y53946227D01*
X56059891Y53946225D01*
X56163966Y53790466D01*
X56235654Y53617395D01*
X56272200Y53433667D01*
X56272200Y53246333D01*
X56235654Y53062605D01*
X56163966Y52889534D01*
X56163965Y52889533D01*
X56059890Y52733773D01*
X55927427Y52601310D01*
X55849018Y52548919D01*
X55771666Y52497234D01*
X55598595Y52425546D01*
X55414867Y52389000D01*
X55227533Y52389000D01*
X55043805Y52425546D01*
X54870734Y52497234D01*
X54793382Y52548919D01*
X54714973Y52601310D01*
X54582510Y52733773D01*
X54478435Y52889533D01*
X54478434Y52889534D01*
X54406746Y53062605D01*
X54370200Y53246333D01*
X54370200Y53433667D01*
X54406746Y53617395D01*
X54478434Y53790466D01*
X54582509Y53946225D01*
X54582510Y53946227D01*
X54714973Y54078690D01*
X54870733Y54182765D01*
X54870734Y54182766D01*
X55043805Y54254454D01*
X55227533Y54291000D01*
X55414867Y54291000D01*
X55598595Y54254454D01*
G37*
G36*
X92943642Y54605519D02*
G01*
X93089414Y54545138D01*
X93089416Y54545137D01*
X93220608Y54457478D01*
X93332178Y54345908D01*
X93419837Y54214716D01*
X93419838Y54214714D01*
X93480219Y54068942D01*
X93511000Y53914193D01*
X93511000Y53756407D01*
X93480219Y53601658D01*
X93419838Y53455886D01*
X93419837Y53455884D01*
X93332178Y53324692D01*
X93220608Y53213122D01*
X93089416Y53125463D01*
X93089415Y53125462D01*
X93089414Y53125462D01*
X92943642Y53065081D01*
X92788893Y53034300D01*
X92631107Y53034300D01*
X92476358Y53065081D01*
X92330586Y53125462D01*
X92330585Y53125462D01*
X92330584Y53125463D01*
X92199392Y53213122D01*
X92087822Y53324692D01*
X92000163Y53455884D01*
X92000162Y53455886D01*
X91939781Y53601658D01*
X91909000Y53756407D01*
X91909000Y53914193D01*
X91939781Y54068942D01*
X92000162Y54214714D01*
X92000163Y54214716D01*
X92087822Y54345908D01*
X92199392Y54457478D01*
X92330584Y54545137D01*
X92330586Y54545138D01*
X92476358Y54605519D01*
X92631107Y54636300D01*
X92788893Y54636300D01*
X92943642Y54605519D01*
G37*
G36*
X98023642Y54605519D02*
G01*
X98169414Y54545138D01*
X98169416Y54545137D01*
X98300608Y54457478D01*
X98412178Y54345908D01*
X98499837Y54214716D01*
X98499838Y54214714D01*
X98560219Y54068942D01*
X98591000Y53914193D01*
X98591000Y53756407D01*
X98560219Y53601658D01*
X98499838Y53455886D01*
X98499837Y53455884D01*
X98412178Y53324692D01*
X98300608Y53213122D01*
X98169416Y53125463D01*
X98169415Y53125462D01*
X98169414Y53125462D01*
X98023642Y53065081D01*
X97868893Y53034300D01*
X97711107Y53034300D01*
X97556358Y53065081D01*
X97410586Y53125462D01*
X97410585Y53125462D01*
X97410584Y53125463D01*
X97279392Y53213122D01*
X97167822Y53324692D01*
X97080163Y53455884D01*
X97080162Y53455886D01*
X97019781Y53601658D01*
X96989000Y53756407D01*
X96989000Y53914193D01*
X97019781Y54068942D01*
X97080162Y54214714D01*
X97080163Y54214716D01*
X97167822Y54345908D01*
X97279392Y54457478D01*
X97410584Y54545137D01*
X97410586Y54545138D01*
X97556358Y54605519D01*
X97711107Y54636300D01*
X97868893Y54636300D01*
X98023642Y54605519D01*
G37*
G36*
X100563642Y54605519D02*
G01*
X100709414Y54545138D01*
X100709416Y54545137D01*
X100840608Y54457478D01*
X100952178Y54345908D01*
X101039837Y54214716D01*
X101039838Y54214714D01*
X101100219Y54068942D01*
X101131000Y53914193D01*
X101131000Y53756407D01*
X101100219Y53601658D01*
X101039838Y53455886D01*
X101039837Y53455884D01*
X100952178Y53324692D01*
X100840608Y53213122D01*
X100709416Y53125463D01*
X100709415Y53125462D01*
X100709414Y53125462D01*
X100563642Y53065081D01*
X100408893Y53034300D01*
X100251107Y53034300D01*
X100096358Y53065081D01*
X99950586Y53125462D01*
X99950585Y53125462D01*
X99950584Y53125463D01*
X99819392Y53213122D01*
X99707822Y53324692D01*
X99620163Y53455884D01*
X99620162Y53455886D01*
X99559781Y53601658D01*
X99529000Y53756407D01*
X99529000Y53914193D01*
X99559781Y54068942D01*
X99620162Y54214714D01*
X99620163Y54214716D01*
X99707822Y54345908D01*
X99819392Y54457478D01*
X99950584Y54545137D01*
X99950586Y54545138D01*
X100096358Y54605519D01*
X100251107Y54636300D01*
X100408893Y54636300D01*
X100563642Y54605519D01*
G37*
G36*
X103103642Y54605519D02*
G01*
X103249414Y54545138D01*
X103249416Y54545137D01*
X103380608Y54457478D01*
X103492178Y54345908D01*
X103579837Y54214716D01*
X103579838Y54214714D01*
X103640219Y54068942D01*
X103671000Y53914193D01*
X103671000Y53756407D01*
X103640219Y53601658D01*
X103579838Y53455886D01*
X103579837Y53455884D01*
X103492178Y53324692D01*
X103380608Y53213122D01*
X103249416Y53125463D01*
X103249415Y53125462D01*
X103249414Y53125462D01*
X103103642Y53065081D01*
X102948893Y53034300D01*
X102791107Y53034300D01*
X102636358Y53065081D01*
X102490586Y53125462D01*
X102490585Y53125462D01*
X102490584Y53125463D01*
X102359392Y53213122D01*
X102247822Y53324692D01*
X102160163Y53455884D01*
X102160162Y53455886D01*
X102099781Y53601658D01*
X102069000Y53756407D01*
X102069000Y53914193D01*
X102099781Y54068942D01*
X102160162Y54214714D01*
X102160163Y54214716D01*
X102247822Y54345908D01*
X102359392Y54457478D01*
X102490584Y54545137D01*
X102490586Y54545138D01*
X102636358Y54605519D01*
X102791107Y54636300D01*
X102948893Y54636300D01*
X103103642Y54605519D01*
G37*
G36*
X105643642Y54605519D02*
G01*
X105789414Y54545138D01*
X105789416Y54545137D01*
X105920608Y54457478D01*
X106032178Y54345908D01*
X106119837Y54214716D01*
X106119838Y54214714D01*
X106180219Y54068942D01*
X106211000Y53914193D01*
X106211000Y53756407D01*
X106180219Y53601658D01*
X106119838Y53455886D01*
X106119837Y53455884D01*
X106032178Y53324692D01*
X105920608Y53213122D01*
X105789416Y53125463D01*
X105789415Y53125462D01*
X105789414Y53125462D01*
X105643642Y53065081D01*
X105488893Y53034300D01*
X105331107Y53034300D01*
X105176358Y53065081D01*
X105030586Y53125462D01*
X105030585Y53125462D01*
X105030584Y53125463D01*
X104899392Y53213122D01*
X104787822Y53324692D01*
X104700163Y53455884D01*
X104700162Y53455886D01*
X104639781Y53601658D01*
X104609000Y53756407D01*
X104609000Y53914193D01*
X104639781Y54068942D01*
X104700162Y54214714D01*
X104700163Y54214716D01*
X104787822Y54345908D01*
X104899392Y54457478D01*
X105030584Y54545137D01*
X105030586Y54545138D01*
X105176358Y54605519D01*
X105331107Y54636300D01*
X105488893Y54636300D01*
X105643642Y54605519D01*
G37*
G36*
X95483642Y54605519D02*
G01*
X95629414Y54545138D01*
X95629416Y54545137D01*
X95760608Y54457478D01*
X95872178Y54345908D01*
X95959837Y54214716D01*
X95959838Y54214714D01*
X96020219Y54068942D01*
X96051000Y53914193D01*
X96051000Y53756407D01*
X96020219Y53601658D01*
X95959838Y53455886D01*
X95959837Y53455884D01*
X95872178Y53324692D01*
X95760608Y53213122D01*
X95629416Y53125463D01*
X95629415Y53125462D01*
X95629414Y53125462D01*
X95483642Y53065081D01*
X95328893Y53034300D01*
X95171107Y53034300D01*
X95016358Y53065081D01*
X94870586Y53125462D01*
X94870585Y53125462D01*
X94870584Y53125463D01*
X94739392Y53213122D01*
X94627822Y53324692D01*
X94540163Y53455884D01*
X94540162Y53455886D01*
X94479781Y53601658D01*
X94449000Y53756407D01*
X94449000Y53914193D01*
X94479781Y54068942D01*
X94540162Y54214714D01*
X94540163Y54214716D01*
X94627822Y54345908D01*
X94739392Y54457478D01*
X94870584Y54545137D01*
X94870586Y54545138D01*
X95016358Y54605519D01*
X95171107Y54636300D01*
X95328893Y54636300D01*
X95483642Y54605519D01*
G37*
G36*
X45385749Y62088884D02*
G01*
X45496934Y62066768D01*
X45706403Y61980003D01*
X45894920Y61854040D01*
X46055240Y61693720D01*
X46181203Y61505203D01*
X46267968Y61295734D01*
X46312200Y61073364D01*
X46312200Y60846636D01*
X46267968Y60624266D01*
X46181203Y60414797D01*
X46055240Y60226280D01*
X45894920Y60065960D01*
X45706403Y59939997D01*
X45496934Y59853232D01*
X45385749Y59831116D01*
X45274565Y59809000D01*
X45047835Y59809000D01*
X44936651Y59831116D01*
X44825466Y59853232D01*
X44615997Y59939997D01*
X44427480Y60065960D01*
X44267160Y60226280D01*
X44141197Y60414797D01*
X44054432Y60624266D01*
X44010200Y60846636D01*
X44010200Y61073364D01*
X44054432Y61295734D01*
X44141197Y61505203D01*
X44267160Y61693720D01*
X44427480Y61854040D01*
X44615997Y61980003D01*
X44825466Y62066768D01*
X44936651Y62088884D01*
X45047835Y62111000D01*
X45274565Y62111000D01*
X45385749Y62088884D01*
G37*
G36*
X37765749Y62088884D02*
G01*
X37876934Y62066768D01*
X38086403Y61980003D01*
X38274920Y61854040D01*
X38435240Y61693720D01*
X38561203Y61505203D01*
X38647968Y61295734D01*
X38692200Y61073364D01*
X38692200Y60846636D01*
X38647968Y60624266D01*
X38561203Y60414797D01*
X38435240Y60226280D01*
X38274920Y60065960D01*
X38086403Y59939997D01*
X37876934Y59853232D01*
X37765749Y59831116D01*
X37654565Y59809000D01*
X37427835Y59809000D01*
X37316651Y59831116D01*
X37205466Y59853232D01*
X36995997Y59939997D01*
X36807480Y60065960D01*
X36647160Y60226280D01*
X36521197Y60414797D01*
X36434432Y60624266D01*
X36390200Y60846636D01*
X36390200Y61073364D01*
X36434432Y61295734D01*
X36521197Y61505203D01*
X36647160Y61693720D01*
X36807480Y61854040D01*
X36995997Y61980003D01*
X37205466Y62066768D01*
X37316651Y62088884D01*
X37427835Y62111000D01*
X37654565Y62111000D01*
X37765749Y62088884D01*
G37*
G36*
X56272200Y60009000D02*
G01*
X54370200Y60009000D01*
X54370200Y61911000D01*
X56272200Y61911000D01*
X56272200Y60009000D01*
G37*
G36*
X52714600Y65509700D02*
G01*
X50612600Y65509700D01*
X50612600Y67611700D01*
X52714600Y67611700D01*
X52714600Y65509700D01*
G37*
G36*
X105643642Y69845519D02*
G01*
X105789414Y69785138D01*
X105789416Y69785137D01*
X105920608Y69697478D01*
X106032178Y69585908D01*
X106119837Y69454716D01*
X106119838Y69454714D01*
X106180219Y69308942D01*
X106211000Y69154193D01*
X106211000Y68996407D01*
X106180219Y68841658D01*
X106119838Y68695886D01*
X106119837Y68695884D01*
X106032178Y68564692D01*
X105920608Y68453122D01*
X105789416Y68365463D01*
X105789415Y68365462D01*
X105789414Y68365462D01*
X105643642Y68305081D01*
X105488893Y68274300D01*
X105331107Y68274300D01*
X105176358Y68305081D01*
X105030586Y68365462D01*
X105030585Y68365462D01*
X105030584Y68365463D01*
X104899392Y68453122D01*
X104787822Y68564692D01*
X104700163Y68695884D01*
X104700162Y68695886D01*
X104639781Y68841658D01*
X104609000Y68996407D01*
X104609000Y69154193D01*
X104639781Y69308942D01*
X104700162Y69454714D01*
X104700163Y69454716D01*
X104787822Y69585908D01*
X104899392Y69697478D01*
X105030584Y69785137D01*
X105030586Y69785138D01*
X105176358Y69845519D01*
X105331107Y69876300D01*
X105488893Y69876300D01*
X105643642Y69845519D01*
G37*
G36*
X95483642Y69845519D02*
G01*
X95629414Y69785138D01*
X95629416Y69785137D01*
X95760608Y69697478D01*
X95872178Y69585908D01*
X95959837Y69454716D01*
X95959838Y69454714D01*
X96020219Y69308942D01*
X96051000Y69154193D01*
X96051000Y68996407D01*
X96020219Y68841658D01*
X95959838Y68695886D01*
X95959837Y68695884D01*
X95872178Y68564692D01*
X95760608Y68453122D01*
X95629416Y68365463D01*
X95629415Y68365462D01*
X95629414Y68365462D01*
X95483642Y68305081D01*
X95328893Y68274300D01*
X95171107Y68274300D01*
X95016358Y68305081D01*
X94870586Y68365462D01*
X94870585Y68365462D01*
X94870584Y68365463D01*
X94739392Y68453122D01*
X94627822Y68564692D01*
X94540163Y68695884D01*
X94540162Y68695886D01*
X94479781Y68841658D01*
X94449000Y68996407D01*
X94449000Y69154193D01*
X94479781Y69308942D01*
X94540162Y69454714D01*
X94540163Y69454716D01*
X94627822Y69585908D01*
X94739392Y69697478D01*
X94870584Y69785137D01*
X94870586Y69785138D01*
X95016358Y69845519D01*
X95171107Y69876300D01*
X95328893Y69876300D01*
X95483642Y69845519D01*
G37*
G36*
X100563642Y69845519D02*
G01*
X100709414Y69785138D01*
X100709416Y69785137D01*
X100840608Y69697478D01*
X100952178Y69585908D01*
X101039837Y69454716D01*
X101039838Y69454714D01*
X101100219Y69308942D01*
X101131000Y69154193D01*
X101131000Y68996407D01*
X101100219Y68841658D01*
X101039838Y68695886D01*
X101039837Y68695884D01*
X100952178Y68564692D01*
X100840608Y68453122D01*
X100709416Y68365463D01*
X100709415Y68365462D01*
X100709414Y68365462D01*
X100563642Y68305081D01*
X100408893Y68274300D01*
X100251107Y68274300D01*
X100096358Y68305081D01*
X99950586Y68365462D01*
X99950585Y68365462D01*
X99950584Y68365463D01*
X99819392Y68453122D01*
X99707822Y68564692D01*
X99620163Y68695884D01*
X99620162Y68695886D01*
X99559781Y68841658D01*
X99529000Y68996407D01*
X99529000Y69154193D01*
X99559781Y69308942D01*
X99620162Y69454714D01*
X99620163Y69454716D01*
X99707822Y69585908D01*
X99819392Y69697478D01*
X99950584Y69785137D01*
X99950586Y69785138D01*
X100096358Y69845519D01*
X100251107Y69876300D01*
X100408893Y69876300D01*
X100563642Y69845519D01*
G37*
G36*
X98023642Y69845519D02*
G01*
X98169414Y69785138D01*
X98169416Y69785137D01*
X98300608Y69697478D01*
X98412178Y69585908D01*
X98499837Y69454716D01*
X98499838Y69454714D01*
X98560219Y69308942D01*
X98591000Y69154193D01*
X98591000Y68996407D01*
X98560219Y68841658D01*
X98499838Y68695886D01*
X98499837Y68695884D01*
X98412178Y68564692D01*
X98300608Y68453122D01*
X98169416Y68365463D01*
X98169415Y68365462D01*
X98169414Y68365462D01*
X98023642Y68305081D01*
X97868893Y68274300D01*
X97711107Y68274300D01*
X97556358Y68305081D01*
X97410586Y68365462D01*
X97410585Y68365462D01*
X97410584Y68365463D01*
X97279392Y68453122D01*
X97167822Y68564692D01*
X97080163Y68695884D01*
X97080162Y68695886D01*
X97019781Y68841658D01*
X96989000Y68996407D01*
X96989000Y69154193D01*
X97019781Y69308942D01*
X97080162Y69454714D01*
X97080163Y69454716D01*
X97167822Y69585908D01*
X97279392Y69697478D01*
X97410584Y69785137D01*
X97410586Y69785138D01*
X97556358Y69845519D01*
X97711107Y69876300D01*
X97868893Y69876300D01*
X98023642Y69845519D01*
G37*
G36*
X93511000Y68274300D02*
G01*
X91909000Y68274300D01*
X91909000Y69876300D01*
X93511000Y69876300D01*
X93511000Y68274300D01*
G37*
G36*
X103103642Y69845519D02*
G01*
X103249414Y69785138D01*
X103249416Y69785137D01*
X103380608Y69697478D01*
X103492178Y69585908D01*
X103579837Y69454716D01*
X103579838Y69454714D01*
X103640219Y69308942D01*
X103671000Y69154193D01*
X103671000Y68996407D01*
X103640219Y68841658D01*
X103579838Y68695886D01*
X103579837Y68695884D01*
X103492178Y68564692D01*
X103380608Y68453122D01*
X103249416Y68365463D01*
X103249415Y68365462D01*
X103249414Y68365462D01*
X103103642Y68305081D01*
X102948893Y68274300D01*
X102791107Y68274300D01*
X102636358Y68305081D01*
X102490586Y68365462D01*
X102490585Y68365462D01*
X102490584Y68365463D01*
X102359392Y68453122D01*
X102247822Y68564692D01*
X102160163Y68695884D01*
X102160162Y68695886D01*
X102099781Y68841658D01*
X102069000Y68996407D01*
X102069000Y69154193D01*
X102099781Y69308942D01*
X102160162Y69454714D01*
X102160163Y69454716D01*
X102247822Y69585908D01*
X102359392Y69697478D01*
X102490584Y69785137D01*
X102490586Y69785138D01*
X102636358Y69845519D01*
X102791107Y69876300D01*
X102948893Y69876300D01*
X103103642Y69845519D01*
G37*
G36*
X42412585Y73941198D02*
G01*
X42562410Y73911396D01*
X42844674Y73794479D01*
X43098705Y73624741D01*
X43314741Y73408705D01*
X43484479Y73154674D01*
X43601396Y72872410D01*
X43661000Y72572760D01*
X43661000Y72267240D01*
X43601396Y71967590D01*
X43484479Y71685326D01*
X43314741Y71431295D01*
X43098705Y71215259D01*
X42844674Y71045521D01*
X42562410Y70928604D01*
X42412585Y70898802D01*
X42262761Y70869000D01*
X41957239Y70869000D01*
X41807415Y70898802D01*
X41657590Y70928604D01*
X41375326Y71045521D01*
X41121295Y71215259D01*
X40905259Y71431295D01*
X40735521Y71685326D01*
X40618604Y71967590D01*
X40559000Y72267240D01*
X40559000Y72572760D01*
X40618604Y72872410D01*
X40735521Y73154674D01*
X40905259Y73408705D01*
X41121295Y73624741D01*
X41375326Y73794479D01*
X41657590Y73911396D01*
X41807415Y73941198D01*
X41957239Y73971000D01*
X42262761Y73971000D01*
X42412585Y73941198D01*
G37*
G36*
X79970164Y75191311D02*
G01*
X80161433Y75112085D01*
X80161435Y75112084D01*
X80333573Y74997065D01*
X80479965Y74850673D01*
X80594985Y74678533D01*
X80674211Y74487264D01*
X80714600Y74284216D01*
X80714600Y74077184D01*
X80674211Y73874136D01*
X80641216Y73794479D01*
X80594984Y73682865D01*
X80479965Y73510727D01*
X80333573Y73364335D01*
X80161435Y73249316D01*
X80161434Y73249315D01*
X80161433Y73249315D01*
X79970164Y73170089D01*
X79767116Y73129700D01*
X79560084Y73129700D01*
X79357036Y73170089D01*
X79165767Y73249315D01*
X79165766Y73249315D01*
X79165765Y73249316D01*
X78993627Y73364335D01*
X78847235Y73510727D01*
X78732216Y73682865D01*
X78685984Y73794479D01*
X78652989Y73874136D01*
X78612600Y74077184D01*
X78612600Y74284216D01*
X78652989Y74487264D01*
X78732215Y74678533D01*
X78847235Y74850673D01*
X78993627Y74997065D01*
X79165765Y75112084D01*
X79165767Y75112085D01*
X79357036Y75191311D01*
X79560084Y75231700D01*
X79767116Y75231700D01*
X79970164Y75191311D01*
G37*
G36*
X42412585Y78941198D02*
G01*
X42562410Y78911396D01*
X42844674Y78794479D01*
X43098705Y78624741D01*
X43314741Y78408705D01*
X43484479Y78154674D01*
X43601396Y77872410D01*
X43661000Y77572760D01*
X43661000Y77267240D01*
X43601396Y76967590D01*
X43484479Y76685326D01*
X43314741Y76431295D01*
X43098705Y76215259D01*
X42844674Y76045521D01*
X42562410Y75928604D01*
X42412585Y75898802D01*
X42262761Y75869000D01*
X41957239Y75869000D01*
X41807415Y75898802D01*
X41657590Y75928604D01*
X41375326Y76045521D01*
X41121295Y76215259D01*
X40905259Y76431295D01*
X40735521Y76685326D01*
X40618604Y76967590D01*
X40559000Y77267240D01*
X40559000Y77572760D01*
X40618604Y77872410D01*
X40735521Y78154674D01*
X40905259Y78408705D01*
X41121295Y78624741D01*
X41375326Y78794479D01*
X41657590Y78911396D01*
X41807415Y78941198D01*
X41957239Y78971000D01*
X42262761Y78971000D01*
X42412585Y78941198D01*
G37*
G36*
X79970164Y82811311D02*
G01*
X80161433Y82732085D01*
X80161435Y82732084D01*
X80333573Y82617065D01*
X80479965Y82470673D01*
X80594985Y82298533D01*
X80674211Y82107264D01*
X80714600Y81904216D01*
X80714600Y81697184D01*
X80674211Y81494136D01*
X80594985Y81302867D01*
X80594984Y81302865D01*
X80479965Y81130727D01*
X80333573Y80984335D01*
X80161435Y80869316D01*
X80161434Y80869315D01*
X80161433Y80869315D01*
X79970164Y80790089D01*
X79767116Y80749700D01*
X79560084Y80749700D01*
X79357036Y80790089D01*
X79165767Y80869315D01*
X79165766Y80869315D01*
X79165765Y80869316D01*
X78993627Y80984335D01*
X78847235Y81130727D01*
X78732216Y81302865D01*
X78732215Y81302867D01*
X78652989Y81494136D01*
X78612600Y81697184D01*
X78612600Y81904216D01*
X78652989Y82107264D01*
X78732215Y82298533D01*
X78847235Y82470673D01*
X78993627Y82617065D01*
X79165765Y82732084D01*
X79165767Y82732085D01*
X79357036Y82811311D01*
X79560084Y82851700D01*
X79767116Y82851700D01*
X79970164Y82811311D01*
G37*
G36*
X51970164Y82811311D02*
G01*
X52161433Y82732085D01*
X52161435Y82732084D01*
X52333573Y82617065D01*
X52479965Y82470673D01*
X52594985Y82298533D01*
X52674211Y82107264D01*
X52714600Y81904216D01*
X52714600Y81697184D01*
X52674211Y81494136D01*
X52594985Y81302867D01*
X52594984Y81302865D01*
X52479965Y81130727D01*
X52333573Y80984335D01*
X52161435Y80869316D01*
X52161434Y80869315D01*
X52161433Y80869315D01*
X51970164Y80790089D01*
X51767116Y80749700D01*
X51560084Y80749700D01*
X51357036Y80790089D01*
X51165767Y80869315D01*
X51165766Y80869315D01*
X51165765Y80869316D01*
X50993627Y80984335D01*
X50847235Y81130727D01*
X50732216Y81302865D01*
X50732215Y81302867D01*
X50652989Y81494136D01*
X50612600Y81697184D01*
X50612600Y81904216D01*
X50652989Y82107264D01*
X50732215Y82298533D01*
X50847235Y82470673D01*
X50993627Y82617065D01*
X51165765Y82732084D01*
X51165767Y82732085D01*
X51357036Y82811311D01*
X51560084Y82851700D01*
X51767116Y82851700D01*
X51970164Y82811311D01*
G37*
G36*
X43661000Y80869000D02*
G01*
X40559000Y80869000D01*
X40559000Y83971000D01*
X43661000Y83971000D01*
X43661000Y80869000D01*
G37*
M02*
