%FSLAX45Y45*%
G04 Gerber Fmt 4.5, Leading zero omitted, Abs format (unit mm)*
G04 Created by KiCad (PCBNEW (5.1.5)-3) date 2023-05-28 15:04:28*
%MOMM*%
%LPD*%
G04 APERTURE LIST*
%TA.AperFunction,Profile*%
%ADD10C,0.100000*%
%TD*%
%ADD11C,0.200000*%
%ADD12C,0.300000*%
G04 APERTURE END LIST*
D10*
X12509500Y8572500D02*
X12509500Y2921000D01*
X3429000Y8572500D02*
X12509500Y8572500D01*
X3429000Y2921000D02*
X3429000Y8572500D01*
X12509500Y2921000D02*
X3429000Y2921000D01*
D11*
D12*
X3710428Y2450286D02*
X3710428Y2750286D01*
X3781857Y2750286D01*
X3824714Y2736000D01*
X3853286Y2707428D01*
X3867571Y2678857D01*
X3881857Y2621714D01*
X3881857Y2578857D01*
X3867571Y2521714D01*
X3853286Y2493143D01*
X3824714Y2464571D01*
X3781857Y2450286D01*
X3710428Y2450286D01*
X4010428Y2450286D02*
X4010428Y2650286D01*
X4010428Y2593143D02*
X4024714Y2621714D01*
X4039000Y2636000D01*
X4067571Y2650286D01*
X4096143Y2650286D01*
X4196143Y2450286D02*
X4196143Y2650286D01*
X4196143Y2750286D02*
X4181857Y2736000D01*
X4196143Y2721714D01*
X4210428Y2736000D01*
X4196143Y2750286D01*
X4196143Y2721714D01*
X4381857Y2450286D02*
X4353286Y2464571D01*
X4339000Y2493143D01*
X4339000Y2750286D01*
X4539000Y2450286D02*
X4510428Y2464571D01*
X4496143Y2493143D01*
X4496143Y2750286D01*
X4881857Y2450286D02*
X4881857Y2750286D01*
X4981857Y2536000D01*
X5081857Y2750286D01*
X5081857Y2450286D01*
X5353286Y2450286D02*
X5353286Y2607428D01*
X5339000Y2636000D01*
X5310428Y2650286D01*
X5253286Y2650286D01*
X5224714Y2636000D01*
X5353286Y2464571D02*
X5324714Y2450286D01*
X5253286Y2450286D01*
X5224714Y2464571D01*
X5210428Y2493143D01*
X5210428Y2521714D01*
X5224714Y2550286D01*
X5253286Y2564571D01*
X5324714Y2564571D01*
X5353286Y2578857D01*
X5496143Y2650286D02*
X5496143Y2350286D01*
X5496143Y2636000D02*
X5524714Y2650286D01*
X5581857Y2650286D01*
X5610428Y2636000D01*
X5624714Y2621714D01*
X5639000Y2593143D01*
X5639000Y2507428D01*
X5624714Y2478857D01*
X5610428Y2464571D01*
X5581857Y2450286D01*
X5524714Y2450286D01*
X5496143Y2464571D01*
X5767571Y2478857D02*
X5781857Y2464571D01*
X5767571Y2450286D01*
X5753286Y2464571D01*
X5767571Y2478857D01*
X5767571Y2450286D01*
X5767571Y2636000D02*
X5781857Y2621714D01*
X5767571Y2607428D01*
X5753286Y2621714D01*
X5767571Y2636000D01*
X5767571Y2607428D01*
M02*
