M48
; DRILL file {KiCad (5.1.5)-3} date 05/28/23 15:04:24
; FORMAT={3:3/ absolute / metric / keep zeros}
; #@! TF.CreationDate,2023-05-28T15:04:24-04:00
; #@! TF.GenerationSoftware,Kicad,Pcbnew,(5.1.5)-3
; #@! TF.FileFunction,Plated,1,2,PTH
FMAT,2
METRIC
T1C0.400
T2C0.650
T3C0.900
T4C1.000
T5C1.200
T6C1.500
%
G90
G05
T1
X050813Y043498
X059310Y054840
X059740Y059350
X059780Y043980
X065670Y057330
X070640Y035605
X071614Y036990
X071760Y042463
X072152Y041014
X072620Y040130
X072670Y038100
X072805Y042540
X072900Y039160
X074145Y033750
X075020Y060420
X075190Y042330
X075400Y033770
X076747Y040674
X076860Y039480
X076936Y041656
X077140Y042690
X079030Y032295
X079070Y044645
X079936Y053560
X080000Y035550
X080015Y033515
X080124Y045847
X080203Y041745
X080390Y039400
X080470Y043195
X082140Y063080
X082150Y064260
X082341Y040894
X082385Y032893
X082420Y041891
X082423Y044945
X082440Y035800
X082765Y060600
X082765Y059410
X082765Y055000
X082765Y053690
X082765Y052530
X082780Y038930
X082844Y040029
X086260Y056925
X086275Y058090
X086449Y047219
X086510Y041870
X086530Y035200
X086534Y046124
X087008Y052376
X087360Y054990
X087585Y048210
X087782Y050190
X087849Y049175
X090564Y032169
X090840Y068800
X091010Y063150
X091040Y061870
X091040Y060620
X091173Y038432
X091192Y043957
X091299Y040332
X091364Y058116
X092060Y064600
X092088Y050597
X092270Y059370
X092481Y041248
X093022Y051418
X093340Y036120
X093720Y075870
X093840Y043091
X094104Y041109
X094590Y065325
X095479Y043561
X095600Y051370
X095634Y056026
X096090Y078315
X096101Y036100
X096167Y059087
X097193Y042266
X097430Y036120
X097670Y065180
X098334Y042198
X099740Y035675
X100137Y057635
X100533Y041072
X100610Y065460
X101041Y044005
X101240Y059085
X101518Y036468
X103770Y065100
X104102Y043307
X105570Y059260
X106375Y041097
X107690Y057350
X110350Y037570
X110429Y035411
X115830Y055690
T2
X065735Y039954
X065735Y038684
X065735Y037414
X067005Y039954
X067005Y038684
X067005Y037414
T3
X069672Y047625
X072212Y047625
X069761Y032118
X072301Y032118
T4
X092710Y069075
X092710Y053835
X095250Y069075
X095250Y053835
X097790Y069075
X097790Y053835
X100330Y069075
X100330Y053835
X102870Y069075
X102870Y053835
X105410Y069075
X105410Y053835
X092710Y047638
X092710Y032398
X095250Y047638
X095250Y032398
X097790Y047638
X097790Y032398
X100330Y047638
X100330Y032398
X102870Y047638
X102870Y032398
X105410Y047638
X105410Y032398
X051664Y081801
X051664Y066561
X079664Y081801
X079664Y074181
X055321Y060960
X055321Y053340
T5
X037541Y060960
X045161Y060960
T6
X042786Y037478
X042786Y032478
X042110Y082420
X042110Y077420
X042110Y072420
X042748Y048501
X042748Y043501
T0
M30
