G04 #@! TF.GenerationSoftware,KiCad,Pcbnew,(5.1.5)-3*
G04 #@! TF.CreationDate,2023-05-28T15:04:11-04:00*
G04 #@! TF.ProjectId,Controlador-temperatura,436f6e74-726f-46c6-9164-6f722d74656d,rev?*
G04 #@! TF.SameCoordinates,Original*
G04 #@! TF.FileFunction,Soldermask,Top*
G04 #@! TF.FilePolarity,Negative*
%FSLAX46Y46*%
G04 Gerber Fmt 4.6, Leading zero omitted, Abs format (unit mm)*
G04 Created by KiCad (PCBNEW (5.1.5)-3) date 2023-05-28 15:04:11*
%MOMM*%
%LPD*%
G04 APERTURE LIST*
%ADD10C,0.100000*%
G04 APERTURE END LIST*
D10*
G36*
X89397481Y33915805D02*
G01*
X89433516Y33904873D01*
X89466724Y33887123D01*
X89495834Y33863234D01*
X89519723Y33834124D01*
X89537473Y33800916D01*
X89548405Y33764881D01*
X89552700Y33721269D01*
X89552700Y30616931D01*
X89548405Y30573319D01*
X89537473Y30537284D01*
X89519723Y30504076D01*
X89495834Y30474966D01*
X89466724Y30451077D01*
X89433516Y30433327D01*
X89397481Y30422395D01*
X89353869Y30418100D01*
X88349531Y30418100D01*
X88305919Y30422395D01*
X88269884Y30433327D01*
X88236676Y30451077D01*
X88207566Y30474966D01*
X88183677Y30504076D01*
X88165927Y30537284D01*
X88154995Y30573319D01*
X88150700Y30616931D01*
X88150700Y33721269D01*
X88154995Y33764881D01*
X88165927Y33800916D01*
X88183677Y33834124D01*
X88207566Y33863234D01*
X88236676Y33887123D01*
X88269884Y33904873D01*
X88305919Y33915805D01*
X88349531Y33920100D01*
X89353869Y33920100D01*
X89397481Y33915805D01*
G37*
G36*
X84947481Y33915805D02*
G01*
X84983516Y33904873D01*
X85016724Y33887123D01*
X85045834Y33863234D01*
X85069723Y33834124D01*
X85087473Y33800916D01*
X85098405Y33764881D01*
X85102700Y33721269D01*
X85102700Y30616931D01*
X85098405Y30573319D01*
X85087473Y30537284D01*
X85069723Y30504076D01*
X85045834Y30474966D01*
X85016724Y30451077D01*
X84983516Y30433327D01*
X84947481Y30422395D01*
X84903869Y30418100D01*
X83899531Y30418100D01*
X83855919Y30422395D01*
X83819884Y30433327D01*
X83786676Y30451077D01*
X83757566Y30474966D01*
X83733677Y30504076D01*
X83715927Y30537284D01*
X83704995Y30573319D01*
X83700700Y30616931D01*
X83700700Y33721269D01*
X83704995Y33764881D01*
X83715927Y33800916D01*
X83733677Y33834124D01*
X83757566Y33863234D01*
X83786676Y33887123D01*
X83819884Y33904873D01*
X83855919Y33915805D01*
X83899531Y33920100D01*
X84903869Y33920100D01*
X84947481Y33915805D01*
G37*
G36*
X109677300Y30841800D02*
G01*
X107975300Y30841800D01*
X107975300Y31743800D01*
X109677300Y31743800D01*
X109677300Y30841800D01*
G37*
G36*
X124177300Y30841800D02*
G01*
X122475300Y30841800D01*
X122475300Y31743800D01*
X124177300Y31743800D01*
X124177300Y30841800D01*
G37*
G36*
X43055192Y34005600D02*
G01*
X43238710Y33969096D01*
X43520974Y33852179D01*
X43775005Y33682441D01*
X43991041Y33466405D01*
X44160779Y33212374D01*
X44264874Y32961065D01*
X44277696Y32930109D01*
X44337125Y32631343D01*
X44337300Y32630460D01*
X44337300Y32324940D01*
X44277696Y32025290D01*
X44160779Y31743026D01*
X43991041Y31488995D01*
X43775005Y31272959D01*
X43520974Y31103221D01*
X43238710Y30986304D01*
X43088885Y30956502D01*
X42939061Y30926700D01*
X42633539Y30926700D01*
X42483715Y30956502D01*
X42333890Y30986304D01*
X42051626Y31103221D01*
X41797595Y31272959D01*
X41581559Y31488995D01*
X41411821Y31743026D01*
X41294904Y32025290D01*
X41235300Y32324940D01*
X41235300Y32630460D01*
X41235476Y32631343D01*
X41294904Y32930109D01*
X41307726Y32961065D01*
X41411821Y33212374D01*
X41581559Y33466405D01*
X41797595Y33682441D01*
X42051626Y33852179D01*
X42333890Y33969096D01*
X42517408Y34005600D01*
X42633539Y34028700D01*
X42939061Y34028700D01*
X43055192Y34005600D01*
G37*
G36*
X72578495Y33032754D02*
G01*
X72751566Y32961066D01*
X72751567Y32961065D01*
X72907327Y32856990D01*
X73039790Y32724527D01*
X73039791Y32724525D01*
X73143866Y32568766D01*
X73215554Y32395695D01*
X73252100Y32211967D01*
X73252100Y32024633D01*
X73215554Y31840905D01*
X73143866Y31667834D01*
X73116903Y31627481D01*
X73039790Y31512073D01*
X72907327Y31379610D01*
X72828918Y31327219D01*
X72751566Y31275534D01*
X72578495Y31203846D01*
X72394767Y31167300D01*
X72207433Y31167300D01*
X72023705Y31203846D01*
X71850634Y31275534D01*
X71773282Y31327219D01*
X71694873Y31379610D01*
X71562410Y31512073D01*
X71485297Y31627481D01*
X71458334Y31667834D01*
X71386646Y31840905D01*
X71350100Y32024633D01*
X71350100Y32211967D01*
X71386646Y32395695D01*
X71458334Y32568766D01*
X71562409Y32724525D01*
X71562410Y32724527D01*
X71694873Y32856990D01*
X71850633Y32961065D01*
X71850634Y32961066D01*
X72023705Y33032754D01*
X72207433Y33069300D01*
X72394767Y33069300D01*
X72578495Y33032754D01*
G37*
G36*
X70712100Y31167300D02*
G01*
X68810100Y31167300D01*
X68810100Y33069300D01*
X70712100Y33069300D01*
X70712100Y31167300D01*
G37*
G36*
X92943642Y33167919D02*
G01*
X93089414Y33107538D01*
X93089416Y33107537D01*
X93220608Y33019878D01*
X93332178Y32908308D01*
X93366467Y32856990D01*
X93419838Y32777114D01*
X93480219Y32631342D01*
X93511000Y32476593D01*
X93511000Y32318807D01*
X93480219Y32164058D01*
X93422739Y32025290D01*
X93419837Y32018284D01*
X93332178Y31887092D01*
X93220608Y31775522D01*
X93089416Y31687863D01*
X93089415Y31687862D01*
X93089414Y31687862D01*
X92943642Y31627481D01*
X92788893Y31596700D01*
X92631107Y31596700D01*
X92476358Y31627481D01*
X92330586Y31687862D01*
X92330585Y31687862D01*
X92330584Y31687863D01*
X92199392Y31775522D01*
X92087822Y31887092D01*
X92000163Y32018284D01*
X91997261Y32025290D01*
X91939781Y32164058D01*
X91909000Y32318807D01*
X91909000Y32476593D01*
X91939781Y32631342D01*
X92000162Y32777114D01*
X92053533Y32856990D01*
X92087822Y32908308D01*
X92199392Y33019878D01*
X92330584Y33107537D01*
X92330586Y33107538D01*
X92476358Y33167919D01*
X92631107Y33198700D01*
X92788893Y33198700D01*
X92943642Y33167919D01*
G37*
G36*
X95483642Y33167919D02*
G01*
X95629414Y33107538D01*
X95629416Y33107537D01*
X95760608Y33019878D01*
X95872178Y32908308D01*
X95906467Y32856990D01*
X95959838Y32777114D01*
X96020219Y32631342D01*
X96051000Y32476593D01*
X96051000Y32318807D01*
X96020219Y32164058D01*
X95962739Y32025290D01*
X95959837Y32018284D01*
X95872178Y31887092D01*
X95760608Y31775522D01*
X95629416Y31687863D01*
X95629415Y31687862D01*
X95629414Y31687862D01*
X95483642Y31627481D01*
X95328893Y31596700D01*
X95171107Y31596700D01*
X95016358Y31627481D01*
X94870586Y31687862D01*
X94870585Y31687862D01*
X94870584Y31687863D01*
X94739392Y31775522D01*
X94627822Y31887092D01*
X94540163Y32018284D01*
X94537261Y32025290D01*
X94479781Y32164058D01*
X94449000Y32318807D01*
X94449000Y32476593D01*
X94479781Y32631342D01*
X94540162Y32777114D01*
X94593533Y32856990D01*
X94627822Y32908308D01*
X94739392Y33019878D01*
X94870584Y33107537D01*
X94870586Y33107538D01*
X95016358Y33167919D01*
X95171107Y33198700D01*
X95328893Y33198700D01*
X95483642Y33167919D01*
G37*
G36*
X98023642Y33167919D02*
G01*
X98169414Y33107538D01*
X98169416Y33107537D01*
X98300608Y33019878D01*
X98412178Y32908308D01*
X98446467Y32856990D01*
X98499838Y32777114D01*
X98560219Y32631342D01*
X98591000Y32476593D01*
X98591000Y32318807D01*
X98560219Y32164058D01*
X98502739Y32025290D01*
X98499837Y32018284D01*
X98412178Y31887092D01*
X98300608Y31775522D01*
X98169416Y31687863D01*
X98169415Y31687862D01*
X98169414Y31687862D01*
X98023642Y31627481D01*
X97868893Y31596700D01*
X97711107Y31596700D01*
X97556358Y31627481D01*
X97410586Y31687862D01*
X97410585Y31687862D01*
X97410584Y31687863D01*
X97279392Y31775522D01*
X97167822Y31887092D01*
X97080163Y32018284D01*
X97077261Y32025290D01*
X97019781Y32164058D01*
X96989000Y32318807D01*
X96989000Y32476593D01*
X97019781Y32631342D01*
X97080162Y32777114D01*
X97133533Y32856990D01*
X97167822Y32908308D01*
X97279392Y33019878D01*
X97410584Y33107537D01*
X97410586Y33107538D01*
X97556358Y33167919D01*
X97711107Y33198700D01*
X97868893Y33198700D01*
X98023642Y33167919D01*
G37*
G36*
X100563642Y33167919D02*
G01*
X100709414Y33107538D01*
X100709416Y33107537D01*
X100840608Y33019878D01*
X100952178Y32908308D01*
X100986467Y32856990D01*
X101039838Y32777114D01*
X101100219Y32631342D01*
X101131000Y32476593D01*
X101131000Y32318807D01*
X101100219Y32164058D01*
X101042739Y32025290D01*
X101039837Y32018284D01*
X100952178Y31887092D01*
X100840608Y31775522D01*
X100709416Y31687863D01*
X100709415Y31687862D01*
X100709414Y31687862D01*
X100563642Y31627481D01*
X100408893Y31596700D01*
X100251107Y31596700D01*
X100096358Y31627481D01*
X99950586Y31687862D01*
X99950585Y31687862D01*
X99950584Y31687863D01*
X99819392Y31775522D01*
X99707822Y31887092D01*
X99620163Y32018284D01*
X99617261Y32025290D01*
X99559781Y32164058D01*
X99529000Y32318807D01*
X99529000Y32476593D01*
X99559781Y32631342D01*
X99620162Y32777114D01*
X99673533Y32856990D01*
X99707822Y32908308D01*
X99819392Y33019878D01*
X99950584Y33107537D01*
X99950586Y33107538D01*
X100096358Y33167919D01*
X100251107Y33198700D01*
X100408893Y33198700D01*
X100563642Y33167919D01*
G37*
G36*
X103103642Y33167919D02*
G01*
X103249414Y33107538D01*
X103249416Y33107537D01*
X103380608Y33019878D01*
X103492178Y32908308D01*
X103526467Y32856990D01*
X103579838Y32777114D01*
X103640219Y32631342D01*
X103671000Y32476593D01*
X103671000Y32318807D01*
X103640219Y32164058D01*
X103582739Y32025290D01*
X103579837Y32018284D01*
X103492178Y31887092D01*
X103380608Y31775522D01*
X103249416Y31687863D01*
X103249415Y31687862D01*
X103249414Y31687862D01*
X103103642Y31627481D01*
X102948893Y31596700D01*
X102791107Y31596700D01*
X102636358Y31627481D01*
X102490586Y31687862D01*
X102490585Y31687862D01*
X102490584Y31687863D01*
X102359392Y31775522D01*
X102247822Y31887092D01*
X102160163Y32018284D01*
X102157261Y32025290D01*
X102099781Y32164058D01*
X102069000Y32318807D01*
X102069000Y32476593D01*
X102099781Y32631342D01*
X102160162Y32777114D01*
X102213533Y32856990D01*
X102247822Y32908308D01*
X102359392Y33019878D01*
X102490584Y33107537D01*
X102490586Y33107538D01*
X102636358Y33167919D01*
X102791107Y33198700D01*
X102948893Y33198700D01*
X103103642Y33167919D01*
G37*
G36*
X105643642Y33167919D02*
G01*
X105789414Y33107538D01*
X105789416Y33107537D01*
X105920608Y33019878D01*
X106032178Y32908308D01*
X106066467Y32856990D01*
X106119838Y32777114D01*
X106180219Y32631342D01*
X106211000Y32476593D01*
X106211000Y32318807D01*
X106180219Y32164058D01*
X106122739Y32025290D01*
X106119837Y32018284D01*
X106032178Y31887092D01*
X105920608Y31775522D01*
X105789416Y31687863D01*
X105789415Y31687862D01*
X105789414Y31687862D01*
X105643642Y31627481D01*
X105488893Y31596700D01*
X105331107Y31596700D01*
X105176358Y31627481D01*
X105030586Y31687862D01*
X105030585Y31687862D01*
X105030584Y31687863D01*
X104899392Y31775522D01*
X104787822Y31887092D01*
X104700163Y32018284D01*
X104697261Y32025290D01*
X104639781Y32164058D01*
X104609000Y32318807D01*
X104609000Y32476593D01*
X104639781Y32631342D01*
X104700162Y32777114D01*
X104753533Y32856990D01*
X104787822Y32908308D01*
X104899392Y33019878D01*
X105030584Y33107537D01*
X105030586Y33107538D01*
X105176358Y33167919D01*
X105331107Y33198700D01*
X105488893Y33198700D01*
X105643642Y33167919D01*
G37*
G36*
X124177300Y32111800D02*
G01*
X122475300Y32111800D01*
X122475300Y33013800D01*
X124177300Y33013800D01*
X124177300Y32111800D01*
G37*
G36*
X109677300Y32111800D02*
G01*
X107975300Y32111800D01*
X107975300Y33013800D01*
X109677300Y33013800D01*
X109677300Y32111800D01*
G37*
G36*
X124177300Y33381800D02*
G01*
X122475300Y33381800D01*
X122475300Y34283800D01*
X124177300Y34283800D01*
X124177300Y33381800D01*
G37*
G36*
X109677300Y33381800D02*
G01*
X107975300Y33381800D01*
X107975300Y34283800D01*
X109677300Y34283800D01*
X109677300Y33381800D01*
G37*
G36*
X98292491Y35002715D02*
G01*
X98326469Y34992407D01*
X98357790Y34975666D01*
X98385239Y34953139D01*
X98407766Y34925690D01*
X98424507Y34894369D01*
X98434815Y34860391D01*
X98438900Y34818910D01*
X98438900Y34142690D01*
X98434815Y34101209D01*
X98424507Y34067231D01*
X98407766Y34035910D01*
X98385239Y34008461D01*
X98357790Y33985934D01*
X98326469Y33969193D01*
X98292491Y33958885D01*
X98251010Y33954800D01*
X97649790Y33954800D01*
X97608309Y33958885D01*
X97574331Y33969193D01*
X97543010Y33985934D01*
X97515561Y34008461D01*
X97493034Y34035910D01*
X97476293Y34067231D01*
X97465985Y34101209D01*
X97461900Y34142690D01*
X97461900Y34818910D01*
X97465985Y34860391D01*
X97476293Y34894369D01*
X97493034Y34925690D01*
X97515561Y34953139D01*
X97543010Y34975666D01*
X97574331Y34992407D01*
X97608309Y35002715D01*
X97649790Y35006800D01*
X98251010Y35006800D01*
X98292491Y35002715D01*
G37*
G36*
X99867491Y35002715D02*
G01*
X99901469Y34992407D01*
X99932790Y34975666D01*
X99960239Y34953139D01*
X99982766Y34925690D01*
X99999507Y34894369D01*
X100009815Y34860391D01*
X100013900Y34818910D01*
X100013900Y34142690D01*
X100009815Y34101209D01*
X99999507Y34067231D01*
X99982766Y34035910D01*
X99960239Y34008461D01*
X99932790Y33985934D01*
X99901469Y33969193D01*
X99867491Y33958885D01*
X99826010Y33954800D01*
X99224790Y33954800D01*
X99183309Y33958885D01*
X99149331Y33969193D01*
X99118010Y33985934D01*
X99090561Y34008461D01*
X99068034Y34035910D01*
X99051293Y34067231D01*
X99040985Y34101209D01*
X99036900Y34142690D01*
X99036900Y34818910D01*
X99040985Y34860391D01*
X99051293Y34894369D01*
X99068034Y34925690D01*
X99090561Y34953139D01*
X99118010Y34975666D01*
X99149331Y34992407D01*
X99183309Y35002715D01*
X99224790Y35006800D01*
X99826010Y35006800D01*
X99867491Y35002715D01*
G37*
G36*
X101340491Y35040815D02*
G01*
X101374469Y35030507D01*
X101405790Y35013766D01*
X101433239Y34991239D01*
X101455766Y34963790D01*
X101472507Y34932469D01*
X101482815Y34898491D01*
X101486900Y34857010D01*
X101486900Y34180790D01*
X101482815Y34139309D01*
X101472507Y34105331D01*
X101455766Y34074010D01*
X101433239Y34046561D01*
X101405790Y34024034D01*
X101374469Y34007293D01*
X101340491Y33996985D01*
X101299010Y33992900D01*
X100697790Y33992900D01*
X100656309Y33996985D01*
X100622331Y34007293D01*
X100591010Y34024034D01*
X100563561Y34046561D01*
X100541034Y34074010D01*
X100524293Y34105331D01*
X100513985Y34139309D01*
X100509900Y34180790D01*
X100509900Y34857010D01*
X100513985Y34898491D01*
X100524293Y34932469D01*
X100541034Y34963790D01*
X100563561Y34991239D01*
X100591010Y35013766D01*
X100622331Y35030507D01*
X100656309Y35040815D01*
X100697790Y35044900D01*
X101299010Y35044900D01*
X101340491Y35040815D01*
G37*
G36*
X102915491Y35040815D02*
G01*
X102949469Y35030507D01*
X102980790Y35013766D01*
X103008239Y34991239D01*
X103030766Y34963790D01*
X103047507Y34932469D01*
X103057815Y34898491D01*
X103061900Y34857010D01*
X103061900Y34180790D01*
X103057815Y34139309D01*
X103047507Y34105331D01*
X103030766Y34074010D01*
X103008239Y34046561D01*
X102980790Y34024034D01*
X102949469Y34007293D01*
X102915491Y33996985D01*
X102874010Y33992900D01*
X102272790Y33992900D01*
X102231309Y33996985D01*
X102197331Y34007293D01*
X102166010Y34024034D01*
X102138561Y34046561D01*
X102116034Y34074010D01*
X102099293Y34105331D01*
X102088985Y34139309D01*
X102084900Y34180790D01*
X102084900Y34857010D01*
X102088985Y34898491D01*
X102099293Y34932469D01*
X102116034Y34963790D01*
X102138561Y34991239D01*
X102166010Y35013766D01*
X102197331Y35030507D01*
X102231309Y35040815D01*
X102272790Y35044900D01*
X102874010Y35044900D01*
X102915491Y35040815D01*
G37*
G36*
X105976191Y35053515D02*
G01*
X106010169Y35043207D01*
X106041490Y35026466D01*
X106068939Y35003939D01*
X106091466Y34976490D01*
X106108207Y34945169D01*
X106118515Y34911191D01*
X106122600Y34869710D01*
X106122600Y34193490D01*
X106118515Y34152009D01*
X106108207Y34118031D01*
X106091466Y34086710D01*
X106068939Y34059261D01*
X106041490Y34036734D01*
X106010169Y34019993D01*
X105976191Y34009685D01*
X105934710Y34005600D01*
X105333490Y34005600D01*
X105292009Y34009685D01*
X105258031Y34019993D01*
X105226710Y34036734D01*
X105199261Y34059261D01*
X105176734Y34086710D01*
X105159993Y34118031D01*
X105149685Y34152009D01*
X105145600Y34193490D01*
X105145600Y34869710D01*
X105149685Y34911191D01*
X105159993Y34945169D01*
X105176734Y34976490D01*
X105199261Y35003939D01*
X105226710Y35026466D01*
X105258031Y35043207D01*
X105292009Y35053515D01*
X105333490Y35057600D01*
X105934710Y35057600D01*
X105976191Y35053515D01*
G37*
G36*
X104401191Y35053515D02*
G01*
X104435169Y35043207D01*
X104466490Y35026466D01*
X104493939Y35003939D01*
X104516466Y34976490D01*
X104533207Y34945169D01*
X104543515Y34911191D01*
X104547600Y34869710D01*
X104547600Y34193490D01*
X104543515Y34152009D01*
X104533207Y34118031D01*
X104516466Y34086710D01*
X104493939Y34059261D01*
X104466490Y34036734D01*
X104435169Y34019993D01*
X104401191Y34009685D01*
X104359710Y34005600D01*
X103758490Y34005600D01*
X103717009Y34009685D01*
X103683031Y34019993D01*
X103651710Y34036734D01*
X103624261Y34059261D01*
X103601734Y34086710D01*
X103584993Y34118031D01*
X103574685Y34152009D01*
X103570600Y34193490D01*
X103570600Y34869710D01*
X103574685Y34911191D01*
X103584993Y34945169D01*
X103601734Y34976490D01*
X103624261Y35003939D01*
X103651710Y35026466D01*
X103683031Y35043207D01*
X103717009Y35053515D01*
X103758490Y35057600D01*
X104359710Y35057600D01*
X104401191Y35053515D01*
G37*
G36*
X109677300Y34651800D02*
G01*
X107975300Y34651800D01*
X107975300Y35553800D01*
X109677300Y35553800D01*
X109677300Y34651800D01*
G37*
G36*
X124177300Y34651800D02*
G01*
X122475300Y34651800D01*
X122475300Y35553800D01*
X124177300Y35553800D01*
X124177300Y34651800D01*
G37*
G36*
X90519228Y35425636D02*
G01*
X90540309Y35419240D01*
X90559745Y35408852D01*
X90576776Y35394876D01*
X90590752Y35377845D01*
X90601140Y35358409D01*
X90607536Y35337328D01*
X90610300Y35309260D01*
X90610300Y34845540D01*
X90607536Y34817472D01*
X90601140Y34796391D01*
X90590752Y34776955D01*
X90576776Y34759924D01*
X90559745Y34745948D01*
X90540309Y34735560D01*
X90519228Y34729164D01*
X90491160Y34726400D01*
X88677440Y34726400D01*
X88649372Y34729164D01*
X88628291Y34735560D01*
X88608855Y34745948D01*
X88591824Y34759924D01*
X88577848Y34776955D01*
X88567460Y34796391D01*
X88561064Y34817472D01*
X88558300Y34845540D01*
X88558300Y35309260D01*
X88561064Y35337328D01*
X88567460Y35358409D01*
X88577848Y35377845D01*
X88591824Y35394876D01*
X88608855Y35408852D01*
X88628291Y35419240D01*
X88649372Y35425636D01*
X88677440Y35428400D01*
X90491160Y35428400D01*
X90519228Y35425636D01*
G37*
G36*
X85569228Y35425636D02*
G01*
X85590309Y35419240D01*
X85609745Y35408852D01*
X85626776Y35394876D01*
X85640752Y35377845D01*
X85651140Y35358409D01*
X85657536Y35337328D01*
X85660300Y35309260D01*
X85660300Y34845540D01*
X85657536Y34817472D01*
X85651140Y34796391D01*
X85640752Y34776955D01*
X85626776Y34759924D01*
X85609745Y34745948D01*
X85590309Y34735560D01*
X85569228Y34729164D01*
X85541160Y34726400D01*
X83727440Y34726400D01*
X83699372Y34729164D01*
X83678291Y34735560D01*
X83658855Y34745948D01*
X83641824Y34759924D01*
X83627848Y34776955D01*
X83617460Y34796391D01*
X83611064Y34817472D01*
X83608300Y34845540D01*
X83608300Y35309260D01*
X83611064Y35337328D01*
X83617460Y35358409D01*
X83627848Y35377845D01*
X83641824Y35394876D01*
X83658855Y35408852D01*
X83678291Y35419240D01*
X83699372Y35425636D01*
X83727440Y35428400D01*
X85541160Y35428400D01*
X85569228Y35425636D01*
G37*
G36*
X77497200Y34738900D02*
G01*
X71245200Y34738900D01*
X71245200Y36440900D01*
X77497200Y36440900D01*
X77497200Y34738900D01*
G37*
G36*
X61996197Y37481849D02*
G01*
X62029852Y37471639D01*
X62060865Y37455062D01*
X62088051Y37432751D01*
X62110362Y37405565D01*
X62126939Y37374552D01*
X62137149Y37340897D01*
X62141200Y37299762D01*
X62141200Y34970038D01*
X62137149Y34928903D01*
X62126939Y34895248D01*
X62110362Y34864235D01*
X62088051Y34837049D01*
X62060865Y34814738D01*
X62029852Y34798161D01*
X61996197Y34787951D01*
X61955062Y34783900D01*
X60625338Y34783900D01*
X60584203Y34787951D01*
X60550548Y34798161D01*
X60519535Y34814738D01*
X60492349Y34837049D01*
X60470038Y34864235D01*
X60453461Y34895248D01*
X60443251Y34928903D01*
X60439200Y34970038D01*
X60439200Y37299762D01*
X60443251Y37340897D01*
X60453461Y37374552D01*
X60470038Y37405565D01*
X60492349Y37432751D01*
X60519535Y37455062D01*
X60550548Y37471639D01*
X60584203Y37481849D01*
X60625338Y37485900D01*
X61955062Y37485900D01*
X61996197Y37481849D01*
G37*
G36*
X53349328Y35819336D02*
G01*
X53370409Y35812940D01*
X53389845Y35802552D01*
X53406876Y35788576D01*
X53420852Y35771545D01*
X53431240Y35752109D01*
X53437636Y35731028D01*
X53440400Y35702960D01*
X53440400Y35239240D01*
X53437636Y35211172D01*
X53431240Y35190091D01*
X53420852Y35170655D01*
X53406876Y35153624D01*
X53389845Y35139648D01*
X53370409Y35129260D01*
X53349328Y35122864D01*
X53321260Y35120100D01*
X51507540Y35120100D01*
X51479472Y35122864D01*
X51458391Y35129260D01*
X51438955Y35139648D01*
X51421924Y35153624D01*
X51407948Y35170655D01*
X51397560Y35190091D01*
X51391164Y35211172D01*
X51388400Y35239240D01*
X51388400Y35702960D01*
X51391164Y35731028D01*
X51397560Y35752109D01*
X51407948Y35771545D01*
X51421924Y35788576D01*
X51438955Y35802552D01*
X51458391Y35812940D01*
X51479472Y35819336D01*
X51507540Y35822100D01*
X53321260Y35822100D01*
X53349328Y35819336D01*
G37*
G36*
X58299328Y35819336D02*
G01*
X58320409Y35812940D01*
X58339845Y35802552D01*
X58356876Y35788576D01*
X58370852Y35771545D01*
X58381240Y35752109D01*
X58387636Y35731028D01*
X58390400Y35702960D01*
X58390400Y35239240D01*
X58387636Y35211172D01*
X58381240Y35190091D01*
X58370852Y35170655D01*
X58356876Y35153624D01*
X58339845Y35139648D01*
X58320409Y35129260D01*
X58299328Y35122864D01*
X58271260Y35120100D01*
X56457540Y35120100D01*
X56429472Y35122864D01*
X56408391Y35129260D01*
X56388955Y35139648D01*
X56371924Y35153624D01*
X56357948Y35170655D01*
X56347560Y35190091D01*
X56341164Y35211172D01*
X56338400Y35239240D01*
X56338400Y35702960D01*
X56341164Y35731028D01*
X56347560Y35752109D01*
X56357948Y35771545D01*
X56371924Y35788576D01*
X56388955Y35802552D01*
X56408391Y35812940D01*
X56429472Y35819336D01*
X56457540Y35822100D01*
X58271260Y35822100D01*
X58299328Y35819336D01*
G37*
G36*
X109677300Y35921800D02*
G01*
X107975300Y35921800D01*
X107975300Y36823800D01*
X109677300Y36823800D01*
X109677300Y35921800D01*
G37*
G36*
X124177300Y35921800D02*
G01*
X122475300Y35921800D01*
X122475300Y36823800D01*
X124177300Y36823800D01*
X124177300Y35921800D01*
G37*
G36*
X44337300Y35926700D02*
G01*
X41235300Y35926700D01*
X41235300Y39028700D01*
X44337300Y39028700D01*
X44337300Y35926700D01*
G37*
G36*
X85569228Y36695636D02*
G01*
X85590309Y36689240D01*
X85609745Y36678852D01*
X85626776Y36664876D01*
X85640752Y36647845D01*
X85651140Y36628409D01*
X85657536Y36607328D01*
X85660300Y36579260D01*
X85660300Y36115540D01*
X85657536Y36087472D01*
X85651140Y36066391D01*
X85640752Y36046955D01*
X85626776Y36029924D01*
X85609745Y36015948D01*
X85590309Y36005560D01*
X85569228Y35999164D01*
X85541160Y35996400D01*
X83727440Y35996400D01*
X83699372Y35999164D01*
X83678291Y36005560D01*
X83658855Y36015948D01*
X83641824Y36029924D01*
X83627848Y36046955D01*
X83617460Y36066391D01*
X83611064Y36087472D01*
X83608300Y36115540D01*
X83608300Y36579260D01*
X83611064Y36607328D01*
X83617460Y36628409D01*
X83627848Y36647845D01*
X83641824Y36664876D01*
X83658855Y36678852D01*
X83678291Y36689240D01*
X83699372Y36695636D01*
X83727440Y36698400D01*
X85541160Y36698400D01*
X85569228Y36695636D01*
G37*
G36*
X90519228Y36695636D02*
G01*
X90540309Y36689240D01*
X90559745Y36678852D01*
X90576776Y36664876D01*
X90590752Y36647845D01*
X90601140Y36628409D01*
X90607536Y36607328D01*
X90610300Y36579260D01*
X90610300Y36115540D01*
X90607536Y36087472D01*
X90601140Y36066391D01*
X90590752Y36046955D01*
X90576776Y36029924D01*
X90559745Y36015948D01*
X90540309Y36005560D01*
X90519228Y35999164D01*
X90491160Y35996400D01*
X88677440Y35996400D01*
X88649372Y35999164D01*
X88628291Y36005560D01*
X88608855Y36015948D01*
X88591824Y36029924D01*
X88577848Y36046955D01*
X88567460Y36066391D01*
X88561064Y36087472D01*
X88558300Y36115540D01*
X88558300Y36579260D01*
X88561064Y36607328D01*
X88567460Y36628409D01*
X88577848Y36647845D01*
X88591824Y36664876D01*
X88608855Y36678852D01*
X88628291Y36689240D01*
X88649372Y36695636D01*
X88677440Y36698400D01*
X90491160Y36698400D01*
X90519228Y36695636D01*
G37*
G36*
X53349328Y37089336D02*
G01*
X53370409Y37082940D01*
X53389845Y37072552D01*
X53406876Y37058576D01*
X53420852Y37041545D01*
X53431240Y37022109D01*
X53437636Y37001028D01*
X53440400Y36972960D01*
X53440400Y36509240D01*
X53437636Y36481172D01*
X53431240Y36460091D01*
X53420852Y36440655D01*
X53406876Y36423624D01*
X53389845Y36409648D01*
X53370409Y36399260D01*
X53349328Y36392864D01*
X53321260Y36390100D01*
X51507540Y36390100D01*
X51479472Y36392864D01*
X51458391Y36399260D01*
X51438955Y36409648D01*
X51421924Y36423624D01*
X51407948Y36440655D01*
X51397560Y36460091D01*
X51391164Y36481172D01*
X51388400Y36509240D01*
X51388400Y36972960D01*
X51391164Y37001028D01*
X51397560Y37022109D01*
X51407948Y37041545D01*
X51421924Y37058576D01*
X51438955Y37072552D01*
X51458391Y37082940D01*
X51479472Y37089336D01*
X51507540Y37092100D01*
X53321260Y37092100D01*
X53349328Y37089336D01*
G37*
G36*
X58299328Y37089336D02*
G01*
X58320409Y37082940D01*
X58339845Y37072552D01*
X58356876Y37058576D01*
X58370852Y37041545D01*
X58381240Y37022109D01*
X58387636Y37001028D01*
X58390400Y36972960D01*
X58390400Y36509240D01*
X58387636Y36481172D01*
X58381240Y36460091D01*
X58370852Y36440655D01*
X58356876Y36423624D01*
X58339845Y36409648D01*
X58320409Y36399260D01*
X58299328Y36392864D01*
X58271260Y36390100D01*
X56457540Y36390100D01*
X56429472Y36392864D01*
X56408391Y36399260D01*
X56388955Y36409648D01*
X56371924Y36423624D01*
X56357948Y36440655D01*
X56347560Y36460091D01*
X56341164Y36481172D01*
X56338400Y36509240D01*
X56338400Y36972960D01*
X56341164Y37001028D01*
X56347560Y37022109D01*
X56357948Y37041545D01*
X56371924Y37058576D01*
X56388955Y37072552D01*
X56408391Y37082940D01*
X56429472Y37089336D01*
X56457540Y37092100D01*
X58271260Y37092100D01*
X58299328Y37089336D01*
G37*
G36*
X79472200Y36713900D02*
G01*
X77770200Y36713900D01*
X77770200Y42965900D01*
X79472200Y42965900D01*
X79472200Y36713900D01*
G37*
G36*
X70972200Y36713900D02*
G01*
X69270200Y36713900D01*
X69270200Y42965900D01*
X70972200Y42965900D01*
X70972200Y36713900D01*
G37*
G36*
X65895921Y40484026D02*
G01*
X65996195Y40442491D01*
X65996196Y40442490D01*
X66086442Y40382190D01*
X66163190Y40305442D01*
X66163191Y40305440D01*
X66223491Y40215195D01*
X66254716Y40139811D01*
X66266267Y40118200D01*
X66281812Y40099259D01*
X66300754Y40083713D01*
X66322365Y40072162D01*
X66345814Y40065049D01*
X66370200Y40062647D01*
X66394586Y40065049D01*
X66418035Y40072162D01*
X66439646Y40083713D01*
X66458587Y40099258D01*
X66474133Y40118200D01*
X66485684Y40139811D01*
X66516909Y40215195D01*
X66577209Y40305440D01*
X66577210Y40305442D01*
X66653958Y40382190D01*
X66744204Y40442490D01*
X66744205Y40442491D01*
X66844479Y40484026D01*
X66950930Y40505200D01*
X67059470Y40505200D01*
X67165921Y40484026D01*
X67266195Y40442491D01*
X67266196Y40442490D01*
X67356442Y40382190D01*
X67433190Y40305442D01*
X67433191Y40305440D01*
X67493491Y40215195D01*
X67535026Y40114921D01*
X67556200Y40008470D01*
X67556200Y39899930D01*
X67535026Y39793479D01*
X67493491Y39693205D01*
X67493490Y39693204D01*
X67433190Y39602958D01*
X67356442Y39526210D01*
X67336612Y39512960D01*
X67266195Y39465909D01*
X67190811Y39434684D01*
X67169200Y39423133D01*
X67150259Y39407588D01*
X67134713Y39388646D01*
X67123162Y39367035D01*
X67116049Y39343586D01*
X67113647Y39319200D01*
X67116049Y39294814D01*
X67123162Y39271365D01*
X67134713Y39249754D01*
X67150258Y39230813D01*
X67169200Y39215267D01*
X67190811Y39203716D01*
X67266195Y39172491D01*
X67266196Y39172490D01*
X67356442Y39112190D01*
X67433190Y39035442D01*
X67433191Y39035440D01*
X67493491Y38945195D01*
X67535026Y38844921D01*
X67556200Y38738470D01*
X67556200Y38629930D01*
X67535026Y38523479D01*
X67493491Y38423205D01*
X67469935Y38387951D01*
X67433190Y38332958D01*
X67356442Y38256210D01*
X67336612Y38242960D01*
X67263536Y38194132D01*
X67244594Y38178586D01*
X67229049Y38159644D01*
X67217498Y38138033D01*
X67210385Y38114585D01*
X67207983Y38090198D01*
X67210385Y38065812D01*
X67217498Y38042363D01*
X67229049Y38020753D01*
X67244595Y38001811D01*
X67263537Y37986266D01*
X67285148Y37974715D01*
X67308596Y37967602D01*
X67332982Y37965200D01*
X67556200Y37965200D01*
X67556200Y36863200D01*
X66454200Y36863200D01*
X66454200Y37086418D01*
X66451798Y37110804D01*
X66444685Y37134253D01*
X66433134Y37155864D01*
X66417589Y37174806D01*
X66398647Y37190351D01*
X66377036Y37201902D01*
X66353587Y37209015D01*
X66329201Y37211417D01*
X66304815Y37209015D01*
X66281366Y37201902D01*
X66259755Y37190351D01*
X66240813Y37174806D01*
X66225268Y37155864D01*
X66184188Y37094384D01*
X66163190Y37062958D01*
X66086442Y36986210D01*
X66066612Y36972960D01*
X65996195Y36925909D01*
X65895921Y36884374D01*
X65789470Y36863200D01*
X65680930Y36863200D01*
X65574479Y36884374D01*
X65474205Y36925909D01*
X65403788Y36972960D01*
X65383958Y36986210D01*
X65307210Y37062958D01*
X65275241Y37110804D01*
X65246909Y37153205D01*
X65205374Y37253479D01*
X65184200Y37359930D01*
X65184200Y37468470D01*
X65205374Y37574921D01*
X65246909Y37675195D01*
X65307209Y37765440D01*
X65307210Y37765442D01*
X65383958Y37842190D01*
X65474204Y37902490D01*
X65474205Y37902491D01*
X65549589Y37933716D01*
X65571200Y37945267D01*
X65590141Y37960812D01*
X65605687Y37979754D01*
X65617238Y38001365D01*
X65624351Y38024814D01*
X65626753Y38049200D01*
X65843647Y38049200D01*
X65846049Y38024814D01*
X65853162Y38001365D01*
X65864713Y37979754D01*
X65880258Y37960813D01*
X65899200Y37945267D01*
X65920811Y37933716D01*
X65996195Y37902491D01*
X65996196Y37902490D01*
X66086442Y37842190D01*
X66163190Y37765442D01*
X66163191Y37765440D01*
X66225268Y37672536D01*
X66240814Y37653594D01*
X66259756Y37638049D01*
X66281367Y37626498D01*
X66304815Y37619385D01*
X66329202Y37616983D01*
X66353588Y37619385D01*
X66377037Y37626498D01*
X66398647Y37638049D01*
X66417589Y37653595D01*
X66433134Y37672537D01*
X66444685Y37694148D01*
X66451798Y37717596D01*
X66454200Y37741982D01*
X66454200Y37965200D01*
X66677418Y37965200D01*
X66701804Y37967602D01*
X66725253Y37974715D01*
X66746864Y37986266D01*
X66765806Y38001811D01*
X66781351Y38020753D01*
X66792902Y38042364D01*
X66800015Y38065813D01*
X66802417Y38090199D01*
X66800015Y38114585D01*
X66792902Y38138034D01*
X66781351Y38159645D01*
X66765806Y38178587D01*
X66746864Y38194132D01*
X66673788Y38242960D01*
X66653958Y38256210D01*
X66577210Y38332958D01*
X66540465Y38387951D01*
X66516909Y38423205D01*
X66485684Y38498589D01*
X66474133Y38520200D01*
X66458588Y38539141D01*
X66439646Y38554687D01*
X66418035Y38566238D01*
X66394586Y38573351D01*
X66370200Y38575753D01*
X66345814Y38573351D01*
X66322365Y38566238D01*
X66300754Y38554687D01*
X66281813Y38539142D01*
X66266267Y38520200D01*
X66254716Y38498589D01*
X66223491Y38423205D01*
X66199935Y38387951D01*
X66163190Y38332958D01*
X66086442Y38256210D01*
X66066612Y38242960D01*
X65996195Y38195909D01*
X65920811Y38164684D01*
X65899200Y38153133D01*
X65880259Y38137588D01*
X65864713Y38118646D01*
X65853162Y38097035D01*
X65846049Y38073586D01*
X65843647Y38049200D01*
X65626753Y38049200D01*
X65624351Y38073586D01*
X65617238Y38097035D01*
X65605687Y38118646D01*
X65590142Y38137587D01*
X65571200Y38153133D01*
X65549589Y38164684D01*
X65474205Y38195909D01*
X65403788Y38242960D01*
X65383958Y38256210D01*
X65307210Y38332958D01*
X65270465Y38387951D01*
X65246909Y38423205D01*
X65205374Y38523479D01*
X65184200Y38629930D01*
X65184200Y38738470D01*
X65205374Y38844921D01*
X65246909Y38945195D01*
X65307209Y39035440D01*
X65307210Y39035442D01*
X65383958Y39112190D01*
X65474204Y39172490D01*
X65474205Y39172491D01*
X65549589Y39203716D01*
X65571200Y39215267D01*
X65590141Y39230812D01*
X65605687Y39249754D01*
X65617238Y39271365D01*
X65624351Y39294814D01*
X65626753Y39319200D01*
X65843647Y39319200D01*
X65846049Y39294814D01*
X65853162Y39271365D01*
X65864713Y39249754D01*
X65880258Y39230813D01*
X65899200Y39215267D01*
X65920811Y39203716D01*
X65996195Y39172491D01*
X65996196Y39172490D01*
X66086442Y39112190D01*
X66163190Y39035442D01*
X66163191Y39035440D01*
X66223491Y38945195D01*
X66254716Y38869811D01*
X66266267Y38848200D01*
X66281812Y38829259D01*
X66300754Y38813713D01*
X66322365Y38802162D01*
X66345814Y38795049D01*
X66370200Y38792647D01*
X66394586Y38795049D01*
X66418035Y38802162D01*
X66439646Y38813713D01*
X66458587Y38829258D01*
X66474133Y38848200D01*
X66485684Y38869811D01*
X66516909Y38945195D01*
X66577209Y39035440D01*
X66577210Y39035442D01*
X66653958Y39112190D01*
X66744204Y39172490D01*
X66744205Y39172491D01*
X66819589Y39203716D01*
X66841200Y39215267D01*
X66860141Y39230812D01*
X66875687Y39249754D01*
X66887238Y39271365D01*
X66894351Y39294814D01*
X66896753Y39319200D01*
X66894351Y39343586D01*
X66887238Y39367035D01*
X66875687Y39388646D01*
X66860142Y39407587D01*
X66841200Y39423133D01*
X66819589Y39434684D01*
X66744205Y39465909D01*
X66673788Y39512960D01*
X66653958Y39526210D01*
X66577210Y39602958D01*
X66516910Y39693204D01*
X66516909Y39693205D01*
X66485684Y39768589D01*
X66474133Y39790200D01*
X66458588Y39809141D01*
X66439646Y39824687D01*
X66418035Y39836238D01*
X66394586Y39843351D01*
X66370200Y39845753D01*
X66345814Y39843351D01*
X66322365Y39836238D01*
X66300754Y39824687D01*
X66281813Y39809142D01*
X66266267Y39790200D01*
X66254716Y39768589D01*
X66223491Y39693205D01*
X66223490Y39693204D01*
X66163190Y39602958D01*
X66086442Y39526210D01*
X66066612Y39512960D01*
X65996195Y39465909D01*
X65920811Y39434684D01*
X65899200Y39423133D01*
X65880259Y39407588D01*
X65864713Y39388646D01*
X65853162Y39367035D01*
X65846049Y39343586D01*
X65843647Y39319200D01*
X65626753Y39319200D01*
X65624351Y39343586D01*
X65617238Y39367035D01*
X65605687Y39388646D01*
X65590142Y39407587D01*
X65571200Y39423133D01*
X65549589Y39434684D01*
X65474205Y39465909D01*
X65403788Y39512960D01*
X65383958Y39526210D01*
X65307210Y39602958D01*
X65246910Y39693204D01*
X65246909Y39693205D01*
X65205374Y39793479D01*
X65184200Y39899930D01*
X65184200Y40008470D01*
X65205374Y40114921D01*
X65246909Y40215195D01*
X65307209Y40305440D01*
X65307210Y40305442D01*
X65383958Y40382190D01*
X65474204Y40442490D01*
X65474205Y40442491D01*
X65574479Y40484026D01*
X65680930Y40505200D01*
X65789470Y40505200D01*
X65895921Y40484026D01*
G37*
G36*
X93796000Y36881600D02*
G01*
X92894000Y36881600D01*
X92894000Y37883600D01*
X93796000Y37883600D01*
X93796000Y36881600D01*
G37*
G36*
X97834600Y36894300D02*
G01*
X96932600Y36894300D01*
X96932600Y37896300D01*
X97834600Y37896300D01*
X97834600Y36894300D01*
G37*
G36*
X101911300Y36907000D02*
G01*
X101009300Y36907000D01*
X101009300Y37909000D01*
X101911300Y37909000D01*
X101911300Y36907000D01*
G37*
G36*
X104885600Y36919700D02*
G01*
X103983600Y36919700D01*
X103983600Y37921700D01*
X104885600Y37921700D01*
X104885600Y36919700D01*
G37*
G36*
X106785600Y36919700D02*
G01*
X105883600Y36919700D01*
X105883600Y37921700D01*
X106785600Y37921700D01*
X106785600Y36919700D01*
G37*
G36*
X109677300Y37191800D02*
G01*
X107975300Y37191800D01*
X107975300Y38093800D01*
X109677300Y38093800D01*
X109677300Y37191800D01*
G37*
G36*
X124177300Y37191800D02*
G01*
X122475300Y37191800D01*
X122475300Y38093800D01*
X124177300Y38093800D01*
X124177300Y37191800D01*
G37*
G36*
X90519228Y37965636D02*
G01*
X90540309Y37959240D01*
X90559745Y37948852D01*
X90576776Y37934876D01*
X90590752Y37917845D01*
X90601140Y37898409D01*
X90607536Y37877328D01*
X90610300Y37849260D01*
X90610300Y37385540D01*
X90607536Y37357472D01*
X90601140Y37336391D01*
X90590752Y37316955D01*
X90576776Y37299924D01*
X90559745Y37285948D01*
X90540309Y37275560D01*
X90519228Y37269164D01*
X90491160Y37266400D01*
X88677440Y37266400D01*
X88649372Y37269164D01*
X88628291Y37275560D01*
X88608855Y37285948D01*
X88591824Y37299924D01*
X88577848Y37316955D01*
X88567460Y37336391D01*
X88561064Y37357472D01*
X88558300Y37385540D01*
X88558300Y37849260D01*
X88561064Y37877328D01*
X88567460Y37898409D01*
X88577848Y37917845D01*
X88591824Y37934876D01*
X88608855Y37948852D01*
X88628291Y37959240D01*
X88649372Y37965636D01*
X88677440Y37968400D01*
X90491160Y37968400D01*
X90519228Y37965636D01*
G37*
G36*
X85569228Y37965636D02*
G01*
X85590309Y37959240D01*
X85609745Y37948852D01*
X85626776Y37934876D01*
X85640752Y37917845D01*
X85651140Y37898409D01*
X85657536Y37877328D01*
X85660300Y37849260D01*
X85660300Y37385540D01*
X85657536Y37357472D01*
X85651140Y37336391D01*
X85640752Y37316955D01*
X85626776Y37299924D01*
X85609745Y37285948D01*
X85590309Y37275560D01*
X85569228Y37269164D01*
X85541160Y37266400D01*
X83727440Y37266400D01*
X83699372Y37269164D01*
X83678291Y37275560D01*
X83658855Y37285948D01*
X83641824Y37299924D01*
X83627848Y37316955D01*
X83617460Y37336391D01*
X83611064Y37357472D01*
X83608300Y37385540D01*
X83608300Y37849260D01*
X83611064Y37877328D01*
X83617460Y37898409D01*
X83627848Y37917845D01*
X83641824Y37934876D01*
X83658855Y37948852D01*
X83678291Y37959240D01*
X83699372Y37965636D01*
X83727440Y37968400D01*
X85541160Y37968400D01*
X85569228Y37965636D01*
G37*
G36*
X58299328Y38359336D02*
G01*
X58320409Y38352940D01*
X58339845Y38342552D01*
X58356876Y38328576D01*
X58370852Y38311545D01*
X58381240Y38292109D01*
X58387636Y38271028D01*
X58390400Y38242960D01*
X58390400Y37779240D01*
X58387636Y37751172D01*
X58381240Y37730091D01*
X58370852Y37710655D01*
X58356876Y37693624D01*
X58339845Y37679648D01*
X58320409Y37669260D01*
X58299328Y37662864D01*
X58271260Y37660100D01*
X56457540Y37660100D01*
X56429472Y37662864D01*
X56408391Y37669260D01*
X56388955Y37679648D01*
X56371924Y37693624D01*
X56357948Y37710655D01*
X56347560Y37730091D01*
X56341164Y37751172D01*
X56338400Y37779240D01*
X56338400Y38242960D01*
X56341164Y38271028D01*
X56347560Y38292109D01*
X56357948Y38311545D01*
X56371924Y38328576D01*
X56388955Y38342552D01*
X56408391Y38352940D01*
X56429472Y38359336D01*
X56457540Y38362100D01*
X58271260Y38362100D01*
X58299328Y38359336D01*
G37*
G36*
X53349328Y38359336D02*
G01*
X53370409Y38352940D01*
X53389845Y38342552D01*
X53406876Y38328576D01*
X53420852Y38311545D01*
X53431240Y38292109D01*
X53437636Y38271028D01*
X53440400Y38242960D01*
X53440400Y37779240D01*
X53437636Y37751172D01*
X53431240Y37730091D01*
X53420852Y37710655D01*
X53406876Y37693624D01*
X53389845Y37679648D01*
X53370409Y37669260D01*
X53349328Y37662864D01*
X53321260Y37660100D01*
X51507540Y37660100D01*
X51479472Y37662864D01*
X51458391Y37669260D01*
X51438955Y37679648D01*
X51421924Y37693624D01*
X51407948Y37710655D01*
X51397560Y37730091D01*
X51391164Y37751172D01*
X51388400Y37779240D01*
X51388400Y38242960D01*
X51391164Y38271028D01*
X51397560Y38292109D01*
X51407948Y38311545D01*
X51421924Y38328576D01*
X51438955Y38342552D01*
X51458391Y38352940D01*
X51479472Y38359336D01*
X51507540Y38362100D01*
X53321260Y38362100D01*
X53349328Y38359336D01*
G37*
G36*
X61996197Y41081849D02*
G01*
X62029852Y41071639D01*
X62060865Y41055062D01*
X62088051Y41032751D01*
X62110362Y41005565D01*
X62126939Y40974552D01*
X62137149Y40940897D01*
X62141200Y40899762D01*
X62141200Y38570038D01*
X62137149Y38528903D01*
X62126939Y38495248D01*
X62110362Y38464235D01*
X62088051Y38437049D01*
X62060865Y38414738D01*
X62029852Y38398161D01*
X61996197Y38387951D01*
X61955062Y38383900D01*
X60625338Y38383900D01*
X60584203Y38387951D01*
X60550548Y38398161D01*
X60519535Y38414738D01*
X60492349Y38437049D01*
X60470038Y38464235D01*
X60453461Y38495248D01*
X60443251Y38528903D01*
X60439200Y38570038D01*
X60439200Y40899762D01*
X60443251Y40940897D01*
X60453461Y40974552D01*
X60470038Y41005565D01*
X60492349Y41032751D01*
X60519535Y41055062D01*
X60550548Y41071639D01*
X60584203Y41081849D01*
X60625338Y41085900D01*
X61955062Y41085900D01*
X61996197Y41081849D01*
G37*
G36*
X124177300Y38461800D02*
G01*
X122475300Y38461800D01*
X122475300Y39363800D01*
X124177300Y39363800D01*
X124177300Y38461800D01*
G37*
G36*
X109677300Y38461800D02*
G01*
X107975300Y38461800D01*
X107975300Y39363800D01*
X109677300Y39363800D01*
X109677300Y38461800D01*
G37*
G36*
X90519228Y39235636D02*
G01*
X90540309Y39229240D01*
X90559745Y39218852D01*
X90576776Y39204876D01*
X90590752Y39187845D01*
X90601140Y39168409D01*
X90607536Y39147328D01*
X90610300Y39119260D01*
X90610300Y38655540D01*
X90607536Y38627472D01*
X90601140Y38606391D01*
X90590752Y38586955D01*
X90576776Y38569924D01*
X90559745Y38555948D01*
X90540309Y38545560D01*
X90519228Y38539164D01*
X90491160Y38536400D01*
X88677440Y38536400D01*
X88649372Y38539164D01*
X88628291Y38545560D01*
X88608855Y38555948D01*
X88591824Y38569924D01*
X88577848Y38586955D01*
X88567460Y38606391D01*
X88561064Y38627472D01*
X88558300Y38655540D01*
X88558300Y39119260D01*
X88561064Y39147328D01*
X88567460Y39168409D01*
X88577848Y39187845D01*
X88591824Y39204876D01*
X88608855Y39218852D01*
X88628291Y39229240D01*
X88649372Y39235636D01*
X88677440Y39238400D01*
X90491160Y39238400D01*
X90519228Y39235636D01*
G37*
G36*
X85569228Y39235636D02*
G01*
X85590309Y39229240D01*
X85609745Y39218852D01*
X85626776Y39204876D01*
X85640752Y39187845D01*
X85651140Y39168409D01*
X85657536Y39147328D01*
X85660300Y39119260D01*
X85660300Y38655540D01*
X85657536Y38627472D01*
X85651140Y38606391D01*
X85640752Y38586955D01*
X85626776Y38569924D01*
X85609745Y38555948D01*
X85590309Y38545560D01*
X85569228Y38539164D01*
X85541160Y38536400D01*
X83727440Y38536400D01*
X83699372Y38539164D01*
X83678291Y38545560D01*
X83658855Y38555948D01*
X83641824Y38569924D01*
X83627848Y38586955D01*
X83617460Y38606391D01*
X83611064Y38627472D01*
X83608300Y38655540D01*
X83608300Y39119260D01*
X83611064Y39147328D01*
X83617460Y39168409D01*
X83627848Y39187845D01*
X83641824Y39204876D01*
X83658855Y39218852D01*
X83678291Y39229240D01*
X83699372Y39235636D01*
X83727440Y39238400D01*
X85541160Y39238400D01*
X85569228Y39235636D01*
G37*
G36*
X53349328Y39629336D02*
G01*
X53370409Y39622940D01*
X53389845Y39612552D01*
X53406876Y39598576D01*
X53420852Y39581545D01*
X53431240Y39562109D01*
X53437636Y39541028D01*
X53440400Y39512960D01*
X53440400Y39049240D01*
X53437636Y39021172D01*
X53431240Y39000091D01*
X53420852Y38980655D01*
X53406876Y38963624D01*
X53389845Y38949648D01*
X53370409Y38939260D01*
X53349328Y38932864D01*
X53321260Y38930100D01*
X51507540Y38930100D01*
X51479472Y38932864D01*
X51458391Y38939260D01*
X51438955Y38949648D01*
X51421924Y38963624D01*
X51407948Y38980655D01*
X51397560Y39000091D01*
X51391164Y39021172D01*
X51388400Y39049240D01*
X51388400Y39512960D01*
X51391164Y39541028D01*
X51397560Y39562109D01*
X51407948Y39581545D01*
X51421924Y39598576D01*
X51438955Y39612552D01*
X51458391Y39622940D01*
X51479472Y39629336D01*
X51507540Y39632100D01*
X53321260Y39632100D01*
X53349328Y39629336D01*
G37*
G36*
X58299328Y39629336D02*
G01*
X58320409Y39622940D01*
X58339845Y39612552D01*
X58356876Y39598576D01*
X58370852Y39581545D01*
X58381240Y39562109D01*
X58387636Y39541028D01*
X58390400Y39512960D01*
X58390400Y39049240D01*
X58387636Y39021172D01*
X58381240Y39000091D01*
X58370852Y38980655D01*
X58356876Y38963624D01*
X58339845Y38949648D01*
X58320409Y38939260D01*
X58299328Y38932864D01*
X58271260Y38930100D01*
X56457540Y38930100D01*
X56429472Y38932864D01*
X56408391Y38939260D01*
X56388955Y38949648D01*
X56371924Y38963624D01*
X56357948Y38980655D01*
X56347560Y39000091D01*
X56341164Y39021172D01*
X56338400Y39049240D01*
X56338400Y39512960D01*
X56341164Y39541028D01*
X56347560Y39562109D01*
X56357948Y39581545D01*
X56371924Y39598576D01*
X56388955Y39612552D01*
X56408391Y39622940D01*
X56429472Y39629336D01*
X56457540Y39632100D01*
X58271260Y39632100D01*
X58299328Y39629336D01*
G37*
G36*
X92846000Y39281600D02*
G01*
X91944000Y39281600D01*
X91944000Y40283600D01*
X92846000Y40283600D01*
X92846000Y39281600D01*
G37*
G36*
X94746000Y39281600D02*
G01*
X93844000Y39281600D01*
X93844000Y40283600D01*
X94746000Y40283600D01*
X94746000Y39281600D01*
G37*
G36*
X98784600Y39294300D02*
G01*
X97882600Y39294300D01*
X97882600Y40296300D01*
X98784600Y40296300D01*
X98784600Y39294300D01*
G37*
G36*
X96884600Y39294300D02*
G01*
X95982600Y39294300D01*
X95982600Y40296300D01*
X96884600Y40296300D01*
X96884600Y39294300D01*
G37*
G36*
X102861300Y39307000D02*
G01*
X101959300Y39307000D01*
X101959300Y40309000D01*
X102861300Y40309000D01*
X102861300Y39307000D01*
G37*
G36*
X100961300Y39307000D02*
G01*
X100059300Y39307000D01*
X100059300Y40309000D01*
X100961300Y40309000D01*
X100961300Y39307000D01*
G37*
G36*
X105835600Y39319700D02*
G01*
X104933600Y39319700D01*
X104933600Y40321700D01*
X105835600Y40321700D01*
X105835600Y39319700D01*
G37*
G36*
X109677300Y39731800D02*
G01*
X107975300Y39731800D01*
X107975300Y40633800D01*
X109677300Y40633800D01*
X109677300Y39731800D01*
G37*
G36*
X124177300Y39731800D02*
G01*
X122475300Y39731800D01*
X122475300Y40633800D01*
X124177300Y40633800D01*
X124177300Y39731800D01*
G37*
G36*
X90519228Y40505636D02*
G01*
X90540309Y40499240D01*
X90559745Y40488852D01*
X90576776Y40474876D01*
X90590752Y40457845D01*
X90601140Y40438409D01*
X90607536Y40417328D01*
X90610300Y40389260D01*
X90610300Y39925540D01*
X90607536Y39897472D01*
X90601140Y39876391D01*
X90590752Y39856955D01*
X90576776Y39839924D01*
X90559745Y39825948D01*
X90540309Y39815560D01*
X90519228Y39809164D01*
X90491160Y39806400D01*
X88677440Y39806400D01*
X88649372Y39809164D01*
X88628291Y39815560D01*
X88608855Y39825948D01*
X88591824Y39839924D01*
X88577848Y39856955D01*
X88567460Y39876391D01*
X88561064Y39897472D01*
X88558300Y39925540D01*
X88558300Y40389260D01*
X88561064Y40417328D01*
X88567460Y40438409D01*
X88577848Y40457845D01*
X88591824Y40474876D01*
X88608855Y40488852D01*
X88628291Y40499240D01*
X88649372Y40505636D01*
X88677440Y40508400D01*
X90491160Y40508400D01*
X90519228Y40505636D01*
G37*
G36*
X85569228Y40505636D02*
G01*
X85590309Y40499240D01*
X85609745Y40488852D01*
X85626776Y40474876D01*
X85640752Y40457845D01*
X85651140Y40438409D01*
X85657536Y40417328D01*
X85660300Y40389260D01*
X85660300Y39925540D01*
X85657536Y39897472D01*
X85651140Y39876391D01*
X85640752Y39856955D01*
X85626776Y39839924D01*
X85609745Y39825948D01*
X85590309Y39815560D01*
X85569228Y39809164D01*
X85541160Y39806400D01*
X83727440Y39806400D01*
X83699372Y39809164D01*
X83678291Y39815560D01*
X83658855Y39825948D01*
X83641824Y39839924D01*
X83627848Y39856955D01*
X83617460Y39876391D01*
X83611064Y39897472D01*
X83608300Y39925540D01*
X83608300Y40389260D01*
X83611064Y40417328D01*
X83617460Y40438409D01*
X83627848Y40457845D01*
X83641824Y40474876D01*
X83658855Y40488852D01*
X83678291Y40499240D01*
X83699372Y40505636D01*
X83727440Y40508400D01*
X85541160Y40508400D01*
X85569228Y40505636D01*
G37*
G36*
X53433374Y42116135D02*
G01*
X53471067Y42104701D01*
X53505803Y42086134D01*
X53536248Y42061148D01*
X53561234Y42030703D01*
X53579801Y41995967D01*
X53591235Y41958274D01*
X53595700Y41912939D01*
X53595700Y41076261D01*
X53591235Y41030926D01*
X53579801Y40993233D01*
X53561234Y40958497D01*
X53536248Y40928052D01*
X53505803Y40903066D01*
X53471067Y40884499D01*
X53433374Y40873065D01*
X53388039Y40868600D01*
X52301361Y40868600D01*
X52256026Y40873065D01*
X52218333Y40884499D01*
X52183597Y40903066D01*
X52153152Y40928052D01*
X52128166Y40958497D01*
X52109599Y40993233D01*
X52098165Y41030926D01*
X52093700Y41076261D01*
X52093700Y41912939D01*
X52098165Y41958274D01*
X52109599Y41995967D01*
X52128166Y42030703D01*
X52153152Y42061148D01*
X52183597Y42086134D01*
X52218333Y42104701D01*
X52256026Y42116135D01*
X52301361Y42120600D01*
X53388039Y42120600D01*
X53433374Y42116135D01*
G37*
G36*
X124177300Y41001800D02*
G01*
X122475300Y41001800D01*
X122475300Y41903800D01*
X124177300Y41903800D01*
X124177300Y41001800D01*
G37*
G36*
X109677300Y41001800D02*
G01*
X107975300Y41001800D01*
X107975300Y41903800D01*
X109677300Y41903800D01*
X109677300Y41001800D01*
G37*
G36*
X85569228Y41775636D02*
G01*
X85590309Y41769240D01*
X85609745Y41758852D01*
X85626776Y41744876D01*
X85640752Y41727845D01*
X85651140Y41708409D01*
X85657536Y41687328D01*
X85660300Y41659260D01*
X85660300Y41195540D01*
X85657536Y41167472D01*
X85651140Y41146391D01*
X85640752Y41126955D01*
X85626776Y41109924D01*
X85609745Y41095948D01*
X85590309Y41085560D01*
X85569228Y41079164D01*
X85541160Y41076400D01*
X83727440Y41076400D01*
X83699372Y41079164D01*
X83678291Y41085560D01*
X83658855Y41095948D01*
X83641824Y41109924D01*
X83627848Y41126955D01*
X83617460Y41146391D01*
X83611064Y41167472D01*
X83608300Y41195540D01*
X83608300Y41659260D01*
X83611064Y41687328D01*
X83617460Y41708409D01*
X83627848Y41727845D01*
X83641824Y41744876D01*
X83658855Y41758852D01*
X83678291Y41769240D01*
X83699372Y41775636D01*
X83727440Y41778400D01*
X85541160Y41778400D01*
X85569228Y41775636D01*
G37*
G36*
X90519228Y41775636D02*
G01*
X90540309Y41769240D01*
X90559745Y41758852D01*
X90576776Y41744876D01*
X90590752Y41727845D01*
X90601140Y41708409D01*
X90607536Y41687328D01*
X90610300Y41659260D01*
X90610300Y41195540D01*
X90607536Y41167472D01*
X90601140Y41146391D01*
X90590752Y41126955D01*
X90576776Y41109924D01*
X90559745Y41095948D01*
X90540309Y41085560D01*
X90519228Y41079164D01*
X90491160Y41076400D01*
X88677440Y41076400D01*
X88649372Y41079164D01*
X88628291Y41085560D01*
X88608855Y41095948D01*
X88591824Y41109924D01*
X88577848Y41126955D01*
X88567460Y41146391D01*
X88561064Y41167472D01*
X88558300Y41195540D01*
X88558300Y41659260D01*
X88561064Y41687328D01*
X88567460Y41708409D01*
X88577848Y41727845D01*
X88591824Y41744876D01*
X88608855Y41758852D01*
X88628291Y41769240D01*
X88649372Y41775636D01*
X88677440Y41778400D01*
X90491160Y41778400D01*
X90519228Y41775636D01*
G37*
G36*
X42993916Y45033810D02*
G01*
X43200610Y44992696D01*
X43482874Y44875779D01*
X43736905Y44706041D01*
X43952941Y44490005D01*
X44122679Y44235974D01*
X44239596Y43953710D01*
X44250592Y43898427D01*
X44296921Y43665520D01*
X44299200Y43654060D01*
X44299200Y43348540D01*
X44239596Y43048890D01*
X44122679Y42766626D01*
X43952941Y42512595D01*
X43736905Y42296559D01*
X43482874Y42126821D01*
X43200610Y42009904D01*
X43050785Y41980102D01*
X42900961Y41950300D01*
X42595439Y41950300D01*
X42445615Y41980102D01*
X42295790Y42009904D01*
X42013526Y42126821D01*
X41759495Y42296559D01*
X41543459Y42512595D01*
X41373721Y42766626D01*
X41256804Y43048890D01*
X41197200Y43348540D01*
X41197200Y43654060D01*
X41199480Y43665520D01*
X41245808Y43898427D01*
X41256804Y43953710D01*
X41373721Y44235974D01*
X41543459Y44490005D01*
X41759495Y44706041D01*
X42013526Y44875779D01*
X42295790Y44992696D01*
X42502484Y45033810D01*
X42595439Y45052300D01*
X42900961Y45052300D01*
X42993916Y45033810D01*
G37*
G36*
X67453720Y43808597D02*
G01*
X67487885Y43798233D01*
X67519364Y43781407D01*
X67546960Y43758760D01*
X67569607Y43731164D01*
X67586433Y43699685D01*
X67596797Y43665520D01*
X67600900Y43623858D01*
X67600900Y42374542D01*
X67596797Y42332880D01*
X67586433Y42298715D01*
X67569607Y42267236D01*
X67546960Y42239640D01*
X67519364Y42216993D01*
X67487885Y42200167D01*
X67453720Y42189803D01*
X67412058Y42185700D01*
X64337742Y42185700D01*
X64296080Y42189803D01*
X64261915Y42200167D01*
X64230436Y42216993D01*
X64202840Y42239640D01*
X64180193Y42267236D01*
X64163367Y42298715D01*
X64153003Y42332880D01*
X64148900Y42374542D01*
X64148900Y43623858D01*
X64153003Y43665520D01*
X64163367Y43699685D01*
X64180193Y43731164D01*
X64202840Y43758760D01*
X64230436Y43781407D01*
X64261915Y43798233D01*
X64296080Y43808597D01*
X64337742Y43812700D01*
X67412058Y43812700D01*
X67453720Y43808597D01*
G37*
G36*
X124177300Y42271800D02*
G01*
X122475300Y42271800D01*
X122475300Y43173800D01*
X124177300Y43173800D01*
X124177300Y42271800D01*
G37*
G36*
X109677300Y42271800D02*
G01*
X107975300Y42271800D01*
X107975300Y43173800D01*
X109677300Y43173800D01*
X109677300Y42271800D01*
G37*
G36*
X85569228Y43045636D02*
G01*
X85590309Y43039240D01*
X85609745Y43028852D01*
X85626776Y43014876D01*
X85640752Y42997845D01*
X85651140Y42978409D01*
X85657536Y42957328D01*
X85660300Y42929260D01*
X85660300Y42465540D01*
X85657536Y42437472D01*
X85651140Y42416391D01*
X85640752Y42396955D01*
X85626776Y42379924D01*
X85609745Y42365948D01*
X85590309Y42355560D01*
X85569228Y42349164D01*
X85541160Y42346400D01*
X83727440Y42346400D01*
X83699372Y42349164D01*
X83678291Y42355560D01*
X83658855Y42365948D01*
X83641824Y42379924D01*
X83627848Y42396955D01*
X83617460Y42416391D01*
X83611064Y42437472D01*
X83608300Y42465540D01*
X83608300Y42929260D01*
X83611064Y42957328D01*
X83617460Y42978409D01*
X83627848Y42997845D01*
X83641824Y43014876D01*
X83658855Y43028852D01*
X83678291Y43039240D01*
X83699372Y43045636D01*
X83727440Y43048400D01*
X85541160Y43048400D01*
X85569228Y43045636D01*
G37*
G36*
X90519228Y43045636D02*
G01*
X90540309Y43039240D01*
X90559745Y43028852D01*
X90576776Y43014876D01*
X90590752Y42997845D01*
X90601140Y42978409D01*
X90607536Y42957328D01*
X90610300Y42929260D01*
X90610300Y42465540D01*
X90607536Y42437472D01*
X90601140Y42416391D01*
X90590752Y42396955D01*
X90576776Y42379924D01*
X90559745Y42365948D01*
X90540309Y42355560D01*
X90519228Y42349164D01*
X90491160Y42346400D01*
X88677440Y42346400D01*
X88649372Y42349164D01*
X88628291Y42355560D01*
X88608855Y42365948D01*
X88591824Y42379924D01*
X88577848Y42396955D01*
X88567460Y42416391D01*
X88561064Y42437472D01*
X88558300Y42465540D01*
X88558300Y42929260D01*
X88561064Y42957328D01*
X88567460Y42978409D01*
X88577848Y42997845D01*
X88591824Y43014876D01*
X88608855Y43028852D01*
X88628291Y43039240D01*
X88649372Y43045636D01*
X88677440Y43048400D01*
X90491160Y43048400D01*
X90519228Y43045636D01*
G37*
G36*
X57533400Y42359100D02*
G01*
X55431400Y42359100D01*
X55431400Y43061100D01*
X57533400Y43061100D01*
X57533400Y42359100D01*
G37*
G36*
X62983400Y42359100D02*
G01*
X60881400Y42359100D01*
X60881400Y43061100D01*
X62983400Y43061100D01*
X62983400Y42359100D01*
G37*
G36*
X53433374Y44166135D02*
G01*
X53471067Y44154701D01*
X53505803Y44136134D01*
X53536248Y44111148D01*
X53561234Y44080703D01*
X53579801Y44045967D01*
X53591235Y44008274D01*
X53595700Y43962939D01*
X53595700Y43126261D01*
X53591235Y43080926D01*
X53579801Y43043233D01*
X53561234Y43008497D01*
X53536248Y42978052D01*
X53505803Y42953066D01*
X53471067Y42934499D01*
X53433374Y42923065D01*
X53388039Y42918600D01*
X52301361Y42918600D01*
X52256026Y42923065D01*
X52218333Y42934499D01*
X52183597Y42953066D01*
X52153152Y42978052D01*
X52128166Y43008497D01*
X52109599Y43043233D01*
X52098165Y43080926D01*
X52093700Y43126261D01*
X52093700Y43962939D01*
X52098165Y44008274D01*
X52109599Y44045967D01*
X52128166Y44080703D01*
X52153152Y44111148D01*
X52183597Y44136134D01*
X52218333Y44154701D01*
X52256026Y44166135D01*
X52301361Y44170600D01*
X53388039Y44170600D01*
X53433374Y44166135D01*
G37*
G36*
X77497200Y43238900D02*
G01*
X71245200Y43238900D01*
X71245200Y44940900D01*
X77497200Y44940900D01*
X77497200Y43238900D01*
G37*
G36*
X124177300Y43541800D02*
G01*
X122475300Y43541800D01*
X122475300Y44443800D01*
X124177300Y44443800D01*
X124177300Y43541800D01*
G37*
G36*
X109677300Y43541800D02*
G01*
X107975300Y43541800D01*
X107975300Y44443800D01*
X109677300Y44443800D01*
X109677300Y43541800D01*
G37*
G36*
X90519228Y44315636D02*
G01*
X90540309Y44309240D01*
X90559745Y44298852D01*
X90576776Y44284876D01*
X90590752Y44267845D01*
X90601140Y44248409D01*
X90607536Y44227328D01*
X90610300Y44199260D01*
X90610300Y43735540D01*
X90607536Y43707472D01*
X90601140Y43686391D01*
X90590752Y43666955D01*
X90576776Y43649924D01*
X90559745Y43635948D01*
X90540309Y43625560D01*
X90519228Y43619164D01*
X90491160Y43616400D01*
X88677440Y43616400D01*
X88649372Y43619164D01*
X88628291Y43625560D01*
X88608855Y43635948D01*
X88591824Y43649924D01*
X88577848Y43666955D01*
X88567460Y43686391D01*
X88561064Y43707472D01*
X88558300Y43735540D01*
X88558300Y44199260D01*
X88561064Y44227328D01*
X88567460Y44248409D01*
X88577848Y44267845D01*
X88591824Y44284876D01*
X88608855Y44298852D01*
X88628291Y44309240D01*
X88649372Y44315636D01*
X88677440Y44318400D01*
X90491160Y44318400D01*
X90519228Y44315636D01*
G37*
G36*
X85569228Y44315636D02*
G01*
X85590309Y44309240D01*
X85609745Y44298852D01*
X85626776Y44284876D01*
X85640752Y44267845D01*
X85651140Y44248409D01*
X85657536Y44227328D01*
X85660300Y44199260D01*
X85660300Y43735540D01*
X85657536Y43707472D01*
X85651140Y43686391D01*
X85640752Y43666955D01*
X85626776Y43649924D01*
X85609745Y43635948D01*
X85590309Y43625560D01*
X85569228Y43619164D01*
X85541160Y43616400D01*
X83727440Y43616400D01*
X83699372Y43619164D01*
X83678291Y43625560D01*
X83658855Y43635948D01*
X83641824Y43649924D01*
X83627848Y43666955D01*
X83617460Y43686391D01*
X83611064Y43707472D01*
X83608300Y43735540D01*
X83608300Y44199260D01*
X83611064Y44227328D01*
X83617460Y44248409D01*
X83627848Y44267845D01*
X83641824Y44284876D01*
X83658855Y44298852D01*
X83678291Y44309240D01*
X83699372Y44315636D01*
X83727440Y44318400D01*
X85541160Y44318400D01*
X85569228Y44315636D01*
G37*
G36*
X62983400Y43629100D02*
G01*
X60881400Y43629100D01*
X60881400Y44331100D01*
X62983400Y44331100D01*
X62983400Y43629100D01*
G37*
G36*
X57533400Y43629100D02*
G01*
X55431400Y43629100D01*
X55431400Y44331100D01*
X57533400Y44331100D01*
X57533400Y43629100D01*
G37*
G36*
X53433374Y45964235D02*
G01*
X53471067Y45952801D01*
X53505803Y45934234D01*
X53536248Y45909248D01*
X53561234Y45878803D01*
X53579801Y45844067D01*
X53591235Y45806374D01*
X53595700Y45761039D01*
X53595700Y44924361D01*
X53591235Y44879026D01*
X53579801Y44841333D01*
X53561234Y44806597D01*
X53536248Y44776152D01*
X53505803Y44751166D01*
X53471067Y44732599D01*
X53433374Y44721165D01*
X53388039Y44716700D01*
X52301361Y44716700D01*
X52256026Y44721165D01*
X52218333Y44732599D01*
X52183597Y44751166D01*
X52153152Y44776152D01*
X52128166Y44806597D01*
X52109599Y44841333D01*
X52098165Y44879026D01*
X52093700Y44924361D01*
X52093700Y45761039D01*
X52098165Y45806374D01*
X52109599Y45844067D01*
X52128166Y45878803D01*
X52153152Y45909248D01*
X52183597Y45934234D01*
X52218333Y45952801D01*
X52256026Y45964235D01*
X52301361Y45968700D01*
X53388039Y45968700D01*
X53433374Y45964235D01*
G37*
G36*
X109677300Y44811800D02*
G01*
X107975300Y44811800D01*
X107975300Y45713800D01*
X109677300Y45713800D01*
X109677300Y44811800D01*
G37*
G36*
X124177300Y44811800D02*
G01*
X122475300Y44811800D01*
X122475300Y45713800D01*
X124177300Y45713800D01*
X124177300Y44811800D01*
G37*
G36*
X62983400Y44899100D02*
G01*
X60881400Y44899100D01*
X60881400Y45601100D01*
X62983400Y45601100D01*
X62983400Y44899100D01*
G37*
G36*
X57533400Y44899100D02*
G01*
X55431400Y44899100D01*
X55431400Y45601100D01*
X57533400Y45601100D01*
X57533400Y44899100D01*
G37*
G36*
X93763391Y46000615D02*
G01*
X93797369Y45990307D01*
X93828690Y45973566D01*
X93856139Y45951039D01*
X93878666Y45923590D01*
X93895407Y45892269D01*
X93905715Y45858291D01*
X93909800Y45816810D01*
X93909800Y45140590D01*
X93905715Y45099109D01*
X93895407Y45065131D01*
X93878666Y45033810D01*
X93856139Y45006361D01*
X93828690Y44983834D01*
X93797369Y44967093D01*
X93763391Y44956785D01*
X93721910Y44952700D01*
X93120690Y44952700D01*
X93079209Y44956785D01*
X93045231Y44967093D01*
X93013910Y44983834D01*
X92986461Y45006361D01*
X92963934Y45033810D01*
X92947193Y45065131D01*
X92936885Y45099109D01*
X92932800Y45140590D01*
X92932800Y45816810D01*
X92936885Y45858291D01*
X92947193Y45892269D01*
X92963934Y45923590D01*
X92986461Y45951039D01*
X93013910Y45973566D01*
X93045231Y45990307D01*
X93079209Y46000615D01*
X93120690Y46004700D01*
X93721910Y46004700D01*
X93763391Y46000615D01*
G37*
G36*
X92188391Y46000615D02*
G01*
X92222369Y45990307D01*
X92253690Y45973566D01*
X92281139Y45951039D01*
X92303666Y45923590D01*
X92320407Y45892269D01*
X92330715Y45858291D01*
X92334800Y45816810D01*
X92334800Y45140590D01*
X92330715Y45099109D01*
X92320407Y45065131D01*
X92303666Y45033810D01*
X92281139Y45006361D01*
X92253690Y44983834D01*
X92222369Y44967093D01*
X92188391Y44956785D01*
X92146910Y44952700D01*
X91545690Y44952700D01*
X91504209Y44956785D01*
X91470231Y44967093D01*
X91438910Y44983834D01*
X91411461Y45006361D01*
X91388934Y45033810D01*
X91372193Y45065131D01*
X91361885Y45099109D01*
X91357800Y45140590D01*
X91357800Y45816810D01*
X91361885Y45858291D01*
X91372193Y45892269D01*
X91388934Y45923590D01*
X91411461Y45951039D01*
X91438910Y45973566D01*
X91470231Y45990307D01*
X91504209Y46000615D01*
X91545690Y46004700D01*
X92146910Y46004700D01*
X92188391Y46000615D01*
G37*
G36*
X95236391Y46000615D02*
G01*
X95270369Y45990307D01*
X95301690Y45973566D01*
X95329139Y45951039D01*
X95351666Y45923590D01*
X95368407Y45892269D01*
X95378715Y45858291D01*
X95382800Y45816810D01*
X95382800Y45140590D01*
X95378715Y45099109D01*
X95368407Y45065131D01*
X95351666Y45033810D01*
X95329139Y45006361D01*
X95301690Y44983834D01*
X95270369Y44967093D01*
X95236391Y44956785D01*
X95194910Y44952700D01*
X94593690Y44952700D01*
X94552209Y44956785D01*
X94518231Y44967093D01*
X94486910Y44983834D01*
X94459461Y45006361D01*
X94436934Y45033810D01*
X94420193Y45065131D01*
X94409885Y45099109D01*
X94405800Y45140590D01*
X94405800Y45816810D01*
X94409885Y45858291D01*
X94420193Y45892269D01*
X94436934Y45923590D01*
X94459461Y45951039D01*
X94486910Y45973566D01*
X94518231Y45990307D01*
X94552209Y46000615D01*
X94593690Y46004700D01*
X95194910Y46004700D01*
X95236391Y46000615D01*
G37*
G36*
X96811391Y46000615D02*
G01*
X96845369Y45990307D01*
X96876690Y45973566D01*
X96904139Y45951039D01*
X96926666Y45923590D01*
X96943407Y45892269D01*
X96953715Y45858291D01*
X96957800Y45816810D01*
X96957800Y45140590D01*
X96953715Y45099109D01*
X96943407Y45065131D01*
X96926666Y45033810D01*
X96904139Y45006361D01*
X96876690Y44983834D01*
X96845369Y44967093D01*
X96811391Y44956785D01*
X96769910Y44952700D01*
X96168690Y44952700D01*
X96127209Y44956785D01*
X96093231Y44967093D01*
X96061910Y44983834D01*
X96034461Y45006361D01*
X96011934Y45033810D01*
X95995193Y45065131D01*
X95984885Y45099109D01*
X95980800Y45140590D01*
X95980800Y45816810D01*
X95984885Y45858291D01*
X95995193Y45892269D01*
X96011934Y45923590D01*
X96034461Y45951039D01*
X96061910Y45973566D01*
X96093231Y45990307D01*
X96127209Y46000615D01*
X96168690Y46004700D01*
X96769910Y46004700D01*
X96811391Y46000615D01*
G37*
G36*
X101332391Y46013315D02*
G01*
X101366369Y46003007D01*
X101397690Y45986266D01*
X101425139Y45963739D01*
X101447666Y45936290D01*
X101464407Y45904969D01*
X101474715Y45870991D01*
X101478800Y45829510D01*
X101478800Y45153290D01*
X101474715Y45111809D01*
X101464407Y45077831D01*
X101447666Y45046510D01*
X101425139Y45019061D01*
X101397690Y44996534D01*
X101366369Y44979793D01*
X101332391Y44969485D01*
X101290910Y44965400D01*
X100689690Y44965400D01*
X100648209Y44969485D01*
X100614231Y44979793D01*
X100582910Y44996534D01*
X100555461Y45019061D01*
X100532934Y45046510D01*
X100516193Y45077831D01*
X100505885Y45111809D01*
X100501800Y45153290D01*
X100501800Y45829510D01*
X100505885Y45870991D01*
X100516193Y45904969D01*
X100532934Y45936290D01*
X100555461Y45963739D01*
X100582910Y45986266D01*
X100614231Y46003007D01*
X100648209Y46013315D01*
X100689690Y46017400D01*
X101290910Y46017400D01*
X101332391Y46013315D01*
G37*
G36*
X99859391Y46013315D02*
G01*
X99893369Y46003007D01*
X99924690Y45986266D01*
X99952139Y45963739D01*
X99974666Y45936290D01*
X99991407Y45904969D01*
X100001715Y45870991D01*
X100005800Y45829510D01*
X100005800Y45153290D01*
X100001715Y45111809D01*
X99991407Y45077831D01*
X99974666Y45046510D01*
X99952139Y45019061D01*
X99924690Y44996534D01*
X99893369Y44979793D01*
X99859391Y44969485D01*
X99817910Y44965400D01*
X99216690Y44965400D01*
X99175209Y44969485D01*
X99141231Y44979793D01*
X99109910Y44996534D01*
X99082461Y45019061D01*
X99059934Y45046510D01*
X99043193Y45077831D01*
X99032885Y45111809D01*
X99028800Y45153290D01*
X99028800Y45829510D01*
X99032885Y45870991D01*
X99043193Y45904969D01*
X99059934Y45936290D01*
X99082461Y45963739D01*
X99109910Y45986266D01*
X99141231Y46003007D01*
X99175209Y46013315D01*
X99216690Y46017400D01*
X99817910Y46017400D01*
X99859391Y46013315D01*
G37*
G36*
X98284391Y46013315D02*
G01*
X98318369Y46003007D01*
X98349690Y45986266D01*
X98377139Y45963739D01*
X98399666Y45936290D01*
X98416407Y45904969D01*
X98426715Y45870991D01*
X98430800Y45829510D01*
X98430800Y45153290D01*
X98426715Y45111809D01*
X98416407Y45077831D01*
X98399666Y45046510D01*
X98377139Y45019061D01*
X98349690Y44996534D01*
X98318369Y44979793D01*
X98284391Y44969485D01*
X98242910Y44965400D01*
X97641690Y44965400D01*
X97600209Y44969485D01*
X97566231Y44979793D01*
X97534910Y44996534D01*
X97507461Y45019061D01*
X97484934Y45046510D01*
X97468193Y45077831D01*
X97457885Y45111809D01*
X97453800Y45153290D01*
X97453800Y45829510D01*
X97457885Y45870991D01*
X97468193Y45904969D01*
X97484934Y45936290D01*
X97507461Y45963739D01*
X97534910Y45986266D01*
X97566231Y46003007D01*
X97600209Y46013315D01*
X97641690Y46017400D01*
X98242910Y46017400D01*
X98284391Y46013315D01*
G37*
G36*
X102907391Y46013315D02*
G01*
X102941369Y46003007D01*
X102972690Y45986266D01*
X103000139Y45963739D01*
X103022666Y45936290D01*
X103039407Y45904969D01*
X103049715Y45870991D01*
X103053800Y45829510D01*
X103053800Y45153290D01*
X103049715Y45111809D01*
X103039407Y45077831D01*
X103022666Y45046510D01*
X103000139Y45019061D01*
X102972690Y44996534D01*
X102941369Y44979793D01*
X102907391Y44969485D01*
X102865910Y44965400D01*
X102264690Y44965400D01*
X102223209Y44969485D01*
X102189231Y44979793D01*
X102157910Y44996534D01*
X102130461Y45019061D01*
X102107934Y45046510D01*
X102091193Y45077831D01*
X102080885Y45111809D01*
X102076800Y45153290D01*
X102076800Y45829510D01*
X102080885Y45870991D01*
X102091193Y45904969D01*
X102107934Y45936290D01*
X102130461Y45963739D01*
X102157910Y45986266D01*
X102189231Y46003007D01*
X102223209Y46013315D01*
X102264690Y46017400D01*
X102865910Y46017400D01*
X102907391Y46013315D01*
G37*
G36*
X104393091Y46026015D02*
G01*
X104427069Y46015707D01*
X104458390Y45998966D01*
X104485839Y45976439D01*
X104508366Y45948990D01*
X104525107Y45917669D01*
X104535415Y45883691D01*
X104539500Y45842210D01*
X104539500Y45165990D01*
X104535415Y45124509D01*
X104525107Y45090531D01*
X104508366Y45059210D01*
X104485839Y45031761D01*
X104458390Y45009234D01*
X104427069Y44992493D01*
X104393091Y44982185D01*
X104351610Y44978100D01*
X103750390Y44978100D01*
X103708909Y44982185D01*
X103674931Y44992493D01*
X103643610Y45009234D01*
X103616161Y45031761D01*
X103593634Y45059210D01*
X103576893Y45090531D01*
X103566585Y45124509D01*
X103562500Y45165990D01*
X103562500Y45842210D01*
X103566585Y45883691D01*
X103576893Y45917669D01*
X103593634Y45948990D01*
X103616161Y45976439D01*
X103643610Y45998966D01*
X103674931Y46015707D01*
X103708909Y46026015D01*
X103750390Y46030100D01*
X104351610Y46030100D01*
X104393091Y46026015D01*
G37*
G36*
X105968091Y46026015D02*
G01*
X106002069Y46015707D01*
X106033390Y45998966D01*
X106060839Y45976439D01*
X106083366Y45948990D01*
X106100107Y45917669D01*
X106110415Y45883691D01*
X106114500Y45842210D01*
X106114500Y45165990D01*
X106110415Y45124509D01*
X106100107Y45090531D01*
X106083366Y45059210D01*
X106060839Y45031761D01*
X106033390Y45009234D01*
X106002069Y44992493D01*
X105968091Y44982185D01*
X105926610Y44978100D01*
X105325390Y44978100D01*
X105283909Y44982185D01*
X105249931Y44992493D01*
X105218610Y45009234D01*
X105191161Y45031761D01*
X105168634Y45059210D01*
X105151893Y45090531D01*
X105141585Y45124509D01*
X105137500Y45165990D01*
X105137500Y45842210D01*
X105141585Y45883691D01*
X105151893Y45917669D01*
X105168634Y45948990D01*
X105191161Y45976439D01*
X105218610Y45998966D01*
X105249931Y46015707D01*
X105283909Y46026015D01*
X105325390Y46030100D01*
X105926610Y46030100D01*
X105968091Y46026015D01*
G37*
G36*
X85442228Y46474636D02*
G01*
X85463309Y46468240D01*
X85482745Y46457852D01*
X85499776Y46443876D01*
X85513752Y46426845D01*
X85524140Y46407409D01*
X85530536Y46386328D01*
X85533300Y46358260D01*
X85533300Y45894540D01*
X85530536Y45866472D01*
X85524140Y45845391D01*
X85513752Y45825955D01*
X85499776Y45808924D01*
X85482745Y45794948D01*
X85463309Y45784560D01*
X85442228Y45778164D01*
X85414160Y45775400D01*
X83600440Y45775400D01*
X83572372Y45778164D01*
X83551291Y45784560D01*
X83531855Y45794948D01*
X83514824Y45808924D01*
X83500848Y45825955D01*
X83490460Y45845391D01*
X83484064Y45866472D01*
X83481300Y45894540D01*
X83481300Y46358260D01*
X83484064Y46386328D01*
X83490460Y46407409D01*
X83500848Y46426845D01*
X83514824Y46443876D01*
X83531855Y46457852D01*
X83551291Y46468240D01*
X83572372Y46474636D01*
X83600440Y46477400D01*
X85414160Y46477400D01*
X85442228Y46474636D01*
G37*
G36*
X90392228Y46474636D02*
G01*
X90413309Y46468240D01*
X90432745Y46457852D01*
X90449776Y46443876D01*
X90463752Y46426845D01*
X90474140Y46407409D01*
X90480536Y46386328D01*
X90483300Y46358260D01*
X90483300Y45894540D01*
X90480536Y45866472D01*
X90474140Y45845391D01*
X90463752Y45825955D01*
X90449776Y45808924D01*
X90432745Y45794948D01*
X90413309Y45784560D01*
X90392228Y45778164D01*
X90364160Y45775400D01*
X88550440Y45775400D01*
X88522372Y45778164D01*
X88501291Y45784560D01*
X88481855Y45794948D01*
X88464824Y45808924D01*
X88450848Y45825955D01*
X88440460Y45845391D01*
X88434064Y45866472D01*
X88431300Y45894540D01*
X88431300Y46358260D01*
X88434064Y46386328D01*
X88440460Y46407409D01*
X88450848Y46426845D01*
X88464824Y46443876D01*
X88481855Y46457852D01*
X88501291Y46468240D01*
X88522372Y46474636D01*
X88550440Y46477400D01*
X90364160Y46477400D01*
X90392228Y46474636D01*
G37*
G36*
X109677300Y46081800D02*
G01*
X107975300Y46081800D01*
X107975300Y46983800D01*
X109677300Y46983800D01*
X109677300Y46081800D01*
G37*
G36*
X124177300Y46081800D02*
G01*
X122475300Y46081800D01*
X122475300Y46983800D01*
X124177300Y46983800D01*
X124177300Y46081800D01*
G37*
G36*
X62983400Y46169100D02*
G01*
X60881400Y46169100D01*
X60881400Y46871100D01*
X62983400Y46871100D01*
X62983400Y46169100D01*
G37*
G36*
X57533400Y46169100D02*
G01*
X55431400Y46169100D01*
X55431400Y46871100D01*
X57533400Y46871100D01*
X57533400Y46169100D01*
G37*
G36*
X82310881Y49943205D02*
G01*
X82346916Y49932273D01*
X82380124Y49914523D01*
X82409234Y49890634D01*
X82433123Y49861524D01*
X82450873Y49828316D01*
X82461805Y49792281D01*
X82466100Y49748669D01*
X82466100Y46644331D01*
X82461805Y46600719D01*
X82450873Y46564684D01*
X82433123Y46531476D01*
X82409234Y46502366D01*
X82380124Y46478477D01*
X82346916Y46460727D01*
X82310881Y46449795D01*
X82267269Y46445500D01*
X81262931Y46445500D01*
X81219319Y46449795D01*
X81183284Y46460727D01*
X81150076Y46478477D01*
X81120966Y46502366D01*
X81097077Y46531476D01*
X81079327Y46564684D01*
X81068395Y46600719D01*
X81064100Y46644331D01*
X81064100Y49748669D01*
X81068395Y49792281D01*
X81079327Y49828316D01*
X81097077Y49861524D01*
X81120966Y49890634D01*
X81150076Y49914523D01*
X81183284Y49932273D01*
X81219319Y49943205D01*
X81262931Y49947500D01*
X82267269Y49947500D01*
X82310881Y49943205D01*
G37*
G36*
X77860881Y49943205D02*
G01*
X77896916Y49932273D01*
X77930124Y49914523D01*
X77959234Y49890634D01*
X77983123Y49861524D01*
X78000873Y49828316D01*
X78011805Y49792281D01*
X78016100Y49748669D01*
X78016100Y46644331D01*
X78011805Y46600719D01*
X78000873Y46564684D01*
X77983123Y46531476D01*
X77959234Y46502366D01*
X77930124Y46478477D01*
X77896916Y46460727D01*
X77860881Y46449795D01*
X77817269Y46445500D01*
X76812931Y46445500D01*
X76769319Y46449795D01*
X76733284Y46460727D01*
X76700076Y46478477D01*
X76670966Y46502366D01*
X76647077Y46531476D01*
X76629327Y46564684D01*
X76618395Y46600719D01*
X76614100Y46644331D01*
X76614100Y49748669D01*
X76618395Y49792281D01*
X76629327Y49828316D01*
X76647077Y49861524D01*
X76670966Y49890634D01*
X76700076Y49914523D01*
X76733284Y49932273D01*
X76769319Y49943205D01*
X76812931Y49947500D01*
X77817269Y49947500D01*
X77860881Y49943205D01*
G37*
G36*
X70623200Y46674000D02*
G01*
X68721200Y46674000D01*
X68721200Y48576000D01*
X70623200Y48576000D01*
X70623200Y46674000D01*
G37*
G36*
X72489595Y48539454D02*
G01*
X72662666Y48467766D01*
X72662667Y48467765D01*
X72818427Y48363690D01*
X72950890Y48231227D01*
X72950891Y48231225D01*
X73054966Y48075466D01*
X73126654Y47902395D01*
X73163200Y47718667D01*
X73163200Y47531333D01*
X73126654Y47347605D01*
X73054966Y47174534D01*
X73054965Y47174533D01*
X72950890Y47018773D01*
X72818427Y46886310D01*
X72790247Y46867481D01*
X72662666Y46782234D01*
X72489595Y46710546D01*
X72305867Y46674000D01*
X72118533Y46674000D01*
X71934805Y46710546D01*
X71761734Y46782234D01*
X71634153Y46867481D01*
X71605973Y46886310D01*
X71473510Y47018773D01*
X71369435Y47174533D01*
X71369434Y47174534D01*
X71297746Y47347605D01*
X71261200Y47531333D01*
X71261200Y47718667D01*
X71297746Y47902395D01*
X71369434Y48075466D01*
X71473509Y48231225D01*
X71473510Y48231227D01*
X71605973Y48363690D01*
X71761733Y48467765D01*
X71761734Y48467766D01*
X71934805Y48539454D01*
X72118533Y48576000D01*
X72305867Y48576000D01*
X72489595Y48539454D01*
G37*
G36*
X53433374Y48014235D02*
G01*
X53471067Y48002801D01*
X53505803Y47984234D01*
X53536248Y47959248D01*
X53561234Y47928803D01*
X53579801Y47894067D01*
X53591235Y47856374D01*
X53595700Y47811039D01*
X53595700Y46974361D01*
X53591235Y46929026D01*
X53579801Y46891333D01*
X53561234Y46856597D01*
X53536248Y46826152D01*
X53505803Y46801166D01*
X53471067Y46782599D01*
X53433374Y46771165D01*
X53388039Y46766700D01*
X52301361Y46766700D01*
X52256026Y46771165D01*
X52218333Y46782599D01*
X52183597Y46801166D01*
X52153152Y46826152D01*
X52128166Y46856597D01*
X52109599Y46891333D01*
X52098165Y46929026D01*
X52093700Y46974361D01*
X52093700Y47811039D01*
X52098165Y47856374D01*
X52109599Y47894067D01*
X52128166Y47928803D01*
X52153152Y47959248D01*
X52183597Y47984234D01*
X52218333Y48002801D01*
X52256026Y48014235D01*
X52301361Y48018700D01*
X53388039Y48018700D01*
X53433374Y48014235D01*
G37*
G36*
X93511000Y46836700D02*
G01*
X91909000Y46836700D01*
X91909000Y48438700D01*
X93511000Y48438700D01*
X93511000Y46836700D01*
G37*
G36*
X95483642Y48407919D02*
G01*
X95629414Y48347538D01*
X95629416Y48347537D01*
X95760608Y48259878D01*
X95872178Y48148308D01*
X95959837Y48017116D01*
X95959838Y48017114D01*
X96020219Y47871342D01*
X96051000Y47716593D01*
X96051000Y47558807D01*
X96020219Y47404058D01*
X95959838Y47258286D01*
X95959837Y47258284D01*
X95872178Y47127092D01*
X95760608Y47015522D01*
X95629416Y46927863D01*
X95629415Y46927862D01*
X95629414Y46927862D01*
X95483642Y46867481D01*
X95328893Y46836700D01*
X95171107Y46836700D01*
X95016358Y46867481D01*
X94870586Y46927862D01*
X94870585Y46927862D01*
X94870584Y46927863D01*
X94739392Y47015522D01*
X94627822Y47127092D01*
X94540163Y47258284D01*
X94540162Y47258286D01*
X94479781Y47404058D01*
X94449000Y47558807D01*
X94449000Y47716593D01*
X94479781Y47871342D01*
X94540162Y48017114D01*
X94540163Y48017116D01*
X94627822Y48148308D01*
X94739392Y48259878D01*
X94870584Y48347537D01*
X94870586Y48347538D01*
X95016358Y48407919D01*
X95171107Y48438700D01*
X95328893Y48438700D01*
X95483642Y48407919D01*
G37*
G36*
X98023642Y48407919D02*
G01*
X98169414Y48347538D01*
X98169416Y48347537D01*
X98300608Y48259878D01*
X98412178Y48148308D01*
X98499837Y48017116D01*
X98499838Y48017114D01*
X98560219Y47871342D01*
X98591000Y47716593D01*
X98591000Y47558807D01*
X98560219Y47404058D01*
X98499838Y47258286D01*
X98499837Y47258284D01*
X98412178Y47127092D01*
X98300608Y47015522D01*
X98169416Y46927863D01*
X98169415Y46927862D01*
X98169414Y46927862D01*
X98023642Y46867481D01*
X97868893Y46836700D01*
X97711107Y46836700D01*
X97556358Y46867481D01*
X97410586Y46927862D01*
X97410585Y46927862D01*
X97410584Y46927863D01*
X97279392Y47015522D01*
X97167822Y47127092D01*
X97080163Y47258284D01*
X97080162Y47258286D01*
X97019781Y47404058D01*
X96989000Y47558807D01*
X96989000Y47716593D01*
X97019781Y47871342D01*
X97080162Y48017114D01*
X97080163Y48017116D01*
X97167822Y48148308D01*
X97279392Y48259878D01*
X97410584Y48347537D01*
X97410586Y48347538D01*
X97556358Y48407919D01*
X97711107Y48438700D01*
X97868893Y48438700D01*
X98023642Y48407919D01*
G37*
G36*
X100563642Y48407919D02*
G01*
X100709414Y48347538D01*
X100709416Y48347537D01*
X100840608Y48259878D01*
X100952178Y48148308D01*
X101039837Y48017116D01*
X101039838Y48017114D01*
X101100219Y47871342D01*
X101131000Y47716593D01*
X101131000Y47558807D01*
X101100219Y47404058D01*
X101039838Y47258286D01*
X101039837Y47258284D01*
X100952178Y47127092D01*
X100840608Y47015522D01*
X100709416Y46927863D01*
X100709415Y46927862D01*
X100709414Y46927862D01*
X100563642Y46867481D01*
X100408893Y46836700D01*
X100251107Y46836700D01*
X100096358Y46867481D01*
X99950586Y46927862D01*
X99950585Y46927862D01*
X99950584Y46927863D01*
X99819392Y47015522D01*
X99707822Y47127092D01*
X99620163Y47258284D01*
X99620162Y47258286D01*
X99559781Y47404058D01*
X99529000Y47558807D01*
X99529000Y47716593D01*
X99559781Y47871342D01*
X99620162Y48017114D01*
X99620163Y48017116D01*
X99707822Y48148308D01*
X99819392Y48259878D01*
X99950584Y48347537D01*
X99950586Y48347538D01*
X100096358Y48407919D01*
X100251107Y48438700D01*
X100408893Y48438700D01*
X100563642Y48407919D01*
G37*
G36*
X103103642Y48407919D02*
G01*
X103249414Y48347538D01*
X103249416Y48347537D01*
X103380608Y48259878D01*
X103492178Y48148308D01*
X103579837Y48017116D01*
X103579838Y48017114D01*
X103640219Y47871342D01*
X103671000Y47716593D01*
X103671000Y47558807D01*
X103640219Y47404058D01*
X103579838Y47258286D01*
X103579837Y47258284D01*
X103492178Y47127092D01*
X103380608Y47015522D01*
X103249416Y46927863D01*
X103249415Y46927862D01*
X103249414Y46927862D01*
X103103642Y46867481D01*
X102948893Y46836700D01*
X102791107Y46836700D01*
X102636358Y46867481D01*
X102490586Y46927862D01*
X102490585Y46927862D01*
X102490584Y46927863D01*
X102359392Y47015522D01*
X102247822Y47127092D01*
X102160163Y47258284D01*
X102160162Y47258286D01*
X102099781Y47404058D01*
X102069000Y47558807D01*
X102069000Y47716593D01*
X102099781Y47871342D01*
X102160162Y48017114D01*
X102160163Y48017116D01*
X102247822Y48148308D01*
X102359392Y48259878D01*
X102490584Y48347537D01*
X102490586Y48347538D01*
X102636358Y48407919D01*
X102791107Y48438700D01*
X102948893Y48438700D01*
X103103642Y48407919D01*
G37*
G36*
X105643642Y48407919D02*
G01*
X105789414Y48347538D01*
X105789416Y48347537D01*
X105920608Y48259878D01*
X106032178Y48148308D01*
X106119837Y48017116D01*
X106119838Y48017114D01*
X106180219Y47871342D01*
X106211000Y47716593D01*
X106211000Y47558807D01*
X106180219Y47404058D01*
X106119838Y47258286D01*
X106119837Y47258284D01*
X106032178Y47127092D01*
X105920608Y47015522D01*
X105789416Y46927863D01*
X105789415Y46927862D01*
X105789414Y46927862D01*
X105643642Y46867481D01*
X105488893Y46836700D01*
X105331107Y46836700D01*
X105176358Y46867481D01*
X105030586Y46927862D01*
X105030585Y46927862D01*
X105030584Y46927863D01*
X104899392Y47015522D01*
X104787822Y47127092D01*
X104700163Y47258284D01*
X104700162Y47258286D01*
X104639781Y47404058D01*
X104609000Y47558807D01*
X104609000Y47716593D01*
X104639781Y47871342D01*
X104700162Y48017114D01*
X104700163Y48017116D01*
X104787822Y48148308D01*
X104899392Y48259878D01*
X105030584Y48347537D01*
X105030586Y48347538D01*
X105176358Y48407919D01*
X105331107Y48438700D01*
X105488893Y48438700D01*
X105643642Y48407919D01*
G37*
G36*
X44299200Y46950300D02*
G01*
X41197200Y46950300D01*
X41197200Y50052300D01*
X44299200Y50052300D01*
X44299200Y46950300D01*
G37*
G36*
X90392228Y47744636D02*
G01*
X90413309Y47738240D01*
X90432745Y47727852D01*
X90449776Y47713876D01*
X90463752Y47696845D01*
X90474140Y47677409D01*
X90480536Y47656328D01*
X90483300Y47628260D01*
X90483300Y47164540D01*
X90480536Y47136472D01*
X90474140Y47115391D01*
X90463752Y47095955D01*
X90449776Y47078924D01*
X90432745Y47064948D01*
X90413309Y47054560D01*
X90392228Y47048164D01*
X90364160Y47045400D01*
X88550440Y47045400D01*
X88522372Y47048164D01*
X88501291Y47054560D01*
X88481855Y47064948D01*
X88464824Y47078924D01*
X88450848Y47095955D01*
X88440460Y47115391D01*
X88434064Y47136472D01*
X88431300Y47164540D01*
X88431300Y47628260D01*
X88434064Y47656328D01*
X88440460Y47677409D01*
X88450848Y47696845D01*
X88464824Y47713876D01*
X88481855Y47727852D01*
X88501291Y47738240D01*
X88522372Y47744636D01*
X88550440Y47747400D01*
X90364160Y47747400D01*
X90392228Y47744636D01*
G37*
G36*
X85442228Y47744636D02*
G01*
X85463309Y47738240D01*
X85482745Y47727852D01*
X85499776Y47713876D01*
X85513752Y47696845D01*
X85524140Y47677409D01*
X85530536Y47656328D01*
X85533300Y47628260D01*
X85533300Y47164540D01*
X85530536Y47136472D01*
X85524140Y47115391D01*
X85513752Y47095955D01*
X85499776Y47078924D01*
X85482745Y47064948D01*
X85463309Y47054560D01*
X85442228Y47048164D01*
X85414160Y47045400D01*
X83600440Y47045400D01*
X83572372Y47048164D01*
X83551291Y47054560D01*
X83531855Y47064948D01*
X83514824Y47078924D01*
X83500848Y47095955D01*
X83490460Y47115391D01*
X83484064Y47136472D01*
X83481300Y47164540D01*
X83481300Y47628260D01*
X83484064Y47656328D01*
X83490460Y47677409D01*
X83500848Y47696845D01*
X83514824Y47713876D01*
X83531855Y47727852D01*
X83551291Y47738240D01*
X83572372Y47744636D01*
X83600440Y47747400D01*
X85414160Y47747400D01*
X85442228Y47744636D01*
G37*
G36*
X109677300Y47351800D02*
G01*
X107975300Y47351800D01*
X107975300Y48253800D01*
X109677300Y48253800D01*
X109677300Y47351800D01*
G37*
G36*
X124177300Y47351800D02*
G01*
X122475300Y47351800D01*
X122475300Y48253800D01*
X124177300Y48253800D01*
X124177300Y47351800D01*
G37*
G36*
X67453720Y49783597D02*
G01*
X67487885Y49773233D01*
X67519364Y49756407D01*
X67546960Y49733760D01*
X67569607Y49706164D01*
X67586433Y49674685D01*
X67596797Y49640520D01*
X67600900Y49598858D01*
X67600900Y48349542D01*
X67596797Y48307880D01*
X67586433Y48273715D01*
X67569607Y48242236D01*
X67546960Y48214640D01*
X67519364Y48191993D01*
X67487885Y48175167D01*
X67453720Y48164803D01*
X67412058Y48160700D01*
X64337742Y48160700D01*
X64296080Y48164803D01*
X64261915Y48175167D01*
X64230436Y48191993D01*
X64202840Y48214640D01*
X64180193Y48242236D01*
X64163367Y48273715D01*
X64153003Y48307880D01*
X64148900Y48349542D01*
X64148900Y49598858D01*
X64153003Y49640520D01*
X64163367Y49674685D01*
X64180193Y49706164D01*
X64202840Y49733760D01*
X64230436Y49756407D01*
X64261915Y49773233D01*
X64296080Y49783597D01*
X64337742Y49787700D01*
X67412058Y49787700D01*
X67453720Y49783597D01*
G37*
G36*
X85442228Y49014636D02*
G01*
X85463309Y49008240D01*
X85482745Y48997852D01*
X85499776Y48983876D01*
X85513752Y48966845D01*
X85524140Y48947409D01*
X85530536Y48926328D01*
X85533300Y48898260D01*
X85533300Y48434540D01*
X85530536Y48406472D01*
X85524140Y48385391D01*
X85513752Y48365955D01*
X85499776Y48348924D01*
X85482745Y48334948D01*
X85463309Y48324560D01*
X85442228Y48318164D01*
X85414160Y48315400D01*
X83600440Y48315400D01*
X83572372Y48318164D01*
X83551291Y48324560D01*
X83531855Y48334948D01*
X83514824Y48348924D01*
X83500848Y48365955D01*
X83490460Y48385391D01*
X83484064Y48406472D01*
X83481300Y48434540D01*
X83481300Y48898260D01*
X83484064Y48926328D01*
X83490460Y48947409D01*
X83500848Y48966845D01*
X83514824Y48983876D01*
X83531855Y48997852D01*
X83551291Y49008240D01*
X83572372Y49014636D01*
X83600440Y49017400D01*
X85414160Y49017400D01*
X85442228Y49014636D01*
G37*
G36*
X90392228Y49014636D02*
G01*
X90413309Y49008240D01*
X90432745Y48997852D01*
X90449776Y48983876D01*
X90463752Y48966845D01*
X90474140Y48947409D01*
X90480536Y48926328D01*
X90483300Y48898260D01*
X90483300Y48434540D01*
X90480536Y48406472D01*
X90474140Y48385391D01*
X90463752Y48365955D01*
X90449776Y48348924D01*
X90432745Y48334948D01*
X90413309Y48324560D01*
X90392228Y48318164D01*
X90364160Y48315400D01*
X88550440Y48315400D01*
X88522372Y48318164D01*
X88501291Y48324560D01*
X88481855Y48334948D01*
X88464824Y48348924D01*
X88450848Y48365955D01*
X88440460Y48385391D01*
X88434064Y48406472D01*
X88431300Y48434540D01*
X88431300Y48898260D01*
X88434064Y48926328D01*
X88440460Y48947409D01*
X88450848Y48966845D01*
X88464824Y48983876D01*
X88481855Y48997852D01*
X88501291Y49008240D01*
X88522372Y49014636D01*
X88550440Y49017400D01*
X90364160Y49017400D01*
X90392228Y49014636D01*
G37*
G36*
X124177300Y48621800D02*
G01*
X122475300Y48621800D01*
X122475300Y49523800D01*
X124177300Y49523800D01*
X124177300Y48621800D01*
G37*
G36*
X109677300Y48621800D02*
G01*
X107975300Y48621800D01*
X107975300Y49523800D01*
X109677300Y49523800D01*
X109677300Y48621800D01*
G37*
G36*
X53224291Y49658715D02*
G01*
X53258269Y49648407D01*
X53289590Y49631666D01*
X53317039Y49609139D01*
X53339566Y49581690D01*
X53356307Y49550369D01*
X53366615Y49516391D01*
X53370700Y49474910D01*
X53370700Y48873690D01*
X53366615Y48832209D01*
X53356307Y48798231D01*
X53339566Y48766910D01*
X53317039Y48739461D01*
X53289590Y48716934D01*
X53258269Y48700193D01*
X53224291Y48689885D01*
X53182810Y48685800D01*
X52506590Y48685800D01*
X52465109Y48689885D01*
X52431131Y48700193D01*
X52399810Y48716934D01*
X52372361Y48739461D01*
X52349834Y48766910D01*
X52333093Y48798231D01*
X52322785Y48832209D01*
X52318700Y48873690D01*
X52318700Y49474910D01*
X52322785Y49516391D01*
X52333093Y49550369D01*
X52349834Y49581690D01*
X52372361Y49609139D01*
X52399810Y49631666D01*
X52431131Y49648407D01*
X52465109Y49658715D01*
X52506590Y49662800D01*
X53182810Y49662800D01*
X53224291Y49658715D01*
G37*
G36*
X56056391Y49671415D02*
G01*
X56090369Y49661107D01*
X56121690Y49644366D01*
X56149139Y49621839D01*
X56171666Y49594390D01*
X56188407Y49563069D01*
X56198715Y49529091D01*
X56202800Y49487610D01*
X56202800Y48886390D01*
X56198715Y48844909D01*
X56188407Y48810931D01*
X56171666Y48779610D01*
X56149139Y48752161D01*
X56121690Y48729634D01*
X56090369Y48712893D01*
X56056391Y48702585D01*
X56014910Y48698500D01*
X55338690Y48698500D01*
X55297209Y48702585D01*
X55263231Y48712893D01*
X55231910Y48729634D01*
X55204461Y48752161D01*
X55181934Y48779610D01*
X55165193Y48810931D01*
X55154885Y48844909D01*
X55150800Y48886390D01*
X55150800Y49487610D01*
X55154885Y49529091D01*
X55165193Y49563069D01*
X55181934Y49594390D01*
X55204461Y49621839D01*
X55231910Y49644366D01*
X55263231Y49661107D01*
X55297209Y49671415D01*
X55338690Y49675500D01*
X56014910Y49675500D01*
X56056391Y49671415D01*
G37*
G36*
X90392228Y50284636D02*
G01*
X90413309Y50278240D01*
X90432745Y50267852D01*
X90449776Y50253876D01*
X90463752Y50236845D01*
X90474140Y50217409D01*
X90480536Y50196328D01*
X90483300Y50168260D01*
X90483300Y49704540D01*
X90480536Y49676472D01*
X90474140Y49655391D01*
X90463752Y49635955D01*
X90449776Y49618924D01*
X90432745Y49604948D01*
X90413309Y49594560D01*
X90392228Y49588164D01*
X90364160Y49585400D01*
X88550440Y49585400D01*
X88522372Y49588164D01*
X88501291Y49594560D01*
X88481855Y49604948D01*
X88464824Y49618924D01*
X88450848Y49635955D01*
X88440460Y49655391D01*
X88434064Y49676472D01*
X88431300Y49704540D01*
X88431300Y50168260D01*
X88434064Y50196328D01*
X88440460Y50217409D01*
X88450848Y50236845D01*
X88464824Y50253876D01*
X88481855Y50267852D01*
X88501291Y50278240D01*
X88522372Y50284636D01*
X88550440Y50287400D01*
X90364160Y50287400D01*
X90392228Y50284636D01*
G37*
G36*
X85442228Y50284636D02*
G01*
X85463309Y50278240D01*
X85482745Y50267852D01*
X85499776Y50253876D01*
X85513752Y50236845D01*
X85524140Y50217409D01*
X85530536Y50196328D01*
X85533300Y50168260D01*
X85533300Y49704540D01*
X85530536Y49676472D01*
X85524140Y49655391D01*
X85513752Y49635955D01*
X85499776Y49618924D01*
X85482745Y49604948D01*
X85463309Y49594560D01*
X85442228Y49588164D01*
X85414160Y49585400D01*
X83600440Y49585400D01*
X83572372Y49588164D01*
X83551291Y49594560D01*
X83531855Y49604948D01*
X83514824Y49618924D01*
X83500848Y49635955D01*
X83490460Y49655391D01*
X83484064Y49676472D01*
X83481300Y49704540D01*
X83481300Y50168260D01*
X83484064Y50196328D01*
X83490460Y50217409D01*
X83500848Y50236845D01*
X83514824Y50253876D01*
X83531855Y50267852D01*
X83551291Y50278240D01*
X83572372Y50284636D01*
X83600440Y50287400D01*
X85414160Y50287400D01*
X85442228Y50284636D01*
G37*
G36*
X124177300Y49891800D02*
G01*
X122475300Y49891800D01*
X122475300Y50793800D01*
X124177300Y50793800D01*
X124177300Y49891800D01*
G37*
G36*
X109677300Y49891800D02*
G01*
X107975300Y49891800D01*
X107975300Y50793800D01*
X109677300Y50793800D01*
X109677300Y49891800D01*
G37*
G36*
X53224291Y51233715D02*
G01*
X53258269Y51223407D01*
X53289590Y51206666D01*
X53317039Y51184139D01*
X53339566Y51156690D01*
X53356307Y51125369D01*
X53366615Y51091391D01*
X53370700Y51049910D01*
X53370700Y50448690D01*
X53366615Y50407209D01*
X53356307Y50373231D01*
X53339566Y50341910D01*
X53317039Y50314461D01*
X53289590Y50291934D01*
X53258269Y50275193D01*
X53224291Y50264885D01*
X53182810Y50260800D01*
X52506590Y50260800D01*
X52465109Y50264885D01*
X52431131Y50275193D01*
X52399810Y50291934D01*
X52372361Y50314461D01*
X52349834Y50341910D01*
X52333093Y50373231D01*
X52322785Y50407209D01*
X52318700Y50448690D01*
X52318700Y51049910D01*
X52322785Y51091391D01*
X52333093Y51125369D01*
X52349834Y51156690D01*
X52372361Y51184139D01*
X52399810Y51206666D01*
X52431131Y51223407D01*
X52465109Y51233715D01*
X52506590Y51237800D01*
X53182810Y51237800D01*
X53224291Y51233715D01*
G37*
G36*
X56056391Y51246415D02*
G01*
X56090369Y51236107D01*
X56121690Y51219366D01*
X56149139Y51196839D01*
X56171666Y51169390D01*
X56188407Y51138069D01*
X56198715Y51104091D01*
X56202800Y51062610D01*
X56202800Y50461390D01*
X56198715Y50419909D01*
X56188407Y50385931D01*
X56171666Y50354610D01*
X56149139Y50327161D01*
X56121690Y50304634D01*
X56090369Y50287893D01*
X56056391Y50277585D01*
X56014910Y50273500D01*
X55338690Y50273500D01*
X55297209Y50277585D01*
X55263231Y50287893D01*
X55231910Y50304634D01*
X55204461Y50327161D01*
X55181934Y50354610D01*
X55165193Y50385931D01*
X55154885Y50419909D01*
X55150800Y50461390D01*
X55150800Y51062610D01*
X55154885Y51104091D01*
X55165193Y51138069D01*
X55181934Y51169390D01*
X55204461Y51196839D01*
X55231910Y51219366D01*
X55263231Y51236107D01*
X55297209Y51246415D01*
X55338690Y51250500D01*
X56014910Y51250500D01*
X56056391Y51246415D01*
G37*
G36*
X66428497Y53128249D02*
G01*
X66462152Y53118039D01*
X66493165Y53101462D01*
X66520351Y53079151D01*
X66542662Y53051965D01*
X66559239Y53020952D01*
X66569449Y52987297D01*
X66573500Y52946162D01*
X66573500Y50616438D01*
X66569449Y50575303D01*
X66559239Y50541648D01*
X66542662Y50510635D01*
X66520351Y50483449D01*
X66493165Y50461138D01*
X66462152Y50444561D01*
X66428497Y50434351D01*
X66387362Y50430300D01*
X65057638Y50430300D01*
X65016503Y50434351D01*
X64982848Y50444561D01*
X64951835Y50461138D01*
X64924649Y50483449D01*
X64902338Y50510635D01*
X64885761Y50541648D01*
X64875551Y50575303D01*
X64871500Y50616438D01*
X64871500Y52946162D01*
X64875551Y52987297D01*
X64885761Y53020952D01*
X64902338Y53051965D01*
X64924649Y53079151D01*
X64951835Y53101462D01*
X64982848Y53118039D01*
X65016503Y53128249D01*
X65057638Y53132300D01*
X66387362Y53132300D01*
X66428497Y53128249D01*
G37*
G36*
X75503681Y54261205D02*
G01*
X75539716Y54250273D01*
X75572924Y54232523D01*
X75602034Y54208634D01*
X75625923Y54179524D01*
X75643673Y54146316D01*
X75654605Y54110281D01*
X75658900Y54066669D01*
X75658900Y50962331D01*
X75654605Y50918719D01*
X75643673Y50882684D01*
X75625923Y50849476D01*
X75602034Y50820366D01*
X75572924Y50796477D01*
X75539716Y50778727D01*
X75503681Y50767795D01*
X75460069Y50763500D01*
X74455731Y50763500D01*
X74412119Y50767795D01*
X74376084Y50778727D01*
X74342876Y50796477D01*
X74313766Y50820366D01*
X74289877Y50849476D01*
X74272127Y50882684D01*
X74261195Y50918719D01*
X74256900Y50962331D01*
X74256900Y54066669D01*
X74261195Y54110281D01*
X74272127Y54146316D01*
X74289877Y54179524D01*
X74313766Y54208634D01*
X74342876Y54232523D01*
X74376084Y54250273D01*
X74412119Y54261205D01*
X74455731Y54265500D01*
X75460069Y54265500D01*
X75503681Y54261205D01*
G37*
G36*
X71053681Y54261205D02*
G01*
X71089716Y54250273D01*
X71122924Y54232523D01*
X71152034Y54208634D01*
X71175923Y54179524D01*
X71193673Y54146316D01*
X71204605Y54110281D01*
X71208900Y54066669D01*
X71208900Y50962331D01*
X71204605Y50918719D01*
X71193673Y50882684D01*
X71175923Y50849476D01*
X71152034Y50820366D01*
X71122924Y50796477D01*
X71089716Y50778727D01*
X71053681Y50767795D01*
X71010069Y50763500D01*
X70005731Y50763500D01*
X69962119Y50767795D01*
X69926084Y50778727D01*
X69892876Y50796477D01*
X69863766Y50820366D01*
X69839877Y50849476D01*
X69822127Y50882684D01*
X69811195Y50918719D01*
X69806900Y50962331D01*
X69806900Y54066669D01*
X69811195Y54110281D01*
X69822127Y54146316D01*
X69839877Y54179524D01*
X69863766Y54208634D01*
X69892876Y54232523D01*
X69926084Y54250273D01*
X69962119Y54261205D01*
X70005731Y54265500D01*
X71010069Y54265500D01*
X71053681Y54261205D01*
G37*
G36*
X90392228Y51554636D02*
G01*
X90413309Y51548240D01*
X90432745Y51537852D01*
X90449776Y51523876D01*
X90463752Y51506845D01*
X90474140Y51487409D01*
X90480536Y51466328D01*
X90483300Y51438260D01*
X90483300Y50974540D01*
X90480536Y50946472D01*
X90474140Y50925391D01*
X90463752Y50905955D01*
X90449776Y50888924D01*
X90432745Y50874948D01*
X90413309Y50864560D01*
X90392228Y50858164D01*
X90364160Y50855400D01*
X88550440Y50855400D01*
X88522372Y50858164D01*
X88501291Y50864560D01*
X88481855Y50874948D01*
X88464824Y50888924D01*
X88450848Y50905955D01*
X88440460Y50925391D01*
X88434064Y50946472D01*
X88431300Y50974540D01*
X88431300Y51438260D01*
X88434064Y51466328D01*
X88440460Y51487409D01*
X88450848Y51506845D01*
X88464824Y51523876D01*
X88481855Y51537852D01*
X88501291Y51548240D01*
X88522372Y51554636D01*
X88550440Y51557400D01*
X90364160Y51557400D01*
X90392228Y51554636D01*
G37*
G36*
X85442228Y51554636D02*
G01*
X85463309Y51548240D01*
X85482745Y51537852D01*
X85499776Y51523876D01*
X85513752Y51506845D01*
X85524140Y51487409D01*
X85530536Y51466328D01*
X85533300Y51438260D01*
X85533300Y50974540D01*
X85530536Y50946472D01*
X85524140Y50925391D01*
X85513752Y50905955D01*
X85499776Y50888924D01*
X85482745Y50874948D01*
X85463309Y50864560D01*
X85442228Y50858164D01*
X85414160Y50855400D01*
X83600440Y50855400D01*
X83572372Y50858164D01*
X83551291Y50864560D01*
X83531855Y50874948D01*
X83514824Y50888924D01*
X83500848Y50905955D01*
X83490460Y50925391D01*
X83484064Y50946472D01*
X83481300Y50974540D01*
X83481300Y51438260D01*
X83484064Y51466328D01*
X83490460Y51487409D01*
X83500848Y51506845D01*
X83514824Y51523876D01*
X83531855Y51537852D01*
X83551291Y51548240D01*
X83572372Y51554636D01*
X83600440Y51557400D01*
X85414160Y51557400D01*
X85442228Y51554636D01*
G37*
G36*
X109677300Y51161800D02*
G01*
X107975300Y51161800D01*
X107975300Y52063800D01*
X109677300Y52063800D01*
X109677300Y51161800D01*
G37*
G36*
X124177300Y51161800D02*
G01*
X122475300Y51161800D01*
X122475300Y52063800D01*
X124177300Y52063800D01*
X124177300Y51161800D01*
G37*
G36*
X85442228Y52824636D02*
G01*
X85463309Y52818240D01*
X85482745Y52807852D01*
X85499776Y52793876D01*
X85513752Y52776845D01*
X85524140Y52757409D01*
X85530536Y52736328D01*
X85533300Y52708260D01*
X85533300Y52244540D01*
X85530536Y52216472D01*
X85524140Y52195391D01*
X85513752Y52175955D01*
X85499776Y52158924D01*
X85482745Y52144948D01*
X85463309Y52134560D01*
X85442228Y52128164D01*
X85414160Y52125400D01*
X83600440Y52125400D01*
X83572372Y52128164D01*
X83551291Y52134560D01*
X83531855Y52144948D01*
X83514824Y52158924D01*
X83500848Y52175955D01*
X83490460Y52195391D01*
X83484064Y52216472D01*
X83481300Y52244540D01*
X83481300Y52708260D01*
X83484064Y52736328D01*
X83490460Y52757409D01*
X83500848Y52776845D01*
X83514824Y52793876D01*
X83531855Y52807852D01*
X83551291Y52818240D01*
X83572372Y52824636D01*
X83600440Y52827400D01*
X85414160Y52827400D01*
X85442228Y52824636D01*
G37*
G36*
X90392228Y52824636D02*
G01*
X90413309Y52818240D01*
X90432745Y52807852D01*
X90449776Y52793876D01*
X90463752Y52776845D01*
X90474140Y52757409D01*
X90480536Y52736328D01*
X90483300Y52708260D01*
X90483300Y52244540D01*
X90480536Y52216472D01*
X90474140Y52195391D01*
X90463752Y52175955D01*
X90449776Y52158924D01*
X90432745Y52144948D01*
X90413309Y52134560D01*
X90392228Y52128164D01*
X90364160Y52125400D01*
X88550440Y52125400D01*
X88522372Y52128164D01*
X88501291Y52134560D01*
X88481855Y52144948D01*
X88464824Y52158924D01*
X88450848Y52175955D01*
X88440460Y52195391D01*
X88434064Y52216472D01*
X88431300Y52244540D01*
X88431300Y52708260D01*
X88434064Y52736328D01*
X88440460Y52757409D01*
X88450848Y52776845D01*
X88464824Y52793876D01*
X88481855Y52807852D01*
X88501291Y52818240D01*
X88522372Y52824636D01*
X88550440Y52827400D01*
X90364160Y52827400D01*
X90392228Y52824636D01*
G37*
G36*
X55598595Y54254454D02*
G01*
X55771666Y54182766D01*
X55833203Y54141648D01*
X55927427Y54078690D01*
X56059890Y53946227D01*
X56081294Y53914193D01*
X56163966Y53790466D01*
X56235654Y53617395D01*
X56272200Y53433667D01*
X56272200Y53246333D01*
X56235654Y53062605D01*
X56163966Y52889534D01*
X56145233Y52861498D01*
X56059890Y52733773D01*
X55927427Y52601310D01*
X55849018Y52548919D01*
X55771666Y52497234D01*
X55598595Y52425546D01*
X55414867Y52389000D01*
X55227533Y52389000D01*
X55043805Y52425546D01*
X54870734Y52497234D01*
X54793382Y52548919D01*
X54714973Y52601310D01*
X54582510Y52733773D01*
X54497167Y52861498D01*
X54478434Y52889534D01*
X54406746Y53062605D01*
X54370200Y53246333D01*
X54370200Y53433667D01*
X54406746Y53617395D01*
X54478434Y53790466D01*
X54561106Y53914193D01*
X54582510Y53946227D01*
X54714973Y54078690D01*
X54809197Y54141648D01*
X54870734Y54182766D01*
X55043805Y54254454D01*
X55227533Y54291000D01*
X55414867Y54291000D01*
X55598595Y54254454D01*
G37*
G36*
X61865700Y52683000D02*
G01*
X61163700Y52683000D01*
X61163700Y53235000D01*
X61865700Y53235000D01*
X61865700Y52683000D01*
G37*
G36*
X59765700Y52683000D02*
G01*
X59063700Y52683000D01*
X59063700Y53235000D01*
X59765700Y53235000D01*
X59765700Y52683000D01*
G37*
G36*
X113634504Y54629953D02*
G01*
X113671044Y54618868D01*
X113704721Y54600867D01*
X113734241Y54576641D01*
X113758467Y54547121D01*
X113776468Y54513444D01*
X113787553Y54476904D01*
X113791900Y54432762D01*
X113791900Y52983838D01*
X113787553Y52939696D01*
X113776468Y52903156D01*
X113758467Y52869479D01*
X113734241Y52839959D01*
X113704721Y52815733D01*
X113671044Y52797732D01*
X113634504Y52786647D01*
X113590362Y52782300D01*
X112641438Y52782300D01*
X112597296Y52786647D01*
X112560756Y52797732D01*
X112527079Y52815733D01*
X112497559Y52839959D01*
X112473333Y52869479D01*
X112455332Y52903156D01*
X112444247Y52939696D01*
X112439900Y52983838D01*
X112439900Y54432762D01*
X112444247Y54476904D01*
X112455332Y54513444D01*
X112473333Y54547121D01*
X112497559Y54576641D01*
X112527079Y54600867D01*
X112560756Y54618868D01*
X112597296Y54629953D01*
X112641438Y54634300D01*
X113590362Y54634300D01*
X113634504Y54629953D01*
G37*
G36*
X116434504Y54629953D02*
G01*
X116471044Y54618868D01*
X116504721Y54600867D01*
X116534241Y54576641D01*
X116558467Y54547121D01*
X116576468Y54513444D01*
X116587553Y54476904D01*
X116591900Y54432762D01*
X116591900Y52983838D01*
X116587553Y52939696D01*
X116576468Y52903156D01*
X116558467Y52869479D01*
X116534241Y52839959D01*
X116504721Y52815733D01*
X116471044Y52797732D01*
X116434504Y52786647D01*
X116390362Y52782300D01*
X115441438Y52782300D01*
X115397296Y52786647D01*
X115360756Y52797732D01*
X115327079Y52815733D01*
X115297559Y52839959D01*
X115273333Y52869479D01*
X115255332Y52903156D01*
X115244247Y52939696D01*
X115239900Y52983838D01*
X115239900Y54432762D01*
X115244247Y54476904D01*
X115255332Y54513444D01*
X115273333Y54547121D01*
X115297559Y54576641D01*
X115327079Y54600867D01*
X115360756Y54618868D01*
X115397296Y54629953D01*
X115441438Y54634300D01*
X116390362Y54634300D01*
X116434504Y54629953D01*
G37*
G36*
X78087100Y52947000D02*
G01*
X77085100Y52947000D01*
X77085100Y54749000D01*
X78087100Y54749000D01*
X78087100Y52947000D01*
G37*
G36*
X81487100Y52947000D02*
G01*
X80485100Y52947000D01*
X80485100Y54749000D01*
X81487100Y54749000D01*
X81487100Y52947000D01*
G37*
G36*
X111267474Y54454835D02*
G01*
X111305167Y54443401D01*
X111339903Y54424834D01*
X111370348Y54399848D01*
X111395334Y54369403D01*
X111413901Y54334667D01*
X111425335Y54296974D01*
X111429800Y54251639D01*
X111429800Y53164961D01*
X111425335Y53119626D01*
X111413901Y53081933D01*
X111395334Y53047197D01*
X111370348Y53016752D01*
X111339903Y52991766D01*
X111305167Y52973199D01*
X111267474Y52961765D01*
X111222139Y52957300D01*
X110385461Y52957300D01*
X110340126Y52961765D01*
X110302433Y52973199D01*
X110267697Y52991766D01*
X110237252Y53016752D01*
X110212266Y53047197D01*
X110193699Y53081933D01*
X110182265Y53119626D01*
X110177800Y53164961D01*
X110177800Y54251639D01*
X110182265Y54296974D01*
X110193699Y54334667D01*
X110212266Y54369403D01*
X110237252Y54399848D01*
X110267697Y54424834D01*
X110302433Y54443401D01*
X110340126Y54454835D01*
X110385461Y54459300D01*
X111222139Y54459300D01*
X111267474Y54454835D01*
G37*
G36*
X109217474Y54454835D02*
G01*
X109255167Y54443401D01*
X109289903Y54424834D01*
X109320348Y54399848D01*
X109345334Y54369403D01*
X109363901Y54334667D01*
X109375335Y54296974D01*
X109379800Y54251639D01*
X109379800Y53164961D01*
X109375335Y53119626D01*
X109363901Y53081933D01*
X109345334Y53047197D01*
X109320348Y53016752D01*
X109289903Y52991766D01*
X109255167Y52973199D01*
X109217474Y52961765D01*
X109172139Y52957300D01*
X108335461Y52957300D01*
X108290126Y52961765D01*
X108252433Y52973199D01*
X108217697Y52991766D01*
X108187252Y53016752D01*
X108162266Y53047197D01*
X108143699Y53081933D01*
X108132265Y53119626D01*
X108127800Y53164961D01*
X108127800Y54251639D01*
X108132265Y54296974D01*
X108143699Y54334667D01*
X108162266Y54369403D01*
X108187252Y54399848D01*
X108217697Y54424834D01*
X108252433Y54443401D01*
X108290126Y54454835D01*
X108335461Y54459300D01*
X109172139Y54459300D01*
X109217474Y54454835D01*
G37*
G36*
X120741674Y54480235D02*
G01*
X120779367Y54468801D01*
X120814103Y54450234D01*
X120844548Y54425248D01*
X120869534Y54394803D01*
X120888101Y54360067D01*
X120899535Y54322374D01*
X120904000Y54277039D01*
X120904000Y53190361D01*
X120899535Y53145026D01*
X120888101Y53107333D01*
X120869534Y53072597D01*
X120844548Y53042152D01*
X120814103Y53017166D01*
X120779367Y52998599D01*
X120741674Y52987165D01*
X120696339Y52982700D01*
X119859661Y52982700D01*
X119814326Y52987165D01*
X119776633Y52998599D01*
X119741897Y53017166D01*
X119711452Y53042152D01*
X119686466Y53072597D01*
X119667899Y53107333D01*
X119656465Y53145026D01*
X119652000Y53190361D01*
X119652000Y54277039D01*
X119656465Y54322374D01*
X119667899Y54360067D01*
X119686466Y54394803D01*
X119711452Y54425248D01*
X119741897Y54450234D01*
X119776633Y54468801D01*
X119814326Y54480235D01*
X119859661Y54484700D01*
X120696339Y54484700D01*
X120741674Y54480235D01*
G37*
G36*
X118691674Y54480235D02*
G01*
X118729367Y54468801D01*
X118764103Y54450234D01*
X118794548Y54425248D01*
X118819534Y54394803D01*
X118838101Y54360067D01*
X118849535Y54322374D01*
X118854000Y54277039D01*
X118854000Y53190361D01*
X118849535Y53145026D01*
X118838101Y53107333D01*
X118819534Y53072597D01*
X118794548Y53042152D01*
X118764103Y53017166D01*
X118729367Y52998599D01*
X118691674Y52987165D01*
X118646339Y52982700D01*
X117809661Y52982700D01*
X117764326Y52987165D01*
X117726633Y52998599D01*
X117691897Y53017166D01*
X117661452Y53042152D01*
X117636466Y53072597D01*
X117617899Y53107333D01*
X117606465Y53145026D01*
X117602000Y53190361D01*
X117602000Y54277039D01*
X117606465Y54322374D01*
X117617899Y54360067D01*
X117636466Y54394803D01*
X117661452Y54425248D01*
X117691897Y54450234D01*
X117726633Y54468801D01*
X117764326Y54480235D01*
X117809661Y54484700D01*
X118646339Y54484700D01*
X118691674Y54480235D01*
G37*
G36*
X95483642Y54605519D02*
G01*
X95629414Y54545138D01*
X95629416Y54545137D01*
X95760608Y54457478D01*
X95872178Y54345908D01*
X95956265Y54220062D01*
X95959838Y54214714D01*
X96020219Y54068942D01*
X96051000Y53914193D01*
X96051000Y53756407D01*
X96020219Y53601658D01*
X95984133Y53514540D01*
X95959837Y53455884D01*
X95872178Y53324692D01*
X95760608Y53213122D01*
X95629416Y53125463D01*
X95629415Y53125462D01*
X95629414Y53125462D01*
X95483642Y53065081D01*
X95328893Y53034300D01*
X95171107Y53034300D01*
X95016358Y53065081D01*
X94870586Y53125462D01*
X94870585Y53125462D01*
X94870584Y53125463D01*
X94739392Y53213122D01*
X94627822Y53324692D01*
X94540163Y53455884D01*
X94515867Y53514540D01*
X94479781Y53601658D01*
X94449000Y53756407D01*
X94449000Y53914193D01*
X94479781Y54068942D01*
X94540162Y54214714D01*
X94543735Y54220062D01*
X94627822Y54345908D01*
X94739392Y54457478D01*
X94870584Y54545137D01*
X94870586Y54545138D01*
X95016358Y54605519D01*
X95171107Y54636300D01*
X95328893Y54636300D01*
X95483642Y54605519D01*
G37*
G36*
X92943642Y54605519D02*
G01*
X93089414Y54545138D01*
X93089416Y54545137D01*
X93220608Y54457478D01*
X93332178Y54345908D01*
X93416265Y54220062D01*
X93419838Y54214714D01*
X93480219Y54068942D01*
X93511000Y53914193D01*
X93511000Y53756407D01*
X93480219Y53601658D01*
X93444133Y53514540D01*
X93419837Y53455884D01*
X93332178Y53324692D01*
X93220608Y53213122D01*
X93089416Y53125463D01*
X93089415Y53125462D01*
X93089414Y53125462D01*
X92943642Y53065081D01*
X92788893Y53034300D01*
X92631107Y53034300D01*
X92476358Y53065081D01*
X92330586Y53125462D01*
X92330585Y53125462D01*
X92330584Y53125463D01*
X92199392Y53213122D01*
X92087822Y53324692D01*
X92000163Y53455884D01*
X91975867Y53514540D01*
X91939781Y53601658D01*
X91909000Y53756407D01*
X91909000Y53914193D01*
X91939781Y54068942D01*
X92000162Y54214714D01*
X92003735Y54220062D01*
X92087822Y54345908D01*
X92199392Y54457478D01*
X92330584Y54545137D01*
X92330586Y54545138D01*
X92476358Y54605519D01*
X92631107Y54636300D01*
X92788893Y54636300D01*
X92943642Y54605519D01*
G37*
G36*
X98023642Y54605519D02*
G01*
X98169414Y54545138D01*
X98169416Y54545137D01*
X98300608Y54457478D01*
X98412178Y54345908D01*
X98496265Y54220062D01*
X98499838Y54214714D01*
X98560219Y54068942D01*
X98591000Y53914193D01*
X98591000Y53756407D01*
X98560219Y53601658D01*
X98524133Y53514540D01*
X98499837Y53455884D01*
X98412178Y53324692D01*
X98300608Y53213122D01*
X98169416Y53125463D01*
X98169415Y53125462D01*
X98169414Y53125462D01*
X98023642Y53065081D01*
X97868893Y53034300D01*
X97711107Y53034300D01*
X97556358Y53065081D01*
X97410586Y53125462D01*
X97410585Y53125462D01*
X97410584Y53125463D01*
X97279392Y53213122D01*
X97167822Y53324692D01*
X97080163Y53455884D01*
X97055867Y53514540D01*
X97019781Y53601658D01*
X96989000Y53756407D01*
X96989000Y53914193D01*
X97019781Y54068942D01*
X97080162Y54214714D01*
X97083735Y54220062D01*
X97167822Y54345908D01*
X97279392Y54457478D01*
X97410584Y54545137D01*
X97410586Y54545138D01*
X97556358Y54605519D01*
X97711107Y54636300D01*
X97868893Y54636300D01*
X98023642Y54605519D01*
G37*
G36*
X105643642Y54605519D02*
G01*
X105789414Y54545138D01*
X105789416Y54545137D01*
X105920608Y54457478D01*
X106032178Y54345908D01*
X106116265Y54220062D01*
X106119838Y54214714D01*
X106180219Y54068942D01*
X106211000Y53914193D01*
X106211000Y53756407D01*
X106180219Y53601658D01*
X106144133Y53514540D01*
X106119837Y53455884D01*
X106032178Y53324692D01*
X105920608Y53213122D01*
X105789416Y53125463D01*
X105789415Y53125462D01*
X105789414Y53125462D01*
X105643642Y53065081D01*
X105488893Y53034300D01*
X105331107Y53034300D01*
X105176358Y53065081D01*
X105030586Y53125462D01*
X105030585Y53125462D01*
X105030584Y53125463D01*
X104899392Y53213122D01*
X104787822Y53324692D01*
X104700163Y53455884D01*
X104675867Y53514540D01*
X104639781Y53601658D01*
X104609000Y53756407D01*
X104609000Y53914193D01*
X104639781Y54068942D01*
X104700162Y54214714D01*
X104703735Y54220062D01*
X104787822Y54345908D01*
X104899392Y54457478D01*
X105030584Y54545137D01*
X105030586Y54545138D01*
X105176358Y54605519D01*
X105331107Y54636300D01*
X105488893Y54636300D01*
X105643642Y54605519D01*
G37*
G36*
X103103642Y54605519D02*
G01*
X103249414Y54545138D01*
X103249416Y54545137D01*
X103380608Y54457478D01*
X103492178Y54345908D01*
X103576265Y54220062D01*
X103579838Y54214714D01*
X103640219Y54068942D01*
X103671000Y53914193D01*
X103671000Y53756407D01*
X103640219Y53601658D01*
X103604133Y53514540D01*
X103579837Y53455884D01*
X103492178Y53324692D01*
X103380608Y53213122D01*
X103249416Y53125463D01*
X103249415Y53125462D01*
X103249414Y53125462D01*
X103103642Y53065081D01*
X102948893Y53034300D01*
X102791107Y53034300D01*
X102636358Y53065081D01*
X102490586Y53125462D01*
X102490585Y53125462D01*
X102490584Y53125463D01*
X102359392Y53213122D01*
X102247822Y53324692D01*
X102160163Y53455884D01*
X102135867Y53514540D01*
X102099781Y53601658D01*
X102069000Y53756407D01*
X102069000Y53914193D01*
X102099781Y54068942D01*
X102160162Y54214714D01*
X102163735Y54220062D01*
X102247822Y54345908D01*
X102359392Y54457478D01*
X102490584Y54545137D01*
X102490586Y54545138D01*
X102636358Y54605519D01*
X102791107Y54636300D01*
X102948893Y54636300D01*
X103103642Y54605519D01*
G37*
G36*
X100563642Y54605519D02*
G01*
X100709414Y54545138D01*
X100709416Y54545137D01*
X100840608Y54457478D01*
X100952178Y54345908D01*
X101036265Y54220062D01*
X101039838Y54214714D01*
X101100219Y54068942D01*
X101131000Y53914193D01*
X101131000Y53756407D01*
X101100219Y53601658D01*
X101064133Y53514540D01*
X101039837Y53455884D01*
X100952178Y53324692D01*
X100840608Y53213122D01*
X100709416Y53125463D01*
X100709415Y53125462D01*
X100709414Y53125462D01*
X100563642Y53065081D01*
X100408893Y53034300D01*
X100251107Y53034300D01*
X100096358Y53065081D01*
X99950586Y53125462D01*
X99950585Y53125462D01*
X99950584Y53125463D01*
X99819392Y53213122D01*
X99707822Y53324692D01*
X99620163Y53455884D01*
X99595867Y53514540D01*
X99559781Y53601658D01*
X99529000Y53756407D01*
X99529000Y53914193D01*
X99559781Y54068942D01*
X99620162Y54214714D01*
X99623735Y54220062D01*
X99707822Y54345908D01*
X99819392Y54457478D01*
X99950584Y54545137D01*
X99950586Y54545138D01*
X100096358Y54605519D01*
X100251107Y54636300D01*
X100408893Y54636300D01*
X100563642Y54605519D01*
G37*
G36*
X90392228Y54094636D02*
G01*
X90413309Y54088240D01*
X90432745Y54077852D01*
X90449776Y54063876D01*
X90463752Y54046845D01*
X90474140Y54027409D01*
X90480536Y54006328D01*
X90483300Y53978260D01*
X90483300Y53514540D01*
X90480536Y53486472D01*
X90474140Y53465391D01*
X90463752Y53445955D01*
X90449776Y53428924D01*
X90432745Y53414948D01*
X90413309Y53404560D01*
X90392228Y53398164D01*
X90364160Y53395400D01*
X88550440Y53395400D01*
X88522372Y53398164D01*
X88501291Y53404560D01*
X88481855Y53414948D01*
X88464824Y53428924D01*
X88450848Y53445955D01*
X88440460Y53465391D01*
X88434064Y53486472D01*
X88431300Y53514540D01*
X88431300Y53978260D01*
X88434064Y54006328D01*
X88440460Y54027409D01*
X88450848Y54046845D01*
X88464824Y54063876D01*
X88481855Y54077852D01*
X88501291Y54088240D01*
X88522372Y54094636D01*
X88550440Y54097400D01*
X90364160Y54097400D01*
X90392228Y54094636D01*
G37*
G36*
X85442228Y54094636D02*
G01*
X85463309Y54088240D01*
X85482745Y54077852D01*
X85499776Y54063876D01*
X85513752Y54046845D01*
X85524140Y54027409D01*
X85530536Y54006328D01*
X85533300Y53978260D01*
X85533300Y53514540D01*
X85530536Y53486472D01*
X85524140Y53465391D01*
X85513752Y53445955D01*
X85499776Y53428924D01*
X85482745Y53414948D01*
X85463309Y53404560D01*
X85442228Y53398164D01*
X85414160Y53395400D01*
X83600440Y53395400D01*
X83572372Y53398164D01*
X83551291Y53404560D01*
X83531855Y53414948D01*
X83514824Y53428924D01*
X83500848Y53445955D01*
X83490460Y53465391D01*
X83484064Y53486472D01*
X83481300Y53514540D01*
X83481300Y53978260D01*
X83484064Y54006328D01*
X83490460Y54027409D01*
X83500848Y54046845D01*
X83514824Y54063876D01*
X83531855Y54077852D01*
X83551291Y54088240D01*
X83572372Y54094636D01*
X83600440Y54097400D01*
X85414160Y54097400D01*
X85442228Y54094636D01*
G37*
G36*
X66428497Y56728249D02*
G01*
X66462152Y56718039D01*
X66493165Y56701462D01*
X66520351Y56679151D01*
X66542662Y56651965D01*
X66559239Y56620952D01*
X66569449Y56587297D01*
X66573500Y56546162D01*
X66573500Y54216438D01*
X66569449Y54175303D01*
X66559239Y54141648D01*
X66542662Y54110635D01*
X66520351Y54083449D01*
X66493165Y54061138D01*
X66462152Y54044561D01*
X66428497Y54034351D01*
X66387362Y54030300D01*
X65057638Y54030300D01*
X65016503Y54034351D01*
X64982848Y54044561D01*
X64951835Y54061138D01*
X64924649Y54083449D01*
X64902338Y54110635D01*
X64885761Y54141648D01*
X64875551Y54175303D01*
X64871500Y54216438D01*
X64871500Y56546162D01*
X64875551Y56587297D01*
X64885761Y56620952D01*
X64902338Y56651965D01*
X64924649Y56679151D01*
X64951835Y56701462D01*
X64982848Y56718039D01*
X65016503Y56728249D01*
X65057638Y56732300D01*
X66387362Y56732300D01*
X66428497Y56728249D01*
G37*
G36*
X85442228Y55364636D02*
G01*
X85463309Y55358240D01*
X85482745Y55347852D01*
X85499776Y55333876D01*
X85513752Y55316845D01*
X85524140Y55297409D01*
X85530536Y55276328D01*
X85533300Y55248260D01*
X85533300Y54784540D01*
X85530536Y54756472D01*
X85524140Y54735391D01*
X85513752Y54715955D01*
X85499776Y54698924D01*
X85482745Y54684948D01*
X85463309Y54674560D01*
X85442228Y54668164D01*
X85414160Y54665400D01*
X83600440Y54665400D01*
X83572372Y54668164D01*
X83551291Y54674560D01*
X83531855Y54684948D01*
X83514824Y54698924D01*
X83500848Y54715955D01*
X83490460Y54735391D01*
X83484064Y54756472D01*
X83481300Y54784540D01*
X83481300Y55248260D01*
X83484064Y55276328D01*
X83490460Y55297409D01*
X83500848Y55316845D01*
X83514824Y55333876D01*
X83531855Y55347852D01*
X83551291Y55358240D01*
X83572372Y55364636D01*
X83600440Y55367400D01*
X85414160Y55367400D01*
X85442228Y55364636D01*
G37*
G36*
X90392228Y55364636D02*
G01*
X90413309Y55358240D01*
X90432745Y55347852D01*
X90449776Y55333876D01*
X90463752Y55316845D01*
X90474140Y55297409D01*
X90480536Y55276328D01*
X90483300Y55248260D01*
X90483300Y54784540D01*
X90480536Y54756472D01*
X90474140Y54735391D01*
X90463752Y54715955D01*
X90449776Y54698924D01*
X90432745Y54684948D01*
X90413309Y54674560D01*
X90392228Y54668164D01*
X90364160Y54665400D01*
X88550440Y54665400D01*
X88522372Y54668164D01*
X88501291Y54674560D01*
X88481855Y54684948D01*
X88464824Y54698924D01*
X88450848Y54715955D01*
X88440460Y54735391D01*
X88434064Y54756472D01*
X88431300Y54784540D01*
X88431300Y55248260D01*
X88434064Y55276328D01*
X88440460Y55297409D01*
X88450848Y55316845D01*
X88464824Y55333876D01*
X88481855Y55347852D01*
X88501291Y55358240D01*
X88522372Y55364636D01*
X88550440Y55367400D01*
X90364160Y55367400D01*
X90392228Y55364636D01*
G37*
G36*
X97322191Y56834315D02*
G01*
X97356169Y56824007D01*
X97387490Y56807266D01*
X97414939Y56784739D01*
X97437466Y56757290D01*
X97454207Y56725969D01*
X97464515Y56691991D01*
X97468600Y56650510D01*
X97468600Y55974290D01*
X97464515Y55932809D01*
X97454207Y55898831D01*
X97437466Y55867510D01*
X97414939Y55840061D01*
X97387490Y55817534D01*
X97356169Y55800793D01*
X97322191Y55790485D01*
X97280710Y55786400D01*
X96679490Y55786400D01*
X96638009Y55790485D01*
X96604031Y55800793D01*
X96572710Y55817534D01*
X96545261Y55840061D01*
X96522734Y55867510D01*
X96505993Y55898831D01*
X96495685Y55932809D01*
X96491600Y55974290D01*
X96491600Y56650510D01*
X96495685Y56691991D01*
X96505993Y56725969D01*
X96522734Y56757290D01*
X96545261Y56784739D01*
X96572710Y56807266D01*
X96604031Y56824007D01*
X96638009Y56834315D01*
X96679490Y56838400D01*
X97280710Y56838400D01*
X97322191Y56834315D01*
G37*
G36*
X98897191Y56834315D02*
G01*
X98931169Y56824007D01*
X98962490Y56807266D01*
X98989939Y56784739D01*
X99012466Y56757290D01*
X99029207Y56725969D01*
X99039515Y56691991D01*
X99043600Y56650510D01*
X99043600Y55974290D01*
X99039515Y55932809D01*
X99029207Y55898831D01*
X99012466Y55867510D01*
X98989939Y55840061D01*
X98962490Y55817534D01*
X98931169Y55800793D01*
X98897191Y55790485D01*
X98855710Y55786400D01*
X98254490Y55786400D01*
X98213009Y55790485D01*
X98179031Y55800793D01*
X98147710Y55817534D01*
X98120261Y55840061D01*
X98097734Y55867510D01*
X98080993Y55898831D01*
X98070685Y55932809D01*
X98066600Y55974290D01*
X98066600Y56650510D01*
X98070685Y56691991D01*
X98080993Y56725969D01*
X98097734Y56757290D01*
X98120261Y56784739D01*
X98147710Y56807266D01*
X98179031Y56824007D01*
X98213009Y56834315D01*
X98254490Y56838400D01*
X98855710Y56838400D01*
X98897191Y56834315D01*
G37*
G36*
X103646791Y56859715D02*
G01*
X103680769Y56849407D01*
X103712090Y56832666D01*
X103739539Y56810139D01*
X103762066Y56782690D01*
X103778807Y56751369D01*
X103789115Y56717391D01*
X103793200Y56675910D01*
X103793200Y55999690D01*
X103789115Y55958209D01*
X103778807Y55924231D01*
X103762066Y55892910D01*
X103739539Y55865461D01*
X103712090Y55842934D01*
X103680769Y55826193D01*
X103646791Y55815885D01*
X103605310Y55811800D01*
X103004090Y55811800D01*
X102962609Y55815885D01*
X102928631Y55826193D01*
X102897310Y55842934D01*
X102869861Y55865461D01*
X102847334Y55892910D01*
X102830593Y55924231D01*
X102820285Y55958209D01*
X102816200Y55999690D01*
X102816200Y56675910D01*
X102820285Y56717391D01*
X102830593Y56751369D01*
X102847334Y56782690D01*
X102869861Y56810139D01*
X102897310Y56832666D01*
X102928631Y56849407D01*
X102962609Y56859715D01*
X103004090Y56863800D01*
X103605310Y56863800D01*
X103646791Y56859715D01*
G37*
G36*
X105221791Y56859715D02*
G01*
X105255769Y56849407D01*
X105287090Y56832666D01*
X105314539Y56810139D01*
X105337066Y56782690D01*
X105353807Y56751369D01*
X105364115Y56717391D01*
X105368200Y56675910D01*
X105368200Y55999690D01*
X105364115Y55958209D01*
X105353807Y55924231D01*
X105337066Y55892910D01*
X105314539Y55865461D01*
X105287090Y55842934D01*
X105255769Y55826193D01*
X105221791Y55815885D01*
X105180310Y55811800D01*
X104579090Y55811800D01*
X104537609Y55815885D01*
X104503631Y55826193D01*
X104472310Y55842934D01*
X104444861Y55865461D01*
X104422334Y55892910D01*
X104405593Y55924231D01*
X104395285Y55958209D01*
X104391200Y55999690D01*
X104391200Y56675910D01*
X104395285Y56717391D01*
X104405593Y56751369D01*
X104422334Y56782690D01*
X104444861Y56810139D01*
X104472310Y56832666D01*
X104503631Y56849407D01*
X104537609Y56859715D01*
X104579090Y56863800D01*
X105180310Y56863800D01*
X105221791Y56859715D01*
G37*
G36*
X102097591Y56859715D02*
G01*
X102131569Y56849407D01*
X102162890Y56832666D01*
X102190339Y56810139D01*
X102212866Y56782690D01*
X102229607Y56751369D01*
X102239915Y56717391D01*
X102244000Y56675910D01*
X102244000Y55999690D01*
X102239915Y55958209D01*
X102229607Y55924231D01*
X102212866Y55892910D01*
X102190339Y55865461D01*
X102162890Y55842934D01*
X102131569Y55826193D01*
X102097591Y55815885D01*
X102056110Y55811800D01*
X101454890Y55811800D01*
X101413409Y55815885D01*
X101379431Y55826193D01*
X101348110Y55842934D01*
X101320661Y55865461D01*
X101298134Y55892910D01*
X101281393Y55924231D01*
X101271085Y55958209D01*
X101267000Y55999690D01*
X101267000Y56675910D01*
X101271085Y56717391D01*
X101281393Y56751369D01*
X101298134Y56782690D01*
X101320661Y56810139D01*
X101348110Y56832666D01*
X101379431Y56849407D01*
X101413409Y56859715D01*
X101454890Y56863800D01*
X102056110Y56863800D01*
X102097591Y56859715D01*
G37*
G36*
X100522591Y56859715D02*
G01*
X100556569Y56849407D01*
X100587890Y56832666D01*
X100615339Y56810139D01*
X100637866Y56782690D01*
X100654607Y56751369D01*
X100664915Y56717391D01*
X100669000Y56675910D01*
X100669000Y55999690D01*
X100664915Y55958209D01*
X100654607Y55924231D01*
X100637866Y55892910D01*
X100615339Y55865461D01*
X100587890Y55842934D01*
X100556569Y55826193D01*
X100522591Y55815885D01*
X100481110Y55811800D01*
X99879890Y55811800D01*
X99838409Y55815885D01*
X99804431Y55826193D01*
X99773110Y55842934D01*
X99745661Y55865461D01*
X99723134Y55892910D01*
X99706393Y55924231D01*
X99696085Y55958209D01*
X99692000Y55999690D01*
X99692000Y56675910D01*
X99696085Y56717391D01*
X99706393Y56751369D01*
X99723134Y56782690D01*
X99745661Y56810139D01*
X99773110Y56832666D01*
X99804431Y56849407D01*
X99838409Y56859715D01*
X99879890Y56863800D01*
X100481110Y56863800D01*
X100522591Y56859715D01*
G37*
G36*
X71091781Y59696805D02*
G01*
X71127816Y59685873D01*
X71161024Y59668123D01*
X71190134Y59644234D01*
X71214023Y59615124D01*
X71231773Y59581916D01*
X71242705Y59545881D01*
X71247000Y59502269D01*
X71247000Y56397931D01*
X71242705Y56354319D01*
X71231773Y56318284D01*
X71214023Y56285076D01*
X71190134Y56255966D01*
X71161024Y56232077D01*
X71127816Y56214327D01*
X71091781Y56203395D01*
X71048169Y56199100D01*
X70043831Y56199100D01*
X70000219Y56203395D01*
X69964184Y56214327D01*
X69930976Y56232077D01*
X69901866Y56255966D01*
X69877977Y56285076D01*
X69860227Y56318284D01*
X69849295Y56354319D01*
X69845000Y56397931D01*
X69845000Y59502269D01*
X69849295Y59545881D01*
X69860227Y59581916D01*
X69877977Y59615124D01*
X69901866Y59644234D01*
X69930976Y59668123D01*
X69964184Y59685873D01*
X70000219Y59696805D01*
X70043831Y59701100D01*
X71048169Y59701100D01*
X71091781Y59696805D01*
G37*
G36*
X75541781Y59696805D02*
G01*
X75577816Y59685873D01*
X75611024Y59668123D01*
X75640134Y59644234D01*
X75664023Y59615124D01*
X75681773Y59581916D01*
X75692705Y59545881D01*
X75697000Y59502269D01*
X75697000Y56397931D01*
X75692705Y56354319D01*
X75681773Y56318284D01*
X75664023Y56285076D01*
X75640134Y56255966D01*
X75611024Y56232077D01*
X75577816Y56214327D01*
X75541781Y56203395D01*
X75498169Y56199100D01*
X74493831Y56199100D01*
X74450219Y56203395D01*
X74414184Y56214327D01*
X74380976Y56232077D01*
X74351866Y56255966D01*
X74327977Y56285076D01*
X74310227Y56318284D01*
X74299295Y56354319D01*
X74295000Y56397931D01*
X74295000Y59502269D01*
X74299295Y59545881D01*
X74310227Y59581916D01*
X74327977Y59615124D01*
X74351866Y59644234D01*
X74380976Y59668123D01*
X74414184Y59685873D01*
X74450219Y59696805D01*
X74493831Y59701100D01*
X75498169Y59701100D01*
X75541781Y59696805D01*
G37*
G36*
X85404128Y57155336D02*
G01*
X85425209Y57148940D01*
X85444645Y57138552D01*
X85461676Y57124576D01*
X85475652Y57107545D01*
X85486040Y57088109D01*
X85492436Y57067028D01*
X85495200Y57038960D01*
X85495200Y56575240D01*
X85492436Y56547172D01*
X85486040Y56526091D01*
X85475652Y56506655D01*
X85461676Y56489624D01*
X85444645Y56475648D01*
X85425209Y56465260D01*
X85404128Y56458864D01*
X85376060Y56456100D01*
X83562340Y56456100D01*
X83534272Y56458864D01*
X83513191Y56465260D01*
X83493755Y56475648D01*
X83476724Y56489624D01*
X83462748Y56506655D01*
X83452360Y56526091D01*
X83445964Y56547172D01*
X83443200Y56575240D01*
X83443200Y57038960D01*
X83445964Y57067028D01*
X83452360Y57088109D01*
X83462748Y57107545D01*
X83476724Y57124576D01*
X83493755Y57138552D01*
X83513191Y57148940D01*
X83534272Y57155336D01*
X83562340Y57158100D01*
X85376060Y57158100D01*
X85404128Y57155336D01*
G37*
G36*
X90354128Y57155336D02*
G01*
X90375209Y57148940D01*
X90394645Y57138552D01*
X90411676Y57124576D01*
X90425652Y57107545D01*
X90436040Y57088109D01*
X90442436Y57067028D01*
X90445200Y57038960D01*
X90445200Y56575240D01*
X90442436Y56547172D01*
X90436040Y56526091D01*
X90425652Y56506655D01*
X90411676Y56489624D01*
X90394645Y56475648D01*
X90375209Y56465260D01*
X90354128Y56458864D01*
X90326060Y56456100D01*
X88512340Y56456100D01*
X88484272Y56458864D01*
X88463191Y56465260D01*
X88443755Y56475648D01*
X88426724Y56489624D01*
X88412748Y56506655D01*
X88402360Y56526091D01*
X88395964Y56547172D01*
X88393200Y56575240D01*
X88393200Y57038960D01*
X88395964Y57067028D01*
X88402360Y57088109D01*
X88412748Y57107545D01*
X88426724Y57124576D01*
X88443755Y57138552D01*
X88463191Y57148940D01*
X88484272Y57155336D01*
X88512340Y57158100D01*
X90326060Y57158100D01*
X90354128Y57155336D01*
G37*
G36*
X81003374Y58023535D02*
G01*
X81041067Y58012101D01*
X81075803Y57993534D01*
X81106248Y57968548D01*
X81131234Y57938103D01*
X81149801Y57903367D01*
X81161235Y57865674D01*
X81165700Y57820339D01*
X81165700Y56733661D01*
X81161235Y56688326D01*
X81149801Y56650633D01*
X81131234Y56615897D01*
X81106248Y56585452D01*
X81075803Y56560466D01*
X81041067Y56541899D01*
X81003374Y56530465D01*
X80958039Y56526000D01*
X80121361Y56526000D01*
X80076026Y56530465D01*
X80038333Y56541899D01*
X80003597Y56560466D01*
X79973152Y56585452D01*
X79948166Y56615897D01*
X79929599Y56650633D01*
X79918165Y56688326D01*
X79913700Y56733661D01*
X79913700Y57820339D01*
X79918165Y57865674D01*
X79929599Y57903367D01*
X79948166Y57938103D01*
X79973152Y57968548D01*
X80003597Y57993534D01*
X80038333Y58012101D01*
X80076026Y58023535D01*
X80121361Y58028000D01*
X80958039Y58028000D01*
X81003374Y58023535D01*
G37*
G36*
X78953374Y58023535D02*
G01*
X78991067Y58012101D01*
X79025803Y57993534D01*
X79056248Y57968548D01*
X79081234Y57938103D01*
X79099801Y57903367D01*
X79111235Y57865674D01*
X79115700Y57820339D01*
X79115700Y56733661D01*
X79111235Y56688326D01*
X79099801Y56650633D01*
X79081234Y56615897D01*
X79056248Y56585452D01*
X79025803Y56560466D01*
X78991067Y56541899D01*
X78953374Y56530465D01*
X78908039Y56526000D01*
X78071361Y56526000D01*
X78026026Y56530465D01*
X77988333Y56541899D01*
X77953597Y56560466D01*
X77923152Y56585452D01*
X77898166Y56615897D01*
X77879599Y56650633D01*
X77868165Y56688326D01*
X77863700Y56733661D01*
X77863700Y57820339D01*
X77868165Y57865674D01*
X77879599Y57903367D01*
X77898166Y57938103D01*
X77923152Y57968548D01*
X77953597Y57993534D01*
X77988333Y58012101D01*
X78026026Y58023535D01*
X78071361Y58028000D01*
X78908039Y58028000D01*
X78953374Y58023535D01*
G37*
G36*
X117838100Y56884000D02*
G01*
X116836100Y56884000D01*
X116836100Y58686000D01*
X117838100Y58686000D01*
X117838100Y56884000D01*
G37*
G36*
X121238100Y56884000D02*
G01*
X120236100Y56884000D01*
X120236100Y58686000D01*
X121238100Y58686000D01*
X121238100Y56884000D01*
G37*
G36*
X85404128Y58425336D02*
G01*
X85425209Y58418940D01*
X85444645Y58408552D01*
X85461676Y58394576D01*
X85475652Y58377545D01*
X85486040Y58358109D01*
X85492436Y58337028D01*
X85495200Y58308960D01*
X85495200Y57845240D01*
X85492436Y57817172D01*
X85486040Y57796091D01*
X85475652Y57776655D01*
X85461676Y57759624D01*
X85444645Y57745648D01*
X85425209Y57735260D01*
X85404128Y57728864D01*
X85376060Y57726100D01*
X83562340Y57726100D01*
X83534272Y57728864D01*
X83513191Y57735260D01*
X83493755Y57745648D01*
X83476724Y57759624D01*
X83462748Y57776655D01*
X83452360Y57796091D01*
X83445964Y57817172D01*
X83443200Y57845240D01*
X83443200Y58308960D01*
X83445964Y58337028D01*
X83452360Y58358109D01*
X83462748Y58377545D01*
X83476724Y58394576D01*
X83493755Y58408552D01*
X83513191Y58418940D01*
X83534272Y58425336D01*
X83562340Y58428100D01*
X85376060Y58428100D01*
X85404128Y58425336D01*
G37*
G36*
X90354128Y58425336D02*
G01*
X90375209Y58418940D01*
X90394645Y58408552D01*
X90411676Y58394576D01*
X90425652Y58377545D01*
X90436040Y58358109D01*
X90442436Y58337028D01*
X90445200Y58308960D01*
X90445200Y57845240D01*
X90442436Y57817172D01*
X90436040Y57796091D01*
X90425652Y57776655D01*
X90411676Y57759624D01*
X90394645Y57745648D01*
X90375209Y57735260D01*
X90354128Y57728864D01*
X90326060Y57726100D01*
X88512340Y57726100D01*
X88484272Y57728864D01*
X88463191Y57735260D01*
X88443755Y57745648D01*
X88426724Y57759624D01*
X88412748Y57776655D01*
X88402360Y57796091D01*
X88395964Y57817172D01*
X88393200Y57845240D01*
X88393200Y58308960D01*
X88395964Y58337028D01*
X88402360Y58358109D01*
X88412748Y58377545D01*
X88426724Y58394576D01*
X88443755Y58408552D01*
X88463191Y58418940D01*
X88484272Y58425336D01*
X88512340Y58428100D01*
X90326060Y58428100D01*
X90354128Y58425336D01*
G37*
G36*
X62846100Y58001700D02*
G01*
X61944100Y58001700D01*
X61944100Y59003700D01*
X62846100Y59003700D01*
X62846100Y58001700D01*
G37*
G36*
X66222274Y59400835D02*
G01*
X66259967Y59389401D01*
X66294703Y59370834D01*
X66325148Y59345848D01*
X66350134Y59315403D01*
X66368701Y59280667D01*
X66380135Y59242974D01*
X66384600Y59197639D01*
X66384600Y58360961D01*
X66380135Y58315626D01*
X66368701Y58277933D01*
X66350134Y58243197D01*
X66325148Y58212752D01*
X66294703Y58187766D01*
X66259967Y58169199D01*
X66222274Y58157765D01*
X66176939Y58153300D01*
X65090261Y58153300D01*
X65044926Y58157765D01*
X65007233Y58169199D01*
X64972497Y58187766D01*
X64942052Y58212752D01*
X64917066Y58243197D01*
X64898499Y58277933D01*
X64887065Y58315626D01*
X64882600Y58360961D01*
X64882600Y59197639D01*
X64887065Y59242974D01*
X64898499Y59280667D01*
X64917066Y59315403D01*
X64942052Y59345848D01*
X64972497Y59370834D01*
X65007233Y59389401D01*
X65044926Y59400835D01*
X65090261Y59405300D01*
X66176939Y59405300D01*
X66222274Y59400835D01*
G37*
G36*
X85404128Y59695336D02*
G01*
X85425209Y59688940D01*
X85444645Y59678552D01*
X85461676Y59664576D01*
X85475652Y59647545D01*
X85486040Y59628109D01*
X85492436Y59607028D01*
X85495200Y59578960D01*
X85495200Y59115240D01*
X85492436Y59087172D01*
X85486040Y59066091D01*
X85475652Y59046655D01*
X85461676Y59029624D01*
X85444645Y59015648D01*
X85425209Y59005260D01*
X85404128Y58998864D01*
X85376060Y58996100D01*
X83562340Y58996100D01*
X83534272Y58998864D01*
X83513191Y59005260D01*
X83493755Y59015648D01*
X83476724Y59029624D01*
X83462748Y59046655D01*
X83452360Y59066091D01*
X83445964Y59087172D01*
X83443200Y59115240D01*
X83443200Y59578960D01*
X83445964Y59607028D01*
X83452360Y59628109D01*
X83462748Y59647545D01*
X83476724Y59664576D01*
X83493755Y59678552D01*
X83513191Y59688940D01*
X83534272Y59695336D01*
X83562340Y59698100D01*
X85376060Y59698100D01*
X85404128Y59695336D01*
G37*
G36*
X90354128Y59695336D02*
G01*
X90375209Y59688940D01*
X90394645Y59678552D01*
X90411676Y59664576D01*
X90425652Y59647545D01*
X90436040Y59628109D01*
X90442436Y59607028D01*
X90445200Y59578960D01*
X90445200Y59115240D01*
X90442436Y59087172D01*
X90436040Y59066091D01*
X90425652Y59046655D01*
X90411676Y59029624D01*
X90394645Y59015648D01*
X90375209Y59005260D01*
X90354128Y58998864D01*
X90326060Y58996100D01*
X88512340Y58996100D01*
X88484272Y58998864D01*
X88463191Y59005260D01*
X88443755Y59015648D01*
X88426724Y59029624D01*
X88412748Y59046655D01*
X88402360Y59066091D01*
X88395964Y59087172D01*
X88393200Y59115240D01*
X88393200Y59578960D01*
X88395964Y59607028D01*
X88402360Y59628109D01*
X88412748Y59647545D01*
X88426724Y59664576D01*
X88443755Y59678552D01*
X88463191Y59688940D01*
X88484272Y59695336D01*
X88512340Y59698100D01*
X90326060Y59698100D01*
X90354128Y59695336D01*
G37*
G36*
X45385749Y62088884D02*
G01*
X45496934Y62066768D01*
X45706403Y61980003D01*
X45894920Y61854040D01*
X46055240Y61693720D01*
X46181203Y61505203D01*
X46267968Y61295734D01*
X46312200Y61073364D01*
X46312200Y60846636D01*
X46267968Y60624266D01*
X46181203Y60414797D01*
X46055240Y60226280D01*
X45894920Y60065960D01*
X45706403Y59939997D01*
X45496934Y59853232D01*
X45385749Y59831116D01*
X45274565Y59809000D01*
X45047835Y59809000D01*
X44936651Y59831116D01*
X44825466Y59853232D01*
X44615997Y59939997D01*
X44427480Y60065960D01*
X44267160Y60226280D01*
X44141197Y60414797D01*
X44054432Y60624266D01*
X44010200Y60846636D01*
X44010200Y61073364D01*
X44054432Y61295734D01*
X44141197Y61505203D01*
X44267160Y61693720D01*
X44427480Y61854040D01*
X44615997Y61980003D01*
X44825466Y62066768D01*
X44936651Y62088884D01*
X45047835Y62111000D01*
X45274565Y62111000D01*
X45385749Y62088884D01*
G37*
G36*
X37765749Y62088884D02*
G01*
X37876934Y62066768D01*
X38086403Y61980003D01*
X38274920Y61854040D01*
X38435240Y61693720D01*
X38561203Y61505203D01*
X38647968Y61295734D01*
X38692200Y61073364D01*
X38692200Y60846636D01*
X38647968Y60624266D01*
X38561203Y60414797D01*
X38435240Y60226280D01*
X38274920Y60065960D01*
X38086403Y59939997D01*
X37876934Y59853232D01*
X37765749Y59831116D01*
X37654565Y59809000D01*
X37427835Y59809000D01*
X37316651Y59831116D01*
X37205466Y59853232D01*
X36995997Y59939997D01*
X36807480Y60065960D01*
X36647160Y60226280D01*
X36521197Y60414797D01*
X36434432Y60624266D01*
X36390200Y60846636D01*
X36390200Y61073364D01*
X36434432Y61295734D01*
X36521197Y61505203D01*
X36647160Y61693720D01*
X36807480Y61854040D01*
X36995997Y61980003D01*
X37205466Y62066768D01*
X37316651Y62088884D01*
X37427835Y62111000D01*
X37654565Y62111000D01*
X37765749Y62088884D01*
G37*
G36*
X93731000Y59979000D02*
G01*
X92829000Y59979000D01*
X92829000Y60981000D01*
X93731000Y60981000D01*
X93731000Y59979000D01*
G37*
G36*
X97567900Y60008300D02*
G01*
X96665900Y60008300D01*
X96665900Y61010300D01*
X97567900Y61010300D01*
X97567900Y60008300D01*
G37*
G36*
X101466800Y60008300D02*
G01*
X100564800Y60008300D01*
X100564800Y61010300D01*
X101466800Y61010300D01*
X101466800Y60008300D01*
G37*
G36*
X56272200Y60009000D02*
G01*
X54370200Y60009000D01*
X54370200Y61911000D01*
X56272200Y61911000D01*
X56272200Y60009000D01*
G37*
G36*
X106176000Y60033700D02*
G01*
X105274000Y60033700D01*
X105274000Y61035700D01*
X106176000Y61035700D01*
X106176000Y60033700D01*
G37*
G36*
X104276000Y60033700D02*
G01*
X103374000Y60033700D01*
X103374000Y61035700D01*
X104276000Y61035700D01*
X104276000Y60033700D01*
G37*
G36*
X66222274Y61450835D02*
G01*
X66259967Y61439401D01*
X66294703Y61420834D01*
X66325148Y61395848D01*
X66350134Y61365403D01*
X66368701Y61330667D01*
X66380135Y61292974D01*
X66384600Y61247639D01*
X66384600Y60410961D01*
X66380135Y60365626D01*
X66368701Y60327933D01*
X66350134Y60293197D01*
X66325148Y60262752D01*
X66294703Y60237766D01*
X66259967Y60219199D01*
X66222274Y60207765D01*
X66176939Y60203300D01*
X65090261Y60203300D01*
X65044926Y60207765D01*
X65007233Y60219199D01*
X64972497Y60237766D01*
X64942052Y60262752D01*
X64917066Y60293197D01*
X64898499Y60327933D01*
X64887065Y60365626D01*
X64882600Y60410961D01*
X64882600Y61247639D01*
X64887065Y61292974D01*
X64898499Y61330667D01*
X64917066Y61365403D01*
X64942052Y61395848D01*
X64972497Y61420834D01*
X65007233Y61439401D01*
X65044926Y61450835D01*
X65090261Y61455300D01*
X66176939Y61455300D01*
X66222274Y61450835D01*
G37*
G36*
X90354128Y60965336D02*
G01*
X90375209Y60958940D01*
X90394645Y60948552D01*
X90411676Y60934576D01*
X90425652Y60917545D01*
X90436040Y60898109D01*
X90442436Y60877028D01*
X90445200Y60848960D01*
X90445200Y60385240D01*
X90442436Y60357172D01*
X90436040Y60336091D01*
X90425652Y60316655D01*
X90411676Y60299624D01*
X90394645Y60285648D01*
X90375209Y60275260D01*
X90354128Y60268864D01*
X90326060Y60266100D01*
X88512340Y60266100D01*
X88484272Y60268864D01*
X88463191Y60275260D01*
X88443755Y60285648D01*
X88426724Y60299624D01*
X88412748Y60316655D01*
X88402360Y60336091D01*
X88395964Y60357172D01*
X88393200Y60385240D01*
X88393200Y60848960D01*
X88395964Y60877028D01*
X88402360Y60898109D01*
X88412748Y60917545D01*
X88426724Y60934576D01*
X88443755Y60948552D01*
X88463191Y60958940D01*
X88484272Y60965336D01*
X88512340Y60968100D01*
X90326060Y60968100D01*
X90354128Y60965336D01*
G37*
G36*
X85404128Y60965336D02*
G01*
X85425209Y60958940D01*
X85444645Y60948552D01*
X85461676Y60934576D01*
X85475652Y60917545D01*
X85486040Y60898109D01*
X85492436Y60877028D01*
X85495200Y60848960D01*
X85495200Y60385240D01*
X85492436Y60357172D01*
X85486040Y60336091D01*
X85475652Y60316655D01*
X85461676Y60299624D01*
X85444645Y60285648D01*
X85425209Y60275260D01*
X85404128Y60268864D01*
X85376060Y60266100D01*
X83562340Y60266100D01*
X83534272Y60268864D01*
X83513191Y60275260D01*
X83493755Y60285648D01*
X83476724Y60299624D01*
X83462748Y60316655D01*
X83452360Y60336091D01*
X83445964Y60357172D01*
X83443200Y60385240D01*
X83443200Y60848960D01*
X83445964Y60877028D01*
X83452360Y60898109D01*
X83462748Y60917545D01*
X83476724Y60934576D01*
X83493755Y60948552D01*
X83513191Y60958940D01*
X83534272Y60965336D01*
X83562340Y60968100D01*
X85376060Y60968100D01*
X85404128Y60965336D01*
G37*
G36*
X61896100Y60401700D02*
G01*
X60994100Y60401700D01*
X60994100Y61403700D01*
X61896100Y61403700D01*
X61896100Y60401700D01*
G37*
G36*
X63796100Y60401700D02*
G01*
X62894100Y60401700D01*
X62894100Y61403700D01*
X63796100Y61403700D01*
X63796100Y60401700D01*
G37*
G36*
X90354128Y62235336D02*
G01*
X90375209Y62228940D01*
X90394645Y62218552D01*
X90411676Y62204576D01*
X90425652Y62187545D01*
X90436040Y62168109D01*
X90442436Y62147028D01*
X90445200Y62118960D01*
X90445200Y61655240D01*
X90442436Y61627172D01*
X90436040Y61606091D01*
X90425652Y61586655D01*
X90411676Y61569624D01*
X90394645Y61555648D01*
X90375209Y61545260D01*
X90354128Y61538864D01*
X90326060Y61536100D01*
X88512340Y61536100D01*
X88484272Y61538864D01*
X88463191Y61545260D01*
X88443755Y61555648D01*
X88426724Y61569624D01*
X88412748Y61586655D01*
X88402360Y61606091D01*
X88395964Y61627172D01*
X88393200Y61655240D01*
X88393200Y62118960D01*
X88395964Y62147028D01*
X88402360Y62168109D01*
X88412748Y62187545D01*
X88426724Y62204576D01*
X88443755Y62218552D01*
X88463191Y62228940D01*
X88484272Y62235336D01*
X88512340Y62238100D01*
X90326060Y62238100D01*
X90354128Y62235336D01*
G37*
G36*
X85404128Y62235336D02*
G01*
X85425209Y62228940D01*
X85444645Y62218552D01*
X85461676Y62204576D01*
X85475652Y62187545D01*
X85486040Y62168109D01*
X85492436Y62147028D01*
X85495200Y62118960D01*
X85495200Y61655240D01*
X85492436Y61627172D01*
X85486040Y61606091D01*
X85475652Y61586655D01*
X85461676Y61569624D01*
X85444645Y61555648D01*
X85425209Y61545260D01*
X85404128Y61538864D01*
X85376060Y61536100D01*
X83562340Y61536100D01*
X83534272Y61538864D01*
X83513191Y61545260D01*
X83493755Y61555648D01*
X83476724Y61569624D01*
X83462748Y61586655D01*
X83452360Y61606091D01*
X83445964Y61627172D01*
X83443200Y61655240D01*
X83443200Y62118960D01*
X83445964Y62147028D01*
X83452360Y62168109D01*
X83462748Y62187545D01*
X83476724Y62204576D01*
X83493755Y62218552D01*
X83513191Y62228940D01*
X83534272Y62235336D01*
X83562340Y62238100D01*
X85376060Y62238100D01*
X85404128Y62235336D01*
G37*
G36*
X92781000Y62379000D02*
G01*
X91879000Y62379000D01*
X91879000Y63381000D01*
X92781000Y63381000D01*
X92781000Y62379000D01*
G37*
G36*
X94681000Y62379000D02*
G01*
X93779000Y62379000D01*
X93779000Y63381000D01*
X94681000Y63381000D01*
X94681000Y62379000D01*
G37*
G36*
X96617900Y62408300D02*
G01*
X95715900Y62408300D01*
X95715900Y63410300D01*
X96617900Y63410300D01*
X96617900Y62408300D01*
G37*
G36*
X98517900Y62408300D02*
G01*
X97615900Y62408300D01*
X97615900Y63410300D01*
X98517900Y63410300D01*
X98517900Y62408300D01*
G37*
G36*
X100516800Y62408300D02*
G01*
X99614800Y62408300D01*
X99614800Y63410300D01*
X100516800Y63410300D01*
X100516800Y62408300D01*
G37*
G36*
X102416800Y62408300D02*
G01*
X101514800Y62408300D01*
X101514800Y63410300D01*
X102416800Y63410300D01*
X102416800Y62408300D01*
G37*
G36*
X105226000Y62433700D02*
G01*
X104324000Y62433700D01*
X104324000Y63435700D01*
X105226000Y63435700D01*
X105226000Y62433700D01*
G37*
G36*
X90354128Y63505336D02*
G01*
X90375209Y63498940D01*
X90394645Y63488552D01*
X90411676Y63474576D01*
X90425652Y63457545D01*
X90436040Y63438109D01*
X90442436Y63417028D01*
X90445200Y63388960D01*
X90445200Y62925240D01*
X90442436Y62897172D01*
X90436040Y62876091D01*
X90425652Y62856655D01*
X90411676Y62839624D01*
X90394645Y62825648D01*
X90375209Y62815260D01*
X90354128Y62808864D01*
X90326060Y62806100D01*
X88512340Y62806100D01*
X88484272Y62808864D01*
X88463191Y62815260D01*
X88443755Y62825648D01*
X88426724Y62839624D01*
X88412748Y62856655D01*
X88402360Y62876091D01*
X88395964Y62897172D01*
X88393200Y62925240D01*
X88393200Y63388960D01*
X88395964Y63417028D01*
X88402360Y63438109D01*
X88412748Y63457545D01*
X88426724Y63474576D01*
X88443755Y63488552D01*
X88463191Y63498940D01*
X88484272Y63505336D01*
X88512340Y63508100D01*
X90326060Y63508100D01*
X90354128Y63505336D01*
G37*
G36*
X85404128Y63505336D02*
G01*
X85425209Y63498940D01*
X85444645Y63488552D01*
X85461676Y63474576D01*
X85475652Y63457545D01*
X85486040Y63438109D01*
X85492436Y63417028D01*
X85495200Y63388960D01*
X85495200Y62925240D01*
X85492436Y62897172D01*
X85486040Y62876091D01*
X85475652Y62856655D01*
X85461676Y62839624D01*
X85444645Y62825648D01*
X85425209Y62815260D01*
X85404128Y62808864D01*
X85376060Y62806100D01*
X83562340Y62806100D01*
X83534272Y62808864D01*
X83513191Y62815260D01*
X83493755Y62825648D01*
X83476724Y62839624D01*
X83462748Y62856655D01*
X83452360Y62876091D01*
X83445964Y62897172D01*
X83443200Y62925240D01*
X83443200Y63388960D01*
X83445964Y63417028D01*
X83452360Y63438109D01*
X83462748Y63457545D01*
X83476724Y63474576D01*
X83493755Y63488552D01*
X83513191Y63498940D01*
X83534272Y63505336D01*
X83562340Y63508100D01*
X85376060Y63508100D01*
X85404128Y63505336D01*
G37*
G36*
X85404128Y64775336D02*
G01*
X85425209Y64768940D01*
X85444645Y64758552D01*
X85461676Y64744576D01*
X85475652Y64727545D01*
X85486040Y64708109D01*
X85492436Y64687028D01*
X85495200Y64658960D01*
X85495200Y64195240D01*
X85492436Y64167172D01*
X85486040Y64146091D01*
X85475652Y64126655D01*
X85461676Y64109624D01*
X85444645Y64095648D01*
X85425209Y64085260D01*
X85404128Y64078864D01*
X85376060Y64076100D01*
X83562340Y64076100D01*
X83534272Y64078864D01*
X83513191Y64085260D01*
X83493755Y64095648D01*
X83476724Y64109624D01*
X83462748Y64126655D01*
X83452360Y64146091D01*
X83445964Y64167172D01*
X83443200Y64195240D01*
X83443200Y64658960D01*
X83445964Y64687028D01*
X83452360Y64708109D01*
X83462748Y64727545D01*
X83476724Y64744576D01*
X83493755Y64758552D01*
X83513191Y64768940D01*
X83534272Y64775336D01*
X83562340Y64778100D01*
X85376060Y64778100D01*
X85404128Y64775336D01*
G37*
G36*
X90354128Y64775336D02*
G01*
X90375209Y64768940D01*
X90394645Y64758552D01*
X90411676Y64744576D01*
X90425652Y64727545D01*
X90436040Y64708109D01*
X90442436Y64687028D01*
X90445200Y64658960D01*
X90445200Y64195240D01*
X90442436Y64167172D01*
X90436040Y64146091D01*
X90425652Y64126655D01*
X90411676Y64109624D01*
X90394645Y64095648D01*
X90375209Y64085260D01*
X90354128Y64078864D01*
X90326060Y64076100D01*
X88512340Y64076100D01*
X88484272Y64078864D01*
X88463191Y64085260D01*
X88443755Y64095648D01*
X88426724Y64109624D01*
X88412748Y64126655D01*
X88402360Y64146091D01*
X88395964Y64167172D01*
X88393200Y64195240D01*
X88393200Y64658960D01*
X88395964Y64687028D01*
X88402360Y64708109D01*
X88412748Y64727545D01*
X88426724Y64744576D01*
X88443755Y64758552D01*
X88463191Y64768940D01*
X88484272Y64775336D01*
X88512340Y64778100D01*
X90326060Y64778100D01*
X90354128Y64775336D01*
G37*
G36*
X90354128Y66045336D02*
G01*
X90375209Y66038940D01*
X90394645Y66028552D01*
X90411676Y66014576D01*
X90425652Y65997545D01*
X90436040Y65978109D01*
X90442436Y65957028D01*
X90445200Y65928960D01*
X90445200Y65465240D01*
X90442436Y65437172D01*
X90436040Y65416091D01*
X90425652Y65396655D01*
X90411676Y65379624D01*
X90394645Y65365648D01*
X90375209Y65355260D01*
X90354128Y65348864D01*
X90326060Y65346100D01*
X88512340Y65346100D01*
X88484272Y65348864D01*
X88463191Y65355260D01*
X88443755Y65365648D01*
X88426724Y65379624D01*
X88412748Y65396655D01*
X88402360Y65416091D01*
X88395964Y65437172D01*
X88393200Y65465240D01*
X88393200Y65928960D01*
X88395964Y65957028D01*
X88402360Y65978109D01*
X88412748Y65997545D01*
X88426724Y66014576D01*
X88443755Y66028552D01*
X88463191Y66038940D01*
X88484272Y66045336D01*
X88512340Y66048100D01*
X90326060Y66048100D01*
X90354128Y66045336D01*
G37*
G36*
X85404128Y66045336D02*
G01*
X85425209Y66038940D01*
X85444645Y66028552D01*
X85461676Y66014576D01*
X85475652Y65997545D01*
X85486040Y65978109D01*
X85492436Y65957028D01*
X85495200Y65928960D01*
X85495200Y65465240D01*
X85492436Y65437172D01*
X85486040Y65416091D01*
X85475652Y65396655D01*
X85461676Y65379624D01*
X85444645Y65365648D01*
X85425209Y65355260D01*
X85404128Y65348864D01*
X85376060Y65346100D01*
X83562340Y65346100D01*
X83534272Y65348864D01*
X83513191Y65355260D01*
X83493755Y65365648D01*
X83476724Y65379624D01*
X83462748Y65396655D01*
X83452360Y65416091D01*
X83445964Y65437172D01*
X83443200Y65465240D01*
X83443200Y65928960D01*
X83445964Y65957028D01*
X83452360Y65978109D01*
X83462748Y65997545D01*
X83476724Y66014576D01*
X83493755Y66028552D01*
X83513191Y66038940D01*
X83534272Y66045336D01*
X83562340Y66048100D01*
X85376060Y66048100D01*
X85404128Y66045336D01*
G37*
G36*
X52714600Y65509700D02*
G01*
X50612600Y65509700D01*
X50612600Y67611700D01*
X52714600Y67611700D01*
X52714600Y65509700D01*
G37*
G36*
X102573391Y67380115D02*
G01*
X102607369Y67369807D01*
X102638690Y67353066D01*
X102666139Y67330539D01*
X102688666Y67303090D01*
X102705407Y67271769D01*
X102715715Y67237791D01*
X102719800Y67196310D01*
X102719800Y66520090D01*
X102715715Y66478609D01*
X102705407Y66444631D01*
X102688666Y66413310D01*
X102666139Y66385861D01*
X102638690Y66363334D01*
X102607369Y66346593D01*
X102573391Y66336285D01*
X102531910Y66332200D01*
X101930690Y66332200D01*
X101889209Y66336285D01*
X101855231Y66346593D01*
X101823910Y66363334D01*
X101796461Y66385861D01*
X101773934Y66413310D01*
X101757193Y66444631D01*
X101746885Y66478609D01*
X101742800Y66520090D01*
X101742800Y67196310D01*
X101746885Y67237791D01*
X101757193Y67271769D01*
X101773934Y67303090D01*
X101796461Y67330539D01*
X101823910Y67353066D01*
X101855231Y67369807D01*
X101889209Y67380115D01*
X101930690Y67384200D01*
X102531910Y67384200D01*
X102573391Y67380115D01*
G37*
G36*
X99525391Y67380115D02*
G01*
X99559369Y67369807D01*
X99590690Y67353066D01*
X99618139Y67330539D01*
X99640666Y67303090D01*
X99657407Y67271769D01*
X99667715Y67237791D01*
X99671800Y67196310D01*
X99671800Y66520090D01*
X99667715Y66478609D01*
X99657407Y66444631D01*
X99640666Y66413310D01*
X99618139Y66385861D01*
X99590690Y66363334D01*
X99559369Y66346593D01*
X99525391Y66336285D01*
X99483910Y66332200D01*
X98882690Y66332200D01*
X98841209Y66336285D01*
X98807231Y66346593D01*
X98775910Y66363334D01*
X98748461Y66385861D01*
X98725934Y66413310D01*
X98709193Y66444631D01*
X98698885Y66478609D01*
X98694800Y66520090D01*
X98694800Y67196310D01*
X98698885Y67237791D01*
X98709193Y67271769D01*
X98725934Y67303090D01*
X98748461Y67330539D01*
X98775910Y67353066D01*
X98807231Y67369807D01*
X98841209Y67380115D01*
X98882690Y67384200D01*
X99483910Y67384200D01*
X99525391Y67380115D01*
G37*
G36*
X100998391Y67380115D02*
G01*
X101032369Y67369807D01*
X101063690Y67353066D01*
X101091139Y67330539D01*
X101113666Y67303090D01*
X101130407Y67271769D01*
X101140715Y67237791D01*
X101144800Y67196310D01*
X101144800Y66520090D01*
X101140715Y66478609D01*
X101130407Y66444631D01*
X101113666Y66413310D01*
X101091139Y66385861D01*
X101063690Y66363334D01*
X101032369Y66346593D01*
X100998391Y66336285D01*
X100956910Y66332200D01*
X100355690Y66332200D01*
X100314209Y66336285D01*
X100280231Y66346593D01*
X100248910Y66363334D01*
X100221461Y66385861D01*
X100198934Y66413310D01*
X100182193Y66444631D01*
X100171885Y66478609D01*
X100167800Y66520090D01*
X100167800Y67196310D01*
X100171885Y67237791D01*
X100182193Y67271769D01*
X100198934Y67303090D01*
X100221461Y67330539D01*
X100248910Y67353066D01*
X100280231Y67369807D01*
X100314209Y67380115D01*
X100355690Y67384200D01*
X100956910Y67384200D01*
X100998391Y67380115D01*
G37*
G36*
X97950391Y67380115D02*
G01*
X97984369Y67369807D01*
X98015690Y67353066D01*
X98043139Y67330539D01*
X98065666Y67303090D01*
X98082407Y67271769D01*
X98092715Y67237791D01*
X98096800Y67196310D01*
X98096800Y66520090D01*
X98092715Y66478609D01*
X98082407Y66444631D01*
X98065666Y66413310D01*
X98043139Y66385861D01*
X98015690Y66363334D01*
X97984369Y66346593D01*
X97950391Y66336285D01*
X97908910Y66332200D01*
X97307690Y66332200D01*
X97266209Y66336285D01*
X97232231Y66346593D01*
X97200910Y66363334D01*
X97173461Y66385861D01*
X97150934Y66413310D01*
X97134193Y66444631D01*
X97123885Y66478609D01*
X97119800Y66520090D01*
X97119800Y67196310D01*
X97123885Y67237791D01*
X97134193Y67271769D01*
X97150934Y67303090D01*
X97173461Y67330539D01*
X97200910Y67353066D01*
X97232231Y67369807D01*
X97266209Y67380115D01*
X97307690Y67384200D01*
X97908910Y67384200D01*
X97950391Y67380115D01*
G37*
G36*
X104059091Y67392815D02*
G01*
X104093069Y67382507D01*
X104124390Y67365766D01*
X104151839Y67343239D01*
X104174366Y67315790D01*
X104191107Y67284469D01*
X104201415Y67250491D01*
X104205500Y67209010D01*
X104205500Y66532790D01*
X104201415Y66491309D01*
X104191107Y66457331D01*
X104174366Y66426010D01*
X104151839Y66398561D01*
X104124390Y66376034D01*
X104093069Y66359293D01*
X104059091Y66348985D01*
X104017610Y66344900D01*
X103416390Y66344900D01*
X103374909Y66348985D01*
X103340931Y66359293D01*
X103309610Y66376034D01*
X103282161Y66398561D01*
X103259634Y66426010D01*
X103242893Y66457331D01*
X103232585Y66491309D01*
X103228500Y66532790D01*
X103228500Y67209010D01*
X103232585Y67250491D01*
X103242893Y67284469D01*
X103259634Y67315790D01*
X103282161Y67343239D01*
X103309610Y67365766D01*
X103340931Y67382507D01*
X103374909Y67392815D01*
X103416390Y67396900D01*
X104017610Y67396900D01*
X104059091Y67392815D01*
G37*
G36*
X105634091Y67392815D02*
G01*
X105668069Y67382507D01*
X105699390Y67365766D01*
X105726839Y67343239D01*
X105749366Y67315790D01*
X105766107Y67284469D01*
X105776415Y67250491D01*
X105780500Y67209010D01*
X105780500Y66532790D01*
X105776415Y66491309D01*
X105766107Y66457331D01*
X105749366Y66426010D01*
X105726839Y66398561D01*
X105699390Y66376034D01*
X105668069Y66359293D01*
X105634091Y66348985D01*
X105592610Y66344900D01*
X104991390Y66344900D01*
X104949909Y66348985D01*
X104915931Y66359293D01*
X104884610Y66376034D01*
X104857161Y66398561D01*
X104834634Y66426010D01*
X104817893Y66457331D01*
X104807585Y66491309D01*
X104803500Y66532790D01*
X104803500Y67209010D01*
X104807585Y67250491D01*
X104817893Y67284469D01*
X104834634Y67315790D01*
X104857161Y67343239D01*
X104884610Y67365766D01*
X104915931Y67382507D01*
X104949909Y67392815D01*
X104991390Y67396900D01*
X105592610Y67396900D01*
X105634091Y67392815D01*
G37*
G36*
X96502791Y67418215D02*
G01*
X96536769Y67407907D01*
X96568090Y67391166D01*
X96595539Y67368639D01*
X96618066Y67341190D01*
X96634807Y67309869D01*
X96645115Y67275891D01*
X96649200Y67234410D01*
X96649200Y66558190D01*
X96645115Y66516709D01*
X96634807Y66482731D01*
X96618066Y66451410D01*
X96595539Y66423961D01*
X96568090Y66401434D01*
X96536769Y66384693D01*
X96502791Y66374385D01*
X96461310Y66370300D01*
X95860090Y66370300D01*
X95818609Y66374385D01*
X95784631Y66384693D01*
X95753310Y66401434D01*
X95725861Y66423961D01*
X95703334Y66451410D01*
X95686593Y66482731D01*
X95676285Y66516709D01*
X95672200Y66558190D01*
X95672200Y67234410D01*
X95676285Y67275891D01*
X95686593Y67309869D01*
X95703334Y67341190D01*
X95725861Y67368639D01*
X95753310Y67391166D01*
X95784631Y67407907D01*
X95818609Y67418215D01*
X95860090Y67422300D01*
X96461310Y67422300D01*
X96502791Y67418215D01*
G37*
G36*
X94927791Y67418215D02*
G01*
X94961769Y67407907D01*
X94993090Y67391166D01*
X95020539Y67368639D01*
X95043066Y67341190D01*
X95059807Y67309869D01*
X95070115Y67275891D01*
X95074200Y67234410D01*
X95074200Y66558190D01*
X95070115Y66516709D01*
X95059807Y66482731D01*
X95043066Y66451410D01*
X95020539Y66423961D01*
X94993090Y66401434D01*
X94961769Y66384693D01*
X94927791Y66374385D01*
X94886310Y66370300D01*
X94285090Y66370300D01*
X94243609Y66374385D01*
X94209631Y66384693D01*
X94178310Y66401434D01*
X94150861Y66423961D01*
X94128334Y66451410D01*
X94111593Y66482731D01*
X94101285Y66516709D01*
X94097200Y66558190D01*
X94097200Y67234410D01*
X94101285Y67275891D01*
X94111593Y67309869D01*
X94128334Y67341190D01*
X94150861Y67368639D01*
X94178310Y67391166D01*
X94209631Y67407907D01*
X94243609Y67418215D01*
X94285090Y67422300D01*
X94886310Y67422300D01*
X94927791Y67418215D01*
G37*
G36*
X93420491Y67425515D02*
G01*
X93454469Y67415207D01*
X93485790Y67398466D01*
X93513239Y67375939D01*
X93535766Y67348490D01*
X93552507Y67317169D01*
X93562815Y67283191D01*
X93566900Y67241710D01*
X93566900Y66565490D01*
X93562815Y66524009D01*
X93552507Y66490031D01*
X93535766Y66458710D01*
X93513239Y66431261D01*
X93485790Y66408734D01*
X93454469Y66391993D01*
X93420491Y66381685D01*
X93379010Y66377600D01*
X92777790Y66377600D01*
X92736309Y66381685D01*
X92702331Y66391993D01*
X92671010Y66408734D01*
X92643561Y66431261D01*
X92621034Y66458710D01*
X92604293Y66490031D01*
X92593985Y66524009D01*
X92589900Y66565490D01*
X92589900Y67241710D01*
X92593985Y67283191D01*
X92604293Y67317169D01*
X92621034Y67348490D01*
X92643561Y67375939D01*
X92671010Y67398466D01*
X92702331Y67415207D01*
X92736309Y67425515D01*
X92777790Y67429600D01*
X93379010Y67429600D01*
X93420491Y67425515D01*
G37*
G36*
X91845491Y67425515D02*
G01*
X91879469Y67415207D01*
X91910790Y67398466D01*
X91938239Y67375939D01*
X91960766Y67348490D01*
X91977507Y67317169D01*
X91987815Y67283191D01*
X91991900Y67241710D01*
X91991900Y66565490D01*
X91987815Y66524009D01*
X91977507Y66490031D01*
X91960766Y66458710D01*
X91938239Y66431261D01*
X91910790Y66408734D01*
X91879469Y66391993D01*
X91845491Y66381685D01*
X91804010Y66377600D01*
X91202790Y66377600D01*
X91161309Y66381685D01*
X91127331Y66391993D01*
X91096010Y66408734D01*
X91068561Y66431261D01*
X91046034Y66458710D01*
X91029293Y66490031D01*
X91018985Y66524009D01*
X91014900Y66565490D01*
X91014900Y67241710D01*
X91018985Y67283191D01*
X91029293Y67317169D01*
X91046034Y67348490D01*
X91068561Y67375939D01*
X91096010Y67398466D01*
X91127331Y67415207D01*
X91161309Y67425515D01*
X91202790Y67429600D01*
X91804010Y67429600D01*
X91845491Y67425515D01*
G37*
G36*
X89778481Y70466405D02*
G01*
X89814516Y70455473D01*
X89847724Y70437723D01*
X89876834Y70413834D01*
X89900723Y70384724D01*
X89918473Y70351516D01*
X89929405Y70315481D01*
X89933700Y70271869D01*
X89933700Y67167531D01*
X89929405Y67123919D01*
X89918473Y67087884D01*
X89900723Y67054676D01*
X89876834Y67025566D01*
X89847724Y67001677D01*
X89814516Y66983927D01*
X89778481Y66972995D01*
X89734869Y66968700D01*
X88730531Y66968700D01*
X88686919Y66972995D01*
X88650884Y66983927D01*
X88617676Y67001677D01*
X88588566Y67025566D01*
X88564677Y67054676D01*
X88546927Y67087884D01*
X88535995Y67123919D01*
X88531700Y67167531D01*
X88531700Y70271869D01*
X88535995Y70315481D01*
X88546927Y70351516D01*
X88564677Y70384724D01*
X88588566Y70413834D01*
X88617676Y70437723D01*
X88650884Y70455473D01*
X88686919Y70466405D01*
X88730531Y70470700D01*
X89734869Y70470700D01*
X89778481Y70466405D01*
G37*
G36*
X85328481Y70466405D02*
G01*
X85364516Y70455473D01*
X85397724Y70437723D01*
X85426834Y70413834D01*
X85450723Y70384724D01*
X85468473Y70351516D01*
X85479405Y70315481D01*
X85483700Y70271869D01*
X85483700Y67167531D01*
X85479405Y67123919D01*
X85468473Y67087884D01*
X85450723Y67054676D01*
X85426834Y67025566D01*
X85397724Y67001677D01*
X85364516Y66983927D01*
X85328481Y66972995D01*
X85284869Y66968700D01*
X84280531Y66968700D01*
X84236919Y66972995D01*
X84200884Y66983927D01*
X84167676Y67001677D01*
X84138566Y67025566D01*
X84114677Y67054676D01*
X84096927Y67087884D01*
X84085995Y67123919D01*
X84081700Y67167531D01*
X84081700Y70271869D01*
X84085995Y70315481D01*
X84096927Y70351516D01*
X84114677Y70384724D01*
X84138566Y70413834D01*
X84167676Y70437723D01*
X84200884Y70455473D01*
X84236919Y70466405D01*
X84280531Y70470700D01*
X85284869Y70470700D01*
X85328481Y70466405D01*
G37*
G36*
X93511000Y68274300D02*
G01*
X91909000Y68274300D01*
X91909000Y69876300D01*
X93511000Y69876300D01*
X93511000Y68274300D01*
G37*
G36*
X100563642Y69845519D02*
G01*
X100709414Y69785138D01*
X100709416Y69785137D01*
X100840608Y69697478D01*
X100952178Y69585908D01*
X101039837Y69454716D01*
X101039838Y69454714D01*
X101100219Y69308942D01*
X101131000Y69154193D01*
X101131000Y68996407D01*
X101100219Y68841658D01*
X101039838Y68695886D01*
X101039837Y68695884D01*
X100952178Y68564692D01*
X100840608Y68453122D01*
X100709416Y68365463D01*
X100709415Y68365462D01*
X100709414Y68365462D01*
X100563642Y68305081D01*
X100408893Y68274300D01*
X100251107Y68274300D01*
X100096358Y68305081D01*
X99950586Y68365462D01*
X99950585Y68365462D01*
X99950584Y68365463D01*
X99819392Y68453122D01*
X99707822Y68564692D01*
X99620163Y68695884D01*
X99620162Y68695886D01*
X99559781Y68841658D01*
X99529000Y68996407D01*
X99529000Y69154193D01*
X99559781Y69308942D01*
X99620162Y69454714D01*
X99620163Y69454716D01*
X99707822Y69585908D01*
X99819392Y69697478D01*
X99950584Y69785137D01*
X99950586Y69785138D01*
X100096358Y69845519D01*
X100251107Y69876300D01*
X100408893Y69876300D01*
X100563642Y69845519D01*
G37*
G36*
X105643642Y69845519D02*
G01*
X105789414Y69785138D01*
X105789416Y69785137D01*
X105920608Y69697478D01*
X106032178Y69585908D01*
X106119837Y69454716D01*
X106119838Y69454714D01*
X106180219Y69308942D01*
X106211000Y69154193D01*
X106211000Y68996407D01*
X106180219Y68841658D01*
X106119838Y68695886D01*
X106119837Y68695884D01*
X106032178Y68564692D01*
X105920608Y68453122D01*
X105789416Y68365463D01*
X105789415Y68365462D01*
X105789414Y68365462D01*
X105643642Y68305081D01*
X105488893Y68274300D01*
X105331107Y68274300D01*
X105176358Y68305081D01*
X105030586Y68365462D01*
X105030585Y68365462D01*
X105030584Y68365463D01*
X104899392Y68453122D01*
X104787822Y68564692D01*
X104700163Y68695884D01*
X104700162Y68695886D01*
X104639781Y68841658D01*
X104609000Y68996407D01*
X104609000Y69154193D01*
X104639781Y69308942D01*
X104700162Y69454714D01*
X104700163Y69454716D01*
X104787822Y69585908D01*
X104899392Y69697478D01*
X105030584Y69785137D01*
X105030586Y69785138D01*
X105176358Y69845519D01*
X105331107Y69876300D01*
X105488893Y69876300D01*
X105643642Y69845519D01*
G37*
G36*
X103103642Y69845519D02*
G01*
X103249414Y69785138D01*
X103249416Y69785137D01*
X103380608Y69697478D01*
X103492178Y69585908D01*
X103579837Y69454716D01*
X103579838Y69454714D01*
X103640219Y69308942D01*
X103671000Y69154193D01*
X103671000Y68996407D01*
X103640219Y68841658D01*
X103579838Y68695886D01*
X103579837Y68695884D01*
X103492178Y68564692D01*
X103380608Y68453122D01*
X103249416Y68365463D01*
X103249415Y68365462D01*
X103249414Y68365462D01*
X103103642Y68305081D01*
X102948893Y68274300D01*
X102791107Y68274300D01*
X102636358Y68305081D01*
X102490586Y68365462D01*
X102490585Y68365462D01*
X102490584Y68365463D01*
X102359392Y68453122D01*
X102247822Y68564692D01*
X102160163Y68695884D01*
X102160162Y68695886D01*
X102099781Y68841658D01*
X102069000Y68996407D01*
X102069000Y69154193D01*
X102099781Y69308942D01*
X102160162Y69454714D01*
X102160163Y69454716D01*
X102247822Y69585908D01*
X102359392Y69697478D01*
X102490584Y69785137D01*
X102490586Y69785138D01*
X102636358Y69845519D01*
X102791107Y69876300D01*
X102948893Y69876300D01*
X103103642Y69845519D01*
G37*
G36*
X98023642Y69845519D02*
G01*
X98169414Y69785138D01*
X98169416Y69785137D01*
X98300608Y69697478D01*
X98412178Y69585908D01*
X98499837Y69454716D01*
X98499838Y69454714D01*
X98560219Y69308942D01*
X98591000Y69154193D01*
X98591000Y68996407D01*
X98560219Y68841658D01*
X98499838Y68695886D01*
X98499837Y68695884D01*
X98412178Y68564692D01*
X98300608Y68453122D01*
X98169416Y68365463D01*
X98169415Y68365462D01*
X98169414Y68365462D01*
X98023642Y68305081D01*
X97868893Y68274300D01*
X97711107Y68274300D01*
X97556358Y68305081D01*
X97410586Y68365462D01*
X97410585Y68365462D01*
X97410584Y68365463D01*
X97279392Y68453122D01*
X97167822Y68564692D01*
X97080163Y68695884D01*
X97080162Y68695886D01*
X97019781Y68841658D01*
X96989000Y68996407D01*
X96989000Y69154193D01*
X97019781Y69308942D01*
X97080162Y69454714D01*
X97080163Y69454716D01*
X97167822Y69585908D01*
X97279392Y69697478D01*
X97410584Y69785137D01*
X97410586Y69785138D01*
X97556358Y69845519D01*
X97711107Y69876300D01*
X97868893Y69876300D01*
X98023642Y69845519D01*
G37*
G36*
X95483642Y69845519D02*
G01*
X95629414Y69785138D01*
X95629416Y69785137D01*
X95760608Y69697478D01*
X95872178Y69585908D01*
X95959837Y69454716D01*
X95959838Y69454714D01*
X96020219Y69308942D01*
X96051000Y69154193D01*
X96051000Y68996407D01*
X96020219Y68841658D01*
X95959838Y68695886D01*
X95959837Y68695884D01*
X95872178Y68564692D01*
X95760608Y68453122D01*
X95629416Y68365463D01*
X95629415Y68365462D01*
X95629414Y68365462D01*
X95483642Y68305081D01*
X95328893Y68274300D01*
X95171107Y68274300D01*
X95016358Y68305081D01*
X94870586Y68365462D01*
X94870585Y68365462D01*
X94870584Y68365463D01*
X94739392Y68453122D01*
X94627822Y68564692D01*
X94540163Y68695884D01*
X94540162Y68695886D01*
X94479781Y68841658D01*
X94449000Y68996407D01*
X94449000Y69154193D01*
X94479781Y69308942D01*
X94540162Y69454714D01*
X94540163Y69454716D01*
X94627822Y69585908D01*
X94739392Y69697478D01*
X94870584Y69785137D01*
X94870586Y69785138D01*
X95016358Y69845519D01*
X95171107Y69876300D01*
X95328893Y69876300D01*
X95483642Y69845519D01*
G37*
G36*
X42412585Y73941198D02*
G01*
X42562410Y73911396D01*
X42844674Y73794479D01*
X43098705Y73624741D01*
X43314741Y73408705D01*
X43484479Y73154674D01*
X43601396Y72872410D01*
X43661000Y72572760D01*
X43661000Y72267240D01*
X43601396Y71967590D01*
X43484479Y71685326D01*
X43314741Y71431295D01*
X43098705Y71215259D01*
X42844674Y71045521D01*
X42562410Y70928604D01*
X42412585Y70898802D01*
X42262761Y70869000D01*
X41957239Y70869000D01*
X41807415Y70898802D01*
X41657590Y70928604D01*
X41375326Y71045521D01*
X41121295Y71215259D01*
X40905259Y71431295D01*
X40735521Y71685326D01*
X40618604Y71967590D01*
X40559000Y72267240D01*
X40559000Y72572760D01*
X40618604Y72872410D01*
X40735521Y73154674D01*
X40905259Y73408705D01*
X41121295Y73624741D01*
X41375326Y73794479D01*
X41657590Y73911396D01*
X41807415Y73941198D01*
X41957239Y73971000D01*
X42262761Y73971000D01*
X42412585Y73941198D01*
G37*
G36*
X79970164Y75191311D02*
G01*
X80161433Y75112085D01*
X80161435Y75112084D01*
X80333573Y74997065D01*
X80479965Y74850673D01*
X80594985Y74678533D01*
X80674211Y74487264D01*
X80714600Y74284216D01*
X80714600Y74077184D01*
X80674211Y73874136D01*
X80641216Y73794479D01*
X80594984Y73682865D01*
X80479965Y73510727D01*
X80333573Y73364335D01*
X80161435Y73249316D01*
X80161434Y73249315D01*
X80161433Y73249315D01*
X79970164Y73170089D01*
X79767116Y73129700D01*
X79560084Y73129700D01*
X79357036Y73170089D01*
X79165767Y73249315D01*
X79165766Y73249315D01*
X79165765Y73249316D01*
X78993627Y73364335D01*
X78847235Y73510727D01*
X78732216Y73682865D01*
X78685984Y73794479D01*
X78652989Y73874136D01*
X78612600Y74077184D01*
X78612600Y74284216D01*
X78652989Y74487264D01*
X78732215Y74678533D01*
X78847235Y74850673D01*
X78993627Y74997065D01*
X79165765Y75112084D01*
X79165767Y75112085D01*
X79357036Y75191311D01*
X79560084Y75231700D01*
X79767116Y75231700D01*
X79970164Y75191311D01*
G37*
G36*
X42412585Y78941198D02*
G01*
X42562410Y78911396D01*
X42844674Y78794479D01*
X43098705Y78624741D01*
X43314741Y78408705D01*
X43484479Y78154674D01*
X43601396Y77872410D01*
X43661000Y77572760D01*
X43661000Y77267240D01*
X43601396Y76967590D01*
X43484479Y76685326D01*
X43314741Y76431295D01*
X43098705Y76215259D01*
X42844674Y76045521D01*
X42562410Y75928604D01*
X42412585Y75898802D01*
X42262761Y75869000D01*
X41957239Y75869000D01*
X41807415Y75898802D01*
X41657590Y75928604D01*
X41375326Y76045521D01*
X41121295Y76215259D01*
X40905259Y76431295D01*
X40735521Y76685326D01*
X40618604Y76967590D01*
X40559000Y77267240D01*
X40559000Y77572760D01*
X40618604Y77872410D01*
X40735521Y78154674D01*
X40905259Y78408705D01*
X41121295Y78624741D01*
X41375326Y78794479D01*
X41657590Y78911396D01*
X41807415Y78941198D01*
X41957239Y78971000D01*
X42262761Y78971000D01*
X42412585Y78941198D01*
G37*
G36*
X87862620Y79305097D02*
G01*
X87896785Y79294733D01*
X87928264Y79277907D01*
X87955860Y79255260D01*
X87978507Y79227664D01*
X87995333Y79196185D01*
X88005697Y79162020D01*
X88009800Y79120358D01*
X88009800Y77871042D01*
X88005697Y77829380D01*
X87995333Y77795215D01*
X87978507Y77763736D01*
X87955860Y77736140D01*
X87928264Y77713493D01*
X87896785Y77696667D01*
X87862620Y77686303D01*
X87820958Y77682200D01*
X84746642Y77682200D01*
X84704980Y77686303D01*
X84670815Y77696667D01*
X84639336Y77713493D01*
X84611740Y77736140D01*
X84589093Y77763736D01*
X84572267Y77795215D01*
X84561903Y77829380D01*
X84557800Y77871042D01*
X84557800Y79120358D01*
X84561903Y79162020D01*
X84572267Y79196185D01*
X84589093Y79227664D01*
X84611740Y79255260D01*
X84639336Y79277907D01*
X84670815Y79294733D01*
X84704980Y79305097D01*
X84746642Y79309200D01*
X87820958Y79309200D01*
X87862620Y79305097D01*
G37*
G36*
X99016697Y81004749D02*
G01*
X99050352Y80994539D01*
X99081365Y80977962D01*
X99108551Y80955651D01*
X99130862Y80928465D01*
X99147439Y80897452D01*
X99157649Y80863797D01*
X99161700Y80822662D01*
X99161700Y78492938D01*
X99157649Y78451803D01*
X99147439Y78418148D01*
X99130862Y78387135D01*
X99108551Y78359949D01*
X99081365Y78337638D01*
X99050352Y78321061D01*
X99016697Y78310851D01*
X98975562Y78306800D01*
X97645838Y78306800D01*
X97604703Y78310851D01*
X97571048Y78321061D01*
X97540035Y78337638D01*
X97512849Y78359949D01*
X97490538Y78387135D01*
X97473961Y78418148D01*
X97463751Y78451803D01*
X97459700Y78492938D01*
X97459700Y80822662D01*
X97463751Y80863797D01*
X97473961Y80897452D01*
X97490538Y80928465D01*
X97512849Y80955651D01*
X97540035Y80977962D01*
X97571048Y80994539D01*
X97604703Y81004749D01*
X97645838Y81008800D01*
X98975562Y81008800D01*
X99016697Y81004749D01*
G37*
G36*
X92717497Y81068249D02*
G01*
X92751152Y81058039D01*
X92782165Y81041462D01*
X92809351Y81019151D01*
X92831662Y80991965D01*
X92848239Y80960952D01*
X92858449Y80927297D01*
X92862500Y80886162D01*
X92862500Y78556438D01*
X92858449Y78515303D01*
X92848239Y78481648D01*
X92831662Y78450635D01*
X92809351Y78423449D01*
X92782165Y78401138D01*
X92751152Y78384561D01*
X92717497Y78374351D01*
X92676362Y78370300D01*
X91346638Y78370300D01*
X91305503Y78374351D01*
X91271848Y78384561D01*
X91240835Y78401138D01*
X91213649Y78423449D01*
X91191338Y78450635D01*
X91174761Y78481648D01*
X91164551Y78515303D01*
X91160500Y78556438D01*
X91160500Y80886162D01*
X91164551Y80927297D01*
X91174761Y80960952D01*
X91191338Y80991965D01*
X91213649Y81019151D01*
X91240835Y81041462D01*
X91271848Y81058039D01*
X91305503Y81068249D01*
X91346638Y81072300D01*
X92676362Y81072300D01*
X92717497Y81068249D01*
G37*
G36*
X104555600Y78687000D02*
G01*
X102453600Y78687000D01*
X102453600Y80289000D01*
X104555600Y80289000D01*
X104555600Y78687000D01*
G37*
G36*
X110855600Y79837000D02*
G01*
X108753600Y79837000D01*
X108753600Y83739000D01*
X110855600Y83739000D01*
X110855600Y79837000D01*
G37*
G36*
X79970164Y82811311D02*
G01*
X80161433Y82732085D01*
X80161435Y82732084D01*
X80333573Y82617065D01*
X80479965Y82470673D01*
X80594985Y82298533D01*
X80674211Y82107264D01*
X80714600Y81904216D01*
X80714600Y81697184D01*
X80674211Y81494136D01*
X80594985Y81302867D01*
X80594984Y81302865D01*
X80479965Y81130727D01*
X80333573Y80984335D01*
X80161435Y80869316D01*
X80161434Y80869315D01*
X80161433Y80869315D01*
X79970164Y80790089D01*
X79767116Y80749700D01*
X79560084Y80749700D01*
X79357036Y80790089D01*
X79165767Y80869315D01*
X79165766Y80869315D01*
X79165765Y80869316D01*
X78993627Y80984335D01*
X78847235Y81130727D01*
X78732216Y81302865D01*
X78732215Y81302867D01*
X78652989Y81494136D01*
X78612600Y81697184D01*
X78612600Y81904216D01*
X78652989Y82107264D01*
X78732215Y82298533D01*
X78847235Y82470673D01*
X78993627Y82617065D01*
X79165765Y82732084D01*
X79165767Y82732085D01*
X79357036Y82811311D01*
X79560084Y82851700D01*
X79767116Y82851700D01*
X79970164Y82811311D01*
G37*
G36*
X51970164Y82811311D02*
G01*
X52161433Y82732085D01*
X52161435Y82732084D01*
X52333573Y82617065D01*
X52479965Y82470673D01*
X52594985Y82298533D01*
X52674211Y82107264D01*
X52714600Y81904216D01*
X52714600Y81697184D01*
X52674211Y81494136D01*
X52594985Y81302867D01*
X52594984Y81302865D01*
X52479965Y81130727D01*
X52333573Y80984335D01*
X52161435Y80869316D01*
X52161434Y80869315D01*
X52161433Y80869315D01*
X51970164Y80790089D01*
X51767116Y80749700D01*
X51560084Y80749700D01*
X51357036Y80790089D01*
X51165767Y80869315D01*
X51165766Y80869315D01*
X51165765Y80869316D01*
X50993627Y80984335D01*
X50847235Y81130727D01*
X50732216Y81302865D01*
X50732215Y81302867D01*
X50652989Y81494136D01*
X50612600Y81697184D01*
X50612600Y81904216D01*
X50652989Y82107264D01*
X50732215Y82298533D01*
X50847235Y82470673D01*
X50993627Y82617065D01*
X51165765Y82732084D01*
X51165767Y82732085D01*
X51357036Y82811311D01*
X51560084Y82851700D01*
X51767116Y82851700D01*
X51970164Y82811311D01*
G37*
G36*
X43661000Y80869000D02*
G01*
X40559000Y80869000D01*
X40559000Y83971000D01*
X43661000Y83971000D01*
X43661000Y80869000D01*
G37*
G36*
X104555600Y80987000D02*
G01*
X102453600Y80987000D01*
X102453600Y82589000D01*
X104555600Y82589000D01*
X104555600Y80987000D01*
G37*
G36*
X99016697Y84604749D02*
G01*
X99050352Y84594539D01*
X99081365Y84577962D01*
X99108551Y84555651D01*
X99130862Y84528465D01*
X99147439Y84497452D01*
X99157649Y84463797D01*
X99161700Y84422662D01*
X99161700Y82092938D01*
X99157649Y82051803D01*
X99147439Y82018148D01*
X99130862Y81987135D01*
X99108551Y81959949D01*
X99081365Y81937638D01*
X99050352Y81921061D01*
X99016697Y81910851D01*
X98975562Y81906800D01*
X97645838Y81906800D01*
X97604703Y81910851D01*
X97571048Y81921061D01*
X97540035Y81937638D01*
X97512849Y81959949D01*
X97490538Y81987135D01*
X97473961Y82018148D01*
X97463751Y82051803D01*
X97459700Y82092938D01*
X97459700Y84422662D01*
X97463751Y84463797D01*
X97473961Y84497452D01*
X97490538Y84528465D01*
X97512849Y84555651D01*
X97540035Y84577962D01*
X97571048Y84594539D01*
X97604703Y84604749D01*
X97645838Y84608800D01*
X98975562Y84608800D01*
X99016697Y84604749D01*
G37*
G36*
X92717497Y84668249D02*
G01*
X92751152Y84658039D01*
X92782165Y84641462D01*
X92809351Y84619151D01*
X92831662Y84591965D01*
X92848239Y84560952D01*
X92858449Y84527297D01*
X92862500Y84486162D01*
X92862500Y82156438D01*
X92858449Y82115303D01*
X92848239Y82081648D01*
X92831662Y82050635D01*
X92809351Y82023449D01*
X92782165Y82001138D01*
X92751152Y81984561D01*
X92717497Y81974351D01*
X92676362Y81970300D01*
X91346638Y81970300D01*
X91305503Y81974351D01*
X91271848Y81984561D01*
X91240835Y82001138D01*
X91213649Y82023449D01*
X91191338Y82050635D01*
X91174761Y82081648D01*
X91164551Y82115303D01*
X91160500Y82156438D01*
X91160500Y84486162D01*
X91164551Y84527297D01*
X91174761Y84560952D01*
X91191338Y84591965D01*
X91213649Y84619151D01*
X91240835Y84641462D01*
X91271848Y84658039D01*
X91305503Y84668249D01*
X91346638Y84672300D01*
X92676362Y84672300D01*
X92717497Y84668249D01*
G37*
G36*
X104555600Y83287000D02*
G01*
X102453600Y83287000D01*
X102453600Y84889000D01*
X104555600Y84889000D01*
X104555600Y83287000D01*
G37*
G36*
X87862620Y85280097D02*
G01*
X87896785Y85269733D01*
X87928264Y85252907D01*
X87955860Y85230260D01*
X87978507Y85202664D01*
X87995333Y85171185D01*
X88005697Y85137020D01*
X88009800Y85095358D01*
X88009800Y83846042D01*
X88005697Y83804380D01*
X87995333Y83770215D01*
X87978507Y83738736D01*
X87955860Y83711140D01*
X87928264Y83688493D01*
X87896785Y83671667D01*
X87862620Y83661303D01*
X87820958Y83657200D01*
X84746642Y83657200D01*
X84704980Y83661303D01*
X84670815Y83671667D01*
X84639336Y83688493D01*
X84611740Y83711140D01*
X84589093Y83738736D01*
X84572267Y83770215D01*
X84561903Y83804380D01*
X84557800Y83846042D01*
X84557800Y85095358D01*
X84561903Y85137020D01*
X84572267Y85171185D01*
X84589093Y85202664D01*
X84611740Y85230260D01*
X84639336Y85252907D01*
X84670815Y85269733D01*
X84704980Y85280097D01*
X84746642Y85284200D01*
X87820958Y85284200D01*
X87862620Y85280097D01*
G37*
M02*
