%FSLAX45Y45*%
G04 Gerber Fmt 4.5, Leading zero omitted, Abs format (unit mm)*
G04 Created by KiCad (PCBNEW (5.1.5)-3) date 2023-05-28 15:04:28*
%MOMM*%
%LPD*%
G04 APERTURE LIST*
%TA.AperFunction,Profile*%
%ADD10C,0.100000*%
%TD*%
%ADD11C,0.200000*%
%ADD12C,0.300000*%
G04 APERTURE END LIST*
D10*
X12509500Y8572500D02*
X12509500Y2921000D01*
X3429000Y8572500D02*
X12509500Y8572500D01*
X3429000Y2921000D02*
X3429000Y8572500D01*
X12509500Y2921000D02*
X3429000Y2921000D01*
D11*
X5061270Y4369750D02*
X5101270Y4329750D01*
X5101270Y4369750D02*
X5061270Y4329750D01*
X5911000Y5504000D02*
X5951000Y5464000D01*
X5951000Y5504000D02*
X5911000Y5464000D01*
X5954000Y5955000D02*
X5994000Y5915000D01*
X5994000Y5955000D02*
X5954000Y5915000D01*
X5958000Y4418000D02*
X5998000Y4378000D01*
X5998000Y4418000D02*
X5958000Y4378000D01*
X6547000Y5753000D02*
X6587000Y5713000D01*
X6587000Y5753000D02*
X6547000Y5713000D01*
X7044000Y3580500D02*
X7084000Y3540500D01*
X7084000Y3580500D02*
X7044000Y3540500D01*
X7141373Y3718990D02*
X7181373Y3678990D01*
X7181373Y3718990D02*
X7141373Y3678990D01*
X7156001Y4266256D02*
X7196001Y4226256D01*
X7196001Y4266256D02*
X7156001Y4226256D01*
X7195231Y4121390D02*
X7235231Y4081390D01*
X7235231Y4121390D02*
X7195231Y4081390D01*
X7242000Y4033000D02*
X7282000Y3993000D01*
X7282000Y4033000D02*
X7242000Y3993000D01*
X7247000Y3830000D02*
X7287000Y3790000D01*
X7287000Y3830000D02*
X7247000Y3790000D01*
X7260513Y4273981D02*
X7300513Y4233981D01*
X7300513Y4273981D02*
X7260513Y4233981D01*
X7270000Y3936000D02*
X7310000Y3896000D01*
X7310000Y3936000D02*
X7270000Y3896000D01*
X7394456Y3394956D02*
X7434456Y3354956D01*
X7434456Y3394956D02*
X7394456Y3354956D01*
X7482000Y6062000D02*
X7522000Y6022000D01*
X7522000Y6062000D02*
X7482000Y6022000D01*
X7498956Y4253044D02*
X7538956Y4213044D01*
X7538956Y4253044D02*
X7498956Y4213044D01*
X7520000Y3397000D02*
X7560000Y3357000D01*
X7560000Y3397000D02*
X7520000Y3357000D01*
X7654725Y4087370D02*
X7694725Y4047370D01*
X7694725Y4087370D02*
X7654725Y4047370D01*
X7666000Y3968000D02*
X7706000Y3928000D01*
X7706000Y3968000D02*
X7666000Y3928000D01*
X7673638Y4185567D02*
X7713638Y4145567D01*
X7713638Y4185567D02*
X7673638Y4145567D01*
X7694000Y4288989D02*
X7734000Y4248989D01*
X7734000Y4288989D02*
X7694000Y4248989D01*
X7883000Y3249499D02*
X7923000Y3209499D01*
X7923000Y3249499D02*
X7883000Y3209499D01*
X7887000Y4484500D02*
X7927000Y4444500D01*
X7927000Y4484500D02*
X7887000Y4444500D01*
X7973610Y5376000D02*
X8013610Y5336000D01*
X8013610Y5376000D02*
X7973610Y5336000D01*
X7980000Y3575000D02*
X8020000Y3535000D01*
X8020000Y3575000D02*
X7980000Y3535000D01*
X7981498Y3371459D02*
X8021498Y3331459D01*
X8021498Y3371459D02*
X7981498Y3331459D01*
X7992430Y4604700D02*
X8032430Y4564700D01*
X8032430Y4604700D02*
X7992430Y4564700D01*
X8000302Y4194498D02*
X8040302Y4154498D01*
X8040302Y4194498D02*
X8000302Y4154498D01*
X8019000Y3960000D02*
X8059000Y3920000D01*
X8059000Y3960000D02*
X8019000Y3920000D01*
X8027000Y4339499D02*
X8067000Y4299499D01*
X8067000Y4339499D02*
X8027000Y4299499D01*
X8194000Y6328000D02*
X8234000Y6288000D01*
X8234000Y6328000D02*
X8194000Y6288000D01*
X8195000Y6446000D02*
X8235000Y6406000D01*
X8235000Y6446000D02*
X8195000Y6406000D01*
X8214145Y4109376D02*
X8254145Y4069376D01*
X8254145Y4109376D02*
X8214145Y4069376D01*
X8218490Y3309300D02*
X8258490Y3269300D01*
X8258490Y3309300D02*
X8218490Y3269300D01*
X8222000Y4209068D02*
X8262000Y4169068D01*
X8262000Y4209068D02*
X8222000Y4169068D01*
X8222301Y4514531D02*
X8262301Y4474531D01*
X8262301Y4514531D02*
X8222301Y4474531D01*
X8224000Y3599987D02*
X8264000Y3559987D01*
X8264000Y3599987D02*
X8224000Y3559987D01*
X8256500Y6080000D02*
X8296500Y6040000D01*
X8296500Y6080000D02*
X8256500Y6040000D01*
X8256500Y5961000D02*
X8296500Y5921000D01*
X8296500Y5961000D02*
X8256500Y5921000D01*
X8256500Y5520000D02*
X8296500Y5480000D01*
X8296500Y5520000D02*
X8256500Y5480000D01*
X8256500Y5389000D02*
X8296500Y5349000D01*
X8296500Y5389000D02*
X8256500Y5349000D01*
X8256500Y5273000D02*
X8296500Y5233000D01*
X8296500Y5273000D02*
X8256500Y5233000D01*
X8258000Y3913000D02*
X8298000Y3873000D01*
X8298000Y3913000D02*
X8258000Y3873000D01*
X8264376Y4022905D02*
X8304376Y3982905D01*
X8304376Y4022905D02*
X8264376Y3982905D01*
X8605984Y5712515D02*
X8645984Y5672515D01*
X8645984Y5712515D02*
X8605984Y5672515D01*
X8607499Y5829000D02*
X8647499Y5789000D01*
X8647499Y5829000D02*
X8607499Y5789000D01*
X8624890Y4741860D02*
X8664890Y4701860D01*
X8664890Y4741860D02*
X8624890Y4701860D01*
X8631000Y4207000D02*
X8671000Y4167000D01*
X8671000Y4207000D02*
X8631000Y4167000D01*
X8633000Y3540000D02*
X8673000Y3500000D01*
X8673000Y3540000D02*
X8633000Y3500000D01*
X8633434Y4632444D02*
X8673434Y4592444D01*
X8673434Y4632444D02*
X8633434Y4592444D01*
X8680770Y5257641D02*
X8720770Y5217641D01*
X8720770Y5257641D02*
X8680770Y5217641D01*
X8716000Y5519000D02*
X8756000Y5479000D01*
X8756000Y5519000D02*
X8716000Y5479000D01*
X8738532Y4841031D02*
X8778532Y4801031D01*
X8778532Y4841031D02*
X8738532Y4801031D01*
X8758240Y5039040D02*
X8798240Y4999040D01*
X8798240Y5039040D02*
X8758240Y4999040D01*
X8764930Y4937485D02*
X8804930Y4897485D01*
X8804930Y4937485D02*
X8764930Y4897485D01*
X9036370Y3236910D02*
X9076370Y3196910D01*
X9076370Y3236910D02*
X9036370Y3196910D01*
X9064000Y6900000D02*
X9104000Y6860000D01*
X9104000Y6900000D02*
X9064000Y6860000D01*
X9081000Y6335000D02*
X9121000Y6295000D01*
X9121000Y6335000D02*
X9081000Y6295000D01*
X9084000Y6207000D02*
X9124000Y6167000D01*
X9124000Y6207000D02*
X9084000Y6167000D01*
X9084000Y6082000D02*
X9124000Y6042000D01*
X9124000Y6082000D02*
X9084000Y6042000D01*
X9097330Y3863154D02*
X9137330Y3823154D01*
X9137330Y3863154D02*
X9097330Y3823154D01*
X9099163Y4415724D02*
X9139163Y4375724D01*
X9139163Y4415724D02*
X9099163Y4375724D01*
X9109944Y4053156D02*
X9149944Y4013156D01*
X9149944Y4053156D02*
X9109944Y4013156D01*
X9116388Y5831612D02*
X9156388Y5791612D01*
X9156388Y5831612D02*
X9116388Y5791612D01*
X9186000Y6480000D02*
X9226000Y6440000D01*
X9226000Y6480000D02*
X9186000Y6440000D01*
X9188775Y5079675D02*
X9228775Y5039675D01*
X9228775Y5079675D02*
X9188775Y5039675D01*
X9207000Y5957000D02*
X9247000Y5917000D01*
X9247000Y5957000D02*
X9207000Y5917000D01*
X9228084Y4144849D02*
X9268084Y4104849D01*
X9268084Y4144849D02*
X9228084Y4104849D01*
X9282235Y5161765D02*
X9322235Y5121765D01*
X9322235Y5161765D02*
X9282235Y5121765D01*
X9314000Y3632000D02*
X9354000Y3592000D01*
X9354000Y3632000D02*
X9314000Y3592000D01*
X9352000Y7607000D02*
X9392000Y7567000D01*
X9392000Y7607000D02*
X9352000Y7567000D01*
X9364030Y4329110D02*
X9404030Y4289110D01*
X9404030Y4329110D02*
X9364030Y4289110D01*
X9390353Y4130879D02*
X9430353Y4090879D01*
X9430353Y4130879D02*
X9390353Y4090879D01*
X9439000Y6552500D02*
X9479000Y6512500D01*
X9479000Y6552500D02*
X9439000Y6512500D01*
X9527860Y4376100D02*
X9567860Y4336100D01*
X9567860Y4376100D02*
X9527860Y4336100D01*
X9540000Y5157000D02*
X9580000Y5117000D01*
X9580000Y5157000D02*
X9540000Y5117000D01*
X9543396Y5622604D02*
X9583396Y5582604D01*
X9583396Y5622604D02*
X9543396Y5582604D01*
X9589000Y7851500D02*
X9629000Y7811500D01*
X9629000Y7851500D02*
X9589000Y7811500D01*
X9590090Y3630000D02*
X9630090Y3590000D01*
X9630090Y3630000D02*
X9590090Y3590000D01*
X9596690Y5928690D02*
X9636690Y5888690D01*
X9636690Y5928690D02*
X9596690Y5888690D01*
X9699310Y4246560D02*
X9739310Y4206560D01*
X9739310Y4246560D02*
X9699310Y4206560D01*
X9723000Y3632000D02*
X9763000Y3592000D01*
X9763000Y3632000D02*
X9723000Y3592000D01*
X9747000Y6538000D02*
X9787000Y6498000D01*
X9787000Y6538000D02*
X9747000Y6498000D01*
X9813360Y4239810D02*
X9853360Y4199810D01*
X9853360Y4239810D02*
X9813360Y4199810D01*
X9954000Y3587500D02*
X9994000Y3547500D01*
X9994000Y3587500D02*
X9954000Y3547500D01*
X9993686Y5783500D02*
X10033686Y5743500D01*
X10033686Y5783500D02*
X9993686Y5743500D01*
X10033320Y4127180D02*
X10073320Y4087180D01*
X10073320Y4127180D02*
X10033320Y4087180D01*
X10041000Y6566000D02*
X10081000Y6526000D01*
X10081000Y6566000D02*
X10041000Y6526000D01*
X10084120Y4420550D02*
X10124120Y4380550D01*
X10124120Y4420550D02*
X10084120Y4380550D01*
X10104000Y5928500D02*
X10144000Y5888500D01*
X10144000Y5928500D02*
X10104000Y5888500D01*
X10131766Y3666766D02*
X10171766Y3626766D01*
X10171766Y3666766D02*
X10131766Y3626766D01*
X10357000Y6530000D02*
X10397000Y6490000D01*
X10397000Y6530000D02*
X10357000Y6490000D01*
X10390190Y4350700D02*
X10430190Y4310700D01*
X10430190Y4350700D02*
X10390190Y4310700D01*
X10537000Y5946000D02*
X10577000Y5906000D01*
X10577000Y5946000D02*
X10537000Y5906000D01*
X10617520Y4129720D02*
X10657520Y4089720D01*
X10657520Y4129720D02*
X10617520Y4089720D01*
X10749000Y5755000D02*
X10789000Y5715000D01*
X10789000Y5755000D02*
X10749000Y5715000D01*
X11015000Y3777000D02*
X11055000Y3737000D01*
X11055000Y3777000D02*
X11015000Y3737000D01*
X11022910Y3561090D02*
X11062910Y3521090D01*
X11062910Y3561090D02*
X11022910Y3521090D01*
X11563000Y5589000D02*
X11603000Y5549000D01*
X11603000Y5589000D02*
X11563000Y5549000D01*
X6606020Y3995420D02*
G75*
G03X6606020Y3995420I-32500J0D01*
G01*
X6606020Y3868420D02*
G75*
G03X6606020Y3868420I-32500J0D01*
G01*
X6606020Y3741420D02*
G75*
G03X6606020Y3741420I-32500J0D01*
G01*
X6733020Y3995420D02*
G75*
G03X6733020Y3995420I-32500J0D01*
G01*
X6733020Y3868420D02*
G75*
G03X6733020Y3868420I-32500J0D01*
G01*
X6733020Y3741420D02*
G75*
G03X6733020Y3741420I-32500J0D01*
G01*
X6967220Y4807500D02*
X6967220Y4717500D01*
X6922220Y4762500D02*
X7012220Y4762500D01*
X7221220Y4807500D02*
X7221220Y4717500D01*
X7176220Y4762500D02*
X7266220Y4762500D01*
X6976110Y3256830D02*
X6976110Y3166830D01*
X6931110Y3211830D02*
X7021110Y3211830D01*
X7230110Y3256830D02*
X7230110Y3166830D01*
X7185110Y3211830D02*
X7275110Y3211830D01*
X9306356Y6872174D02*
X9306356Y6942886D01*
X9235644Y6942886D01*
X9235644Y6872174D01*
X9306356Y6872174D01*
X9306356Y5348174D02*
X9306356Y5418886D01*
X9235644Y5418886D01*
X9235644Y5348174D01*
X9306356Y5348174D01*
X9560356Y6872174D02*
X9560356Y6942886D01*
X9489644Y6942886D01*
X9489644Y6872174D01*
X9560356Y6872174D01*
X9560356Y5348174D02*
X9560356Y5418886D01*
X9489644Y5418886D01*
X9489644Y5348174D01*
X9560356Y5348174D01*
X9814356Y6872174D02*
X9814356Y6942886D01*
X9743644Y6942886D01*
X9743644Y6872174D01*
X9814356Y6872174D01*
X9814356Y5348174D02*
X9814356Y5418886D01*
X9743644Y5418886D01*
X9743644Y5348174D01*
X9814356Y5348174D01*
X10068356Y6872174D02*
X10068356Y6942886D01*
X9997644Y6942886D01*
X9997644Y6872174D01*
X10068356Y6872174D01*
X10068356Y5348174D02*
X10068356Y5418886D01*
X9997644Y5418886D01*
X9997644Y5348174D01*
X10068356Y5348174D01*
X10322356Y6872174D02*
X10322356Y6942886D01*
X10251644Y6942886D01*
X10251644Y6872174D01*
X10322356Y6872174D01*
X10322356Y5348174D02*
X10322356Y5418886D01*
X10251644Y5418886D01*
X10251644Y5348174D01*
X10322356Y5348174D01*
X10576356Y6872174D02*
X10576356Y6942886D01*
X10505644Y6942886D01*
X10505644Y6872174D01*
X10576356Y6872174D01*
X10576356Y5348174D02*
X10576356Y5418886D01*
X10505644Y5418886D01*
X10505644Y5348174D01*
X10576356Y5348174D01*
X9306356Y4728414D02*
X9306356Y4799126D01*
X9235644Y4799126D01*
X9235644Y4728414D01*
X9306356Y4728414D01*
X9306356Y3204414D02*
X9306356Y3275126D01*
X9235644Y3275126D01*
X9235644Y3204414D01*
X9306356Y3204414D01*
X9560356Y4728414D02*
X9560356Y4799126D01*
X9489644Y4799126D01*
X9489644Y4728414D01*
X9560356Y4728414D01*
X9560356Y3204414D02*
X9560356Y3275126D01*
X9489644Y3275126D01*
X9489644Y3204414D01*
X9560356Y3204414D01*
X9814356Y4728414D02*
X9814356Y4799126D01*
X9743644Y4799126D01*
X9743644Y4728414D01*
X9814356Y4728414D01*
X9814356Y3204414D02*
X9814356Y3275126D01*
X9743644Y3275126D01*
X9743644Y3204414D01*
X9814356Y3204414D01*
X10068356Y4728414D02*
X10068356Y4799126D01*
X9997644Y4799126D01*
X9997644Y4728414D01*
X10068356Y4728414D01*
X10068356Y3204414D02*
X10068356Y3275126D01*
X9997644Y3275126D01*
X9997644Y3204414D01*
X10068356Y3204414D01*
X10322356Y4728414D02*
X10322356Y4799126D01*
X10251644Y4799126D01*
X10251644Y4728414D01*
X10322356Y4728414D01*
X10322356Y3204414D02*
X10322356Y3275126D01*
X10251644Y3275126D01*
X10251644Y3204414D01*
X10322356Y3204414D01*
X10576356Y4728414D02*
X10576356Y4799126D01*
X10505644Y4799126D01*
X10505644Y4728414D01*
X10576356Y4728414D01*
X10576356Y3204414D02*
X10576356Y3275126D01*
X10505644Y3275126D01*
X10505644Y3204414D01*
X10576356Y3204414D01*
X5201716Y8144714D02*
X5201716Y8215426D01*
X5131004Y8215426D01*
X5131004Y8144714D01*
X5201716Y8144714D01*
X5201716Y6620714D02*
X5201716Y6691426D01*
X5131004Y6691426D01*
X5131004Y6620714D01*
X5201716Y6620714D01*
X8001716Y8144714D02*
X8001716Y8215426D01*
X7931004Y8215426D01*
X7931004Y8144714D01*
X8001716Y8144714D01*
X8001716Y7382714D02*
X8001716Y7453426D01*
X7931004Y7453426D01*
X7931004Y7382714D01*
X8001716Y7382714D01*
X5567476Y6060644D02*
X5567476Y6131356D01*
X5496764Y6131356D01*
X5496764Y6060644D01*
X5567476Y6060644D01*
X5567476Y5298644D02*
X5567476Y5369356D01*
X5496764Y5369356D01*
X5496764Y5298644D01*
X5567476Y5298644D01*
X3754120Y6036000D02*
X3814120Y6096000D01*
X3754120Y6156000D01*
X3694120Y6096000D01*
X3754120Y6036000D01*
X4516120Y6036000D02*
X4576120Y6096000D01*
X4516120Y6156000D01*
X4456120Y6096000D01*
X4516120Y6036000D01*
X4203630Y3822770D02*
X4353630Y3672770D01*
X4353630Y3822770D02*
X4203630Y3672770D01*
X4353630Y3747770D02*
G75*
G03X4353630Y3747770I-75000J0D01*
G01*
X4203630Y3322770D02*
X4353630Y3172770D01*
X4353630Y3322770D02*
X4203630Y3172770D01*
X4353630Y3247770D02*
G75*
G03X4353630Y3247770I-75000J0D01*
G01*
X4136000Y8317000D02*
X4286000Y8167000D01*
X4286000Y8317000D02*
X4136000Y8167000D01*
X4286000Y8242000D02*
G75*
G03X4286000Y8242000I-75000J0D01*
G01*
X4136000Y7817000D02*
X4286000Y7667000D01*
X4286000Y7817000D02*
X4136000Y7667000D01*
X4286000Y7742000D02*
G75*
G03X4286000Y7742000I-75000J0D01*
G01*
X4136000Y7317000D02*
X4286000Y7167000D01*
X4286000Y7317000D02*
X4136000Y7167000D01*
X4286000Y7242000D02*
G75*
G03X4286000Y7242000I-75000J0D01*
G01*
X4199820Y4925130D02*
X4349820Y4775130D01*
X4349820Y4925130D02*
X4199820Y4775130D01*
X4349820Y4850130D02*
G75*
G03X4349820Y4850130I-75000J0D01*
G01*
X4199820Y4425130D02*
X4349820Y4275130D01*
X4349820Y4425130D02*
X4199820Y4275130D01*
X4349820Y4350130D02*
G75*
G03X4349820Y4350130I-75000J0D01*
G01*
D12*
X3710428Y2450286D02*
X3710428Y2750286D01*
X3781857Y2750286D01*
X3824714Y2736000D01*
X3853286Y2707428D01*
X3867571Y2678857D01*
X3881857Y2621714D01*
X3881857Y2578857D01*
X3867571Y2521714D01*
X3853286Y2493143D01*
X3824714Y2464571D01*
X3781857Y2450286D01*
X3710428Y2450286D01*
X4010428Y2450286D02*
X4010428Y2650286D01*
X4010428Y2593143D02*
X4024714Y2621714D01*
X4039000Y2636000D01*
X4067571Y2650286D01*
X4096143Y2650286D01*
X4196143Y2450286D02*
X4196143Y2650286D01*
X4196143Y2750286D02*
X4181857Y2736000D01*
X4196143Y2721714D01*
X4210428Y2736000D01*
X4196143Y2750286D01*
X4196143Y2721714D01*
X4381857Y2450286D02*
X4353286Y2464571D01*
X4339000Y2493143D01*
X4339000Y2750286D01*
X4539000Y2450286D02*
X4510428Y2464571D01*
X4496143Y2493143D01*
X4496143Y2750286D01*
X4881857Y2450286D02*
X4881857Y2750286D01*
X4981857Y2536000D01*
X5081857Y2750286D01*
X5081857Y2450286D01*
X5353286Y2450286D02*
X5353286Y2607428D01*
X5339000Y2636000D01*
X5310428Y2650286D01*
X5253286Y2650286D01*
X5224714Y2636000D01*
X5353286Y2464571D02*
X5324714Y2450286D01*
X5253286Y2450286D01*
X5224714Y2464571D01*
X5210428Y2493143D01*
X5210428Y2521714D01*
X5224714Y2550286D01*
X5253286Y2564571D01*
X5324714Y2564571D01*
X5353286Y2578857D01*
X5496143Y2650286D02*
X5496143Y2350286D01*
X5496143Y2636000D02*
X5524714Y2650286D01*
X5581857Y2650286D01*
X5610428Y2636000D01*
X5624714Y2621714D01*
X5639000Y2593143D01*
X5639000Y2507428D01*
X5624714Y2478857D01*
X5610428Y2464571D01*
X5581857Y2450286D01*
X5524714Y2450286D01*
X5496143Y2464571D01*
X5767571Y2478857D02*
X5781857Y2464571D01*
X5767571Y2450286D01*
X5753286Y2464571D01*
X5767571Y2478857D01*
X5767571Y2450286D01*
X5767571Y2636000D02*
X5781857Y2621714D01*
X5767571Y2607428D01*
X5753286Y2621714D01*
X5767571Y2636000D01*
X5767571Y2607428D01*
X3384000Y1976000D02*
X3424000Y1936000D01*
X3424000Y1976000D02*
X3384000Y1936000D01*
X3767571Y2120286D02*
X3796143Y2120286D01*
X3824714Y2106000D01*
X3839000Y2091714D01*
X3853286Y2063143D01*
X3867571Y2006000D01*
X3867571Y1934571D01*
X3853286Y1877428D01*
X3839000Y1848857D01*
X3824714Y1834571D01*
X3796143Y1820286D01*
X3767571Y1820286D01*
X3739000Y1834571D01*
X3724714Y1848857D01*
X3710428Y1877428D01*
X3696143Y1934571D01*
X3696143Y2006000D01*
X3710428Y2063143D01*
X3724714Y2091714D01*
X3739000Y2106000D01*
X3767571Y2120286D01*
X3996143Y1848857D02*
X4010428Y1834571D01*
X3996143Y1820286D01*
X3981857Y1834571D01*
X3996143Y1848857D01*
X3996143Y1820286D01*
X4267571Y2020286D02*
X4267571Y1820286D01*
X4196143Y2134571D02*
X4124714Y1920286D01*
X4310428Y1920286D01*
X4481857Y2120286D02*
X4510428Y2120286D01*
X4539000Y2106000D01*
X4553286Y2091714D01*
X4567571Y2063143D01*
X4581857Y2006000D01*
X4581857Y1934571D01*
X4567571Y1877428D01*
X4553286Y1848857D01*
X4539000Y1834571D01*
X4510428Y1820286D01*
X4481857Y1820286D01*
X4453286Y1834571D01*
X4439000Y1848857D01*
X4424714Y1877428D01*
X4410428Y1934571D01*
X4410428Y2006000D01*
X4424714Y2063143D01*
X4439000Y2091714D01*
X4453286Y2106000D01*
X4481857Y2120286D01*
X4710428Y1820286D02*
X4710428Y2020286D01*
X4710428Y1991714D02*
X4724714Y2006000D01*
X4753286Y2020286D01*
X4796143Y2020286D01*
X4824714Y2006000D01*
X4839000Y1977428D01*
X4839000Y1820286D01*
X4839000Y1977428D02*
X4853286Y2006000D01*
X4881857Y2020286D01*
X4924714Y2020286D01*
X4953286Y2006000D01*
X4967571Y1977428D01*
X4967571Y1820286D01*
X5110428Y1820286D02*
X5110428Y2020286D01*
X5110428Y1991714D02*
X5124714Y2006000D01*
X5153286Y2020286D01*
X5196143Y2020286D01*
X5224714Y2006000D01*
X5239000Y1977428D01*
X5239000Y1820286D01*
X5239000Y1977428D02*
X5253286Y2006000D01*
X5281857Y2020286D01*
X5324714Y2020286D01*
X5353286Y2006000D01*
X5367571Y1977428D01*
X5367571Y1820286D01*
X5953286Y2134571D02*
X5696143Y1748857D01*
X6339000Y2120286D02*
X6367571Y2120286D01*
X6396143Y2106000D01*
X6410428Y2091714D01*
X6424714Y2063143D01*
X6439000Y2006000D01*
X6439000Y1934571D01*
X6424714Y1877428D01*
X6410428Y1848857D01*
X6396143Y1834571D01*
X6367571Y1820286D01*
X6339000Y1820286D01*
X6310428Y1834571D01*
X6296143Y1848857D01*
X6281857Y1877428D01*
X6267571Y1934571D01*
X6267571Y2006000D01*
X6281857Y2063143D01*
X6296143Y2091714D01*
X6310428Y2106000D01*
X6339000Y2120286D01*
X6567571Y1848857D02*
X6581857Y1834571D01*
X6567571Y1820286D01*
X6553286Y1834571D01*
X6567571Y1848857D01*
X6567571Y1820286D01*
X6767571Y2120286D02*
X6796143Y2120286D01*
X6824714Y2106000D01*
X6839000Y2091714D01*
X6853286Y2063143D01*
X6867571Y2006000D01*
X6867571Y1934571D01*
X6853286Y1877428D01*
X6839000Y1848857D01*
X6824714Y1834571D01*
X6796143Y1820286D01*
X6767571Y1820286D01*
X6739000Y1834571D01*
X6724714Y1848857D01*
X6710428Y1877428D01*
X6696143Y1934571D01*
X6696143Y2006000D01*
X6710428Y2063143D01*
X6724714Y2091714D01*
X6739000Y2106000D01*
X6767571Y2120286D01*
X7153286Y1820286D02*
X6981857Y1820286D01*
X7067571Y1820286D02*
X7067571Y2120286D01*
X7039000Y2077428D01*
X7010428Y2048857D01*
X6981857Y2034571D01*
X7410428Y2120286D02*
X7353286Y2120286D01*
X7324714Y2106000D01*
X7310428Y2091714D01*
X7281857Y2048857D01*
X7267571Y1991714D01*
X7267571Y1877428D01*
X7281857Y1848857D01*
X7296143Y1834571D01*
X7324714Y1820286D01*
X7381857Y1820286D01*
X7410428Y1834571D01*
X7424714Y1848857D01*
X7439000Y1877428D01*
X7439000Y1948857D01*
X7424714Y1977428D01*
X7410428Y1991714D01*
X7381857Y2006000D01*
X7324714Y2006000D01*
X7296143Y1991714D01*
X7281857Y1977428D01*
X7267571Y1948857D01*
X7553286Y2120286D02*
X7553286Y2063143D01*
X7667571Y2120286D02*
X7667571Y2063143D01*
X8110428Y1706000D02*
X8096143Y1720286D01*
X8067571Y1763143D01*
X8053286Y1791714D01*
X8039000Y1834571D01*
X8024714Y1906000D01*
X8024714Y1963143D01*
X8039000Y2034571D01*
X8053286Y2077428D01*
X8067571Y2106000D01*
X8096143Y2148857D01*
X8110428Y2163143D01*
X8239000Y1820286D02*
X8296143Y1820286D01*
X8324714Y1834571D01*
X8339000Y1848857D01*
X8367571Y1891714D01*
X8381857Y1948857D01*
X8381857Y2063143D01*
X8367571Y2091714D01*
X8353286Y2106000D01*
X8324714Y2120286D01*
X8267571Y2120286D01*
X8239000Y2106000D01*
X8224714Y2091714D01*
X8210428Y2063143D01*
X8210428Y1991714D01*
X8224714Y1963143D01*
X8239000Y1948857D01*
X8267571Y1934571D01*
X8324714Y1934571D01*
X8353286Y1948857D01*
X8367571Y1963143D01*
X8381857Y1991714D01*
X8524714Y1820286D02*
X8581857Y1820286D01*
X8610428Y1834571D01*
X8624714Y1848857D01*
X8653286Y1891714D01*
X8667571Y1948857D01*
X8667571Y2063143D01*
X8653286Y2091714D01*
X8639000Y2106000D01*
X8610428Y2120286D01*
X8553286Y2120286D01*
X8524714Y2106000D01*
X8510428Y2091714D01*
X8496143Y2063143D01*
X8496143Y1991714D01*
X8510428Y1963143D01*
X8524714Y1948857D01*
X8553286Y1934571D01*
X8610428Y1934571D01*
X8639000Y1948857D01*
X8653286Y1963143D01*
X8667571Y1991714D01*
X9024714Y1820286D02*
X9024714Y2120286D01*
X9153286Y1820286D02*
X9153286Y1977428D01*
X9139000Y2006000D01*
X9110428Y2020286D01*
X9067571Y2020286D01*
X9039000Y2006000D01*
X9024714Y1991714D01*
X9339000Y1820286D02*
X9310428Y1834571D01*
X9296143Y1848857D01*
X9281857Y1877428D01*
X9281857Y1963143D01*
X9296143Y1991714D01*
X9310428Y2006000D01*
X9339000Y2020286D01*
X9381857Y2020286D01*
X9410428Y2006000D01*
X9424714Y1991714D01*
X9439000Y1963143D01*
X9439000Y1877428D01*
X9424714Y1848857D01*
X9410428Y1834571D01*
X9381857Y1820286D01*
X9339000Y1820286D01*
X9610428Y1820286D02*
X9581857Y1834571D01*
X9567571Y1863143D01*
X9567571Y2120286D01*
X9839000Y1834571D02*
X9810428Y1820286D01*
X9753286Y1820286D01*
X9724714Y1834571D01*
X9710428Y1863143D01*
X9710428Y1977428D01*
X9724714Y2006000D01*
X9753286Y2020286D01*
X9810428Y2020286D01*
X9839000Y2006000D01*
X9853286Y1977428D01*
X9853286Y1948857D01*
X9710428Y1920286D01*
X9967571Y1834571D02*
X9996143Y1820286D01*
X10053286Y1820286D01*
X10081857Y1834571D01*
X10096143Y1863143D01*
X10096143Y1877428D01*
X10081857Y1906000D01*
X10053286Y1920286D01*
X10010428Y1920286D01*
X9981857Y1934571D01*
X9967571Y1963143D01*
X9967571Y1977428D01*
X9981857Y2006000D01*
X10010428Y2020286D01*
X10053286Y2020286D01*
X10081857Y2006000D01*
X10196143Y1706000D02*
X10210428Y1720286D01*
X10239000Y1763143D01*
X10253286Y1791714D01*
X10267571Y1834571D01*
X10281857Y1906000D01*
X10281857Y1963143D01*
X10267571Y2034571D01*
X10253286Y2077428D01*
X10239000Y2106000D01*
X10210428Y2148857D01*
X10196143Y2163143D01*
X3424000Y1560000D02*
G75*
G03X3424000Y1560000I-32500J0D01*
G01*
X3767571Y1724286D02*
X3796143Y1724286D01*
X3824714Y1710000D01*
X3839000Y1695714D01*
X3853286Y1667143D01*
X3867571Y1610000D01*
X3867571Y1538571D01*
X3853286Y1481428D01*
X3839000Y1452857D01*
X3824714Y1438571D01*
X3796143Y1424286D01*
X3767571Y1424286D01*
X3739000Y1438571D01*
X3724714Y1452857D01*
X3710428Y1481428D01*
X3696143Y1538571D01*
X3696143Y1610000D01*
X3710428Y1667143D01*
X3724714Y1695714D01*
X3739000Y1710000D01*
X3767571Y1724286D01*
X3996143Y1452857D02*
X4010428Y1438571D01*
X3996143Y1424286D01*
X3981857Y1438571D01*
X3996143Y1452857D01*
X3996143Y1424286D01*
X4267571Y1724286D02*
X4210428Y1724286D01*
X4181857Y1710000D01*
X4167571Y1695714D01*
X4139000Y1652857D01*
X4124714Y1595714D01*
X4124714Y1481428D01*
X4139000Y1452857D01*
X4153286Y1438571D01*
X4181857Y1424286D01*
X4239000Y1424286D01*
X4267571Y1438571D01*
X4281857Y1452857D01*
X4296143Y1481428D01*
X4296143Y1552857D01*
X4281857Y1581428D01*
X4267571Y1595714D01*
X4239000Y1610000D01*
X4181857Y1610000D01*
X4153286Y1595714D01*
X4139000Y1581428D01*
X4124714Y1552857D01*
X4567571Y1724286D02*
X4424714Y1724286D01*
X4410428Y1581428D01*
X4424714Y1595714D01*
X4453286Y1610000D01*
X4524714Y1610000D01*
X4553286Y1595714D01*
X4567571Y1581428D01*
X4581857Y1552857D01*
X4581857Y1481428D01*
X4567571Y1452857D01*
X4553286Y1438571D01*
X4524714Y1424286D01*
X4453286Y1424286D01*
X4424714Y1438571D01*
X4410428Y1452857D01*
X4710428Y1424286D02*
X4710428Y1624286D01*
X4710428Y1595714D02*
X4724714Y1610000D01*
X4753286Y1624286D01*
X4796143Y1624286D01*
X4824714Y1610000D01*
X4839000Y1581428D01*
X4839000Y1424286D01*
X4839000Y1581428D02*
X4853286Y1610000D01*
X4881857Y1624286D01*
X4924714Y1624286D01*
X4953286Y1610000D01*
X4967571Y1581428D01*
X4967571Y1424286D01*
X5110428Y1424286D02*
X5110428Y1624286D01*
X5110428Y1595714D02*
X5124714Y1610000D01*
X5153286Y1624286D01*
X5196143Y1624286D01*
X5224714Y1610000D01*
X5239000Y1581428D01*
X5239000Y1424286D01*
X5239000Y1581428D02*
X5253286Y1610000D01*
X5281857Y1624286D01*
X5324714Y1624286D01*
X5353286Y1610000D01*
X5367571Y1581428D01*
X5367571Y1424286D01*
X5953286Y1738571D02*
X5696143Y1352857D01*
X6339000Y1724286D02*
X6367571Y1724286D01*
X6396143Y1710000D01*
X6410428Y1695714D01*
X6424714Y1667143D01*
X6439000Y1610000D01*
X6439000Y1538571D01*
X6424714Y1481428D01*
X6410428Y1452857D01*
X6396143Y1438571D01*
X6367571Y1424286D01*
X6339000Y1424286D01*
X6310428Y1438571D01*
X6296143Y1452857D01*
X6281857Y1481428D01*
X6267571Y1538571D01*
X6267571Y1610000D01*
X6281857Y1667143D01*
X6296143Y1695714D01*
X6310428Y1710000D01*
X6339000Y1724286D01*
X6567571Y1452857D02*
X6581857Y1438571D01*
X6567571Y1424286D01*
X6553286Y1438571D01*
X6567571Y1452857D01*
X6567571Y1424286D01*
X6767571Y1724286D02*
X6796143Y1724286D01*
X6824714Y1710000D01*
X6839000Y1695714D01*
X6853286Y1667143D01*
X6867571Y1610000D01*
X6867571Y1538571D01*
X6853286Y1481428D01*
X6839000Y1452857D01*
X6824714Y1438571D01*
X6796143Y1424286D01*
X6767571Y1424286D01*
X6739000Y1438571D01*
X6724714Y1452857D01*
X6710428Y1481428D01*
X6696143Y1538571D01*
X6696143Y1610000D01*
X6710428Y1667143D01*
X6724714Y1695714D01*
X6739000Y1710000D01*
X6767571Y1724286D01*
X6981857Y1695714D02*
X6996143Y1710000D01*
X7024714Y1724286D01*
X7096143Y1724286D01*
X7124714Y1710000D01*
X7139000Y1695714D01*
X7153286Y1667143D01*
X7153286Y1638571D01*
X7139000Y1595714D01*
X6967571Y1424286D01*
X7153286Y1424286D01*
X7410428Y1724286D02*
X7353286Y1724286D01*
X7324714Y1710000D01*
X7310428Y1695714D01*
X7281857Y1652857D01*
X7267571Y1595714D01*
X7267571Y1481428D01*
X7281857Y1452857D01*
X7296143Y1438571D01*
X7324714Y1424286D01*
X7381857Y1424286D01*
X7410428Y1438571D01*
X7424714Y1452857D01*
X7439000Y1481428D01*
X7439000Y1552857D01*
X7424714Y1581428D01*
X7410428Y1595714D01*
X7381857Y1610000D01*
X7324714Y1610000D01*
X7296143Y1595714D01*
X7281857Y1581428D01*
X7267571Y1552857D01*
X7553286Y1724286D02*
X7553286Y1667143D01*
X7667571Y1724286D02*
X7667571Y1667143D01*
X8110428Y1310000D02*
X8096143Y1324286D01*
X8067571Y1367143D01*
X8053286Y1395714D01*
X8039000Y1438571D01*
X8024714Y1510000D01*
X8024714Y1567143D01*
X8039000Y1638571D01*
X8053286Y1681428D01*
X8067571Y1710000D01*
X8096143Y1752857D01*
X8110428Y1767143D01*
X8353286Y1724286D02*
X8296143Y1724286D01*
X8267571Y1710000D01*
X8253286Y1695714D01*
X8224714Y1652857D01*
X8210428Y1595714D01*
X8210428Y1481428D01*
X8224714Y1452857D01*
X8239000Y1438571D01*
X8267571Y1424286D01*
X8324714Y1424286D01*
X8353286Y1438571D01*
X8367571Y1452857D01*
X8381857Y1481428D01*
X8381857Y1552857D01*
X8367571Y1581428D01*
X8353286Y1595714D01*
X8324714Y1610000D01*
X8267571Y1610000D01*
X8239000Y1595714D01*
X8224714Y1581428D01*
X8210428Y1552857D01*
X8739000Y1424286D02*
X8739000Y1724286D01*
X8867571Y1424286D02*
X8867571Y1581428D01*
X8853286Y1610000D01*
X8824714Y1624286D01*
X8781857Y1624286D01*
X8753286Y1610000D01*
X8739000Y1595714D01*
X9053286Y1424286D02*
X9024714Y1438571D01*
X9010428Y1452857D01*
X8996143Y1481428D01*
X8996143Y1567143D01*
X9010428Y1595714D01*
X9024714Y1610000D01*
X9053286Y1624286D01*
X9096143Y1624286D01*
X9124714Y1610000D01*
X9139000Y1595714D01*
X9153286Y1567143D01*
X9153286Y1481428D01*
X9139000Y1452857D01*
X9124714Y1438571D01*
X9096143Y1424286D01*
X9053286Y1424286D01*
X9324714Y1424286D02*
X9296143Y1438571D01*
X9281857Y1467143D01*
X9281857Y1724286D01*
X9553286Y1438571D02*
X9524714Y1424286D01*
X9467571Y1424286D01*
X9439000Y1438571D01*
X9424714Y1467143D01*
X9424714Y1581428D01*
X9439000Y1610000D01*
X9467571Y1624286D01*
X9524714Y1624286D01*
X9553286Y1610000D01*
X9567571Y1581428D01*
X9567571Y1552857D01*
X9424714Y1524286D01*
X9681857Y1438571D02*
X9710428Y1424286D01*
X9767571Y1424286D01*
X9796143Y1438571D01*
X9810428Y1467143D01*
X9810428Y1481428D01*
X9796143Y1510000D01*
X9767571Y1524286D01*
X9724714Y1524286D01*
X9696143Y1538571D01*
X9681857Y1567143D01*
X9681857Y1581428D01*
X9696143Y1610000D01*
X9724714Y1624286D01*
X9767571Y1624286D01*
X9796143Y1610000D01*
X9910428Y1310000D02*
X9924714Y1324286D01*
X9953286Y1367143D01*
X9967571Y1395714D01*
X9981857Y1438571D01*
X9996143Y1510000D01*
X9996143Y1567143D01*
X9981857Y1638571D01*
X9967571Y1681428D01*
X9953286Y1710000D01*
X9924714Y1752857D01*
X9910428Y1767143D01*
X3379000Y1209000D02*
X3379000Y1119000D01*
X3334000Y1164000D02*
X3424000Y1164000D01*
X3767571Y1328286D02*
X3796143Y1328286D01*
X3824714Y1314000D01*
X3839000Y1299714D01*
X3853286Y1271143D01*
X3867571Y1214000D01*
X3867571Y1142571D01*
X3853286Y1085428D01*
X3839000Y1056857D01*
X3824714Y1042571D01*
X3796143Y1028286D01*
X3767571Y1028286D01*
X3739000Y1042571D01*
X3724714Y1056857D01*
X3710428Y1085428D01*
X3696143Y1142571D01*
X3696143Y1214000D01*
X3710428Y1271143D01*
X3724714Y1299714D01*
X3739000Y1314000D01*
X3767571Y1328286D01*
X3996143Y1056857D02*
X4010428Y1042571D01*
X3996143Y1028286D01*
X3981857Y1042571D01*
X3996143Y1056857D01*
X3996143Y1028286D01*
X4153286Y1028286D02*
X4210428Y1028286D01*
X4239000Y1042571D01*
X4253286Y1056857D01*
X4281857Y1099714D01*
X4296143Y1156857D01*
X4296143Y1271143D01*
X4281857Y1299714D01*
X4267571Y1314000D01*
X4239000Y1328286D01*
X4181857Y1328286D01*
X4153286Y1314000D01*
X4139000Y1299714D01*
X4124714Y1271143D01*
X4124714Y1199714D01*
X4139000Y1171143D01*
X4153286Y1156857D01*
X4181857Y1142571D01*
X4239000Y1142571D01*
X4267571Y1156857D01*
X4281857Y1171143D01*
X4296143Y1199714D01*
X4481857Y1328286D02*
X4510428Y1328286D01*
X4539000Y1314000D01*
X4553286Y1299714D01*
X4567571Y1271143D01*
X4581857Y1214000D01*
X4581857Y1142571D01*
X4567571Y1085428D01*
X4553286Y1056857D01*
X4539000Y1042571D01*
X4510428Y1028286D01*
X4481857Y1028286D01*
X4453286Y1042571D01*
X4439000Y1056857D01*
X4424714Y1085428D01*
X4410428Y1142571D01*
X4410428Y1214000D01*
X4424714Y1271143D01*
X4439000Y1299714D01*
X4453286Y1314000D01*
X4481857Y1328286D01*
X4710428Y1028286D02*
X4710428Y1228286D01*
X4710428Y1199714D02*
X4724714Y1214000D01*
X4753286Y1228286D01*
X4796143Y1228286D01*
X4824714Y1214000D01*
X4839000Y1185428D01*
X4839000Y1028286D01*
X4839000Y1185428D02*
X4853286Y1214000D01*
X4881857Y1228286D01*
X4924714Y1228286D01*
X4953286Y1214000D01*
X4967571Y1185428D01*
X4967571Y1028286D01*
X5110428Y1028286D02*
X5110428Y1228286D01*
X5110428Y1199714D02*
X5124714Y1214000D01*
X5153286Y1228286D01*
X5196143Y1228286D01*
X5224714Y1214000D01*
X5239000Y1185428D01*
X5239000Y1028286D01*
X5239000Y1185428D02*
X5253286Y1214000D01*
X5281857Y1228286D01*
X5324714Y1228286D01*
X5353286Y1214000D01*
X5367571Y1185428D01*
X5367571Y1028286D01*
X5953286Y1342571D02*
X5696143Y956857D01*
X6339000Y1328286D02*
X6367571Y1328286D01*
X6396143Y1314000D01*
X6410428Y1299714D01*
X6424714Y1271143D01*
X6439000Y1214000D01*
X6439000Y1142571D01*
X6424714Y1085428D01*
X6410428Y1056857D01*
X6396143Y1042571D01*
X6367571Y1028286D01*
X6339000Y1028286D01*
X6310428Y1042571D01*
X6296143Y1056857D01*
X6281857Y1085428D01*
X6267571Y1142571D01*
X6267571Y1214000D01*
X6281857Y1271143D01*
X6296143Y1299714D01*
X6310428Y1314000D01*
X6339000Y1328286D01*
X6567571Y1056857D02*
X6581857Y1042571D01*
X6567571Y1028286D01*
X6553286Y1042571D01*
X6567571Y1056857D01*
X6567571Y1028286D01*
X6767571Y1328286D02*
X6796143Y1328286D01*
X6824714Y1314000D01*
X6839000Y1299714D01*
X6853286Y1271143D01*
X6867571Y1214000D01*
X6867571Y1142571D01*
X6853286Y1085428D01*
X6839000Y1056857D01*
X6824714Y1042571D01*
X6796143Y1028286D01*
X6767571Y1028286D01*
X6739000Y1042571D01*
X6724714Y1056857D01*
X6710428Y1085428D01*
X6696143Y1142571D01*
X6696143Y1214000D01*
X6710428Y1271143D01*
X6724714Y1299714D01*
X6739000Y1314000D01*
X6767571Y1328286D01*
X6967571Y1328286D02*
X7153286Y1328286D01*
X7053286Y1214000D01*
X7096143Y1214000D01*
X7124714Y1199714D01*
X7139000Y1185428D01*
X7153286Y1156857D01*
X7153286Y1085428D01*
X7139000Y1056857D01*
X7124714Y1042571D01*
X7096143Y1028286D01*
X7010428Y1028286D01*
X6981857Y1042571D01*
X6967571Y1056857D01*
X7424714Y1328286D02*
X7281857Y1328286D01*
X7267571Y1185428D01*
X7281857Y1199714D01*
X7310428Y1214000D01*
X7381857Y1214000D01*
X7410428Y1199714D01*
X7424714Y1185428D01*
X7439000Y1156857D01*
X7439000Y1085428D01*
X7424714Y1056857D01*
X7410428Y1042571D01*
X7381857Y1028286D01*
X7310428Y1028286D01*
X7281857Y1042571D01*
X7267571Y1056857D01*
X7553286Y1328286D02*
X7553286Y1271143D01*
X7667571Y1328286D02*
X7667571Y1271143D01*
X8110428Y914000D02*
X8096143Y928286D01*
X8067571Y971143D01*
X8053286Y999714D01*
X8039000Y1042571D01*
X8024714Y1114000D01*
X8024714Y1171143D01*
X8039000Y1242571D01*
X8053286Y1285428D01*
X8067571Y1314000D01*
X8096143Y1356857D01*
X8110428Y1371143D01*
X8353286Y1228286D02*
X8353286Y1028286D01*
X8281857Y1342571D02*
X8210428Y1128286D01*
X8396143Y1128286D01*
X8739000Y1028286D02*
X8739000Y1328286D01*
X8867571Y1028286D02*
X8867571Y1185428D01*
X8853286Y1214000D01*
X8824714Y1228286D01*
X8781857Y1228286D01*
X8753286Y1214000D01*
X8739000Y1199714D01*
X9053286Y1028286D02*
X9024714Y1042571D01*
X9010428Y1056857D01*
X8996143Y1085428D01*
X8996143Y1171143D01*
X9010428Y1199714D01*
X9024714Y1214000D01*
X9053286Y1228286D01*
X9096143Y1228286D01*
X9124714Y1214000D01*
X9139000Y1199714D01*
X9153286Y1171143D01*
X9153286Y1085428D01*
X9139000Y1056857D01*
X9124714Y1042571D01*
X9096143Y1028286D01*
X9053286Y1028286D01*
X9324714Y1028286D02*
X9296143Y1042571D01*
X9281857Y1071143D01*
X9281857Y1328286D01*
X9553286Y1042571D02*
X9524714Y1028286D01*
X9467571Y1028286D01*
X9439000Y1042571D01*
X9424714Y1071143D01*
X9424714Y1185428D01*
X9439000Y1214000D01*
X9467571Y1228286D01*
X9524714Y1228286D01*
X9553286Y1214000D01*
X9567571Y1185428D01*
X9567571Y1156857D01*
X9424714Y1128286D01*
X9681857Y1042571D02*
X9710428Y1028286D01*
X9767571Y1028286D01*
X9796143Y1042571D01*
X9810428Y1071143D01*
X9810428Y1085428D01*
X9796143Y1114000D01*
X9767571Y1128286D01*
X9724714Y1128286D01*
X9696143Y1142571D01*
X9681857Y1171143D01*
X9681857Y1185428D01*
X9696143Y1214000D01*
X9724714Y1228286D01*
X9767571Y1228286D01*
X9796143Y1214000D01*
X9910428Y914000D02*
X9924714Y928286D01*
X9953286Y971143D01*
X9967571Y999714D01*
X9981857Y1042571D01*
X9996143Y1114000D01*
X9996143Y1171143D01*
X9981857Y1242571D01*
X9967571Y1285428D01*
X9953286Y1314000D01*
X9924714Y1356857D01*
X9910428Y1371143D01*
X3409356Y732644D02*
X3409356Y803356D01*
X3338644Y803356D01*
X3338644Y732644D01*
X3409356Y732644D01*
X3867571Y632286D02*
X3696143Y632286D01*
X3781857Y632286D02*
X3781857Y932286D01*
X3753286Y889428D01*
X3724714Y860857D01*
X3696143Y846571D01*
X3996143Y660857D02*
X4010428Y646571D01*
X3996143Y632286D01*
X3981857Y646571D01*
X3996143Y660857D01*
X3996143Y632286D01*
X4196143Y932286D02*
X4224714Y932286D01*
X4253286Y918000D01*
X4267571Y903714D01*
X4281857Y875143D01*
X4296143Y818000D01*
X4296143Y746571D01*
X4281857Y689428D01*
X4267571Y660857D01*
X4253286Y646571D01*
X4224714Y632286D01*
X4196143Y632286D01*
X4167571Y646571D01*
X4153286Y660857D01*
X4139000Y689428D01*
X4124714Y746571D01*
X4124714Y818000D01*
X4139000Y875143D01*
X4153286Y903714D01*
X4167571Y918000D01*
X4196143Y932286D01*
X4481857Y932286D02*
X4510428Y932286D01*
X4539000Y918000D01*
X4553286Y903714D01*
X4567571Y875143D01*
X4581857Y818000D01*
X4581857Y746571D01*
X4567571Y689428D01*
X4553286Y660857D01*
X4539000Y646571D01*
X4510428Y632286D01*
X4481857Y632286D01*
X4453286Y646571D01*
X4439000Y660857D01*
X4424714Y689428D01*
X4410428Y746571D01*
X4410428Y818000D01*
X4424714Y875143D01*
X4439000Y903714D01*
X4453286Y918000D01*
X4481857Y932286D01*
X4710428Y632286D02*
X4710428Y832286D01*
X4710428Y803714D02*
X4724714Y818000D01*
X4753286Y832286D01*
X4796143Y832286D01*
X4824714Y818000D01*
X4839000Y789428D01*
X4839000Y632286D01*
X4839000Y789428D02*
X4853286Y818000D01*
X4881857Y832286D01*
X4924714Y832286D01*
X4953286Y818000D01*
X4967571Y789428D01*
X4967571Y632286D01*
X5110428Y632286D02*
X5110428Y832286D01*
X5110428Y803714D02*
X5124714Y818000D01*
X5153286Y832286D01*
X5196143Y832286D01*
X5224714Y818000D01*
X5239000Y789428D01*
X5239000Y632286D01*
X5239000Y789428D02*
X5253286Y818000D01*
X5281857Y832286D01*
X5324714Y832286D01*
X5353286Y818000D01*
X5367571Y789428D01*
X5367571Y632286D01*
X5953286Y946571D02*
X5696143Y560857D01*
X6339000Y932286D02*
X6367571Y932286D01*
X6396143Y918000D01*
X6410428Y903714D01*
X6424714Y875143D01*
X6439000Y818000D01*
X6439000Y746571D01*
X6424714Y689428D01*
X6410428Y660857D01*
X6396143Y646571D01*
X6367571Y632286D01*
X6339000Y632286D01*
X6310428Y646571D01*
X6296143Y660857D01*
X6281857Y689428D01*
X6267571Y746571D01*
X6267571Y818000D01*
X6281857Y875143D01*
X6296143Y903714D01*
X6310428Y918000D01*
X6339000Y932286D01*
X6567571Y660857D02*
X6581857Y646571D01*
X6567571Y632286D01*
X6553286Y646571D01*
X6567571Y660857D01*
X6567571Y632286D01*
X6767571Y932286D02*
X6796143Y932286D01*
X6824714Y918000D01*
X6839000Y903714D01*
X6853286Y875143D01*
X6867571Y818000D01*
X6867571Y746571D01*
X6853286Y689428D01*
X6839000Y660857D01*
X6824714Y646571D01*
X6796143Y632286D01*
X6767571Y632286D01*
X6739000Y646571D01*
X6724714Y660857D01*
X6710428Y689428D01*
X6696143Y746571D01*
X6696143Y818000D01*
X6710428Y875143D01*
X6724714Y903714D01*
X6739000Y918000D01*
X6767571Y932286D01*
X6967571Y932286D02*
X7153286Y932286D01*
X7053286Y818000D01*
X7096143Y818000D01*
X7124714Y803714D01*
X7139000Y789428D01*
X7153286Y760857D01*
X7153286Y689428D01*
X7139000Y660857D01*
X7124714Y646571D01*
X7096143Y632286D01*
X7010428Y632286D01*
X6981857Y646571D01*
X6967571Y660857D01*
X7296143Y632286D02*
X7353286Y632286D01*
X7381857Y646571D01*
X7396143Y660857D01*
X7424714Y703714D01*
X7439000Y760857D01*
X7439000Y875143D01*
X7424714Y903714D01*
X7410428Y918000D01*
X7381857Y932286D01*
X7324714Y932286D01*
X7296143Y918000D01*
X7281857Y903714D01*
X7267571Y875143D01*
X7267571Y803714D01*
X7281857Y775143D01*
X7296143Y760857D01*
X7324714Y746571D01*
X7381857Y746571D01*
X7410428Y760857D01*
X7424714Y775143D01*
X7439000Y803714D01*
X7553286Y932286D02*
X7553286Y875143D01*
X7667571Y932286D02*
X7667571Y875143D01*
X8110428Y518000D02*
X8096143Y532286D01*
X8067571Y575143D01*
X8053286Y603714D01*
X8039000Y646571D01*
X8024714Y718000D01*
X8024714Y775143D01*
X8039000Y846571D01*
X8053286Y889428D01*
X8067571Y918000D01*
X8096143Y960857D01*
X8110428Y975143D01*
X8196143Y932286D02*
X8381857Y932286D01*
X8281857Y818000D01*
X8324714Y818000D01*
X8353286Y803714D01*
X8367571Y789428D01*
X8381857Y760857D01*
X8381857Y689428D01*
X8367571Y660857D01*
X8353286Y646571D01*
X8324714Y632286D01*
X8239000Y632286D01*
X8210428Y646571D01*
X8196143Y660857D01*
X8567571Y932286D02*
X8596143Y932286D01*
X8624714Y918000D01*
X8639000Y903714D01*
X8653286Y875143D01*
X8667571Y818000D01*
X8667571Y746571D01*
X8653286Y689428D01*
X8639000Y660857D01*
X8624714Y646571D01*
X8596143Y632286D01*
X8567571Y632286D01*
X8539000Y646571D01*
X8524714Y660857D01*
X8510428Y689428D01*
X8496143Y746571D01*
X8496143Y818000D01*
X8510428Y875143D01*
X8524714Y903714D01*
X8539000Y918000D01*
X8567571Y932286D01*
X9024714Y632286D02*
X9024714Y932286D01*
X9153286Y632286D02*
X9153286Y789428D01*
X9139000Y818000D01*
X9110428Y832286D01*
X9067571Y832286D01*
X9039000Y818000D01*
X9024714Y803714D01*
X9339000Y632286D02*
X9310428Y646571D01*
X9296143Y660857D01*
X9281857Y689428D01*
X9281857Y775143D01*
X9296143Y803714D01*
X9310428Y818000D01*
X9339000Y832286D01*
X9381857Y832286D01*
X9410428Y818000D01*
X9424714Y803714D01*
X9439000Y775143D01*
X9439000Y689428D01*
X9424714Y660857D01*
X9410428Y646571D01*
X9381857Y632286D01*
X9339000Y632286D01*
X9610428Y632286D02*
X9581857Y646571D01*
X9567571Y675143D01*
X9567571Y932286D01*
X9839000Y646571D02*
X9810428Y632286D01*
X9753286Y632286D01*
X9724714Y646571D01*
X9710428Y675143D01*
X9710428Y789428D01*
X9724714Y818000D01*
X9753286Y832286D01*
X9810428Y832286D01*
X9839000Y818000D01*
X9853286Y789428D01*
X9853286Y760857D01*
X9710428Y732286D01*
X9967571Y646571D02*
X9996143Y632286D01*
X10053286Y632286D01*
X10081857Y646571D01*
X10096143Y675143D01*
X10096143Y689428D01*
X10081857Y718000D01*
X10053286Y732286D01*
X10010428Y732286D01*
X9981857Y746571D01*
X9967571Y775143D01*
X9967571Y789428D01*
X9981857Y818000D01*
X10010428Y832286D01*
X10053286Y832286D01*
X10081857Y818000D01*
X10196143Y518000D02*
X10210428Y532286D01*
X10239000Y575143D01*
X10253286Y603714D01*
X10267571Y646571D01*
X10281857Y718000D01*
X10281857Y775143D01*
X10267571Y846571D01*
X10253286Y889428D01*
X10239000Y918000D01*
X10210428Y960857D01*
X10196143Y975143D01*
X3364000Y312000D02*
X3424000Y372000D01*
X3364000Y432000D01*
X3304000Y372000D01*
X3364000Y312000D01*
X3867571Y236286D02*
X3696143Y236286D01*
X3781857Y236286D02*
X3781857Y536286D01*
X3753286Y493428D01*
X3724714Y464857D01*
X3696143Y450571D01*
X3996143Y264857D02*
X4010428Y250571D01*
X3996143Y236286D01*
X3981857Y250571D01*
X3996143Y264857D01*
X3996143Y236286D01*
X4124714Y507714D02*
X4139000Y522000D01*
X4167571Y536286D01*
X4239000Y536286D01*
X4267571Y522000D01*
X4281857Y507714D01*
X4296143Y479143D01*
X4296143Y450571D01*
X4281857Y407714D01*
X4110428Y236286D01*
X4296143Y236286D01*
X4481857Y536286D02*
X4510428Y536286D01*
X4539000Y522000D01*
X4553286Y507714D01*
X4567571Y479143D01*
X4581857Y422000D01*
X4581857Y350571D01*
X4567571Y293428D01*
X4553286Y264857D01*
X4539000Y250571D01*
X4510428Y236286D01*
X4481857Y236286D01*
X4453286Y250571D01*
X4439000Y264857D01*
X4424714Y293428D01*
X4410428Y350571D01*
X4410428Y422000D01*
X4424714Y479143D01*
X4439000Y507714D01*
X4453286Y522000D01*
X4481857Y536286D01*
X4710428Y236286D02*
X4710428Y436286D01*
X4710428Y407714D02*
X4724714Y422000D01*
X4753286Y436286D01*
X4796143Y436286D01*
X4824714Y422000D01*
X4839000Y393428D01*
X4839000Y236286D01*
X4839000Y393428D02*
X4853286Y422000D01*
X4881857Y436286D01*
X4924714Y436286D01*
X4953286Y422000D01*
X4967571Y393428D01*
X4967571Y236286D01*
X5110428Y236286D02*
X5110428Y436286D01*
X5110428Y407714D02*
X5124714Y422000D01*
X5153286Y436286D01*
X5196143Y436286D01*
X5224714Y422000D01*
X5239000Y393428D01*
X5239000Y236286D01*
X5239000Y393428D02*
X5253286Y422000D01*
X5281857Y436286D01*
X5324714Y436286D01*
X5353286Y422000D01*
X5367571Y393428D01*
X5367571Y236286D01*
X5953286Y550571D02*
X5696143Y164857D01*
X6339000Y536286D02*
X6367571Y536286D01*
X6396143Y522000D01*
X6410428Y507714D01*
X6424714Y479143D01*
X6439000Y422000D01*
X6439000Y350571D01*
X6424714Y293428D01*
X6410428Y264857D01*
X6396143Y250571D01*
X6367571Y236286D01*
X6339000Y236286D01*
X6310428Y250571D01*
X6296143Y264857D01*
X6281857Y293428D01*
X6267571Y350571D01*
X6267571Y422000D01*
X6281857Y479143D01*
X6296143Y507714D01*
X6310428Y522000D01*
X6339000Y536286D01*
X6567571Y264857D02*
X6581857Y250571D01*
X6567571Y236286D01*
X6553286Y250571D01*
X6567571Y264857D01*
X6567571Y236286D01*
X6767571Y536286D02*
X6796143Y536286D01*
X6824714Y522000D01*
X6839000Y507714D01*
X6853286Y479143D01*
X6867571Y422000D01*
X6867571Y350571D01*
X6853286Y293428D01*
X6839000Y264857D01*
X6824714Y250571D01*
X6796143Y236286D01*
X6767571Y236286D01*
X6739000Y250571D01*
X6724714Y264857D01*
X6710428Y293428D01*
X6696143Y350571D01*
X6696143Y422000D01*
X6710428Y479143D01*
X6724714Y507714D01*
X6739000Y522000D01*
X6767571Y536286D01*
X7124714Y436286D02*
X7124714Y236286D01*
X7053286Y550571D02*
X6981857Y336286D01*
X7167571Y336286D01*
X7253286Y536286D02*
X7453286Y536286D01*
X7324714Y236286D01*
X7553286Y536286D02*
X7553286Y479143D01*
X7667571Y536286D02*
X7667571Y479143D01*
X8110428Y122000D02*
X8096143Y136286D01*
X8067571Y179143D01*
X8053286Y207714D01*
X8039000Y250571D01*
X8024714Y322000D01*
X8024714Y379143D01*
X8039000Y450571D01*
X8053286Y493428D01*
X8067571Y522000D01*
X8096143Y564857D01*
X8110428Y579143D01*
X8210428Y507714D02*
X8224714Y522000D01*
X8253286Y536286D01*
X8324714Y536286D01*
X8353286Y522000D01*
X8367571Y507714D01*
X8381857Y479143D01*
X8381857Y450571D01*
X8367571Y407714D01*
X8196143Y236286D01*
X8381857Y236286D01*
X8739000Y236286D02*
X8739000Y536286D01*
X8867571Y236286D02*
X8867571Y393428D01*
X8853286Y422000D01*
X8824714Y436286D01*
X8781857Y436286D01*
X8753286Y422000D01*
X8739000Y407714D01*
X9053286Y236286D02*
X9024714Y250571D01*
X9010428Y264857D01*
X8996143Y293428D01*
X8996143Y379143D01*
X9010428Y407714D01*
X9024714Y422000D01*
X9053286Y436286D01*
X9096143Y436286D01*
X9124714Y422000D01*
X9139000Y407714D01*
X9153286Y379143D01*
X9153286Y293428D01*
X9139000Y264857D01*
X9124714Y250571D01*
X9096143Y236286D01*
X9053286Y236286D01*
X9324714Y236286D02*
X9296143Y250571D01*
X9281857Y279143D01*
X9281857Y536286D01*
X9553286Y250571D02*
X9524714Y236286D01*
X9467571Y236286D01*
X9439000Y250571D01*
X9424714Y279143D01*
X9424714Y393428D01*
X9439000Y422000D01*
X9467571Y436286D01*
X9524714Y436286D01*
X9553286Y422000D01*
X9567571Y393428D01*
X9567571Y364857D01*
X9424714Y336286D01*
X9681857Y250571D02*
X9710428Y236286D01*
X9767571Y236286D01*
X9796143Y250571D01*
X9810428Y279143D01*
X9810428Y293428D01*
X9796143Y322000D01*
X9767571Y336286D01*
X9724714Y336286D01*
X9696143Y350571D01*
X9681857Y379143D01*
X9681857Y393428D01*
X9696143Y422000D01*
X9724714Y436286D01*
X9767571Y436286D01*
X9796143Y422000D01*
X9910428Y122000D02*
X9924714Y136286D01*
X9953286Y179143D01*
X9967571Y207714D01*
X9981857Y250571D01*
X9996143Y322000D01*
X9996143Y379143D01*
X9981857Y450571D01*
X9967571Y493428D01*
X9953286Y522000D01*
X9924714Y564857D01*
X9910428Y579143D01*
X3274000Y51000D02*
X3424000Y-99000D01*
X3424000Y51000D02*
X3274000Y-99000D01*
X3424000Y-24000D02*
G75*
G03X3424000Y-24000I-75000J0D01*
G01*
X3867571Y-159714D02*
X3696143Y-159714D01*
X3781857Y-159714D02*
X3781857Y140286D01*
X3753286Y97428D01*
X3724714Y68857D01*
X3696143Y54571D01*
X3996143Y-131143D02*
X4010428Y-145429D01*
X3996143Y-159714D01*
X3981857Y-145429D01*
X3996143Y-131143D01*
X3996143Y-159714D01*
X4281857Y140286D02*
X4139000Y140286D01*
X4124714Y-2572D01*
X4139000Y11714D01*
X4167571Y26000D01*
X4239000Y26000D01*
X4267571Y11714D01*
X4281857Y-2572D01*
X4296143Y-31143D01*
X4296143Y-102571D01*
X4281857Y-131143D01*
X4267571Y-145429D01*
X4239000Y-159714D01*
X4167571Y-159714D01*
X4139000Y-145429D01*
X4124714Y-131143D01*
X4481857Y140286D02*
X4510428Y140286D01*
X4539000Y126000D01*
X4553286Y111714D01*
X4567571Y83143D01*
X4581857Y26000D01*
X4581857Y-45429D01*
X4567571Y-102571D01*
X4553286Y-131143D01*
X4539000Y-145429D01*
X4510428Y-159714D01*
X4481857Y-159714D01*
X4453286Y-145429D01*
X4439000Y-131143D01*
X4424714Y-102571D01*
X4410428Y-45429D01*
X4410428Y26000D01*
X4424714Y83143D01*
X4439000Y111714D01*
X4453286Y126000D01*
X4481857Y140286D01*
X4710428Y-159714D02*
X4710428Y40286D01*
X4710428Y11714D02*
X4724714Y26000D01*
X4753286Y40286D01*
X4796143Y40286D01*
X4824714Y26000D01*
X4839000Y-2572D01*
X4839000Y-159714D01*
X4839000Y-2572D02*
X4853286Y26000D01*
X4881857Y40286D01*
X4924714Y40286D01*
X4953286Y26000D01*
X4967571Y-2572D01*
X4967571Y-159714D01*
X5110428Y-159714D02*
X5110428Y40286D01*
X5110428Y11714D02*
X5124714Y26000D01*
X5153286Y40286D01*
X5196143Y40286D01*
X5224714Y26000D01*
X5239000Y-2572D01*
X5239000Y-159714D01*
X5239000Y-2572D02*
X5253286Y26000D01*
X5281857Y40286D01*
X5324714Y40286D01*
X5353286Y26000D01*
X5367571Y-2572D01*
X5367571Y-159714D01*
X5953286Y154571D02*
X5696143Y-231143D01*
X6339000Y140286D02*
X6367571Y140286D01*
X6396143Y126000D01*
X6410428Y111714D01*
X6424714Y83143D01*
X6439000Y26000D01*
X6439000Y-45429D01*
X6424714Y-102571D01*
X6410428Y-131143D01*
X6396143Y-145429D01*
X6367571Y-159714D01*
X6339000Y-159714D01*
X6310428Y-145429D01*
X6296143Y-131143D01*
X6281857Y-102571D01*
X6267571Y-45429D01*
X6267571Y26000D01*
X6281857Y83143D01*
X6296143Y111714D01*
X6310428Y126000D01*
X6339000Y140286D01*
X6567571Y-131143D02*
X6581857Y-145429D01*
X6567571Y-159714D01*
X6553286Y-145429D01*
X6567571Y-131143D01*
X6567571Y-159714D01*
X6767571Y140286D02*
X6796143Y140286D01*
X6824714Y126000D01*
X6839000Y111714D01*
X6853286Y83143D01*
X6867571Y26000D01*
X6867571Y-45429D01*
X6853286Y-102571D01*
X6839000Y-131143D01*
X6824714Y-145429D01*
X6796143Y-159714D01*
X6767571Y-159714D01*
X6739000Y-145429D01*
X6724714Y-131143D01*
X6710428Y-102571D01*
X6696143Y-45429D01*
X6696143Y26000D01*
X6710428Y83143D01*
X6724714Y111714D01*
X6739000Y126000D01*
X6767571Y140286D01*
X7139000Y140286D02*
X6996143Y140286D01*
X6981857Y-2572D01*
X6996143Y11714D01*
X7024714Y26000D01*
X7096143Y26000D01*
X7124714Y11714D01*
X7139000Y-2572D01*
X7153286Y-31143D01*
X7153286Y-102571D01*
X7139000Y-131143D01*
X7124714Y-145429D01*
X7096143Y-159714D01*
X7024714Y-159714D01*
X6996143Y-145429D01*
X6981857Y-131143D01*
X7296143Y-159714D02*
X7353286Y-159714D01*
X7381857Y-145429D01*
X7396143Y-131143D01*
X7424714Y-88286D01*
X7439000Y-31143D01*
X7439000Y83143D01*
X7424714Y111714D01*
X7410428Y126000D01*
X7381857Y140286D01*
X7324714Y140286D01*
X7296143Y126000D01*
X7281857Y111714D01*
X7267571Y83143D01*
X7267571Y11714D01*
X7281857Y-16857D01*
X7296143Y-31143D01*
X7324714Y-45429D01*
X7381857Y-45429D01*
X7410428Y-31143D01*
X7424714Y-16857D01*
X7439000Y11714D01*
X7553286Y140286D02*
X7553286Y83143D01*
X7667571Y140286D02*
X7667571Y83143D01*
X8110428Y-274000D02*
X8096143Y-259714D01*
X8067571Y-216857D01*
X8053286Y-188286D01*
X8039000Y-145429D01*
X8024714Y-74000D01*
X8024714Y-16857D01*
X8039000Y54571D01*
X8053286Y97428D01*
X8067571Y126000D01*
X8096143Y168857D01*
X8110428Y183143D01*
X8196143Y140286D02*
X8396143Y140286D01*
X8267571Y-159714D01*
X8739000Y-159714D02*
X8739000Y140286D01*
X8867571Y-159714D02*
X8867571Y-2572D01*
X8853286Y26000D01*
X8824714Y40286D01*
X8781857Y40286D01*
X8753286Y26000D01*
X8739000Y11714D01*
X9053286Y-159714D02*
X9024714Y-145429D01*
X9010428Y-131143D01*
X8996143Y-102571D01*
X8996143Y-16857D01*
X9010428Y11714D01*
X9024714Y26000D01*
X9053286Y40286D01*
X9096143Y40286D01*
X9124714Y26000D01*
X9139000Y11714D01*
X9153286Y-16857D01*
X9153286Y-102571D01*
X9139000Y-131143D01*
X9124714Y-145429D01*
X9096143Y-159714D01*
X9053286Y-159714D01*
X9324714Y-159714D02*
X9296143Y-145429D01*
X9281857Y-116857D01*
X9281857Y140286D01*
X9553286Y-145429D02*
X9524714Y-159714D01*
X9467571Y-159714D01*
X9439000Y-145429D01*
X9424714Y-116857D01*
X9424714Y-2572D01*
X9439000Y26000D01*
X9467571Y40286D01*
X9524714Y40286D01*
X9553286Y26000D01*
X9567571Y-2572D01*
X9567571Y-31143D01*
X9424714Y-59714D01*
X9681857Y-145429D02*
X9710428Y-159714D01*
X9767571Y-159714D01*
X9796143Y-145429D01*
X9810428Y-116857D01*
X9810428Y-102571D01*
X9796143Y-74000D01*
X9767571Y-59714D01*
X9724714Y-59714D01*
X9696143Y-45429D01*
X9681857Y-16857D01*
X9681857Y-2572D01*
X9696143Y26000D01*
X9724714Y40286D01*
X9767571Y40286D01*
X9796143Y26000D01*
X9910428Y-274000D02*
X9924714Y-259714D01*
X9953286Y-216857D01*
X9967571Y-188286D01*
X9981857Y-145429D01*
X9996143Y-74000D01*
X9996143Y-16857D01*
X9981857Y54571D01*
X9967571Y97428D01*
X9953286Y126000D01*
X9924714Y168857D01*
X9910428Y183143D01*
M02*
