G04 #@! TF.GenerationSoftware,KiCad,Pcbnew,(5.1.5)-3*
G04 #@! TF.CreationDate,2023-05-28T15:04:11-04:00*
G04 #@! TF.ProjectId,Controlador-temperatura,436f6e74-726f-46c6-9164-6f722d74656d,rev?*
G04 #@! TF.SameCoordinates,Original*
G04 #@! TF.FileFunction,Copper,L2,Bot*
G04 #@! TF.FilePolarity,Positive*
%FSLAX46Y46*%
G04 Gerber Fmt 4.6, Leading zero omitted, Abs format (unit mm)*
G04 Created by KiCad (PCBNEW (5.1.5)-3) date 2023-05-28 15:04:11*
%MOMM*%
%LPD*%
G04 APERTURE LIST*
%ADD10C,3.000000*%
%ADD11R,3.000000X3.000000*%
%ADD12R,1.500000X1.500000*%
%ADD13C,1.500000*%
%ADD14R,1.800000X1.800000*%
%ADD15C,1.800000*%
%ADD16R,1.000000X1.000000*%
%ADD17O,1.000000X1.000000*%
%ADD18C,2.200000*%
%ADD19C,2.000000*%
%ADD20R,2.000000X2.000000*%
%ADD21R,0.900000X1.700000*%
%ADD22C,0.800000*%
%ADD23C,0.250000*%
%ADD24C,2.700000*%
%ADD25C,0.254000*%
G04 APERTURE END LIST*
D10*
X42110000Y72420000D03*
X42110000Y77420000D03*
D11*
X42110000Y82420000D03*
D12*
X92710000Y47637700D03*
D13*
X95250000Y47637700D03*
X97790000Y47637700D03*
X100330000Y47637700D03*
X102870000Y47637700D03*
X105410000Y47637700D03*
X105410000Y32397700D03*
X102870000Y32397700D03*
X100330000Y32397700D03*
X97790000Y32397700D03*
X95250000Y32397700D03*
X92710000Y32397700D03*
X92710000Y53835300D03*
X95250000Y53835300D03*
X97790000Y53835300D03*
X100330000Y53835300D03*
X102870000Y53835300D03*
X105410000Y53835300D03*
X105410000Y69075300D03*
X102870000Y69075300D03*
X100330000Y69075300D03*
X97790000Y69075300D03*
X95250000Y69075300D03*
D12*
X92710000Y69075300D03*
D14*
X69761100Y32118300D03*
D15*
X72301100Y32118300D03*
D14*
X69672200Y47625000D03*
D15*
X72212200Y47625000D03*
D10*
X42748200Y43501300D03*
D11*
X42748200Y48501300D03*
X42786300Y37477700D03*
D10*
X42786300Y32477700D03*
D16*
X67005200Y37414200D03*
D17*
X65735200Y37414200D03*
X67005200Y38684200D03*
X65735200Y38684200D03*
X67005200Y39954200D03*
X65735200Y39954200D03*
D14*
X55321200Y60960000D03*
D15*
X55321200Y53340000D03*
D18*
X45161200Y60960000D03*
X37541200Y60960000D03*
D19*
X79663600Y81800700D03*
X79663600Y74180700D03*
X51663600Y81800700D03*
D20*
X51663600Y66560700D03*
D21*
X66533500Y47472600D03*
X63133500Y47472600D03*
X62701700Y33312100D03*
X66101700Y33312100D03*
D22*
X82150000Y64260000D03*
X86510000Y41870000D03*
X86530000Y35200000D03*
X86259835Y56925155D03*
X87360000Y54990000D03*
X82384900Y32893000D03*
X50812700Y43497500D03*
X75400000Y33770000D03*
X107690000Y57350000D03*
X115830000Y55690000D03*
X79936098Y53560000D03*
X82765000Y53690000D03*
X86534339Y46124439D03*
X91191634Y43957237D03*
X93840300Y43091100D03*
X98333600Y42198104D03*
X90563700Y32169100D03*
X96090000Y78315000D03*
X93720000Y75870000D03*
X75020000Y60420000D03*
X80390000Y39400000D03*
X80470000Y43194990D03*
X80124300Y45847000D03*
X76860000Y39480000D03*
X71613730Y36989900D03*
X70640000Y35605000D03*
X72670000Y38100000D03*
X92087754Y50596746D03*
X106375200Y41097200D03*
X100533200Y41071800D03*
X82423011Y44945310D03*
X101517660Y36467660D03*
X97430000Y36120000D03*
X87007700Y52376410D03*
X97193100Y42265600D03*
X86448900Y47218600D03*
X92480835Y41248490D03*
X93340000Y36120000D03*
X105570000Y59260000D03*
X87782400Y50190400D03*
X100136855Y57635000D03*
X87849301Y49174850D03*
X96166900Y59086900D03*
X87585319Y48210310D03*
X65670000Y57330000D03*
X72620000Y40130000D03*
X96100900Y36099998D03*
X101041200Y44005500D03*
X94103528Y41108790D03*
X95478600Y43561000D03*
X99740000Y35675000D03*
X91173300Y38431540D03*
X104101900Y43307000D03*
X91299442Y40331562D03*
X86274990Y58090000D03*
X95633960Y56026040D03*
X93022347Y51417653D03*
X95600000Y51370000D03*
X100610000Y65460000D03*
X91363875Y58116125D03*
X94590000Y65325001D03*
X92270000Y59370000D03*
X90840000Y68800000D03*
X91040000Y60620000D03*
X101240000Y59085000D03*
X91040000Y61870000D03*
X103770000Y65100000D03*
X91010000Y63150000D03*
X97670000Y65180000D03*
X92060000Y64600001D03*
X75189561Y42330439D03*
X82765000Y55000000D03*
X82765000Y52530000D03*
X76936382Y41655666D03*
X79070000Y44645000D03*
X77140000Y42689888D03*
X80000000Y35550000D03*
X82440000Y35799868D03*
X72900000Y39160000D03*
X82341451Y40893757D03*
X80014979Y33514593D03*
X82780000Y38930000D03*
X79030000Y32294990D03*
X82843760Y40029055D03*
X82140000Y63080000D03*
X72152308Y41013904D03*
X82420000Y41890679D03*
X74144560Y33749560D03*
X59780000Y43980000D03*
X82765000Y60600000D03*
X71760009Y42462555D03*
X82765000Y59410000D03*
X72805134Y42539814D03*
X110429097Y35410903D03*
X76747253Y40673701D03*
X110350000Y37570000D03*
X80203022Y41744979D03*
X59740000Y59350000D03*
X59310000Y54840000D03*
D23*
X86510000Y41870000D02*
X86510000Y35220000D01*
X86510000Y35220000D02*
X86530000Y35200000D01*
X84719986Y61690014D02*
X84719986Y58465004D01*
X82150000Y64260000D02*
X84719986Y61690014D01*
X84719986Y58465004D02*
X85859836Y57325154D01*
X85859836Y57325154D02*
X86259835Y56925155D01*
X87360000Y55824990D02*
X86259835Y56925155D01*
X87360000Y54990000D02*
X87360000Y55824990D01*
X63907378Y29585010D02*
X50812700Y42679688D01*
X82384900Y32893000D02*
X79076910Y29585010D01*
X79076910Y29585010D02*
X63907378Y29585010D01*
X50812700Y42679688D02*
X50812700Y43497500D01*
X66685900Y47625000D02*
X66533500Y47472600D01*
X69672200Y47625000D02*
X66685900Y47625000D01*
X65235201Y38184201D02*
X65735200Y38684200D01*
X64790000Y37739000D02*
X65235201Y38184201D01*
X64790000Y35723800D02*
X64790000Y37739000D01*
X66101700Y33312100D02*
X66101700Y34412100D01*
X66101700Y34412100D02*
X64790000Y35723800D01*
X66101700Y33312100D02*
X67137900Y33312100D01*
X68331700Y32118300D02*
X69761100Y32118300D01*
X67137900Y33312100D02*
X68331700Y32118300D01*
X69761100Y33268300D02*
X69761100Y32118300D01*
X70967361Y34474561D02*
X69761100Y33268300D01*
X74492561Y34474561D02*
X70967361Y34474561D01*
X75400000Y33567122D02*
X74492561Y34474561D01*
X75400000Y33770000D02*
X75400000Y33567122D01*
X107690000Y57350000D02*
X114170000Y57350000D01*
X114170000Y57350000D02*
X115830000Y55690000D01*
X79936098Y53560000D02*
X82635000Y53560000D01*
X82635000Y53560000D02*
X82765000Y53690000D01*
X89024432Y46124439D02*
X91191634Y43957237D01*
X86534339Y46124439D02*
X89024432Y46124439D01*
X97541103Y42990601D02*
X98333600Y42198104D01*
X96570108Y42715610D02*
X96845099Y42990601D01*
X94781475Y42715610D02*
X96570108Y42715610D01*
X96845099Y42990601D02*
X97541103Y42990601D01*
X94405985Y43091100D02*
X94781475Y42715610D01*
X93840300Y43091100D02*
X94405985Y43091100D01*
X82036899Y33618001D02*
X90359399Y33618001D01*
X75400000Y33770000D02*
X77600011Y31569989D01*
X79988887Y31569989D02*
X82036899Y33618001D01*
X77600011Y31569989D02*
X79988887Y31569989D01*
X90359399Y33618001D02*
X90576400Y33401000D01*
X90576400Y33401000D02*
X90576400Y32181800D01*
X90576400Y32181800D02*
X90563700Y32169100D01*
X62701700Y36920700D02*
X62701700Y33312100D01*
X65735200Y39954200D02*
X62701700Y36920700D01*
X63133500Y42555900D02*
X65735200Y39954200D01*
X63133500Y47472600D02*
X63133500Y42555900D01*
X96090000Y78315000D02*
X93720000Y75945000D01*
X93720000Y75945000D02*
X93720000Y75870000D01*
X67686998Y60420000D02*
X75020000Y60420000D01*
X63133500Y47472600D02*
X63133500Y55866502D01*
X63133500Y55866502D02*
X67686998Y60420000D01*
X78364998Y37374998D02*
X79990001Y39000001D01*
X72318592Y37374998D02*
X78364998Y37374998D01*
X70879390Y38684200D02*
X71913600Y37649989D01*
X72043601Y37649989D02*
X72318592Y37374998D01*
X79990001Y39000001D02*
X80390000Y39400000D01*
X71913600Y37649989D02*
X72043601Y37649989D01*
X67005200Y38684200D02*
X70879390Y38684200D01*
X80470000Y43194990D02*
X80470000Y45501300D01*
X80470000Y45501300D02*
X80124300Y45847000D01*
X71427306Y41335694D02*
X71034999Y41728001D01*
X71034999Y46447799D02*
X71312201Y46725001D01*
X71034999Y41728001D02*
X71034999Y46447799D01*
X71830518Y41738906D02*
X71427306Y41335694D01*
X76860000Y39480000D02*
X74601094Y41738906D01*
X74601094Y41738906D02*
X71830518Y41738906D01*
X71312201Y46725001D02*
X72212200Y47625000D01*
D24*
X40350000Y82420000D02*
X42110000Y82420000D01*
X37541200Y60960000D02*
X37541200Y79611200D01*
X37541200Y79611200D02*
X40350000Y82420000D01*
X51663600Y66560700D02*
X51663600Y73156400D01*
X47400000Y77420000D02*
X42110000Y77420000D01*
X51663600Y73156400D02*
X47400000Y77420000D01*
X45161200Y69368800D02*
X42110000Y72420000D01*
X45161200Y60960000D02*
X45161200Y69368800D01*
X50852902Y60960000D02*
X54900000Y65007098D01*
X54900000Y78564300D02*
X52663599Y80800701D01*
X45161200Y60960000D02*
X50852902Y60960000D01*
X52663599Y80800701D02*
X51663600Y81800700D01*
X54900000Y65007098D02*
X54900000Y78564300D01*
D23*
X71189430Y37414200D02*
X71613730Y36989900D01*
X67005200Y37414200D02*
X71189430Y37414200D01*
X65735200Y36707094D02*
X65735200Y37414200D01*
X66837294Y35605000D02*
X65735200Y36707094D01*
X70640000Y35605000D02*
X66837294Y35605000D01*
X72100000Y38100000D02*
X72670000Y38100000D01*
X67005200Y39954200D02*
X70245800Y39954200D01*
X70245800Y39954200D02*
X72100000Y38100000D01*
X106485001Y48153701D02*
X106485001Y41207001D01*
X106485001Y41207001D02*
X106375200Y41097200D01*
X92087754Y50596746D02*
X104041956Y50596746D01*
X104041956Y50596746D02*
X106485001Y48153701D01*
X97276489Y44328511D02*
X92621516Y44328511D01*
X92621516Y44328511D02*
X91445927Y43152922D01*
X90711576Y43152922D02*
X88919188Y44945310D01*
X88919188Y44945310D02*
X82988696Y44945310D01*
X100533200Y41071800D02*
X97276489Y44328511D01*
X82988696Y44945310D02*
X82423011Y44945310D01*
X91445927Y43152922D02*
X90711576Y43152922D01*
X102870000Y32397700D02*
X101517660Y33750040D01*
X101517660Y33750040D02*
X101517660Y36467660D01*
X100330000Y32397700D02*
X97430000Y35297700D01*
X97430000Y35297700D02*
X97430000Y36120000D01*
X81247990Y44410898D02*
X81888599Y43770289D01*
X87007700Y52376410D02*
X81247990Y46616700D01*
X91173782Y41211500D02*
X91444823Y41211500D01*
X81247990Y46616700D02*
X81247990Y44410898D01*
X81888599Y43770289D02*
X88614993Y43770289D01*
X88614993Y43770289D02*
X91173782Y41211500D01*
X91444823Y41211500D02*
X92132834Y40523489D01*
X92132834Y40523489D02*
X93615825Y40523489D01*
X93615825Y40523489D02*
X93755526Y40383788D01*
X93755526Y40383788D02*
X94745603Y40383788D01*
X96627415Y42265600D02*
X97193100Y42265600D01*
X94745603Y40383788D02*
X96627415Y42265600D01*
X83623298Y47218600D02*
X81698001Y45293303D01*
X81698001Y45293303D02*
X81698001Y44597297D01*
X81698001Y44597297D02*
X82074998Y44220300D01*
X82074998Y44220300D02*
X89007788Y44220299D01*
X89007788Y44220299D02*
X91579598Y41648489D01*
X91579598Y41648489D02*
X92080836Y41648489D01*
X92080836Y41648489D02*
X92480835Y41248490D01*
X86448900Y47218600D02*
X83623298Y47218600D01*
X92710000Y32397700D02*
X92710000Y35490000D01*
X92710000Y35490000D02*
X93340000Y36120000D01*
X88182399Y50590399D02*
X87782400Y50190400D01*
X92007599Y55360312D02*
X91184988Y54537701D01*
X105570000Y59260000D02*
X104670000Y58360000D01*
X91184988Y54537701D02*
X91184988Y53592988D01*
X93117412Y55360312D02*
X92007599Y55360312D01*
X104670000Y58360000D02*
X96117100Y58360000D01*
X91184988Y53592988D02*
X88182399Y50590399D01*
X96117100Y58360000D02*
X93117412Y55360312D01*
X92193999Y54910301D02*
X91634999Y54351301D01*
X91634999Y54351301D02*
X91634999Y52960548D01*
X93468911Y54910301D02*
X92193999Y54910301D01*
X100136855Y57635000D02*
X96193610Y57635000D01*
X91634999Y52960548D02*
X88249300Y49574849D01*
X88249300Y49574849D02*
X87849301Y49174850D01*
X96193610Y57635000D02*
X93468911Y54910301D01*
X90734977Y54724101D02*
X90734977Y54070076D01*
X87669201Y51004301D02*
X87231199Y51004301D01*
X87231199Y51004301D02*
X86803399Y50576501D01*
X95097776Y59086900D02*
X90734977Y54724101D01*
X90734977Y54070076D02*
X87669201Y51004301D01*
X96166900Y59086900D02*
X95097776Y59086900D01*
X87185320Y48610309D02*
X87585319Y48210310D01*
X86803399Y50576501D02*
X86803399Y48992230D01*
X86803399Y48992230D02*
X87185320Y48610309D01*
X65670000Y45884315D02*
X71424315Y40130000D01*
X71424315Y40130000D02*
X72054315Y40130000D01*
X65670000Y57330000D02*
X65670000Y45884315D01*
X72054315Y40130000D02*
X72620000Y40130000D01*
X99813999Y31322699D02*
X107413895Y31322699D01*
X99254999Y32836291D02*
X99254999Y31881699D01*
X101131201Y44032001D02*
X101104700Y44005500D01*
X101104700Y44005500D02*
X101041200Y44005500D01*
X111525011Y35433815D02*
X111525010Y38104402D01*
X96100900Y36099998D02*
X96500899Y35699999D01*
X104826901Y41572497D02*
X104826901Y43655001D01*
X106027199Y40372199D02*
X104826901Y41572497D01*
X104826901Y43655001D02*
X104076403Y44405499D01*
X104076403Y44405499D02*
X101441199Y44405499D01*
X101441199Y44405499D02*
X101041200Y44005500D01*
X109257213Y40372199D02*
X106027199Y40372199D01*
X111525010Y38104402D02*
X109257213Y40372199D01*
X107413895Y31322699D02*
X111525011Y35433815D01*
X99254999Y31881699D02*
X99813999Y31322699D01*
X96500899Y35590391D02*
X99254999Y32836291D01*
X96500899Y35699999D02*
X96500899Y35590391D01*
X95161100Y43878500D02*
X95478600Y43561000D01*
X92862400Y43878500D02*
X95161100Y43878500D01*
X92468700Y43484800D02*
X92862400Y43878500D01*
X94103528Y41108790D02*
X92468700Y42743618D01*
X92468700Y42743618D02*
X92468700Y43484800D01*
X96983460Y38431540D02*
X91738985Y38431540D01*
X91738985Y38431540D02*
X91173300Y38431540D01*
X99740000Y35675000D02*
X96983460Y38431540D01*
X91557526Y40073478D02*
X91299442Y40331562D01*
X99448608Y41083390D02*
X96081616Y41083390D01*
X93429425Y40073478D02*
X91557526Y40073478D01*
X93569126Y39933777D02*
X93429425Y40073478D01*
X96081616Y41083390D02*
X94932003Y39933777D01*
X94932003Y39933777D02*
X93569126Y39933777D01*
X100185199Y40346799D02*
X99448608Y41083390D01*
X101141699Y40346799D02*
X100185199Y40346799D01*
X104101900Y43307000D02*
X101141699Y40346799D01*
X88963300Y58090000D02*
X90246200Y56807100D01*
X90246200Y54279800D02*
X87420712Y51454312D01*
X94174999Y54567079D02*
X95233961Y55626041D01*
X86274990Y58090000D02*
X88963300Y58090000D01*
X87044799Y51454312D02*
X86353388Y50762901D01*
X86353388Y50762901D02*
X86353388Y48374416D01*
X87420712Y51454312D02*
X87044799Y51454312D01*
X87951002Y47485300D02*
X94174999Y53709297D01*
X87242504Y47485300D02*
X87951002Y47485300D01*
X94174999Y53709297D02*
X94174999Y54567079D01*
X90246200Y56807100D02*
X90246200Y54279800D01*
X86353388Y48374416D02*
X87242504Y47485300D01*
X95233961Y55626041D02*
X95633960Y56026040D01*
X93070000Y51370000D02*
X93022347Y51417653D01*
X95600000Y51370000D02*
X93070000Y51370000D01*
X90963876Y58516124D02*
X91363875Y58116125D01*
X90244998Y59235002D02*
X90963876Y58516124D01*
X99284999Y63875001D02*
X90661999Y63875001D01*
X100610000Y64400000D02*
X100080000Y63870000D01*
X99290000Y63870000D02*
X99284999Y63875001D01*
X90661999Y63875001D02*
X90244998Y63458000D01*
X100080000Y63870000D02*
X99290000Y63870000D01*
X90244998Y63458000D02*
X90244998Y59235002D01*
X100610000Y65460000D02*
X100610000Y64400000D01*
X92270000Y57996931D02*
X91588069Y57315000D01*
X94024315Y65325001D02*
X94590000Y65325001D01*
X91588069Y57315000D02*
X91091998Y57315000D01*
X91475588Y65325001D02*
X94024315Y65325001D01*
X89794987Y62404402D02*
X89794987Y63644400D01*
X89784987Y58622011D02*
X89784987Y62394402D01*
X92270000Y59370000D02*
X92270000Y57996931D01*
X91091998Y57315000D02*
X89784987Y58622011D01*
X89784987Y62394402D02*
X89794987Y62404402D01*
X89794987Y63644400D02*
X91475588Y65325001D01*
X89344976Y62590802D02*
X89344976Y67304976D01*
X91040000Y60620000D02*
X92093002Y60620000D01*
X92093002Y60620000D02*
X92995001Y59718001D01*
X92995001Y59718001D02*
X92995001Y58085522D01*
X89334976Y58435611D02*
X89334976Y62580802D01*
X91774468Y56864989D02*
X90905598Y56864989D01*
X89334976Y62580802D02*
X89344976Y62590802D01*
X90905598Y56864989D02*
X89334976Y58435611D01*
X90440001Y68400001D02*
X90840000Y68800000D01*
X89344976Y67304976D02*
X90440001Y68400001D01*
X92995001Y58085522D02*
X91774468Y56864989D01*
X98455000Y61870000D02*
X91040000Y61870000D01*
X101240000Y59085000D02*
X98455000Y61870000D01*
X91575685Y63150000D02*
X91585685Y63140000D01*
X91010000Y63150000D02*
X91575685Y63150000D01*
X101810000Y63140000D02*
X103770000Y65100000D01*
X91585685Y63140000D02*
X101810000Y63140000D01*
X97670000Y65180000D02*
X97090001Y64600001D01*
X97090001Y64600001D02*
X92060000Y64600001D01*
X79950000Y55000000D02*
X82765000Y55000000D01*
X79210000Y54260000D02*
X79950000Y55000000D01*
X79210000Y48415730D02*
X79210000Y54260000D01*
X75189561Y42330439D02*
X75189561Y44395291D01*
X75189561Y44395291D02*
X79210000Y48415730D01*
X76414999Y42177049D02*
X76936382Y41655666D01*
X76414999Y44924999D02*
X76414999Y42177049D01*
X82765000Y52530000D02*
X82765000Y51275000D01*
X82765000Y51275000D02*
X76414999Y44924999D01*
X79070000Y44619888D02*
X79070000Y44645000D01*
X77140000Y42689888D02*
X79070000Y44619888D01*
X80000000Y35550000D02*
X82190132Y35550000D01*
X82190132Y35550000D02*
X82440000Y35799868D01*
X73755011Y38304989D02*
X78221987Y38304989D01*
X81941452Y40493758D02*
X82341451Y40893757D01*
X72900000Y39160000D02*
X73755011Y38304989D01*
X80410756Y40493758D02*
X81941452Y40493758D01*
X78221987Y38304989D02*
X80410756Y40493758D01*
X82380001Y38530001D02*
X82780000Y38930000D01*
X81310001Y38530001D02*
X82380001Y38530001D01*
X78750000Y34779572D02*
X78750000Y35840000D01*
X80014979Y33514593D02*
X78750000Y34779572D01*
X78750000Y35840000D02*
X78830000Y35920000D01*
X78830000Y35920000D02*
X78830000Y36050000D01*
X78830000Y36050000D02*
X81310001Y38530001D01*
X82278075Y40029055D02*
X82843760Y40029055D01*
X82162516Y40029055D02*
X82278075Y40029055D01*
X78299989Y36166528D02*
X82162516Y40029055D01*
X78299989Y33025001D02*
X78299989Y36166528D01*
X79030000Y32294990D02*
X78299989Y33025001D01*
X72769098Y41013904D02*
X75028003Y38754999D01*
X81854315Y41890679D02*
X82420000Y41890679D01*
X80983613Y41019977D02*
X81854315Y41890679D01*
X80293953Y41019977D02*
X80983613Y41019977D01*
X78028975Y38754999D02*
X80293953Y41019977D01*
X72152308Y41013904D02*
X72769098Y41013904D01*
X75028003Y38754999D02*
X78028975Y38754999D01*
X81740001Y63479999D02*
X82140000Y63080000D01*
X81424999Y63795001D02*
X81740001Y63479999D01*
X81424999Y64608001D02*
X81424999Y63795001D01*
X86341999Y69525001D02*
X81424999Y64608001D01*
X91188001Y69525001D02*
X86341999Y69525001D01*
X91565001Y69148001D02*
X91188001Y69525001D01*
X91565001Y67697999D02*
X91565001Y69148001D01*
X91622800Y67640200D02*
X91565001Y67697999D01*
X102302802Y67640200D02*
X91622800Y67640200D01*
X106295001Y63648001D02*
X102302802Y67640200D01*
X111975020Y50791372D02*
X106295001Y56471391D01*
X111975020Y35247416D02*
X111975020Y50791372D01*
X107600296Y30872690D02*
X111975020Y35247416D01*
X97724008Y30872690D02*
X107600296Y30872690D01*
X96714999Y31881699D02*
X97724008Y30872690D01*
X96714999Y34031701D02*
X96714999Y31881699D01*
X93901699Y36845001D02*
X96714999Y34031701D01*
X89248003Y36845001D02*
X93901699Y36845001D01*
X106295001Y56471391D02*
X106295001Y63648001D01*
X86878001Y34474999D02*
X89248003Y36845001D01*
X86181999Y34474999D02*
X86878001Y34474999D01*
X85804999Y34851999D02*
X86181999Y34474999D01*
X85804999Y38505680D02*
X85804999Y34851999D01*
X82420000Y41890679D02*
X85804999Y38505680D01*
X74144560Y33749560D02*
X74144560Y32154560D01*
X59780000Y34348798D02*
X59780000Y43414315D01*
X72883299Y30893299D02*
X63235499Y30893299D01*
X59780000Y43414315D02*
X59780000Y43980000D01*
X63235499Y30893299D02*
X59780000Y34348798D01*
X74144560Y32154560D02*
X72883299Y30893299D01*
X82765000Y60600000D02*
X78309978Y56144978D01*
X71760009Y43028240D02*
X71760009Y42462555D01*
X78309978Y49578209D02*
X71760009Y43028240D01*
X78309978Y56144978D02*
X78309978Y49578209D01*
X78759989Y55404989D02*
X78759989Y48602129D01*
X73205133Y42939813D02*
X72805134Y42539814D01*
X73205133Y43047273D02*
X73205133Y42939813D01*
X82765000Y59410000D02*
X78759989Y55404989D01*
X78759989Y48602129D02*
X73205133Y43047273D01*
X98717100Y38315900D02*
X97549234Y39483766D01*
X79109226Y42469989D02*
X77312938Y40673701D01*
X77312938Y40673701D02*
X76747253Y40673701D01*
X80778001Y42469989D02*
X79109226Y42469989D01*
X90631939Y39606561D02*
X87172800Y43065700D01*
X110429097Y35410903D02*
X111075001Y36056807D01*
X93259931Y39606561D02*
X90631939Y39606561D01*
X81373712Y43065700D02*
X80778001Y42469989D01*
X87172800Y43065700D02*
X81373712Y43065700D01*
X93382726Y39483766D02*
X93259931Y39606561D01*
X97549234Y39483766D02*
X93382726Y39483766D01*
X110677102Y38315900D02*
X98717100Y38315900D01*
X111075001Y37918001D02*
X110677102Y38315900D01*
X111075001Y36056807D02*
X111075001Y37918001D01*
X110350000Y37570000D02*
X98535900Y37570000D01*
X98535900Y37570000D02*
X97072145Y39033755D01*
X97072145Y39033755D02*
X91956638Y39033755D01*
X90332650Y39156550D02*
X86873511Y42615689D01*
X86873511Y42615689D02*
X81639417Y42615689D01*
X80768707Y41744979D02*
X80203022Y41744979D01*
X81639417Y42615689D02*
X80768707Y41744979D01*
X91956638Y39033755D02*
X91833843Y39156550D01*
X91833843Y39156550D02*
X90332650Y39156550D01*
X59740000Y59350000D02*
X59740000Y55270000D01*
X59740000Y55270000D02*
X59310000Y54840000D01*
D25*
G36*
X124410001Y29895000D02*
G01*
X80461701Y29895000D01*
X82424702Y31858000D01*
X82486839Y31858000D01*
X82686798Y31897774D01*
X82875156Y31975795D01*
X83044674Y32089063D01*
X83188837Y32233226D01*
X83302105Y32402744D01*
X83380126Y32591102D01*
X83419900Y32791061D01*
X83419900Y32994939D01*
X83380126Y33194898D01*
X83302105Y33383256D01*
X83188837Y33552774D01*
X83044674Y33696937D01*
X82875156Y33810205D01*
X82686798Y33888226D01*
X82486839Y33928000D01*
X82282961Y33928000D01*
X82083002Y33888226D01*
X81894644Y33810205D01*
X81725126Y33696937D01*
X81580963Y33552774D01*
X81467695Y33383256D01*
X81389674Y33194898D01*
X81349900Y32994939D01*
X81349900Y32932802D01*
X78762109Y30345010D01*
X73413201Y30345010D01*
X73423300Y30353298D01*
X73447102Y30382301D01*
X74655568Y31590765D01*
X74684561Y31614559D01*
X74708355Y31643552D01*
X74708359Y31643556D01*
X74779533Y31730283D01*
X74779534Y31730284D01*
X74850106Y31862313D01*
X74893563Y32005574D01*
X74904560Y32117227D01*
X74904560Y32117236D01*
X74908236Y32154559D01*
X74904560Y32191882D01*
X74904560Y33045849D01*
X74948497Y33089786D01*
X75061765Y33259304D01*
X75139786Y33447662D01*
X75179560Y33647621D01*
X75179560Y33851499D01*
X75139786Y34051458D01*
X75061765Y34239816D01*
X74948497Y34409334D01*
X74804334Y34553497D01*
X74634816Y34666765D01*
X74446458Y34744786D01*
X74246499Y34784560D01*
X74042621Y34784560D01*
X73842662Y34744786D01*
X73654304Y34666765D01*
X73484786Y34553497D01*
X73340623Y34409334D01*
X73227355Y34239816D01*
X73149334Y34051458D01*
X73109560Y33851499D01*
X73109560Y33647621D01*
X73149334Y33447662D01*
X73177974Y33378520D01*
X73028195Y33478599D01*
X72748843Y33594311D01*
X72452284Y33653300D01*
X72149916Y33653300D01*
X71853357Y33594311D01*
X71574005Y33478599D01*
X71322595Y33310612D01*
X71256156Y33244173D01*
X71250602Y33262480D01*
X71191637Y33372794D01*
X71112285Y33469485D01*
X71015594Y33548837D01*
X70905280Y33607802D01*
X70785582Y33644112D01*
X70661100Y33656372D01*
X70046850Y33653300D01*
X69888100Y33494550D01*
X69888100Y32245300D01*
X69908100Y32245300D01*
X69908100Y31991300D01*
X69888100Y31991300D01*
X69888100Y31971300D01*
X69634100Y31971300D01*
X69634100Y31991300D01*
X68384850Y31991300D01*
X68226100Y31832550D01*
X68225204Y31653299D01*
X63550301Y31653299D01*
X63346102Y31857498D01*
X63395880Y31872598D01*
X63506194Y31931563D01*
X63602885Y32010915D01*
X63682237Y32107606D01*
X63741202Y32217920D01*
X63777512Y32337618D01*
X63789772Y32462100D01*
X65013628Y32462100D01*
X65025888Y32337618D01*
X65062198Y32217920D01*
X65121163Y32107606D01*
X65200515Y32010915D01*
X65297206Y31931563D01*
X65407520Y31872598D01*
X65527218Y31836288D01*
X65651700Y31824028D01*
X65815950Y31827100D01*
X65974700Y31985850D01*
X65974700Y33185100D01*
X66228700Y33185100D01*
X66228700Y31985850D01*
X66387450Y31827100D01*
X66551700Y31824028D01*
X66676182Y31836288D01*
X66795880Y31872598D01*
X66906194Y31931563D01*
X67002885Y32010915D01*
X67082237Y32107606D01*
X67141202Y32217920D01*
X67177512Y32337618D01*
X67189772Y32462100D01*
X67186744Y33018300D01*
X68223028Y33018300D01*
X68226100Y32404050D01*
X68384850Y32245300D01*
X69634100Y32245300D01*
X69634100Y33494550D01*
X69475350Y33653300D01*
X68861100Y33656372D01*
X68736618Y33644112D01*
X68616920Y33607802D01*
X68506606Y33548837D01*
X68409915Y33469485D01*
X68330563Y33372794D01*
X68271598Y33262480D01*
X68235288Y33142782D01*
X68223028Y33018300D01*
X67186744Y33018300D01*
X67186700Y33026350D01*
X67027950Y33185100D01*
X66228700Y33185100D01*
X65974700Y33185100D01*
X65175450Y33185100D01*
X65016700Y33026350D01*
X65013628Y32462100D01*
X63789772Y32462100D01*
X63789772Y34162100D01*
X65013628Y34162100D01*
X65016700Y33597850D01*
X65175450Y33439100D01*
X65974700Y33439100D01*
X65974700Y34638350D01*
X66228700Y34638350D01*
X66228700Y33439100D01*
X67027950Y33439100D01*
X67186700Y33597850D01*
X67189772Y34162100D01*
X67177512Y34286582D01*
X67141202Y34406280D01*
X67082237Y34516594D01*
X67002885Y34613285D01*
X66906194Y34692637D01*
X66795880Y34751602D01*
X66676182Y34787912D01*
X66551700Y34800172D01*
X66387450Y34797100D01*
X66228700Y34638350D01*
X65974700Y34638350D01*
X65815950Y34797100D01*
X65651700Y34800172D01*
X65527218Y34787912D01*
X65407520Y34751602D01*
X65297206Y34692637D01*
X65200515Y34613285D01*
X65121163Y34516594D01*
X65062198Y34406280D01*
X65025888Y34286582D01*
X65013628Y34162100D01*
X63789772Y34162100D01*
X63777512Y34286582D01*
X63741202Y34406280D01*
X63682237Y34516594D01*
X63602885Y34613285D01*
X63506194Y34692637D01*
X63461700Y34716420D01*
X63461700Y36605899D01*
X64674045Y37818243D01*
X64643817Y37745267D01*
X64600200Y37525988D01*
X64600200Y37302412D01*
X64643817Y37083133D01*
X64729376Y36876576D01*
X64853588Y36690680D01*
X64986214Y36558054D01*
X65027515Y36421898D01*
X65029654Y36414848D01*
X65100226Y36282818D01*
X65139470Y36235000D01*
X65195199Y36167093D01*
X65224202Y36143290D01*
X66273495Y35093997D01*
X66297293Y35064999D01*
X66413018Y34970026D01*
X66545047Y34899454D01*
X66688308Y34855997D01*
X66799961Y34845000D01*
X66799970Y34845000D01*
X66837293Y34841324D01*
X66874616Y34845000D01*
X69936289Y34845000D01*
X69980226Y34801063D01*
X70149744Y34687795D01*
X70338102Y34609774D01*
X70538061Y34570000D01*
X70741939Y34570000D01*
X70941898Y34609774D01*
X71130256Y34687795D01*
X71299774Y34801063D01*
X71443937Y34945226D01*
X71557205Y35114744D01*
X71635226Y35303102D01*
X71675000Y35503061D01*
X71675000Y35706939D01*
X71635226Y35906898D01*
X71615343Y35954900D01*
X71715669Y35954900D01*
X71915628Y35994674D01*
X72103986Y36072695D01*
X72273504Y36185963D01*
X72417667Y36330126D01*
X72530935Y36499644D01*
X72578717Y36614998D01*
X77684871Y36614998D01*
X77665015Y36590804D01*
X77594443Y36458774D01*
X77566217Y36365721D01*
X77550987Y36315514D01*
X77545081Y36255546D01*
X77536313Y36166528D01*
X77539990Y36129196D01*
X77539989Y33062324D01*
X77536313Y33025001D01*
X77539989Y32987679D01*
X77539989Y32987669D01*
X77550986Y32876016D01*
X77587897Y32754334D01*
X77594443Y32732755D01*
X77665015Y32600725D01*
X77682980Y32578835D01*
X77759988Y32485000D01*
X77788991Y32461198D01*
X77995000Y32255188D01*
X77995000Y32193051D01*
X78034774Y31993092D01*
X78112795Y31804734D01*
X78226063Y31635216D01*
X78370226Y31491053D01*
X78539744Y31377785D01*
X78728102Y31299764D01*
X78928061Y31259990D01*
X79131939Y31259990D01*
X79331898Y31299764D01*
X79520256Y31377785D01*
X79689774Y31491053D01*
X79833937Y31635216D01*
X79947205Y31804734D01*
X80025226Y31993092D01*
X80065000Y32193051D01*
X80065000Y32396929D01*
X80048557Y32479593D01*
X80116918Y32479593D01*
X80316877Y32519367D01*
X80505235Y32597388D01*
X80674753Y32710656D01*
X80818916Y32854819D01*
X80932184Y33024337D01*
X81010205Y33212695D01*
X81049979Y33412654D01*
X81049979Y33616532D01*
X81010205Y33816491D01*
X80932184Y34004849D01*
X80818916Y34174367D01*
X80674753Y34318530D01*
X80505235Y34431798D01*
X80316877Y34509819D01*
X80196385Y34533786D01*
X80301898Y34554774D01*
X80490256Y34632795D01*
X80659774Y34746063D01*
X80703711Y34790000D01*
X82152810Y34790000D01*
X82190132Y34786324D01*
X82216926Y34788963D01*
X82338061Y34764868D01*
X82541939Y34764868D01*
X82741898Y34804642D01*
X82930256Y34882663D01*
X83099774Y34995931D01*
X83243937Y35140094D01*
X83357205Y35309612D01*
X83435226Y35497970D01*
X83475000Y35697929D01*
X83475000Y35901807D01*
X83435226Y36101766D01*
X83357205Y36290124D01*
X83243937Y36459642D01*
X83099774Y36603805D01*
X82930256Y36717073D01*
X82741898Y36795094D01*
X82541939Y36834868D01*
X82338061Y36834868D01*
X82138102Y36795094D01*
X81949744Y36717073D01*
X81780226Y36603805D01*
X81636063Y36459642D01*
X81536076Y36310000D01*
X80703711Y36310000D01*
X80659774Y36353937D01*
X80490256Y36467205D01*
X80371286Y36516484D01*
X81624803Y37770001D01*
X82342679Y37770001D01*
X82380001Y37766325D01*
X82417323Y37770001D01*
X82417334Y37770001D01*
X82528987Y37780998D01*
X82672248Y37824455D01*
X82804226Y37895000D01*
X82881939Y37895000D01*
X83081898Y37934774D01*
X83270256Y38012795D01*
X83439774Y38126063D01*
X83583937Y38270226D01*
X83697205Y38439744D01*
X83775226Y38628102D01*
X83815000Y38828061D01*
X83815000Y39031939D01*
X83775226Y39231898D01*
X83697205Y39420256D01*
X83689481Y39431816D01*
X83735375Y39500501D01*
X85044999Y38190877D01*
X85045000Y34889331D01*
X85041323Y34851999D01*
X85045000Y34814666D01*
X85055997Y34703013D01*
X85060613Y34687795D01*
X85099453Y34559753D01*
X85170025Y34427723D01*
X85217634Y34369712D01*
X85264999Y34311998D01*
X85293997Y34288200D01*
X85618195Y33964002D01*
X85641998Y33934998D01*
X85757723Y33840025D01*
X85864969Y33782700D01*
X85889752Y33769453D01*
X86033013Y33725996D01*
X86181999Y33711322D01*
X86219332Y33714999D01*
X86840679Y33714999D01*
X86878001Y33711323D01*
X86915323Y33714999D01*
X86915334Y33714999D01*
X87026987Y33725996D01*
X87170248Y33769453D01*
X87302277Y33840025D01*
X87418002Y33934998D01*
X87441805Y33964002D01*
X89562805Y36085001D01*
X92230200Y36085001D01*
X92198998Y36053799D01*
X92170000Y36030001D01*
X92146202Y36001003D01*
X92146201Y36001002D01*
X92075026Y35914276D01*
X92004454Y35782246D01*
X91960998Y35638985D01*
X91946324Y35490000D01*
X91950001Y35452668D01*
X91950000Y33555609D01*
X91827114Y33473499D01*
X91634201Y33280586D01*
X91482629Y33053743D01*
X91378225Y32801689D01*
X91325000Y32534111D01*
X91325000Y32261289D01*
X91378225Y31993711D01*
X91482629Y31741657D01*
X91634201Y31514814D01*
X91827114Y31321901D01*
X92053957Y31170329D01*
X92306011Y31065925D01*
X92573589Y31012700D01*
X92846411Y31012700D01*
X93113989Y31065925D01*
X93366043Y31170329D01*
X93592886Y31321901D01*
X93785799Y31514814D01*
X93937371Y31741657D01*
X93980000Y31844573D01*
X94022629Y31741657D01*
X94174201Y31514814D01*
X94367114Y31321901D01*
X94593957Y31170329D01*
X94846011Y31065925D01*
X95113589Y31012700D01*
X95386411Y31012700D01*
X95653989Y31065925D01*
X95906043Y31170329D01*
X96132886Y31321901D01*
X96164940Y31353955D01*
X96174999Y31341698D01*
X96203997Y31317900D01*
X97160209Y30361687D01*
X97184007Y30332689D01*
X97299732Y30237716D01*
X97431761Y30167144D01*
X97575022Y30123687D01*
X97686675Y30112690D01*
X97686684Y30112690D01*
X97724007Y30109014D01*
X97761330Y30112690D01*
X107562974Y30112690D01*
X107600296Y30109014D01*
X107637619Y30112690D01*
X107637629Y30112690D01*
X107749282Y30123687D01*
X107892543Y30167144D01*
X108024572Y30237716D01*
X108140297Y30332689D01*
X108164100Y30361693D01*
X112486024Y34683618D01*
X112515021Y34707415D01*
X112609994Y34823140D01*
X112680566Y34955169D01*
X112724023Y35098430D01*
X112735020Y35210083D01*
X112735020Y35210092D01*
X112738696Y35247415D01*
X112735020Y35284738D01*
X112735020Y50754049D01*
X112738696Y50791372D01*
X112735020Y50828695D01*
X112735020Y50828705D01*
X112724023Y50940358D01*
X112680566Y51083619D01*
X112663389Y51115755D01*
X112609994Y51215649D01*
X112538819Y51302375D01*
X112515021Y51331373D01*
X112486023Y51355171D01*
X107055001Y56786192D01*
X107055001Y63610678D01*
X107058677Y63648001D01*
X107055001Y63685324D01*
X107055001Y63685334D01*
X107044004Y63796987D01*
X107000547Y63940248D01*
X106985845Y63967754D01*
X106929975Y64072278D01*
X106858800Y64159004D01*
X106835002Y64188002D01*
X106806004Y64211800D01*
X103274193Y67743610D01*
X103526043Y67847929D01*
X103752886Y67999501D01*
X103945799Y68192414D01*
X104097371Y68419257D01*
X104140000Y68522173D01*
X104182629Y68419257D01*
X104334201Y68192414D01*
X104527114Y67999501D01*
X104753957Y67847929D01*
X105006011Y67743525D01*
X105273589Y67690300D01*
X105546411Y67690300D01*
X105813989Y67743525D01*
X106066043Y67847929D01*
X106292886Y67999501D01*
X106485799Y68192414D01*
X106637371Y68419257D01*
X106741775Y68671311D01*
X106795000Y68938889D01*
X106795000Y69211711D01*
X106741775Y69479289D01*
X106637371Y69731343D01*
X106485799Y69958186D01*
X106292886Y70151099D01*
X106066043Y70302671D01*
X105813989Y70407075D01*
X105546411Y70460300D01*
X105273589Y70460300D01*
X105006011Y70407075D01*
X104753957Y70302671D01*
X104527114Y70151099D01*
X104334201Y69958186D01*
X104182629Y69731343D01*
X104140000Y69628427D01*
X104097371Y69731343D01*
X103945799Y69958186D01*
X103752886Y70151099D01*
X103526043Y70302671D01*
X103273989Y70407075D01*
X103006411Y70460300D01*
X102733589Y70460300D01*
X102466011Y70407075D01*
X102213957Y70302671D01*
X101987114Y70151099D01*
X101794201Y69958186D01*
X101642629Y69731343D01*
X101600000Y69628427D01*
X101557371Y69731343D01*
X101405799Y69958186D01*
X101212886Y70151099D01*
X100986043Y70302671D01*
X100733989Y70407075D01*
X100466411Y70460300D01*
X100193589Y70460300D01*
X99926011Y70407075D01*
X99673957Y70302671D01*
X99447114Y70151099D01*
X99254201Y69958186D01*
X99102629Y69731343D01*
X99060000Y69628427D01*
X99017371Y69731343D01*
X98865799Y69958186D01*
X98672886Y70151099D01*
X98446043Y70302671D01*
X98193989Y70407075D01*
X97926411Y70460300D01*
X97653589Y70460300D01*
X97386011Y70407075D01*
X97133957Y70302671D01*
X96907114Y70151099D01*
X96714201Y69958186D01*
X96562629Y69731343D01*
X96520000Y69628427D01*
X96477371Y69731343D01*
X96325799Y69958186D01*
X96132886Y70151099D01*
X95906043Y70302671D01*
X95653989Y70407075D01*
X95386411Y70460300D01*
X95113589Y70460300D01*
X94846011Y70407075D01*
X94593957Y70302671D01*
X94367114Y70151099D01*
X94174201Y69958186D01*
X94096445Y69841817D01*
X94085812Y69949782D01*
X94049502Y70069480D01*
X93990537Y70179794D01*
X93911185Y70276485D01*
X93814494Y70355837D01*
X93704180Y70414802D01*
X93584482Y70451112D01*
X93460000Y70463372D01*
X91960000Y70463372D01*
X91835518Y70451112D01*
X91715820Y70414802D01*
X91605506Y70355837D01*
X91508815Y70276485D01*
X91472935Y70232765D01*
X91336987Y70274004D01*
X91225334Y70285001D01*
X91225323Y70285001D01*
X91188001Y70288677D01*
X91150679Y70285001D01*
X86379321Y70285001D01*
X86341998Y70288677D01*
X86304675Y70285001D01*
X86304666Y70285001D01*
X86193013Y70274004D01*
X86049752Y70230547D01*
X85917722Y70159975D01*
X85834082Y70091333D01*
X85801998Y70065002D01*
X85778200Y70036004D01*
X80914002Y65171805D01*
X80884998Y65148002D01*
X80854634Y65111003D01*
X80790025Y65032277D01*
X80719454Y64900248D01*
X80719453Y64900247D01*
X80675996Y64756986D01*
X80664999Y64645333D01*
X80664999Y64645323D01*
X80661323Y64608001D01*
X80664999Y64570679D01*
X80664999Y63832323D01*
X80661323Y63795001D01*
X80664999Y63757679D01*
X80664999Y63757668D01*
X80673394Y63672441D01*
X80675997Y63646016D01*
X80719453Y63502755D01*
X80790025Y63370725D01*
X80857107Y63288986D01*
X80884999Y63255000D01*
X80913997Y63231202D01*
X81105000Y63040199D01*
X81105000Y62978061D01*
X81144774Y62778102D01*
X81222795Y62589744D01*
X81336063Y62420226D01*
X81480226Y62276063D01*
X81649744Y62162795D01*
X81838102Y62084774D01*
X82038061Y62045000D01*
X82241939Y62045000D01*
X82441898Y62084774D01*
X82630256Y62162795D01*
X82799774Y62276063D01*
X82929455Y62405744D01*
X83959986Y61375212D01*
X83959987Y58502336D01*
X83956310Y58465004D01*
X83959987Y58427671D01*
X83969115Y58335000D01*
X83970984Y58316019D01*
X84014440Y58172758D01*
X84085012Y58040728D01*
X84156187Y57954002D01*
X84179986Y57925003D01*
X84208984Y57901205D01*
X85224835Y56885353D01*
X85224835Y56823216D01*
X85264609Y56623257D01*
X85342630Y56434899D01*
X85455898Y56265381D01*
X85600061Y56121218D01*
X85769579Y56007950D01*
X85957937Y55929929D01*
X86157896Y55890155D01*
X86220034Y55890155D01*
X86517752Y55592437D01*
X86442795Y55480256D01*
X86364774Y55291898D01*
X86325000Y55091939D01*
X86325000Y54888061D01*
X86364774Y54688102D01*
X86442795Y54499744D01*
X86556063Y54330226D01*
X86700226Y54186063D01*
X86869744Y54072795D01*
X87058102Y53994774D01*
X87258061Y53955000D01*
X87461939Y53955000D01*
X87661898Y53994774D01*
X87850256Y54072795D01*
X88019774Y54186063D01*
X88163937Y54330226D01*
X88277205Y54499744D01*
X88355226Y54688102D01*
X88395000Y54888061D01*
X88395000Y55091939D01*
X88355226Y55291898D01*
X88277205Y55480256D01*
X88163937Y55649774D01*
X88120000Y55693711D01*
X88120000Y55787668D01*
X88123676Y55824991D01*
X88120000Y55862314D01*
X88120000Y55862323D01*
X88109003Y55973976D01*
X88065546Y56117237D01*
X87994974Y56249266D01*
X87900001Y56364991D01*
X87871003Y56388789D01*
X87294835Y56964956D01*
X87294835Y57027094D01*
X87255061Y57227053D01*
X87212419Y57330000D01*
X88648499Y57330000D01*
X89486200Y56492298D01*
X89486201Y54594604D01*
X87858158Y52966560D01*
X87811637Y53036184D01*
X87667474Y53180347D01*
X87497956Y53293615D01*
X87309598Y53371636D01*
X87109639Y53411410D01*
X86905761Y53411410D01*
X86705802Y53371636D01*
X86517444Y53293615D01*
X86347926Y53180347D01*
X86203763Y53036184D01*
X86090495Y52866666D01*
X86012474Y52678308D01*
X85972700Y52478349D01*
X85972700Y52416212D01*
X80736993Y47180504D01*
X80707989Y47156701D01*
X80672943Y47113997D01*
X80613016Y47040976D01*
X80591809Y47001300D01*
X80542444Y46908946D01*
X80511488Y46806897D01*
X80426198Y46842226D01*
X80226239Y46882000D01*
X80022361Y46882000D01*
X79822402Y46842226D01*
X79634044Y46764205D01*
X79464526Y46650937D01*
X79320363Y46506774D01*
X79207095Y46337256D01*
X79129074Y46148898D01*
X79089300Y45948939D01*
X79089300Y45745061D01*
X79102241Y45680000D01*
X78968061Y45680000D01*
X78768102Y45640226D01*
X78579744Y45562205D01*
X78410226Y45448937D01*
X78266063Y45304774D01*
X78152795Y45135256D01*
X78074774Y44946898D01*
X78035000Y44746939D01*
X78035000Y44659690D01*
X77174999Y43799688D01*
X77174999Y44610198D01*
X83276003Y50711201D01*
X83305001Y50734999D01*
X83399974Y50850724D01*
X83470546Y50982753D01*
X83514003Y51126014D01*
X83525000Y51237667D01*
X83528677Y51275000D01*
X83525000Y51312333D01*
X83525000Y51826289D01*
X83568937Y51870226D01*
X83682205Y52039744D01*
X83760226Y52228102D01*
X83800000Y52428061D01*
X83800000Y52631939D01*
X83760226Y52831898D01*
X83682205Y53020256D01*
X83568937Y53189774D01*
X83424774Y53333937D01*
X83255256Y53447205D01*
X83066898Y53525226D01*
X82866939Y53565000D01*
X82663061Y53565000D01*
X82463102Y53525226D01*
X82274744Y53447205D01*
X82105226Y53333937D01*
X81961063Y53189774D01*
X81847795Y53020256D01*
X81769774Y52831898D01*
X81730000Y52631939D01*
X81730000Y52428061D01*
X81769774Y52228102D01*
X81847795Y52039744D01*
X81961063Y51870226D01*
X82005001Y51826288D01*
X82005001Y51589803D01*
X79970000Y49554802D01*
X79970000Y53945199D01*
X80264802Y54240000D01*
X82061289Y54240000D01*
X82105226Y54196063D01*
X82274744Y54082795D01*
X82463102Y54004774D01*
X82663061Y53965000D01*
X82866939Y53965000D01*
X83066898Y54004774D01*
X83255256Y54082795D01*
X83424774Y54196063D01*
X83568937Y54340226D01*
X83682205Y54509744D01*
X83760226Y54698102D01*
X83800000Y54898061D01*
X83800000Y55101939D01*
X83760226Y55301898D01*
X83682205Y55490256D01*
X83568937Y55659774D01*
X83424774Y55803937D01*
X83255256Y55917205D01*
X83066898Y55995226D01*
X82866939Y56035000D01*
X82663061Y56035000D01*
X82463102Y55995226D01*
X82274744Y55917205D01*
X82105226Y55803937D01*
X82061289Y55760000D01*
X80189801Y55760000D01*
X82804802Y58375000D01*
X82866939Y58375000D01*
X83066898Y58414774D01*
X83255256Y58492795D01*
X83424774Y58606063D01*
X83568937Y58750226D01*
X83682205Y58919744D01*
X83760226Y59108102D01*
X83800000Y59308061D01*
X83800000Y59511939D01*
X83760226Y59711898D01*
X83682205Y59900256D01*
X83612217Y60005000D01*
X83682205Y60109744D01*
X83760226Y60298102D01*
X83800000Y60498061D01*
X83800000Y60701939D01*
X83760226Y60901898D01*
X83682205Y61090256D01*
X83568937Y61259774D01*
X83424774Y61403937D01*
X83255256Y61517205D01*
X83066898Y61595226D01*
X82866939Y61635000D01*
X82663061Y61635000D01*
X82463102Y61595226D01*
X82274744Y61517205D01*
X82105226Y61403937D01*
X81961063Y61259774D01*
X81847795Y61090256D01*
X81769774Y60901898D01*
X81730000Y60701939D01*
X81730000Y60639802D01*
X77798981Y56708782D01*
X77769977Y56684979D01*
X77732879Y56639774D01*
X77675004Y56569254D01*
X77638776Y56501476D01*
X77604432Y56437224D01*
X77560975Y56293963D01*
X77549978Y56182310D01*
X77549978Y56182300D01*
X77546302Y56144978D01*
X77549978Y56107655D01*
X77549979Y49893012D01*
X71794999Y44138031D01*
X71794999Y46132998D01*
X71803270Y46141269D01*
X72061016Y46090000D01*
X72363384Y46090000D01*
X72659943Y46148989D01*
X72939295Y46264701D01*
X73190705Y46432688D01*
X73404512Y46646495D01*
X73572499Y46897905D01*
X73688211Y47177257D01*
X73747200Y47473816D01*
X73747200Y47776184D01*
X73688211Y48072743D01*
X73572499Y48352095D01*
X73404512Y48603505D01*
X73190705Y48817312D01*
X72939295Y48985299D01*
X72659943Y49101011D01*
X72363384Y49160000D01*
X72061016Y49160000D01*
X71764457Y49101011D01*
X71485105Y48985299D01*
X71233695Y48817312D01*
X71167256Y48750873D01*
X71161702Y48769180D01*
X71102737Y48879494D01*
X71023385Y48976185D01*
X70926694Y49055537D01*
X70816380Y49114502D01*
X70696682Y49150812D01*
X70572200Y49163072D01*
X69957950Y49160000D01*
X69799200Y49001250D01*
X69799200Y47752000D01*
X69819200Y47752000D01*
X69819200Y47498000D01*
X69799200Y47498000D01*
X69799200Y46248750D01*
X69957950Y46090000D01*
X70275000Y46088414D01*
X70274999Y42354118D01*
X66641516Y45987600D01*
X66660502Y45987600D01*
X66660502Y46146348D01*
X66819250Y45987600D01*
X66983500Y45984528D01*
X67107982Y45996788D01*
X67227680Y46033098D01*
X67337994Y46092063D01*
X67434685Y46171415D01*
X67514037Y46268106D01*
X67573002Y46378420D01*
X67609312Y46498118D01*
X67621572Y46622600D01*
X67621015Y46725000D01*
X68134128Y46725000D01*
X68146388Y46600518D01*
X68182698Y46480820D01*
X68241663Y46370506D01*
X68321015Y46273815D01*
X68417706Y46194463D01*
X68528020Y46135498D01*
X68647718Y46099188D01*
X68772200Y46086928D01*
X69386450Y46090000D01*
X69545200Y46248750D01*
X69545200Y47498000D01*
X68295950Y47498000D01*
X68137200Y47339250D01*
X68134128Y46725000D01*
X67621015Y46725000D01*
X67618500Y47186850D01*
X67459750Y47345600D01*
X66660500Y47345600D01*
X66660500Y47325600D01*
X66430000Y47325600D01*
X66430000Y48798850D01*
X66660500Y48798850D01*
X66660500Y47599600D01*
X67459750Y47599600D01*
X67618500Y47758350D01*
X67621572Y48322600D01*
X67609312Y48447082D01*
X67585676Y48525000D01*
X68134128Y48525000D01*
X68137200Y47910750D01*
X68295950Y47752000D01*
X69545200Y47752000D01*
X69545200Y49001250D01*
X69386450Y49160000D01*
X68772200Y49163072D01*
X68647718Y49150812D01*
X68528020Y49114502D01*
X68417706Y49055537D01*
X68321015Y48976185D01*
X68241663Y48879494D01*
X68182698Y48769180D01*
X68146388Y48649482D01*
X68134128Y48525000D01*
X67585676Y48525000D01*
X67573002Y48566780D01*
X67514037Y48677094D01*
X67434685Y48773785D01*
X67337994Y48853137D01*
X67227680Y48912102D01*
X67107982Y48948412D01*
X66983500Y48960672D01*
X66819250Y48957600D01*
X66660500Y48798850D01*
X66430000Y48798850D01*
X66430000Y56626289D01*
X66473937Y56670226D01*
X66587205Y56839744D01*
X66665226Y57028102D01*
X66705000Y57228061D01*
X66705000Y57431939D01*
X66665226Y57631898D01*
X66587205Y57820256D01*
X66473937Y57989774D01*
X66402755Y58060956D01*
X68001800Y59660000D01*
X74316289Y59660000D01*
X74360226Y59616063D01*
X74529744Y59502795D01*
X74718102Y59424774D01*
X74918061Y59385000D01*
X75121939Y59385000D01*
X75321898Y59424774D01*
X75510256Y59502795D01*
X75679774Y59616063D01*
X75823937Y59760226D01*
X75937205Y59929744D01*
X76015226Y60118102D01*
X76055000Y60318061D01*
X76055000Y60521939D01*
X76015226Y60721898D01*
X75937205Y60910256D01*
X75823937Y61079774D01*
X75679774Y61223937D01*
X75510256Y61337205D01*
X75321898Y61415226D01*
X75121939Y61455000D01*
X74918061Y61455000D01*
X74718102Y61415226D01*
X74529744Y61337205D01*
X74360226Y61223937D01*
X74316289Y61180000D01*
X67724331Y61180000D01*
X67686998Y61183677D01*
X67649665Y61180000D01*
X67538012Y61169003D01*
X67394751Y61125546D01*
X67262722Y61054974D01*
X67146997Y60960001D01*
X67123199Y60931003D01*
X62622498Y56430301D01*
X62593500Y56406503D01*
X62569702Y56377505D01*
X62569701Y56377504D01*
X62498526Y56290778D01*
X62427954Y56158748D01*
X62411647Y56104989D01*
X62384498Y56015488D01*
X62376215Y55931390D01*
X62369824Y55866502D01*
X62373501Y55829170D01*
X62373500Y48876920D01*
X62329006Y48853137D01*
X62232315Y48773785D01*
X62152963Y48677094D01*
X62093998Y48566780D01*
X62057688Y48447082D01*
X62045428Y48322600D01*
X62045428Y46622600D01*
X62057688Y46498118D01*
X62093998Y46378420D01*
X62152963Y46268106D01*
X62232315Y46171415D01*
X62329006Y46092063D01*
X62373500Y46068280D01*
X62373501Y42593232D01*
X62369824Y42555900D01*
X62373501Y42518567D01*
X62384498Y42406914D01*
X62394519Y42373880D01*
X62427954Y42263654D01*
X62498526Y42131624D01*
X62568077Y42046877D01*
X62593500Y42015899D01*
X62622498Y41992101D01*
X64600200Y40014397D01*
X64600200Y39894002D01*
X62190703Y37484504D01*
X62161699Y37460701D01*
X62110945Y37398856D01*
X62066726Y37344976D01*
X62027504Y37271597D01*
X61996154Y37212946D01*
X61952697Y37069685D01*
X61941700Y36958032D01*
X61941700Y36958022D01*
X61938024Y36920700D01*
X61941700Y36883377D01*
X61941701Y34716420D01*
X61897206Y34692637D01*
X61800515Y34613285D01*
X61721163Y34516594D01*
X61662198Y34406280D01*
X61625888Y34286582D01*
X61613628Y34162100D01*
X61613628Y33589971D01*
X60540000Y34663599D01*
X60540000Y43276289D01*
X60583937Y43320226D01*
X60697205Y43489744D01*
X60775226Y43678102D01*
X60815000Y43878061D01*
X60815000Y44081939D01*
X60775226Y44281898D01*
X60697205Y44470256D01*
X60583937Y44639774D01*
X60439774Y44783937D01*
X60270256Y44897205D01*
X60081898Y44975226D01*
X59881939Y45015000D01*
X59678061Y45015000D01*
X59478102Y44975226D01*
X59289744Y44897205D01*
X59120226Y44783937D01*
X58976063Y44639774D01*
X58862795Y44470256D01*
X58784774Y44281898D01*
X58745000Y44081939D01*
X58745000Y43878061D01*
X58784774Y43678102D01*
X58862795Y43489744D01*
X58976063Y43320226D01*
X59020001Y43276288D01*
X59020000Y35547189D01*
X51661829Y42905360D01*
X51729905Y43007244D01*
X51807926Y43195602D01*
X51847700Y43395561D01*
X51847700Y43599439D01*
X51807926Y43799398D01*
X51729905Y43987756D01*
X51616637Y44157274D01*
X51472474Y44301437D01*
X51302956Y44414705D01*
X51114598Y44492726D01*
X50914639Y44532500D01*
X50710761Y44532500D01*
X50510802Y44492726D01*
X50322444Y44414705D01*
X50152926Y44301437D01*
X50008763Y44157274D01*
X49895495Y43987756D01*
X49817474Y43799398D01*
X49777700Y43599439D01*
X49777700Y43395561D01*
X49817474Y43195602D01*
X49895495Y43007244D01*
X50008763Y42837726D01*
X50052700Y42793789D01*
X50052700Y42717010D01*
X50049024Y42679688D01*
X50052700Y42642366D01*
X50052700Y42642356D01*
X50063697Y42530703D01*
X50100311Y42410001D01*
X50107154Y42387442D01*
X50177726Y42255412D01*
X50213117Y42212288D01*
X50272699Y42139687D01*
X50301703Y42115884D01*
X62522586Y29895000D01*
X34975000Y29895000D01*
X34975000Y32687979D01*
X40651300Y32687979D01*
X40651300Y32267421D01*
X40733347Y31854944D01*
X40894288Y31466398D01*
X41127937Y31116717D01*
X41425317Y30819337D01*
X41774998Y30585688D01*
X42163544Y30424747D01*
X42576021Y30342700D01*
X42996579Y30342700D01*
X43409056Y30424747D01*
X43797602Y30585688D01*
X44147283Y30819337D01*
X44444663Y31116717D01*
X44678312Y31466398D01*
X44839253Y31854944D01*
X44921300Y32267421D01*
X44921300Y32687979D01*
X44839253Y33100456D01*
X44678312Y33489002D01*
X44444663Y33838683D01*
X44147283Y34136063D01*
X43797602Y34369712D01*
X43409056Y34530653D01*
X42996579Y34612700D01*
X42576021Y34612700D01*
X42163544Y34530653D01*
X41774998Y34369712D01*
X41425317Y34136063D01*
X41127937Y33838683D01*
X40894288Y33489002D01*
X40733347Y33100456D01*
X40651300Y32687979D01*
X34975000Y32687979D01*
X34975000Y38977700D01*
X40648228Y38977700D01*
X40648228Y35977700D01*
X40660488Y35853218D01*
X40696798Y35733520D01*
X40755763Y35623206D01*
X40835115Y35526515D01*
X40931806Y35447163D01*
X41042120Y35388198D01*
X41161818Y35351888D01*
X41286300Y35339628D01*
X44286300Y35339628D01*
X44410782Y35351888D01*
X44530480Y35388198D01*
X44640794Y35447163D01*
X44737485Y35526515D01*
X44816837Y35623206D01*
X44875802Y35733520D01*
X44912112Y35853218D01*
X44924372Y35977700D01*
X44924372Y38977700D01*
X44912112Y39102182D01*
X44875802Y39221880D01*
X44816837Y39332194D01*
X44737485Y39428885D01*
X44640794Y39508237D01*
X44530480Y39567202D01*
X44410782Y39603512D01*
X44286300Y39615772D01*
X41286300Y39615772D01*
X41161818Y39603512D01*
X41042120Y39567202D01*
X40931806Y39508237D01*
X40835115Y39428885D01*
X40755763Y39332194D01*
X40696798Y39221880D01*
X40660488Y39102182D01*
X40648228Y38977700D01*
X34975000Y38977700D01*
X34975000Y43711579D01*
X40613200Y43711579D01*
X40613200Y43291021D01*
X40695247Y42878544D01*
X40856188Y42489998D01*
X41089837Y42140317D01*
X41387217Y41842937D01*
X41736898Y41609288D01*
X42125444Y41448347D01*
X42537921Y41366300D01*
X42958479Y41366300D01*
X43370956Y41448347D01*
X43759502Y41609288D01*
X44109183Y41842937D01*
X44406563Y42140317D01*
X44640212Y42489998D01*
X44801153Y42878544D01*
X44883200Y43291021D01*
X44883200Y43711579D01*
X44801153Y44124056D01*
X44640212Y44512602D01*
X44406563Y44862283D01*
X44109183Y45159663D01*
X43759502Y45393312D01*
X43370956Y45554253D01*
X42958479Y45636300D01*
X42537921Y45636300D01*
X42125444Y45554253D01*
X41736898Y45393312D01*
X41387217Y45159663D01*
X41089837Y44862283D01*
X40856188Y44512602D01*
X40695247Y44124056D01*
X40613200Y43711579D01*
X34975000Y43711579D01*
X34975000Y47001300D01*
X40610128Y47001300D01*
X40622388Y46876818D01*
X40658698Y46757120D01*
X40717663Y46646806D01*
X40797015Y46550115D01*
X40893706Y46470763D01*
X41004020Y46411798D01*
X41123718Y46375488D01*
X41248200Y46363228D01*
X42462450Y46366300D01*
X42621200Y46525050D01*
X42621200Y48374300D01*
X42875200Y48374300D01*
X42875200Y46525050D01*
X43033950Y46366300D01*
X44248200Y46363228D01*
X44372682Y46375488D01*
X44492380Y46411798D01*
X44602694Y46470763D01*
X44699385Y46550115D01*
X44778737Y46646806D01*
X44837702Y46757120D01*
X44874012Y46876818D01*
X44886272Y47001300D01*
X44883200Y48215550D01*
X44724450Y48374300D01*
X42875200Y48374300D01*
X42621200Y48374300D01*
X40771950Y48374300D01*
X40613200Y48215550D01*
X40610128Y47001300D01*
X34975000Y47001300D01*
X34975000Y50001300D01*
X40610128Y50001300D01*
X40613200Y48787050D01*
X40771950Y48628300D01*
X42621200Y48628300D01*
X42621200Y50477550D01*
X42875200Y50477550D01*
X42875200Y48628300D01*
X44724450Y48628300D01*
X44883200Y48787050D01*
X44886272Y50001300D01*
X44874012Y50125782D01*
X44837702Y50245480D01*
X44778737Y50355794D01*
X44699385Y50452485D01*
X44602694Y50531837D01*
X44492380Y50590802D01*
X44372682Y50627112D01*
X44248200Y50639372D01*
X43033950Y50636300D01*
X42875200Y50477550D01*
X42621200Y50477550D01*
X42462450Y50636300D01*
X41248200Y50639372D01*
X41123718Y50627112D01*
X41004020Y50590802D01*
X40893706Y50531837D01*
X40797015Y50452485D01*
X40717663Y50355794D01*
X40658698Y50245480D01*
X40622388Y50125782D01*
X40610128Y50001300D01*
X34975000Y50001300D01*
X34975000Y53491184D01*
X53786200Y53491184D01*
X53786200Y53188816D01*
X53845189Y52892257D01*
X53960901Y52612905D01*
X54128888Y52361495D01*
X54342695Y52147688D01*
X54594105Y51979701D01*
X54873457Y51863989D01*
X55170016Y51805000D01*
X55472384Y51805000D01*
X55768943Y51863989D01*
X56048295Y51979701D01*
X56299705Y52147688D01*
X56513512Y52361495D01*
X56681499Y52612905D01*
X56797211Y52892257D01*
X56856200Y53188816D01*
X56856200Y53491184D01*
X56797211Y53787743D01*
X56681499Y54067095D01*
X56513512Y54318505D01*
X56299705Y54532312D01*
X56048295Y54700299D01*
X55768943Y54816011D01*
X55472384Y54875000D01*
X55170016Y54875000D01*
X54873457Y54816011D01*
X54594105Y54700299D01*
X54342695Y54532312D01*
X54128888Y54318505D01*
X53960901Y54067095D01*
X53845189Y53787743D01*
X53786200Y53491184D01*
X34975000Y53491184D01*
X34975000Y54941939D01*
X58275000Y54941939D01*
X58275000Y54738061D01*
X58314774Y54538102D01*
X58392795Y54349744D01*
X58506063Y54180226D01*
X58650226Y54036063D01*
X58819744Y53922795D01*
X59008102Y53844774D01*
X59208061Y53805000D01*
X59411939Y53805000D01*
X59611898Y53844774D01*
X59800256Y53922795D01*
X59969774Y54036063D01*
X60113937Y54180226D01*
X60227205Y54349744D01*
X60305226Y54538102D01*
X60345000Y54738061D01*
X60345000Y54809201D01*
X60374974Y54845724D01*
X60445546Y54977753D01*
X60489003Y55121014D01*
X60500000Y55232667D01*
X60500000Y55232677D01*
X60503676Y55270000D01*
X60500000Y55307323D01*
X60500000Y58646289D01*
X60543937Y58690226D01*
X60657205Y58859744D01*
X60735226Y59048102D01*
X60775000Y59248061D01*
X60775000Y59451939D01*
X60735226Y59651898D01*
X60657205Y59840256D01*
X60543937Y60009774D01*
X60399774Y60153937D01*
X60230256Y60267205D01*
X60041898Y60345226D01*
X59841939Y60385000D01*
X59638061Y60385000D01*
X59438102Y60345226D01*
X59249744Y60267205D01*
X59080226Y60153937D01*
X58936063Y60009774D01*
X58822795Y59840256D01*
X58744774Y59651898D01*
X58705000Y59451939D01*
X58705000Y59248061D01*
X58744774Y59048102D01*
X58822795Y58859744D01*
X58936063Y58690226D01*
X58980000Y58646289D01*
X58980001Y55823586D01*
X58819744Y55757205D01*
X58650226Y55643937D01*
X58506063Y55499774D01*
X58392795Y55330256D01*
X58314774Y55141898D01*
X58275000Y54941939D01*
X34975000Y54941939D01*
X34975000Y79611200D01*
X35546597Y79611200D01*
X35556201Y79513687D01*
X35556200Y60862491D01*
X35584922Y60570873D01*
X35698426Y60196699D01*
X35882747Y59851857D01*
X36130802Y59549602D01*
X36433057Y59301547D01*
X36777898Y59117226D01*
X37152072Y59003722D01*
X37541200Y58965396D01*
X37930327Y59003722D01*
X38304501Y59117226D01*
X38649343Y59301547D01*
X38951598Y59549602D01*
X39199653Y59851857D01*
X39383974Y60196698D01*
X39497478Y60570872D01*
X39526200Y60862490D01*
X39526200Y77630279D01*
X39975000Y77630279D01*
X39975000Y77209721D01*
X40057047Y76797244D01*
X40217988Y76408698D01*
X40451637Y76059017D01*
X40749017Y75761637D01*
X41098698Y75527988D01*
X41487244Y75367047D01*
X41899721Y75285000D01*
X42320279Y75285000D01*
X42732756Y75367047D01*
X42896809Y75435000D01*
X46577788Y75435000D01*
X49678601Y72334186D01*
X49678600Y66463191D01*
X49707322Y66171573D01*
X49820826Y65797399D01*
X50005147Y65452557D01*
X50049065Y65399043D01*
X50074098Y65316520D01*
X50133063Y65206206D01*
X50212415Y65109515D01*
X50309106Y65030163D01*
X50419420Y64971198D01*
X50501943Y64946165D01*
X50555457Y64902247D01*
X50900298Y64717926D01*
X51274472Y64604422D01*
X51652844Y64567155D01*
X50030690Y62945000D01*
X47146200Y62945000D01*
X47146200Y69271298D01*
X47155803Y69368801D01*
X47146200Y69466304D01*
X47146200Y69466310D01*
X47117478Y69757928D01*
X47003974Y70132102D01*
X46819653Y70476943D01*
X46571598Y70779198D01*
X46495855Y70841359D01*
X44069966Y73267246D01*
X44002012Y73431302D01*
X43768363Y73780983D01*
X43470983Y74078363D01*
X43121302Y74312012D01*
X42732756Y74472953D01*
X42320279Y74555000D01*
X41899721Y74555000D01*
X41487244Y74472953D01*
X41098698Y74312012D01*
X40749017Y74078363D01*
X40451637Y73780983D01*
X40217988Y73431302D01*
X40057047Y73042756D01*
X39975000Y72630279D01*
X39975000Y72209721D01*
X40057047Y71797244D01*
X40217988Y71408698D01*
X40451637Y71059017D01*
X40749017Y70761637D01*
X41098698Y70527988D01*
X41262754Y70460034D01*
X43176201Y68546586D01*
X43176200Y61057511D01*
X43166596Y60960000D01*
X43204922Y60570872D01*
X43318426Y60196698D01*
X43493062Y59869976D01*
X43502747Y59851857D01*
X43750802Y59549602D01*
X44053057Y59301547D01*
X44397898Y59117226D01*
X44772072Y59003722D01*
X45161200Y58965396D01*
X45258710Y58975000D01*
X50755399Y58975000D01*
X50852902Y58965397D01*
X50950405Y58975000D01*
X50950412Y58975000D01*
X51242030Y59003722D01*
X51616204Y59117226D01*
X51961045Y59301547D01*
X52263300Y59549602D01*
X52325469Y59625355D01*
X53783128Y61083013D01*
X53783128Y60060000D01*
X53795388Y59935518D01*
X53831698Y59815820D01*
X53890663Y59705506D01*
X53970015Y59608815D01*
X54066706Y59529463D01*
X54177020Y59470498D01*
X54296718Y59434188D01*
X54421200Y59421928D01*
X56221200Y59421928D01*
X56345682Y59434188D01*
X56465380Y59470498D01*
X56575694Y59529463D01*
X56672385Y59608815D01*
X56751737Y59705506D01*
X56810702Y59815820D01*
X56847012Y59935518D01*
X56859272Y60060000D01*
X56859272Y61860000D01*
X56847012Y61984482D01*
X56810702Y62104180D01*
X56751737Y62214494D01*
X56672385Y62311185D01*
X56575694Y62390537D01*
X56465380Y62449502D01*
X56345682Y62485812D01*
X56221200Y62498072D01*
X55198187Y62498072D01*
X56234655Y63534539D01*
X56310398Y63596700D01*
X56558453Y63898955D01*
X56742774Y64243796D01*
X56856278Y64617970D01*
X56875585Y64813998D01*
X56894604Y65007098D01*
X56885000Y65104608D01*
X56885000Y74341733D01*
X78028600Y74341733D01*
X78028600Y74019667D01*
X78091432Y73703788D01*
X78214682Y73406237D01*
X78393613Y73138448D01*
X78621348Y72910713D01*
X78889137Y72731782D01*
X79186688Y72608532D01*
X79502567Y72545700D01*
X79824633Y72545700D01*
X80140512Y72608532D01*
X80438063Y72731782D01*
X80705852Y72910713D01*
X80933587Y73138448D01*
X81112518Y73406237D01*
X81235768Y73703788D01*
X81298600Y74019667D01*
X81298600Y74341733D01*
X81235768Y74657612D01*
X81112518Y74955163D01*
X80933587Y75222952D01*
X80705852Y75450687D01*
X80438063Y75629618D01*
X80140512Y75752868D01*
X79824633Y75815700D01*
X79502567Y75815700D01*
X79186688Y75752868D01*
X78889137Y75629618D01*
X78621348Y75450687D01*
X78393613Y75222952D01*
X78214682Y74955163D01*
X78091432Y74657612D01*
X78028600Y74341733D01*
X56885000Y74341733D01*
X56885000Y75971939D01*
X92685000Y75971939D01*
X92685000Y75768061D01*
X92724774Y75568102D01*
X92802795Y75379744D01*
X92916063Y75210226D01*
X93060226Y75066063D01*
X93229744Y74952795D01*
X93418102Y74874774D01*
X93618061Y74835000D01*
X93821939Y74835000D01*
X94021898Y74874774D01*
X94210256Y74952795D01*
X94379774Y75066063D01*
X94523937Y75210226D01*
X94637205Y75379744D01*
X94715226Y75568102D01*
X94755000Y75768061D01*
X94755000Y75905199D01*
X96129802Y77280000D01*
X96191939Y77280000D01*
X96391898Y77319774D01*
X96580256Y77397795D01*
X96749774Y77511063D01*
X96893937Y77655226D01*
X97007205Y77824744D01*
X97085226Y78013102D01*
X97125000Y78213061D01*
X97125000Y78416939D01*
X97085226Y78616898D01*
X97007205Y78805256D01*
X96893937Y78974774D01*
X96749774Y79118937D01*
X96580256Y79232205D01*
X96391898Y79310226D01*
X96191939Y79350000D01*
X95988061Y79350000D01*
X95788102Y79310226D01*
X95599744Y79232205D01*
X95430226Y79118937D01*
X95286063Y78974774D01*
X95172795Y78805256D01*
X95094774Y78616898D01*
X95055000Y78416939D01*
X95055000Y78354802D01*
X93602005Y76901806D01*
X93418102Y76865226D01*
X93229744Y76787205D01*
X93060226Y76673937D01*
X92916063Y76529774D01*
X92802795Y76360256D01*
X92724774Y76171898D01*
X92685000Y75971939D01*
X56885000Y75971939D01*
X56885000Y78466787D01*
X56894604Y78564300D01*
X56856279Y78953428D01*
X56742774Y79327602D01*
X56696271Y79414603D01*
X56558453Y79672443D01*
X56310398Y79974698D01*
X56234655Y80036859D01*
X55606227Y80665287D01*
X78707792Y80665287D01*
X78803556Y80400886D01*
X79093171Y80259996D01*
X79404708Y80178316D01*
X79726195Y80158982D01*
X80045275Y80202739D01*
X80349688Y80307905D01*
X80523644Y80400886D01*
X80619408Y80665287D01*
X79663600Y81621095D01*
X78707792Y80665287D01*
X55606227Y80665287D01*
X54533408Y81738105D01*
X78021882Y81738105D01*
X78065639Y81419025D01*
X78170805Y81114612D01*
X78263786Y80940656D01*
X78528187Y80844892D01*
X79483995Y81800700D01*
X79843205Y81800700D01*
X80799013Y80844892D01*
X81063414Y80940656D01*
X81204304Y81230271D01*
X81285984Y81541808D01*
X81305318Y81863295D01*
X81261561Y82182375D01*
X81156395Y82486788D01*
X81063414Y82660744D01*
X80799013Y82756508D01*
X79843205Y81800700D01*
X79483995Y81800700D01*
X78528187Y82756508D01*
X78263786Y82660744D01*
X78122896Y82371129D01*
X78041216Y82059592D01*
X78021882Y81738105D01*
X54533408Y81738105D01*
X54136159Y82135353D01*
X54136155Y82135358D01*
X53335400Y82936113D01*
X78707792Y82936113D01*
X79663600Y81980305D01*
X80619408Y82936113D01*
X80523644Y83200514D01*
X80234029Y83341404D01*
X79922492Y83423084D01*
X79601005Y83442418D01*
X79281925Y83398661D01*
X78977512Y83293495D01*
X78803556Y83200514D01*
X78707792Y82936113D01*
X53335400Y82936113D01*
X52998256Y83273256D01*
X52771742Y83459152D01*
X52426901Y83643474D01*
X52052727Y83756978D01*
X51663600Y83795303D01*
X51274473Y83756978D01*
X50900299Y83643474D01*
X50555458Y83459152D01*
X50253202Y83211098D01*
X50005148Y82908842D01*
X49820826Y82564001D01*
X49707322Y82189827D01*
X49668997Y81800700D01*
X49707322Y81411573D01*
X49820826Y81037399D01*
X50005148Y80692558D01*
X50191044Y80466044D01*
X51328942Y79328145D01*
X51328947Y79328141D01*
X52915001Y77742086D01*
X52915001Y74712212D01*
X48872567Y78754645D01*
X48810398Y78830398D01*
X48508143Y79078453D01*
X48163302Y79262774D01*
X47789128Y79376278D01*
X47497510Y79405000D01*
X47497503Y79405000D01*
X47400000Y79414603D01*
X47302497Y79405000D01*
X42896809Y79405000D01*
X42732756Y79472953D01*
X42320279Y79555000D01*
X41899721Y79555000D01*
X41487244Y79472953D01*
X41098698Y79312012D01*
X40749017Y79078363D01*
X40451637Y78780983D01*
X40217988Y78431302D01*
X40057047Y78042756D01*
X39975000Y77630279D01*
X39526200Y77630279D01*
X39526200Y78788988D01*
X41019141Y80281928D01*
X43610000Y80281928D01*
X43734482Y80294188D01*
X43854180Y80330498D01*
X43964494Y80389463D01*
X44061185Y80468815D01*
X44140537Y80565506D01*
X44199502Y80675820D01*
X44235812Y80795518D01*
X44248072Y80920000D01*
X44248072Y83920000D01*
X44235812Y84044482D01*
X44199502Y84164180D01*
X44140537Y84274494D01*
X44061185Y84371185D01*
X43964494Y84450537D01*
X43854180Y84509502D01*
X43734482Y84545812D01*
X43610000Y84558072D01*
X40610000Y84558072D01*
X40485518Y84545812D01*
X40365820Y84509502D01*
X40255506Y84450537D01*
X40192863Y84399127D01*
X39960872Y84376278D01*
X39586698Y84262774D01*
X39241857Y84078453D01*
X38939602Y83830398D01*
X38877441Y83754655D01*
X36206550Y81083762D01*
X36130803Y81021598D01*
X35882748Y80719343D01*
X35859485Y80675820D01*
X35698426Y80374501D01*
X35584922Y80000327D01*
X35546597Y79611200D01*
X34975000Y79611200D01*
X34975000Y85040000D01*
X124410000Y85040000D01*
X124410001Y29895000D01*
G37*
X124410001Y29895000D02*
X80461701Y29895000D01*
X82424702Y31858000D01*
X82486839Y31858000D01*
X82686798Y31897774D01*
X82875156Y31975795D01*
X83044674Y32089063D01*
X83188837Y32233226D01*
X83302105Y32402744D01*
X83380126Y32591102D01*
X83419900Y32791061D01*
X83419900Y32994939D01*
X83380126Y33194898D01*
X83302105Y33383256D01*
X83188837Y33552774D01*
X83044674Y33696937D01*
X82875156Y33810205D01*
X82686798Y33888226D01*
X82486839Y33928000D01*
X82282961Y33928000D01*
X82083002Y33888226D01*
X81894644Y33810205D01*
X81725126Y33696937D01*
X81580963Y33552774D01*
X81467695Y33383256D01*
X81389674Y33194898D01*
X81349900Y32994939D01*
X81349900Y32932802D01*
X78762109Y30345010D01*
X73413201Y30345010D01*
X73423300Y30353298D01*
X73447102Y30382301D01*
X74655568Y31590765D01*
X74684561Y31614559D01*
X74708355Y31643552D01*
X74708359Y31643556D01*
X74779533Y31730283D01*
X74779534Y31730284D01*
X74850106Y31862313D01*
X74893563Y32005574D01*
X74904560Y32117227D01*
X74904560Y32117236D01*
X74908236Y32154559D01*
X74904560Y32191882D01*
X74904560Y33045849D01*
X74948497Y33089786D01*
X75061765Y33259304D01*
X75139786Y33447662D01*
X75179560Y33647621D01*
X75179560Y33851499D01*
X75139786Y34051458D01*
X75061765Y34239816D01*
X74948497Y34409334D01*
X74804334Y34553497D01*
X74634816Y34666765D01*
X74446458Y34744786D01*
X74246499Y34784560D01*
X74042621Y34784560D01*
X73842662Y34744786D01*
X73654304Y34666765D01*
X73484786Y34553497D01*
X73340623Y34409334D01*
X73227355Y34239816D01*
X73149334Y34051458D01*
X73109560Y33851499D01*
X73109560Y33647621D01*
X73149334Y33447662D01*
X73177974Y33378520D01*
X73028195Y33478599D01*
X72748843Y33594311D01*
X72452284Y33653300D01*
X72149916Y33653300D01*
X71853357Y33594311D01*
X71574005Y33478599D01*
X71322595Y33310612D01*
X71256156Y33244173D01*
X71250602Y33262480D01*
X71191637Y33372794D01*
X71112285Y33469485D01*
X71015594Y33548837D01*
X70905280Y33607802D01*
X70785582Y33644112D01*
X70661100Y33656372D01*
X70046850Y33653300D01*
X69888100Y33494550D01*
X69888100Y32245300D01*
X69908100Y32245300D01*
X69908100Y31991300D01*
X69888100Y31991300D01*
X69888100Y31971300D01*
X69634100Y31971300D01*
X69634100Y31991300D01*
X68384850Y31991300D01*
X68226100Y31832550D01*
X68225204Y31653299D01*
X63550301Y31653299D01*
X63346102Y31857498D01*
X63395880Y31872598D01*
X63506194Y31931563D01*
X63602885Y32010915D01*
X63682237Y32107606D01*
X63741202Y32217920D01*
X63777512Y32337618D01*
X63789772Y32462100D01*
X65013628Y32462100D01*
X65025888Y32337618D01*
X65062198Y32217920D01*
X65121163Y32107606D01*
X65200515Y32010915D01*
X65297206Y31931563D01*
X65407520Y31872598D01*
X65527218Y31836288D01*
X65651700Y31824028D01*
X65815950Y31827100D01*
X65974700Y31985850D01*
X65974700Y33185100D01*
X66228700Y33185100D01*
X66228700Y31985850D01*
X66387450Y31827100D01*
X66551700Y31824028D01*
X66676182Y31836288D01*
X66795880Y31872598D01*
X66906194Y31931563D01*
X67002885Y32010915D01*
X67082237Y32107606D01*
X67141202Y32217920D01*
X67177512Y32337618D01*
X67189772Y32462100D01*
X67186744Y33018300D01*
X68223028Y33018300D01*
X68226100Y32404050D01*
X68384850Y32245300D01*
X69634100Y32245300D01*
X69634100Y33494550D01*
X69475350Y33653300D01*
X68861100Y33656372D01*
X68736618Y33644112D01*
X68616920Y33607802D01*
X68506606Y33548837D01*
X68409915Y33469485D01*
X68330563Y33372794D01*
X68271598Y33262480D01*
X68235288Y33142782D01*
X68223028Y33018300D01*
X67186744Y33018300D01*
X67186700Y33026350D01*
X67027950Y33185100D01*
X66228700Y33185100D01*
X65974700Y33185100D01*
X65175450Y33185100D01*
X65016700Y33026350D01*
X65013628Y32462100D01*
X63789772Y32462100D01*
X63789772Y34162100D01*
X65013628Y34162100D01*
X65016700Y33597850D01*
X65175450Y33439100D01*
X65974700Y33439100D01*
X65974700Y34638350D01*
X66228700Y34638350D01*
X66228700Y33439100D01*
X67027950Y33439100D01*
X67186700Y33597850D01*
X67189772Y34162100D01*
X67177512Y34286582D01*
X67141202Y34406280D01*
X67082237Y34516594D01*
X67002885Y34613285D01*
X66906194Y34692637D01*
X66795880Y34751602D01*
X66676182Y34787912D01*
X66551700Y34800172D01*
X66387450Y34797100D01*
X66228700Y34638350D01*
X65974700Y34638350D01*
X65815950Y34797100D01*
X65651700Y34800172D01*
X65527218Y34787912D01*
X65407520Y34751602D01*
X65297206Y34692637D01*
X65200515Y34613285D01*
X65121163Y34516594D01*
X65062198Y34406280D01*
X65025888Y34286582D01*
X65013628Y34162100D01*
X63789772Y34162100D01*
X63777512Y34286582D01*
X63741202Y34406280D01*
X63682237Y34516594D01*
X63602885Y34613285D01*
X63506194Y34692637D01*
X63461700Y34716420D01*
X63461700Y36605899D01*
X64674045Y37818243D01*
X64643817Y37745267D01*
X64600200Y37525988D01*
X64600200Y37302412D01*
X64643817Y37083133D01*
X64729376Y36876576D01*
X64853588Y36690680D01*
X64986214Y36558054D01*
X65027515Y36421898D01*
X65029654Y36414848D01*
X65100226Y36282818D01*
X65139470Y36235000D01*
X65195199Y36167093D01*
X65224202Y36143290D01*
X66273495Y35093997D01*
X66297293Y35064999D01*
X66413018Y34970026D01*
X66545047Y34899454D01*
X66688308Y34855997D01*
X66799961Y34845000D01*
X66799970Y34845000D01*
X66837293Y34841324D01*
X66874616Y34845000D01*
X69936289Y34845000D01*
X69980226Y34801063D01*
X70149744Y34687795D01*
X70338102Y34609774D01*
X70538061Y34570000D01*
X70741939Y34570000D01*
X70941898Y34609774D01*
X71130256Y34687795D01*
X71299774Y34801063D01*
X71443937Y34945226D01*
X71557205Y35114744D01*
X71635226Y35303102D01*
X71675000Y35503061D01*
X71675000Y35706939D01*
X71635226Y35906898D01*
X71615343Y35954900D01*
X71715669Y35954900D01*
X71915628Y35994674D01*
X72103986Y36072695D01*
X72273504Y36185963D01*
X72417667Y36330126D01*
X72530935Y36499644D01*
X72578717Y36614998D01*
X77684871Y36614998D01*
X77665015Y36590804D01*
X77594443Y36458774D01*
X77566217Y36365721D01*
X77550987Y36315514D01*
X77545081Y36255546D01*
X77536313Y36166528D01*
X77539990Y36129196D01*
X77539989Y33062324D01*
X77536313Y33025001D01*
X77539989Y32987679D01*
X77539989Y32987669D01*
X77550986Y32876016D01*
X77587897Y32754334D01*
X77594443Y32732755D01*
X77665015Y32600725D01*
X77682980Y32578835D01*
X77759988Y32485000D01*
X77788991Y32461198D01*
X77995000Y32255188D01*
X77995000Y32193051D01*
X78034774Y31993092D01*
X78112795Y31804734D01*
X78226063Y31635216D01*
X78370226Y31491053D01*
X78539744Y31377785D01*
X78728102Y31299764D01*
X78928061Y31259990D01*
X79131939Y31259990D01*
X79331898Y31299764D01*
X79520256Y31377785D01*
X79689774Y31491053D01*
X79833937Y31635216D01*
X79947205Y31804734D01*
X80025226Y31993092D01*
X80065000Y32193051D01*
X80065000Y32396929D01*
X80048557Y32479593D01*
X80116918Y32479593D01*
X80316877Y32519367D01*
X80505235Y32597388D01*
X80674753Y32710656D01*
X80818916Y32854819D01*
X80932184Y33024337D01*
X81010205Y33212695D01*
X81049979Y33412654D01*
X81049979Y33616532D01*
X81010205Y33816491D01*
X80932184Y34004849D01*
X80818916Y34174367D01*
X80674753Y34318530D01*
X80505235Y34431798D01*
X80316877Y34509819D01*
X80196385Y34533786D01*
X80301898Y34554774D01*
X80490256Y34632795D01*
X80659774Y34746063D01*
X80703711Y34790000D01*
X82152810Y34790000D01*
X82190132Y34786324D01*
X82216926Y34788963D01*
X82338061Y34764868D01*
X82541939Y34764868D01*
X82741898Y34804642D01*
X82930256Y34882663D01*
X83099774Y34995931D01*
X83243937Y35140094D01*
X83357205Y35309612D01*
X83435226Y35497970D01*
X83475000Y35697929D01*
X83475000Y35901807D01*
X83435226Y36101766D01*
X83357205Y36290124D01*
X83243937Y36459642D01*
X83099774Y36603805D01*
X82930256Y36717073D01*
X82741898Y36795094D01*
X82541939Y36834868D01*
X82338061Y36834868D01*
X82138102Y36795094D01*
X81949744Y36717073D01*
X81780226Y36603805D01*
X81636063Y36459642D01*
X81536076Y36310000D01*
X80703711Y36310000D01*
X80659774Y36353937D01*
X80490256Y36467205D01*
X80371286Y36516484D01*
X81624803Y37770001D01*
X82342679Y37770001D01*
X82380001Y37766325D01*
X82417323Y37770001D01*
X82417334Y37770001D01*
X82528987Y37780998D01*
X82672248Y37824455D01*
X82804226Y37895000D01*
X82881939Y37895000D01*
X83081898Y37934774D01*
X83270256Y38012795D01*
X83439774Y38126063D01*
X83583937Y38270226D01*
X83697205Y38439744D01*
X83775226Y38628102D01*
X83815000Y38828061D01*
X83815000Y39031939D01*
X83775226Y39231898D01*
X83697205Y39420256D01*
X83689481Y39431816D01*
X83735375Y39500501D01*
X85044999Y38190877D01*
X85045000Y34889331D01*
X85041323Y34851999D01*
X85045000Y34814666D01*
X85055997Y34703013D01*
X85060613Y34687795D01*
X85099453Y34559753D01*
X85170025Y34427723D01*
X85217634Y34369712D01*
X85264999Y34311998D01*
X85293997Y34288200D01*
X85618195Y33964002D01*
X85641998Y33934998D01*
X85757723Y33840025D01*
X85864969Y33782700D01*
X85889752Y33769453D01*
X86033013Y33725996D01*
X86181999Y33711322D01*
X86219332Y33714999D01*
X86840679Y33714999D01*
X86878001Y33711323D01*
X86915323Y33714999D01*
X86915334Y33714999D01*
X87026987Y33725996D01*
X87170248Y33769453D01*
X87302277Y33840025D01*
X87418002Y33934998D01*
X87441805Y33964002D01*
X89562805Y36085001D01*
X92230200Y36085001D01*
X92198998Y36053799D01*
X92170000Y36030001D01*
X92146202Y36001003D01*
X92146201Y36001002D01*
X92075026Y35914276D01*
X92004454Y35782246D01*
X91960998Y35638985D01*
X91946324Y35490000D01*
X91950001Y35452668D01*
X91950000Y33555609D01*
X91827114Y33473499D01*
X91634201Y33280586D01*
X91482629Y33053743D01*
X91378225Y32801689D01*
X91325000Y32534111D01*
X91325000Y32261289D01*
X91378225Y31993711D01*
X91482629Y31741657D01*
X91634201Y31514814D01*
X91827114Y31321901D01*
X92053957Y31170329D01*
X92306011Y31065925D01*
X92573589Y31012700D01*
X92846411Y31012700D01*
X93113989Y31065925D01*
X93366043Y31170329D01*
X93592886Y31321901D01*
X93785799Y31514814D01*
X93937371Y31741657D01*
X93980000Y31844573D01*
X94022629Y31741657D01*
X94174201Y31514814D01*
X94367114Y31321901D01*
X94593957Y31170329D01*
X94846011Y31065925D01*
X95113589Y31012700D01*
X95386411Y31012700D01*
X95653989Y31065925D01*
X95906043Y31170329D01*
X96132886Y31321901D01*
X96164940Y31353955D01*
X96174999Y31341698D01*
X96203997Y31317900D01*
X97160209Y30361687D01*
X97184007Y30332689D01*
X97299732Y30237716D01*
X97431761Y30167144D01*
X97575022Y30123687D01*
X97686675Y30112690D01*
X97686684Y30112690D01*
X97724007Y30109014D01*
X97761330Y30112690D01*
X107562974Y30112690D01*
X107600296Y30109014D01*
X107637619Y30112690D01*
X107637629Y30112690D01*
X107749282Y30123687D01*
X107892543Y30167144D01*
X108024572Y30237716D01*
X108140297Y30332689D01*
X108164100Y30361693D01*
X112486024Y34683618D01*
X112515021Y34707415D01*
X112609994Y34823140D01*
X112680566Y34955169D01*
X112724023Y35098430D01*
X112735020Y35210083D01*
X112735020Y35210092D01*
X112738696Y35247415D01*
X112735020Y35284738D01*
X112735020Y50754049D01*
X112738696Y50791372D01*
X112735020Y50828695D01*
X112735020Y50828705D01*
X112724023Y50940358D01*
X112680566Y51083619D01*
X112663389Y51115755D01*
X112609994Y51215649D01*
X112538819Y51302375D01*
X112515021Y51331373D01*
X112486023Y51355171D01*
X107055001Y56786192D01*
X107055001Y63610678D01*
X107058677Y63648001D01*
X107055001Y63685324D01*
X107055001Y63685334D01*
X107044004Y63796987D01*
X107000547Y63940248D01*
X106985845Y63967754D01*
X106929975Y64072278D01*
X106858800Y64159004D01*
X106835002Y64188002D01*
X106806004Y64211800D01*
X103274193Y67743610D01*
X103526043Y67847929D01*
X103752886Y67999501D01*
X103945799Y68192414D01*
X104097371Y68419257D01*
X104140000Y68522173D01*
X104182629Y68419257D01*
X104334201Y68192414D01*
X104527114Y67999501D01*
X104753957Y67847929D01*
X105006011Y67743525D01*
X105273589Y67690300D01*
X105546411Y67690300D01*
X105813989Y67743525D01*
X106066043Y67847929D01*
X106292886Y67999501D01*
X106485799Y68192414D01*
X106637371Y68419257D01*
X106741775Y68671311D01*
X106795000Y68938889D01*
X106795000Y69211711D01*
X106741775Y69479289D01*
X106637371Y69731343D01*
X106485799Y69958186D01*
X106292886Y70151099D01*
X106066043Y70302671D01*
X105813989Y70407075D01*
X105546411Y70460300D01*
X105273589Y70460300D01*
X105006011Y70407075D01*
X104753957Y70302671D01*
X104527114Y70151099D01*
X104334201Y69958186D01*
X104182629Y69731343D01*
X104140000Y69628427D01*
X104097371Y69731343D01*
X103945799Y69958186D01*
X103752886Y70151099D01*
X103526043Y70302671D01*
X103273989Y70407075D01*
X103006411Y70460300D01*
X102733589Y70460300D01*
X102466011Y70407075D01*
X102213957Y70302671D01*
X101987114Y70151099D01*
X101794201Y69958186D01*
X101642629Y69731343D01*
X101600000Y69628427D01*
X101557371Y69731343D01*
X101405799Y69958186D01*
X101212886Y70151099D01*
X100986043Y70302671D01*
X100733989Y70407075D01*
X100466411Y70460300D01*
X100193589Y70460300D01*
X99926011Y70407075D01*
X99673957Y70302671D01*
X99447114Y70151099D01*
X99254201Y69958186D01*
X99102629Y69731343D01*
X99060000Y69628427D01*
X99017371Y69731343D01*
X98865799Y69958186D01*
X98672886Y70151099D01*
X98446043Y70302671D01*
X98193989Y70407075D01*
X97926411Y70460300D01*
X97653589Y70460300D01*
X97386011Y70407075D01*
X97133957Y70302671D01*
X96907114Y70151099D01*
X96714201Y69958186D01*
X96562629Y69731343D01*
X96520000Y69628427D01*
X96477371Y69731343D01*
X96325799Y69958186D01*
X96132886Y70151099D01*
X95906043Y70302671D01*
X95653989Y70407075D01*
X95386411Y70460300D01*
X95113589Y70460300D01*
X94846011Y70407075D01*
X94593957Y70302671D01*
X94367114Y70151099D01*
X94174201Y69958186D01*
X94096445Y69841817D01*
X94085812Y69949782D01*
X94049502Y70069480D01*
X93990537Y70179794D01*
X93911185Y70276485D01*
X93814494Y70355837D01*
X93704180Y70414802D01*
X93584482Y70451112D01*
X93460000Y70463372D01*
X91960000Y70463372D01*
X91835518Y70451112D01*
X91715820Y70414802D01*
X91605506Y70355837D01*
X91508815Y70276485D01*
X91472935Y70232765D01*
X91336987Y70274004D01*
X91225334Y70285001D01*
X91225323Y70285001D01*
X91188001Y70288677D01*
X91150679Y70285001D01*
X86379321Y70285001D01*
X86341998Y70288677D01*
X86304675Y70285001D01*
X86304666Y70285001D01*
X86193013Y70274004D01*
X86049752Y70230547D01*
X85917722Y70159975D01*
X85834082Y70091333D01*
X85801998Y70065002D01*
X85778200Y70036004D01*
X80914002Y65171805D01*
X80884998Y65148002D01*
X80854634Y65111003D01*
X80790025Y65032277D01*
X80719454Y64900248D01*
X80719453Y64900247D01*
X80675996Y64756986D01*
X80664999Y64645333D01*
X80664999Y64645323D01*
X80661323Y64608001D01*
X80664999Y64570679D01*
X80664999Y63832323D01*
X80661323Y63795001D01*
X80664999Y63757679D01*
X80664999Y63757668D01*
X80673394Y63672441D01*
X80675997Y63646016D01*
X80719453Y63502755D01*
X80790025Y63370725D01*
X80857107Y63288986D01*
X80884999Y63255000D01*
X80913997Y63231202D01*
X81105000Y63040199D01*
X81105000Y62978061D01*
X81144774Y62778102D01*
X81222795Y62589744D01*
X81336063Y62420226D01*
X81480226Y62276063D01*
X81649744Y62162795D01*
X81838102Y62084774D01*
X82038061Y62045000D01*
X82241939Y62045000D01*
X82441898Y62084774D01*
X82630256Y62162795D01*
X82799774Y62276063D01*
X82929455Y62405744D01*
X83959986Y61375212D01*
X83959987Y58502336D01*
X83956310Y58465004D01*
X83959987Y58427671D01*
X83969115Y58335000D01*
X83970984Y58316019D01*
X84014440Y58172758D01*
X84085012Y58040728D01*
X84156187Y57954002D01*
X84179986Y57925003D01*
X84208984Y57901205D01*
X85224835Y56885353D01*
X85224835Y56823216D01*
X85264609Y56623257D01*
X85342630Y56434899D01*
X85455898Y56265381D01*
X85600061Y56121218D01*
X85769579Y56007950D01*
X85957937Y55929929D01*
X86157896Y55890155D01*
X86220034Y55890155D01*
X86517752Y55592437D01*
X86442795Y55480256D01*
X86364774Y55291898D01*
X86325000Y55091939D01*
X86325000Y54888061D01*
X86364774Y54688102D01*
X86442795Y54499744D01*
X86556063Y54330226D01*
X86700226Y54186063D01*
X86869744Y54072795D01*
X87058102Y53994774D01*
X87258061Y53955000D01*
X87461939Y53955000D01*
X87661898Y53994774D01*
X87850256Y54072795D01*
X88019774Y54186063D01*
X88163937Y54330226D01*
X88277205Y54499744D01*
X88355226Y54688102D01*
X88395000Y54888061D01*
X88395000Y55091939D01*
X88355226Y55291898D01*
X88277205Y55480256D01*
X88163937Y55649774D01*
X88120000Y55693711D01*
X88120000Y55787668D01*
X88123676Y55824991D01*
X88120000Y55862314D01*
X88120000Y55862323D01*
X88109003Y55973976D01*
X88065546Y56117237D01*
X87994974Y56249266D01*
X87900001Y56364991D01*
X87871003Y56388789D01*
X87294835Y56964956D01*
X87294835Y57027094D01*
X87255061Y57227053D01*
X87212419Y57330000D01*
X88648499Y57330000D01*
X89486200Y56492298D01*
X89486201Y54594604D01*
X87858158Y52966560D01*
X87811637Y53036184D01*
X87667474Y53180347D01*
X87497956Y53293615D01*
X87309598Y53371636D01*
X87109639Y53411410D01*
X86905761Y53411410D01*
X86705802Y53371636D01*
X86517444Y53293615D01*
X86347926Y53180347D01*
X86203763Y53036184D01*
X86090495Y52866666D01*
X86012474Y52678308D01*
X85972700Y52478349D01*
X85972700Y52416212D01*
X80736993Y47180504D01*
X80707989Y47156701D01*
X80672943Y47113997D01*
X80613016Y47040976D01*
X80591809Y47001300D01*
X80542444Y46908946D01*
X80511488Y46806897D01*
X80426198Y46842226D01*
X80226239Y46882000D01*
X80022361Y46882000D01*
X79822402Y46842226D01*
X79634044Y46764205D01*
X79464526Y46650937D01*
X79320363Y46506774D01*
X79207095Y46337256D01*
X79129074Y46148898D01*
X79089300Y45948939D01*
X79089300Y45745061D01*
X79102241Y45680000D01*
X78968061Y45680000D01*
X78768102Y45640226D01*
X78579744Y45562205D01*
X78410226Y45448937D01*
X78266063Y45304774D01*
X78152795Y45135256D01*
X78074774Y44946898D01*
X78035000Y44746939D01*
X78035000Y44659690D01*
X77174999Y43799688D01*
X77174999Y44610198D01*
X83276003Y50711201D01*
X83305001Y50734999D01*
X83399974Y50850724D01*
X83470546Y50982753D01*
X83514003Y51126014D01*
X83525000Y51237667D01*
X83528677Y51275000D01*
X83525000Y51312333D01*
X83525000Y51826289D01*
X83568937Y51870226D01*
X83682205Y52039744D01*
X83760226Y52228102D01*
X83800000Y52428061D01*
X83800000Y52631939D01*
X83760226Y52831898D01*
X83682205Y53020256D01*
X83568937Y53189774D01*
X83424774Y53333937D01*
X83255256Y53447205D01*
X83066898Y53525226D01*
X82866939Y53565000D01*
X82663061Y53565000D01*
X82463102Y53525226D01*
X82274744Y53447205D01*
X82105226Y53333937D01*
X81961063Y53189774D01*
X81847795Y53020256D01*
X81769774Y52831898D01*
X81730000Y52631939D01*
X81730000Y52428061D01*
X81769774Y52228102D01*
X81847795Y52039744D01*
X81961063Y51870226D01*
X82005001Y51826288D01*
X82005001Y51589803D01*
X79970000Y49554802D01*
X79970000Y53945199D01*
X80264802Y54240000D01*
X82061289Y54240000D01*
X82105226Y54196063D01*
X82274744Y54082795D01*
X82463102Y54004774D01*
X82663061Y53965000D01*
X82866939Y53965000D01*
X83066898Y54004774D01*
X83255256Y54082795D01*
X83424774Y54196063D01*
X83568937Y54340226D01*
X83682205Y54509744D01*
X83760226Y54698102D01*
X83800000Y54898061D01*
X83800000Y55101939D01*
X83760226Y55301898D01*
X83682205Y55490256D01*
X83568937Y55659774D01*
X83424774Y55803937D01*
X83255256Y55917205D01*
X83066898Y55995226D01*
X82866939Y56035000D01*
X82663061Y56035000D01*
X82463102Y55995226D01*
X82274744Y55917205D01*
X82105226Y55803937D01*
X82061289Y55760000D01*
X80189801Y55760000D01*
X82804802Y58375000D01*
X82866939Y58375000D01*
X83066898Y58414774D01*
X83255256Y58492795D01*
X83424774Y58606063D01*
X83568937Y58750226D01*
X83682205Y58919744D01*
X83760226Y59108102D01*
X83800000Y59308061D01*
X83800000Y59511939D01*
X83760226Y59711898D01*
X83682205Y59900256D01*
X83612217Y60005000D01*
X83682205Y60109744D01*
X83760226Y60298102D01*
X83800000Y60498061D01*
X83800000Y60701939D01*
X83760226Y60901898D01*
X83682205Y61090256D01*
X83568937Y61259774D01*
X83424774Y61403937D01*
X83255256Y61517205D01*
X83066898Y61595226D01*
X82866939Y61635000D01*
X82663061Y61635000D01*
X82463102Y61595226D01*
X82274744Y61517205D01*
X82105226Y61403937D01*
X81961063Y61259774D01*
X81847795Y61090256D01*
X81769774Y60901898D01*
X81730000Y60701939D01*
X81730000Y60639802D01*
X77798981Y56708782D01*
X77769977Y56684979D01*
X77732879Y56639774D01*
X77675004Y56569254D01*
X77638776Y56501476D01*
X77604432Y56437224D01*
X77560975Y56293963D01*
X77549978Y56182310D01*
X77549978Y56182300D01*
X77546302Y56144978D01*
X77549978Y56107655D01*
X77549979Y49893012D01*
X71794999Y44138031D01*
X71794999Y46132998D01*
X71803270Y46141269D01*
X72061016Y46090000D01*
X72363384Y46090000D01*
X72659943Y46148989D01*
X72939295Y46264701D01*
X73190705Y46432688D01*
X73404512Y46646495D01*
X73572499Y46897905D01*
X73688211Y47177257D01*
X73747200Y47473816D01*
X73747200Y47776184D01*
X73688211Y48072743D01*
X73572499Y48352095D01*
X73404512Y48603505D01*
X73190705Y48817312D01*
X72939295Y48985299D01*
X72659943Y49101011D01*
X72363384Y49160000D01*
X72061016Y49160000D01*
X71764457Y49101011D01*
X71485105Y48985299D01*
X71233695Y48817312D01*
X71167256Y48750873D01*
X71161702Y48769180D01*
X71102737Y48879494D01*
X71023385Y48976185D01*
X70926694Y49055537D01*
X70816380Y49114502D01*
X70696682Y49150812D01*
X70572200Y49163072D01*
X69957950Y49160000D01*
X69799200Y49001250D01*
X69799200Y47752000D01*
X69819200Y47752000D01*
X69819200Y47498000D01*
X69799200Y47498000D01*
X69799200Y46248750D01*
X69957950Y46090000D01*
X70275000Y46088414D01*
X70274999Y42354118D01*
X66641516Y45987600D01*
X66660502Y45987600D01*
X66660502Y46146348D01*
X66819250Y45987600D01*
X66983500Y45984528D01*
X67107982Y45996788D01*
X67227680Y46033098D01*
X67337994Y46092063D01*
X67434685Y46171415D01*
X67514037Y46268106D01*
X67573002Y46378420D01*
X67609312Y46498118D01*
X67621572Y46622600D01*
X67621015Y46725000D01*
X68134128Y46725000D01*
X68146388Y46600518D01*
X68182698Y46480820D01*
X68241663Y46370506D01*
X68321015Y46273815D01*
X68417706Y46194463D01*
X68528020Y46135498D01*
X68647718Y46099188D01*
X68772200Y46086928D01*
X69386450Y46090000D01*
X69545200Y46248750D01*
X69545200Y47498000D01*
X68295950Y47498000D01*
X68137200Y47339250D01*
X68134128Y46725000D01*
X67621015Y46725000D01*
X67618500Y47186850D01*
X67459750Y47345600D01*
X66660500Y47345600D01*
X66660500Y47325600D01*
X66430000Y47325600D01*
X66430000Y48798850D01*
X66660500Y48798850D01*
X66660500Y47599600D01*
X67459750Y47599600D01*
X67618500Y47758350D01*
X67621572Y48322600D01*
X67609312Y48447082D01*
X67585676Y48525000D01*
X68134128Y48525000D01*
X68137200Y47910750D01*
X68295950Y47752000D01*
X69545200Y47752000D01*
X69545200Y49001250D01*
X69386450Y49160000D01*
X68772200Y49163072D01*
X68647718Y49150812D01*
X68528020Y49114502D01*
X68417706Y49055537D01*
X68321015Y48976185D01*
X68241663Y48879494D01*
X68182698Y48769180D01*
X68146388Y48649482D01*
X68134128Y48525000D01*
X67585676Y48525000D01*
X67573002Y48566780D01*
X67514037Y48677094D01*
X67434685Y48773785D01*
X67337994Y48853137D01*
X67227680Y48912102D01*
X67107982Y48948412D01*
X66983500Y48960672D01*
X66819250Y48957600D01*
X66660500Y48798850D01*
X66430000Y48798850D01*
X66430000Y56626289D01*
X66473937Y56670226D01*
X66587205Y56839744D01*
X66665226Y57028102D01*
X66705000Y57228061D01*
X66705000Y57431939D01*
X66665226Y57631898D01*
X66587205Y57820256D01*
X66473937Y57989774D01*
X66402755Y58060956D01*
X68001800Y59660000D01*
X74316289Y59660000D01*
X74360226Y59616063D01*
X74529744Y59502795D01*
X74718102Y59424774D01*
X74918061Y59385000D01*
X75121939Y59385000D01*
X75321898Y59424774D01*
X75510256Y59502795D01*
X75679774Y59616063D01*
X75823937Y59760226D01*
X75937205Y59929744D01*
X76015226Y60118102D01*
X76055000Y60318061D01*
X76055000Y60521939D01*
X76015226Y60721898D01*
X75937205Y60910256D01*
X75823937Y61079774D01*
X75679774Y61223937D01*
X75510256Y61337205D01*
X75321898Y61415226D01*
X75121939Y61455000D01*
X74918061Y61455000D01*
X74718102Y61415226D01*
X74529744Y61337205D01*
X74360226Y61223937D01*
X74316289Y61180000D01*
X67724331Y61180000D01*
X67686998Y61183677D01*
X67649665Y61180000D01*
X67538012Y61169003D01*
X67394751Y61125546D01*
X67262722Y61054974D01*
X67146997Y60960001D01*
X67123199Y60931003D01*
X62622498Y56430301D01*
X62593500Y56406503D01*
X62569702Y56377505D01*
X62569701Y56377504D01*
X62498526Y56290778D01*
X62427954Y56158748D01*
X62411647Y56104989D01*
X62384498Y56015488D01*
X62376215Y55931390D01*
X62369824Y55866502D01*
X62373501Y55829170D01*
X62373500Y48876920D01*
X62329006Y48853137D01*
X62232315Y48773785D01*
X62152963Y48677094D01*
X62093998Y48566780D01*
X62057688Y48447082D01*
X62045428Y48322600D01*
X62045428Y46622600D01*
X62057688Y46498118D01*
X62093998Y46378420D01*
X62152963Y46268106D01*
X62232315Y46171415D01*
X62329006Y46092063D01*
X62373500Y46068280D01*
X62373501Y42593232D01*
X62369824Y42555900D01*
X62373501Y42518567D01*
X62384498Y42406914D01*
X62394519Y42373880D01*
X62427954Y42263654D01*
X62498526Y42131624D01*
X62568077Y42046877D01*
X62593500Y42015899D01*
X62622498Y41992101D01*
X64600200Y40014397D01*
X64600200Y39894002D01*
X62190703Y37484504D01*
X62161699Y37460701D01*
X62110945Y37398856D01*
X62066726Y37344976D01*
X62027504Y37271597D01*
X61996154Y37212946D01*
X61952697Y37069685D01*
X61941700Y36958032D01*
X61941700Y36958022D01*
X61938024Y36920700D01*
X61941700Y36883377D01*
X61941701Y34716420D01*
X61897206Y34692637D01*
X61800515Y34613285D01*
X61721163Y34516594D01*
X61662198Y34406280D01*
X61625888Y34286582D01*
X61613628Y34162100D01*
X61613628Y33589971D01*
X60540000Y34663599D01*
X60540000Y43276289D01*
X60583937Y43320226D01*
X60697205Y43489744D01*
X60775226Y43678102D01*
X60815000Y43878061D01*
X60815000Y44081939D01*
X60775226Y44281898D01*
X60697205Y44470256D01*
X60583937Y44639774D01*
X60439774Y44783937D01*
X60270256Y44897205D01*
X60081898Y44975226D01*
X59881939Y45015000D01*
X59678061Y45015000D01*
X59478102Y44975226D01*
X59289744Y44897205D01*
X59120226Y44783937D01*
X58976063Y44639774D01*
X58862795Y44470256D01*
X58784774Y44281898D01*
X58745000Y44081939D01*
X58745000Y43878061D01*
X58784774Y43678102D01*
X58862795Y43489744D01*
X58976063Y43320226D01*
X59020001Y43276288D01*
X59020000Y35547189D01*
X51661829Y42905360D01*
X51729905Y43007244D01*
X51807926Y43195602D01*
X51847700Y43395561D01*
X51847700Y43599439D01*
X51807926Y43799398D01*
X51729905Y43987756D01*
X51616637Y44157274D01*
X51472474Y44301437D01*
X51302956Y44414705D01*
X51114598Y44492726D01*
X50914639Y44532500D01*
X50710761Y44532500D01*
X50510802Y44492726D01*
X50322444Y44414705D01*
X50152926Y44301437D01*
X50008763Y44157274D01*
X49895495Y43987756D01*
X49817474Y43799398D01*
X49777700Y43599439D01*
X49777700Y43395561D01*
X49817474Y43195602D01*
X49895495Y43007244D01*
X50008763Y42837726D01*
X50052700Y42793789D01*
X50052700Y42717010D01*
X50049024Y42679688D01*
X50052700Y42642366D01*
X50052700Y42642356D01*
X50063697Y42530703D01*
X50100311Y42410001D01*
X50107154Y42387442D01*
X50177726Y42255412D01*
X50213117Y42212288D01*
X50272699Y42139687D01*
X50301703Y42115884D01*
X62522586Y29895000D01*
X34975000Y29895000D01*
X34975000Y32687979D01*
X40651300Y32687979D01*
X40651300Y32267421D01*
X40733347Y31854944D01*
X40894288Y31466398D01*
X41127937Y31116717D01*
X41425317Y30819337D01*
X41774998Y30585688D01*
X42163544Y30424747D01*
X42576021Y30342700D01*
X42996579Y30342700D01*
X43409056Y30424747D01*
X43797602Y30585688D01*
X44147283Y30819337D01*
X44444663Y31116717D01*
X44678312Y31466398D01*
X44839253Y31854944D01*
X44921300Y32267421D01*
X44921300Y32687979D01*
X44839253Y33100456D01*
X44678312Y33489002D01*
X44444663Y33838683D01*
X44147283Y34136063D01*
X43797602Y34369712D01*
X43409056Y34530653D01*
X42996579Y34612700D01*
X42576021Y34612700D01*
X42163544Y34530653D01*
X41774998Y34369712D01*
X41425317Y34136063D01*
X41127937Y33838683D01*
X40894288Y33489002D01*
X40733347Y33100456D01*
X40651300Y32687979D01*
X34975000Y32687979D01*
X34975000Y38977700D01*
X40648228Y38977700D01*
X40648228Y35977700D01*
X40660488Y35853218D01*
X40696798Y35733520D01*
X40755763Y35623206D01*
X40835115Y35526515D01*
X40931806Y35447163D01*
X41042120Y35388198D01*
X41161818Y35351888D01*
X41286300Y35339628D01*
X44286300Y35339628D01*
X44410782Y35351888D01*
X44530480Y35388198D01*
X44640794Y35447163D01*
X44737485Y35526515D01*
X44816837Y35623206D01*
X44875802Y35733520D01*
X44912112Y35853218D01*
X44924372Y35977700D01*
X44924372Y38977700D01*
X44912112Y39102182D01*
X44875802Y39221880D01*
X44816837Y39332194D01*
X44737485Y39428885D01*
X44640794Y39508237D01*
X44530480Y39567202D01*
X44410782Y39603512D01*
X44286300Y39615772D01*
X41286300Y39615772D01*
X41161818Y39603512D01*
X41042120Y39567202D01*
X40931806Y39508237D01*
X40835115Y39428885D01*
X40755763Y39332194D01*
X40696798Y39221880D01*
X40660488Y39102182D01*
X40648228Y38977700D01*
X34975000Y38977700D01*
X34975000Y43711579D01*
X40613200Y43711579D01*
X40613200Y43291021D01*
X40695247Y42878544D01*
X40856188Y42489998D01*
X41089837Y42140317D01*
X41387217Y41842937D01*
X41736898Y41609288D01*
X42125444Y41448347D01*
X42537921Y41366300D01*
X42958479Y41366300D01*
X43370956Y41448347D01*
X43759502Y41609288D01*
X44109183Y41842937D01*
X44406563Y42140317D01*
X44640212Y42489998D01*
X44801153Y42878544D01*
X44883200Y43291021D01*
X44883200Y43711579D01*
X44801153Y44124056D01*
X44640212Y44512602D01*
X44406563Y44862283D01*
X44109183Y45159663D01*
X43759502Y45393312D01*
X43370956Y45554253D01*
X42958479Y45636300D01*
X42537921Y45636300D01*
X42125444Y45554253D01*
X41736898Y45393312D01*
X41387217Y45159663D01*
X41089837Y44862283D01*
X40856188Y44512602D01*
X40695247Y44124056D01*
X40613200Y43711579D01*
X34975000Y43711579D01*
X34975000Y47001300D01*
X40610128Y47001300D01*
X40622388Y46876818D01*
X40658698Y46757120D01*
X40717663Y46646806D01*
X40797015Y46550115D01*
X40893706Y46470763D01*
X41004020Y46411798D01*
X41123718Y46375488D01*
X41248200Y46363228D01*
X42462450Y46366300D01*
X42621200Y46525050D01*
X42621200Y48374300D01*
X42875200Y48374300D01*
X42875200Y46525050D01*
X43033950Y46366300D01*
X44248200Y46363228D01*
X44372682Y46375488D01*
X44492380Y46411798D01*
X44602694Y46470763D01*
X44699385Y46550115D01*
X44778737Y46646806D01*
X44837702Y46757120D01*
X44874012Y46876818D01*
X44886272Y47001300D01*
X44883200Y48215550D01*
X44724450Y48374300D01*
X42875200Y48374300D01*
X42621200Y48374300D01*
X40771950Y48374300D01*
X40613200Y48215550D01*
X40610128Y47001300D01*
X34975000Y47001300D01*
X34975000Y50001300D01*
X40610128Y50001300D01*
X40613200Y48787050D01*
X40771950Y48628300D01*
X42621200Y48628300D01*
X42621200Y50477550D01*
X42875200Y50477550D01*
X42875200Y48628300D01*
X44724450Y48628300D01*
X44883200Y48787050D01*
X44886272Y50001300D01*
X44874012Y50125782D01*
X44837702Y50245480D01*
X44778737Y50355794D01*
X44699385Y50452485D01*
X44602694Y50531837D01*
X44492380Y50590802D01*
X44372682Y50627112D01*
X44248200Y50639372D01*
X43033950Y50636300D01*
X42875200Y50477550D01*
X42621200Y50477550D01*
X42462450Y50636300D01*
X41248200Y50639372D01*
X41123718Y50627112D01*
X41004020Y50590802D01*
X40893706Y50531837D01*
X40797015Y50452485D01*
X40717663Y50355794D01*
X40658698Y50245480D01*
X40622388Y50125782D01*
X40610128Y50001300D01*
X34975000Y50001300D01*
X34975000Y53491184D01*
X53786200Y53491184D01*
X53786200Y53188816D01*
X53845189Y52892257D01*
X53960901Y52612905D01*
X54128888Y52361495D01*
X54342695Y52147688D01*
X54594105Y51979701D01*
X54873457Y51863989D01*
X55170016Y51805000D01*
X55472384Y51805000D01*
X55768943Y51863989D01*
X56048295Y51979701D01*
X56299705Y52147688D01*
X56513512Y52361495D01*
X56681499Y52612905D01*
X56797211Y52892257D01*
X56856200Y53188816D01*
X56856200Y53491184D01*
X56797211Y53787743D01*
X56681499Y54067095D01*
X56513512Y54318505D01*
X56299705Y54532312D01*
X56048295Y54700299D01*
X55768943Y54816011D01*
X55472384Y54875000D01*
X55170016Y54875000D01*
X54873457Y54816011D01*
X54594105Y54700299D01*
X54342695Y54532312D01*
X54128888Y54318505D01*
X53960901Y54067095D01*
X53845189Y53787743D01*
X53786200Y53491184D01*
X34975000Y53491184D01*
X34975000Y54941939D01*
X58275000Y54941939D01*
X58275000Y54738061D01*
X58314774Y54538102D01*
X58392795Y54349744D01*
X58506063Y54180226D01*
X58650226Y54036063D01*
X58819744Y53922795D01*
X59008102Y53844774D01*
X59208061Y53805000D01*
X59411939Y53805000D01*
X59611898Y53844774D01*
X59800256Y53922795D01*
X59969774Y54036063D01*
X60113937Y54180226D01*
X60227205Y54349744D01*
X60305226Y54538102D01*
X60345000Y54738061D01*
X60345000Y54809201D01*
X60374974Y54845724D01*
X60445546Y54977753D01*
X60489003Y55121014D01*
X60500000Y55232667D01*
X60500000Y55232677D01*
X60503676Y55270000D01*
X60500000Y55307323D01*
X60500000Y58646289D01*
X60543937Y58690226D01*
X60657205Y58859744D01*
X60735226Y59048102D01*
X60775000Y59248061D01*
X60775000Y59451939D01*
X60735226Y59651898D01*
X60657205Y59840256D01*
X60543937Y60009774D01*
X60399774Y60153937D01*
X60230256Y60267205D01*
X60041898Y60345226D01*
X59841939Y60385000D01*
X59638061Y60385000D01*
X59438102Y60345226D01*
X59249744Y60267205D01*
X59080226Y60153937D01*
X58936063Y60009774D01*
X58822795Y59840256D01*
X58744774Y59651898D01*
X58705000Y59451939D01*
X58705000Y59248061D01*
X58744774Y59048102D01*
X58822795Y58859744D01*
X58936063Y58690226D01*
X58980000Y58646289D01*
X58980001Y55823586D01*
X58819744Y55757205D01*
X58650226Y55643937D01*
X58506063Y55499774D01*
X58392795Y55330256D01*
X58314774Y55141898D01*
X58275000Y54941939D01*
X34975000Y54941939D01*
X34975000Y79611200D01*
X35546597Y79611200D01*
X35556201Y79513687D01*
X35556200Y60862491D01*
X35584922Y60570873D01*
X35698426Y60196699D01*
X35882747Y59851857D01*
X36130802Y59549602D01*
X36433057Y59301547D01*
X36777898Y59117226D01*
X37152072Y59003722D01*
X37541200Y58965396D01*
X37930327Y59003722D01*
X38304501Y59117226D01*
X38649343Y59301547D01*
X38951598Y59549602D01*
X39199653Y59851857D01*
X39383974Y60196698D01*
X39497478Y60570872D01*
X39526200Y60862490D01*
X39526200Y77630279D01*
X39975000Y77630279D01*
X39975000Y77209721D01*
X40057047Y76797244D01*
X40217988Y76408698D01*
X40451637Y76059017D01*
X40749017Y75761637D01*
X41098698Y75527988D01*
X41487244Y75367047D01*
X41899721Y75285000D01*
X42320279Y75285000D01*
X42732756Y75367047D01*
X42896809Y75435000D01*
X46577788Y75435000D01*
X49678601Y72334186D01*
X49678600Y66463191D01*
X49707322Y66171573D01*
X49820826Y65797399D01*
X50005147Y65452557D01*
X50049065Y65399043D01*
X50074098Y65316520D01*
X50133063Y65206206D01*
X50212415Y65109515D01*
X50309106Y65030163D01*
X50419420Y64971198D01*
X50501943Y64946165D01*
X50555457Y64902247D01*
X50900298Y64717926D01*
X51274472Y64604422D01*
X51652844Y64567155D01*
X50030690Y62945000D01*
X47146200Y62945000D01*
X47146200Y69271298D01*
X47155803Y69368801D01*
X47146200Y69466304D01*
X47146200Y69466310D01*
X47117478Y69757928D01*
X47003974Y70132102D01*
X46819653Y70476943D01*
X46571598Y70779198D01*
X46495855Y70841359D01*
X44069966Y73267246D01*
X44002012Y73431302D01*
X43768363Y73780983D01*
X43470983Y74078363D01*
X43121302Y74312012D01*
X42732756Y74472953D01*
X42320279Y74555000D01*
X41899721Y74555000D01*
X41487244Y74472953D01*
X41098698Y74312012D01*
X40749017Y74078363D01*
X40451637Y73780983D01*
X40217988Y73431302D01*
X40057047Y73042756D01*
X39975000Y72630279D01*
X39975000Y72209721D01*
X40057047Y71797244D01*
X40217988Y71408698D01*
X40451637Y71059017D01*
X40749017Y70761637D01*
X41098698Y70527988D01*
X41262754Y70460034D01*
X43176201Y68546586D01*
X43176200Y61057511D01*
X43166596Y60960000D01*
X43204922Y60570872D01*
X43318426Y60196698D01*
X43493062Y59869976D01*
X43502747Y59851857D01*
X43750802Y59549602D01*
X44053057Y59301547D01*
X44397898Y59117226D01*
X44772072Y59003722D01*
X45161200Y58965396D01*
X45258710Y58975000D01*
X50755399Y58975000D01*
X50852902Y58965397D01*
X50950405Y58975000D01*
X50950412Y58975000D01*
X51242030Y59003722D01*
X51616204Y59117226D01*
X51961045Y59301547D01*
X52263300Y59549602D01*
X52325469Y59625355D01*
X53783128Y61083013D01*
X53783128Y60060000D01*
X53795388Y59935518D01*
X53831698Y59815820D01*
X53890663Y59705506D01*
X53970015Y59608815D01*
X54066706Y59529463D01*
X54177020Y59470498D01*
X54296718Y59434188D01*
X54421200Y59421928D01*
X56221200Y59421928D01*
X56345682Y59434188D01*
X56465380Y59470498D01*
X56575694Y59529463D01*
X56672385Y59608815D01*
X56751737Y59705506D01*
X56810702Y59815820D01*
X56847012Y59935518D01*
X56859272Y60060000D01*
X56859272Y61860000D01*
X56847012Y61984482D01*
X56810702Y62104180D01*
X56751737Y62214494D01*
X56672385Y62311185D01*
X56575694Y62390537D01*
X56465380Y62449502D01*
X56345682Y62485812D01*
X56221200Y62498072D01*
X55198187Y62498072D01*
X56234655Y63534539D01*
X56310398Y63596700D01*
X56558453Y63898955D01*
X56742774Y64243796D01*
X56856278Y64617970D01*
X56875585Y64813998D01*
X56894604Y65007098D01*
X56885000Y65104608D01*
X56885000Y74341733D01*
X78028600Y74341733D01*
X78028600Y74019667D01*
X78091432Y73703788D01*
X78214682Y73406237D01*
X78393613Y73138448D01*
X78621348Y72910713D01*
X78889137Y72731782D01*
X79186688Y72608532D01*
X79502567Y72545700D01*
X79824633Y72545700D01*
X80140512Y72608532D01*
X80438063Y72731782D01*
X80705852Y72910713D01*
X80933587Y73138448D01*
X81112518Y73406237D01*
X81235768Y73703788D01*
X81298600Y74019667D01*
X81298600Y74341733D01*
X81235768Y74657612D01*
X81112518Y74955163D01*
X80933587Y75222952D01*
X80705852Y75450687D01*
X80438063Y75629618D01*
X80140512Y75752868D01*
X79824633Y75815700D01*
X79502567Y75815700D01*
X79186688Y75752868D01*
X78889137Y75629618D01*
X78621348Y75450687D01*
X78393613Y75222952D01*
X78214682Y74955163D01*
X78091432Y74657612D01*
X78028600Y74341733D01*
X56885000Y74341733D01*
X56885000Y75971939D01*
X92685000Y75971939D01*
X92685000Y75768061D01*
X92724774Y75568102D01*
X92802795Y75379744D01*
X92916063Y75210226D01*
X93060226Y75066063D01*
X93229744Y74952795D01*
X93418102Y74874774D01*
X93618061Y74835000D01*
X93821939Y74835000D01*
X94021898Y74874774D01*
X94210256Y74952795D01*
X94379774Y75066063D01*
X94523937Y75210226D01*
X94637205Y75379744D01*
X94715226Y75568102D01*
X94755000Y75768061D01*
X94755000Y75905199D01*
X96129802Y77280000D01*
X96191939Y77280000D01*
X96391898Y77319774D01*
X96580256Y77397795D01*
X96749774Y77511063D01*
X96893937Y77655226D01*
X97007205Y77824744D01*
X97085226Y78013102D01*
X97125000Y78213061D01*
X97125000Y78416939D01*
X97085226Y78616898D01*
X97007205Y78805256D01*
X96893937Y78974774D01*
X96749774Y79118937D01*
X96580256Y79232205D01*
X96391898Y79310226D01*
X96191939Y79350000D01*
X95988061Y79350000D01*
X95788102Y79310226D01*
X95599744Y79232205D01*
X95430226Y79118937D01*
X95286063Y78974774D01*
X95172795Y78805256D01*
X95094774Y78616898D01*
X95055000Y78416939D01*
X95055000Y78354802D01*
X93602005Y76901806D01*
X93418102Y76865226D01*
X93229744Y76787205D01*
X93060226Y76673937D01*
X92916063Y76529774D01*
X92802795Y76360256D01*
X92724774Y76171898D01*
X92685000Y75971939D01*
X56885000Y75971939D01*
X56885000Y78466787D01*
X56894604Y78564300D01*
X56856279Y78953428D01*
X56742774Y79327602D01*
X56696271Y79414603D01*
X56558453Y79672443D01*
X56310398Y79974698D01*
X56234655Y80036859D01*
X55606227Y80665287D01*
X78707792Y80665287D01*
X78803556Y80400886D01*
X79093171Y80259996D01*
X79404708Y80178316D01*
X79726195Y80158982D01*
X80045275Y80202739D01*
X80349688Y80307905D01*
X80523644Y80400886D01*
X80619408Y80665287D01*
X79663600Y81621095D01*
X78707792Y80665287D01*
X55606227Y80665287D01*
X54533408Y81738105D01*
X78021882Y81738105D01*
X78065639Y81419025D01*
X78170805Y81114612D01*
X78263786Y80940656D01*
X78528187Y80844892D01*
X79483995Y81800700D01*
X79843205Y81800700D01*
X80799013Y80844892D01*
X81063414Y80940656D01*
X81204304Y81230271D01*
X81285984Y81541808D01*
X81305318Y81863295D01*
X81261561Y82182375D01*
X81156395Y82486788D01*
X81063414Y82660744D01*
X80799013Y82756508D01*
X79843205Y81800700D01*
X79483995Y81800700D01*
X78528187Y82756508D01*
X78263786Y82660744D01*
X78122896Y82371129D01*
X78041216Y82059592D01*
X78021882Y81738105D01*
X54533408Y81738105D01*
X54136159Y82135353D01*
X54136155Y82135358D01*
X53335400Y82936113D01*
X78707792Y82936113D01*
X79663600Y81980305D01*
X80619408Y82936113D01*
X80523644Y83200514D01*
X80234029Y83341404D01*
X79922492Y83423084D01*
X79601005Y83442418D01*
X79281925Y83398661D01*
X78977512Y83293495D01*
X78803556Y83200514D01*
X78707792Y82936113D01*
X53335400Y82936113D01*
X52998256Y83273256D01*
X52771742Y83459152D01*
X52426901Y83643474D01*
X52052727Y83756978D01*
X51663600Y83795303D01*
X51274473Y83756978D01*
X50900299Y83643474D01*
X50555458Y83459152D01*
X50253202Y83211098D01*
X50005148Y82908842D01*
X49820826Y82564001D01*
X49707322Y82189827D01*
X49668997Y81800700D01*
X49707322Y81411573D01*
X49820826Y81037399D01*
X50005148Y80692558D01*
X50191044Y80466044D01*
X51328942Y79328145D01*
X51328947Y79328141D01*
X52915001Y77742086D01*
X52915001Y74712212D01*
X48872567Y78754645D01*
X48810398Y78830398D01*
X48508143Y79078453D01*
X48163302Y79262774D01*
X47789128Y79376278D01*
X47497510Y79405000D01*
X47497503Y79405000D01*
X47400000Y79414603D01*
X47302497Y79405000D01*
X42896809Y79405000D01*
X42732756Y79472953D01*
X42320279Y79555000D01*
X41899721Y79555000D01*
X41487244Y79472953D01*
X41098698Y79312012D01*
X40749017Y79078363D01*
X40451637Y78780983D01*
X40217988Y78431302D01*
X40057047Y78042756D01*
X39975000Y77630279D01*
X39526200Y77630279D01*
X39526200Y78788988D01*
X41019141Y80281928D01*
X43610000Y80281928D01*
X43734482Y80294188D01*
X43854180Y80330498D01*
X43964494Y80389463D01*
X44061185Y80468815D01*
X44140537Y80565506D01*
X44199502Y80675820D01*
X44235812Y80795518D01*
X44248072Y80920000D01*
X44248072Y83920000D01*
X44235812Y84044482D01*
X44199502Y84164180D01*
X44140537Y84274494D01*
X44061185Y84371185D01*
X43964494Y84450537D01*
X43854180Y84509502D01*
X43734482Y84545812D01*
X43610000Y84558072D01*
X40610000Y84558072D01*
X40485518Y84545812D01*
X40365820Y84509502D01*
X40255506Y84450537D01*
X40192863Y84399127D01*
X39960872Y84376278D01*
X39586698Y84262774D01*
X39241857Y84078453D01*
X38939602Y83830398D01*
X38877441Y83754655D01*
X36206550Y81083762D01*
X36130803Y81021598D01*
X35882748Y80719343D01*
X35859485Y80675820D01*
X35698426Y80374501D01*
X35584922Y80000327D01*
X35546597Y79611200D01*
X34975000Y79611200D01*
X34975000Y85040000D01*
X124410000Y85040000D01*
X124410001Y29895000D01*
G36*
X65862200Y38811200D02*
G01*
X65873226Y38811200D01*
X65870200Y38795988D01*
X65870200Y38572412D01*
X65873226Y38557200D01*
X65862200Y38557200D01*
X65862200Y38546174D01*
X65846988Y38549200D01*
X65623412Y38549200D01*
X65608200Y38546174D01*
X65608200Y38557200D01*
X65588200Y38557200D01*
X65588200Y38732398D01*
X65675002Y38819200D01*
X65846988Y38819200D01*
X65862200Y38822226D01*
X65862200Y38811200D01*
G37*
X65862200Y38811200D02*
X65873226Y38811200D01*
X65870200Y38795988D01*
X65870200Y38572412D01*
X65873226Y38557200D01*
X65862200Y38557200D01*
X65862200Y38546174D01*
X65846988Y38549200D01*
X65623412Y38549200D01*
X65608200Y38546174D01*
X65608200Y38557200D01*
X65588200Y38557200D01*
X65588200Y38732398D01*
X65675002Y38819200D01*
X65846988Y38819200D01*
X65862200Y38822226D01*
X65862200Y38811200D01*
G36*
X91427980Y49792809D02*
G01*
X91597498Y49679541D01*
X91785856Y49601520D01*
X91985815Y49561746D01*
X92189693Y49561746D01*
X92389652Y49601520D01*
X92578010Y49679541D01*
X92747528Y49792809D01*
X92791465Y49836746D01*
X103727155Y49836746D01*
X104720911Y48842990D01*
X104527114Y48713499D01*
X104334201Y48520586D01*
X104182629Y48293743D01*
X104140000Y48190827D01*
X104097371Y48293743D01*
X103945799Y48520586D01*
X103752886Y48713499D01*
X103526043Y48865071D01*
X103273989Y48969475D01*
X103006411Y49022700D01*
X102733589Y49022700D01*
X102466011Y48969475D01*
X102213957Y48865071D01*
X101987114Y48713499D01*
X101794201Y48520586D01*
X101642629Y48293743D01*
X101600000Y48190827D01*
X101557371Y48293743D01*
X101405799Y48520586D01*
X101212886Y48713499D01*
X100986043Y48865071D01*
X100733989Y48969475D01*
X100466411Y49022700D01*
X100193589Y49022700D01*
X99926011Y48969475D01*
X99673957Y48865071D01*
X99447114Y48713499D01*
X99254201Y48520586D01*
X99102629Y48293743D01*
X99060000Y48190827D01*
X99017371Y48293743D01*
X98865799Y48520586D01*
X98672886Y48713499D01*
X98446043Y48865071D01*
X98193989Y48969475D01*
X97926411Y49022700D01*
X97653589Y49022700D01*
X97386011Y48969475D01*
X97133957Y48865071D01*
X96907114Y48713499D01*
X96714201Y48520586D01*
X96562629Y48293743D01*
X96520000Y48190827D01*
X96477371Y48293743D01*
X96325799Y48520586D01*
X96132886Y48713499D01*
X95906043Y48865071D01*
X95653989Y48969475D01*
X95386411Y49022700D01*
X95113589Y49022700D01*
X94846011Y48969475D01*
X94593957Y48865071D01*
X94367114Y48713499D01*
X94174201Y48520586D01*
X94096445Y48404217D01*
X94085812Y48512182D01*
X94049502Y48631880D01*
X93990537Y48742194D01*
X93911185Y48838885D01*
X93814494Y48918237D01*
X93704180Y48977202D01*
X93584482Y49013512D01*
X93460000Y49025772D01*
X91960000Y49025772D01*
X91835518Y49013512D01*
X91715820Y48977202D01*
X91605506Y48918237D01*
X91508815Y48838885D01*
X91429463Y48742194D01*
X91370498Y48631880D01*
X91334188Y48512182D01*
X91321928Y48387700D01*
X91321928Y46887700D01*
X91334188Y46763218D01*
X91370498Y46643520D01*
X91429463Y46533206D01*
X91508815Y46436515D01*
X91605506Y46357163D01*
X91715820Y46298198D01*
X91835518Y46261888D01*
X91960000Y46249628D01*
X93460000Y46249628D01*
X93584482Y46261888D01*
X93704180Y46298198D01*
X93814494Y46357163D01*
X93911185Y46436515D01*
X93990537Y46533206D01*
X94049502Y46643520D01*
X94085812Y46763218D01*
X94096445Y46871183D01*
X94174201Y46754814D01*
X94367114Y46561901D01*
X94593957Y46410329D01*
X94846011Y46305925D01*
X95113589Y46252700D01*
X95386411Y46252700D01*
X95653989Y46305925D01*
X95906043Y46410329D01*
X96132886Y46561901D01*
X96325799Y46754814D01*
X96477371Y46981657D01*
X96520000Y47084573D01*
X96562629Y46981657D01*
X96714201Y46754814D01*
X96907114Y46561901D01*
X97133957Y46410329D01*
X97386011Y46305925D01*
X97653589Y46252700D01*
X97926411Y46252700D01*
X98193989Y46305925D01*
X98446043Y46410329D01*
X98672886Y46561901D01*
X98865799Y46754814D01*
X99017371Y46981657D01*
X99060000Y47084573D01*
X99102629Y46981657D01*
X99254201Y46754814D01*
X99447114Y46561901D01*
X99673957Y46410329D01*
X99926011Y46305925D01*
X100193589Y46252700D01*
X100466411Y46252700D01*
X100733989Y46305925D01*
X100986043Y46410329D01*
X101212886Y46561901D01*
X101405799Y46754814D01*
X101557371Y46981657D01*
X101600000Y47084573D01*
X101642629Y46981657D01*
X101794201Y46754814D01*
X101987114Y46561901D01*
X102213957Y46410329D01*
X102466011Y46305925D01*
X102733589Y46252700D01*
X103006411Y46252700D01*
X103273989Y46305925D01*
X103526043Y46410329D01*
X103752886Y46561901D01*
X103945799Y46754814D01*
X104097371Y46981657D01*
X104140000Y47084573D01*
X104182629Y46981657D01*
X104334201Y46754814D01*
X104527114Y46561901D01*
X104753957Y46410329D01*
X105006011Y46305925D01*
X105273589Y46252700D01*
X105546411Y46252700D01*
X105725001Y46288224D01*
X105725002Y41907535D01*
X105715426Y41901137D01*
X105644244Y41829955D01*
X105586901Y41887298D01*
X105586901Y43617679D01*
X105590577Y43655002D01*
X105586901Y43692325D01*
X105586901Y43692334D01*
X105575904Y43803987D01*
X105532447Y43947248D01*
X105461875Y44079277D01*
X105438763Y44107439D01*
X105390700Y44166005D01*
X105390696Y44166009D01*
X105366902Y44195002D01*
X105337909Y44218796D01*
X104640206Y44916497D01*
X104616404Y44945500D01*
X104500679Y45040473D01*
X104368650Y45111045D01*
X104225389Y45154502D01*
X104113736Y45165499D01*
X104113725Y45165499D01*
X104076403Y45169175D01*
X104039081Y45165499D01*
X101478521Y45165499D01*
X101441198Y45169175D01*
X101403876Y45165499D01*
X101403866Y45165499D01*
X101292213Y45154502D01*
X101148952Y45111045D01*
X101016974Y45040500D01*
X100939261Y45040500D01*
X100739302Y45000726D01*
X100550944Y44922705D01*
X100381426Y44809437D01*
X100237263Y44665274D01*
X100123995Y44495756D01*
X100045974Y44307398D01*
X100006200Y44107439D01*
X100006200Y43903561D01*
X100045974Y43703602D01*
X100123995Y43515244D01*
X100237263Y43345726D01*
X100381426Y43201563D01*
X100550944Y43088295D01*
X100739302Y43010274D01*
X100939261Y42970500D01*
X101143139Y42970500D01*
X101343098Y43010274D01*
X101531456Y43088295D01*
X101700974Y43201563D01*
X101845137Y43345726D01*
X101958405Y43515244D01*
X102012359Y43645499D01*
X103121835Y43645499D01*
X103106674Y43608898D01*
X103066900Y43408939D01*
X103066900Y43346803D01*
X101383013Y41662915D01*
X101337137Y41731574D01*
X101192974Y41875737D01*
X101023456Y41989005D01*
X100835098Y42067026D01*
X100635139Y42106800D01*
X100573002Y42106800D01*
X97840293Y44839508D01*
X97816490Y44868512D01*
X97700765Y44963485D01*
X97568736Y45034057D01*
X97425475Y45077514D01*
X97313822Y45088511D01*
X97313811Y45088511D01*
X97276489Y45092187D01*
X97239167Y45088511D01*
X92658839Y45088511D01*
X92621516Y45092187D01*
X92584193Y45088511D01*
X92584183Y45088511D01*
X92472530Y45077514D01*
X92329269Y45034057D01*
X92197239Y44963485D01*
X92127551Y44906293D01*
X92081515Y44868512D01*
X92057717Y44839514D01*
X91131126Y43912922D01*
X91026379Y43912922D01*
X89482991Y45456308D01*
X89459189Y45485311D01*
X89343464Y45580284D01*
X89211435Y45650856D01*
X89068174Y45694313D01*
X88956521Y45705310D01*
X88956510Y45705310D01*
X88919188Y45708986D01*
X88881866Y45705310D01*
X83184809Y45705310D01*
X83938100Y46458600D01*
X85745189Y46458600D01*
X85789126Y46414663D01*
X85958644Y46301395D01*
X86147002Y46223374D01*
X86346961Y46183600D01*
X86550839Y46183600D01*
X86750798Y46223374D01*
X86939156Y46301395D01*
X87108674Y46414663D01*
X87252837Y46558826D01*
X87364071Y46725300D01*
X87913680Y46725300D01*
X87951002Y46721624D01*
X87988324Y46725300D01*
X87988335Y46725300D01*
X88099988Y46736297D01*
X88243249Y46779754D01*
X88375278Y46850326D01*
X88491003Y46945299D01*
X88514806Y46974303D01*
X91380646Y49840143D01*
X91427980Y49792809D01*
G37*
X91427980Y49792809D02*
X91597498Y49679541D01*
X91785856Y49601520D01*
X91985815Y49561746D01*
X92189693Y49561746D01*
X92389652Y49601520D01*
X92578010Y49679541D01*
X92747528Y49792809D01*
X92791465Y49836746D01*
X103727155Y49836746D01*
X104720911Y48842990D01*
X104527114Y48713499D01*
X104334201Y48520586D01*
X104182629Y48293743D01*
X104140000Y48190827D01*
X104097371Y48293743D01*
X103945799Y48520586D01*
X103752886Y48713499D01*
X103526043Y48865071D01*
X103273989Y48969475D01*
X103006411Y49022700D01*
X102733589Y49022700D01*
X102466011Y48969475D01*
X102213957Y48865071D01*
X101987114Y48713499D01*
X101794201Y48520586D01*
X101642629Y48293743D01*
X101600000Y48190827D01*
X101557371Y48293743D01*
X101405799Y48520586D01*
X101212886Y48713499D01*
X100986043Y48865071D01*
X100733989Y48969475D01*
X100466411Y49022700D01*
X100193589Y49022700D01*
X99926011Y48969475D01*
X99673957Y48865071D01*
X99447114Y48713499D01*
X99254201Y48520586D01*
X99102629Y48293743D01*
X99060000Y48190827D01*
X99017371Y48293743D01*
X98865799Y48520586D01*
X98672886Y48713499D01*
X98446043Y48865071D01*
X98193989Y48969475D01*
X97926411Y49022700D01*
X97653589Y49022700D01*
X97386011Y48969475D01*
X97133957Y48865071D01*
X96907114Y48713499D01*
X96714201Y48520586D01*
X96562629Y48293743D01*
X96520000Y48190827D01*
X96477371Y48293743D01*
X96325799Y48520586D01*
X96132886Y48713499D01*
X95906043Y48865071D01*
X95653989Y48969475D01*
X95386411Y49022700D01*
X95113589Y49022700D01*
X94846011Y48969475D01*
X94593957Y48865071D01*
X94367114Y48713499D01*
X94174201Y48520586D01*
X94096445Y48404217D01*
X94085812Y48512182D01*
X94049502Y48631880D01*
X93990537Y48742194D01*
X93911185Y48838885D01*
X93814494Y48918237D01*
X93704180Y48977202D01*
X93584482Y49013512D01*
X93460000Y49025772D01*
X91960000Y49025772D01*
X91835518Y49013512D01*
X91715820Y48977202D01*
X91605506Y48918237D01*
X91508815Y48838885D01*
X91429463Y48742194D01*
X91370498Y48631880D01*
X91334188Y48512182D01*
X91321928Y48387700D01*
X91321928Y46887700D01*
X91334188Y46763218D01*
X91370498Y46643520D01*
X91429463Y46533206D01*
X91508815Y46436515D01*
X91605506Y46357163D01*
X91715820Y46298198D01*
X91835518Y46261888D01*
X91960000Y46249628D01*
X93460000Y46249628D01*
X93584482Y46261888D01*
X93704180Y46298198D01*
X93814494Y46357163D01*
X93911185Y46436515D01*
X93990537Y46533206D01*
X94049502Y46643520D01*
X94085812Y46763218D01*
X94096445Y46871183D01*
X94174201Y46754814D01*
X94367114Y46561901D01*
X94593957Y46410329D01*
X94846011Y46305925D01*
X95113589Y46252700D01*
X95386411Y46252700D01*
X95653989Y46305925D01*
X95906043Y46410329D01*
X96132886Y46561901D01*
X96325799Y46754814D01*
X96477371Y46981657D01*
X96520000Y47084573D01*
X96562629Y46981657D01*
X96714201Y46754814D01*
X96907114Y46561901D01*
X97133957Y46410329D01*
X97386011Y46305925D01*
X97653589Y46252700D01*
X97926411Y46252700D01*
X98193989Y46305925D01*
X98446043Y46410329D01*
X98672886Y46561901D01*
X98865799Y46754814D01*
X99017371Y46981657D01*
X99060000Y47084573D01*
X99102629Y46981657D01*
X99254201Y46754814D01*
X99447114Y46561901D01*
X99673957Y46410329D01*
X99926011Y46305925D01*
X100193589Y46252700D01*
X100466411Y46252700D01*
X100733989Y46305925D01*
X100986043Y46410329D01*
X101212886Y46561901D01*
X101405799Y46754814D01*
X101557371Y46981657D01*
X101600000Y47084573D01*
X101642629Y46981657D01*
X101794201Y46754814D01*
X101987114Y46561901D01*
X102213957Y46410329D01*
X102466011Y46305925D01*
X102733589Y46252700D01*
X103006411Y46252700D01*
X103273989Y46305925D01*
X103526043Y46410329D01*
X103752886Y46561901D01*
X103945799Y46754814D01*
X104097371Y46981657D01*
X104140000Y47084573D01*
X104182629Y46981657D01*
X104334201Y46754814D01*
X104527114Y46561901D01*
X104753957Y46410329D01*
X105006011Y46305925D01*
X105273589Y46252700D01*
X105546411Y46252700D01*
X105725001Y46288224D01*
X105725002Y41907535D01*
X105715426Y41901137D01*
X105644244Y41829955D01*
X105586901Y41887298D01*
X105586901Y43617679D01*
X105590577Y43655002D01*
X105586901Y43692325D01*
X105586901Y43692334D01*
X105575904Y43803987D01*
X105532447Y43947248D01*
X105461875Y44079277D01*
X105438763Y44107439D01*
X105390700Y44166005D01*
X105390696Y44166009D01*
X105366902Y44195002D01*
X105337909Y44218796D01*
X104640206Y44916497D01*
X104616404Y44945500D01*
X104500679Y45040473D01*
X104368650Y45111045D01*
X104225389Y45154502D01*
X104113736Y45165499D01*
X104113725Y45165499D01*
X104076403Y45169175D01*
X104039081Y45165499D01*
X101478521Y45165499D01*
X101441198Y45169175D01*
X101403876Y45165499D01*
X101403866Y45165499D01*
X101292213Y45154502D01*
X101148952Y45111045D01*
X101016974Y45040500D01*
X100939261Y45040500D01*
X100739302Y45000726D01*
X100550944Y44922705D01*
X100381426Y44809437D01*
X100237263Y44665274D01*
X100123995Y44495756D01*
X100045974Y44307398D01*
X100006200Y44107439D01*
X100006200Y43903561D01*
X100045974Y43703602D01*
X100123995Y43515244D01*
X100237263Y43345726D01*
X100381426Y43201563D01*
X100550944Y43088295D01*
X100739302Y43010274D01*
X100939261Y42970500D01*
X101143139Y42970500D01*
X101343098Y43010274D01*
X101531456Y43088295D01*
X101700974Y43201563D01*
X101845137Y43345726D01*
X101958405Y43515244D01*
X102012359Y43645499D01*
X103121835Y43645499D01*
X103106674Y43608898D01*
X103066900Y43408939D01*
X103066900Y43346803D01*
X101383013Y41662915D01*
X101337137Y41731574D01*
X101192974Y41875737D01*
X101023456Y41989005D01*
X100835098Y42067026D01*
X100635139Y42106800D01*
X100573002Y42106800D01*
X97840293Y44839508D01*
X97816490Y44868512D01*
X97700765Y44963485D01*
X97568736Y45034057D01*
X97425475Y45077514D01*
X97313822Y45088511D01*
X97313811Y45088511D01*
X97276489Y45092187D01*
X97239167Y45088511D01*
X92658839Y45088511D01*
X92621516Y45092187D01*
X92584193Y45088511D01*
X92584183Y45088511D01*
X92472530Y45077514D01*
X92329269Y45034057D01*
X92197239Y44963485D01*
X92127551Y44906293D01*
X92081515Y44868512D01*
X92057717Y44839514D01*
X91131126Y43912922D01*
X91026379Y43912922D01*
X89482991Y45456308D01*
X89459189Y45485311D01*
X89343464Y45580284D01*
X89211435Y45650856D01*
X89068174Y45694313D01*
X88956521Y45705310D01*
X88956510Y45705310D01*
X88919188Y45708986D01*
X88881866Y45705310D01*
X83184809Y45705310D01*
X83938100Y46458600D01*
X85745189Y46458600D01*
X85789126Y46414663D01*
X85958644Y46301395D01*
X86147002Y46223374D01*
X86346961Y46183600D01*
X86550839Y46183600D01*
X86750798Y46223374D01*
X86939156Y46301395D01*
X87108674Y46414663D01*
X87252837Y46558826D01*
X87364071Y46725300D01*
X87913680Y46725300D01*
X87951002Y46721624D01*
X87988324Y46725300D01*
X87988335Y46725300D01*
X88099988Y46736297D01*
X88243249Y46779754D01*
X88375278Y46850326D01*
X88491003Y46945299D01*
X88514806Y46974303D01*
X91380646Y49840143D01*
X91427980Y49792809D01*
G36*
X94561395Y43070744D02*
G01*
X94674663Y42901226D01*
X94818826Y42757063D01*
X94988344Y42643795D01*
X95176702Y42565774D01*
X95376661Y42526000D01*
X95580539Y42526000D01*
X95780498Y42565774D01*
X95903904Y42616891D01*
X94966790Y41679777D01*
X94907465Y41768564D01*
X94763302Y41912727D01*
X94593784Y42025995D01*
X94405426Y42104016D01*
X94205467Y42143790D01*
X94143330Y42143790D01*
X93228700Y43058419D01*
X93228700Y43118500D01*
X94541614Y43118500D01*
X94561395Y43070744D01*
G37*
X94561395Y43070744D02*
X94674663Y42901226D01*
X94818826Y42757063D01*
X94988344Y42643795D01*
X95176702Y42565774D01*
X95376661Y42526000D01*
X95580539Y42526000D01*
X95780498Y42565774D01*
X95903904Y42616891D01*
X94966790Y41679777D01*
X94907465Y41768564D01*
X94763302Y41912727D01*
X94593784Y42025995D01*
X94405426Y42104016D01*
X94205467Y42143790D01*
X94143330Y42143790D01*
X93228700Y43058419D01*
X93228700Y43118500D01*
X94541614Y43118500D01*
X94561395Y43070744D01*
G36*
X98686808Y41843390D02*
G01*
X98138491Y41843390D01*
X98188326Y41963702D01*
X98228100Y42163661D01*
X98228100Y42302099D01*
X98686808Y41843390D01*
G37*
X98686808Y41843390D02*
X98138491Y41843390D01*
X98188326Y41963702D01*
X98228100Y42163661D01*
X98228100Y42302099D01*
X98686808Y41843390D01*
M02*
